<?xml version="1.0" encoding="UTF-8" standalone="no"?>
<!DOCTYPE svg PUBLIC "-//W3C//DTD SVG 1.1//EN"
 "http://www.w3.org/Graphics/SVG/1.1/DTD/svg11.dtd">
<!-- Generated by graphviz version 2.38.0 (20140413.2041)
 -->
<!-- Title: /home/lemniscate/workspace/PFPSim/pfpsim/core/debugger/Breakpoint.h Pages: 1 -->
<svg width="348pt" height="418pt"
 viewBox="0.00 0.00 348.00 418.00" xmlns="http://www.w3.org/2000/svg" xmlns:xlink="http://www.w3.org/1999/xlink">
<g id="graph0" class="graph" transform="scale(1 1) rotate(0) translate(4 414)">
<title>/home/lemniscate/workspace/PFPSim/pfpsim/core/debugger/Breakpoint.h</title>
<polygon fill="white" stroke="none" points="-4,4 -4,-414 344,-414 344,4 -4,4"/>
<!-- Node1 -->
<g id="node1" class="node"><title>Node1</title>
<polygon fill="#bfbfbf" stroke="black" points="89,-368.5 89,-409.5 250,-409.5 250,-368.5 89,-368.5"/>
<text text-anchor="start" x="97" y="-397.5" font-family="Helvetica,sans-Serif" font-size="10.00">/home/lemniscate/workspace</text>
<text text-anchor="start" x="97" y="-386.5" font-family="Helvetica,sans-Serif" font-size="10.00">/PFPSim/pfpsim/core/debugger</text>
<text text-anchor="middle" x="169.5" y="-375.5" font-family="Helvetica,sans-Serif" font-size="10.00">/Breakpoint.h</text>
</g>
<!-- Node2 -->
<g id="node2" class="node"><title>Node2</title>
<g id="a_node2"><a xlink:href="DebugDataManager_8h.html" target="_top" xlink:title="Defines class which stores any data about taht simulation that is required by pfpdb. ">
<polygon fill="white" stroke="black" points="179,-290.5 179,-331.5 340,-331.5 340,-290.5 179,-290.5"/>
<text text-anchor="start" x="187" y="-319.5" font-family="Helvetica,sans-Serif" font-size="10.00">/home/lemniscate/workspace</text>
<text text-anchor="start" x="187" y="-308.5" font-family="Helvetica,sans-Serif" font-size="10.00">/PFPSim/pfpsim/core/debugger</text>
<text text-anchor="middle" x="259.5" y="-297.5" font-family="Helvetica,sans-Serif" font-size="10.00">/DebugDataManager.h</text>
</a>
</g>
</g>
<!-- Node1&#45;&gt;Node2 -->
<g id="edge1" class="edge"><title>Node1&#45;&gt;Node2</title>
<path fill="none" stroke="midnightblue" d="M200.552,-361.779C212.317,-351.843 225.494,-340.716 236.401,-331.506"/>
<polygon fill="midnightblue" stroke="midnightblue" points="198.059,-359.302 192.677,-368.428 202.576,-364.65 198.059,-359.302"/>
</g>
<!-- Node7 -->
<g id="node7" class="node"><title>Node7</title>
<g id="a_node7"><a xlink:href="DebuggerMessages_8h.html" target="_top" xlink:title="Defines the message objects that can be sent as replies to pfpdb through the DebuggerIPCServer. ">
<polygon fill="white" stroke="black" points="0,-290.5 0,-331.5 161,-331.5 161,-290.5 0,-290.5"/>
<text text-anchor="start" x="8" y="-319.5" font-family="Helvetica,sans-Serif" font-size="10.00">/home/lemniscate/workspace</text>
<text text-anchor="start" x="8" y="-308.5" font-family="Helvetica,sans-Serif" font-size="10.00">/PFPSim/pfpsim/core/debugger</text>
<text text-anchor="middle" x="80.5" y="-297.5" font-family="Helvetica,sans-Serif" font-size="10.00">/DebuggerMessages.h</text>
</a>
</g>
</g>
<!-- Node1&#45;&gt;Node7 -->
<g id="edge7" class="edge"><title>Node1&#45;&gt;Node7</title>
<path fill="none" stroke="midnightblue" d="M138.793,-361.779C127.159,-351.843 114.128,-340.716 103.342,-331.506"/>
<polygon fill="midnightblue" stroke="midnightblue" points="136.703,-364.596 146.58,-368.428 141.249,-359.273 136.703,-364.596"/>
</g>
<!-- Node3 -->
<g id="node3" class="node"><title>Node3</title>
<g id="a_node3"><a xlink:href="DebuggerIPCServer_8h.html" target="_top" xlink:title="Defines class that services requests from pfpdb. ">
<polygon fill="white" stroke="black" points="70,-212.5 70,-253.5 231,-253.5 231,-212.5 70,-212.5"/>
<text text-anchor="start" x="78" y="-241.5" font-family="Helvetica,sans-Serif" font-size="10.00">/home/lemniscate/workspace</text>
<text text-anchor="start" x="78" y="-230.5" font-family="Helvetica,sans-Serif" font-size="10.00">/PFPSim/pfpsim/core/debugger</text>
<text text-anchor="middle" x="150.5" y="-219.5" font-family="Helvetica,sans-Serif" font-size="10.00">/DebuggerIPCServer.h</text>
</a>
</g>
</g>
<!-- Node2&#45;&gt;Node3 -->
<g id="edge2" class="edge"><title>Node2&#45;&gt;Node3</title>
<path fill="none" stroke="midnightblue" d="M223.122,-284.635C208.567,-274.487 192.066,-262.982 178.475,-253.506"/>
<polygon fill="midnightblue" stroke="midnightblue" points="221.225,-287.58 231.43,-290.428 225.229,-281.838 221.225,-287.58"/>
</g>
<!-- Node4 -->
<g id="node4" class="node"><title>Node4</title>
<g id="a_node4"><a xlink:href="DebugObserver_8h.html" target="_top" xlink:title="Observer for simulation which maintains a record of the simulation via the DebugDataManager so that t...">
<polygon fill="white" stroke="black" points="124,-134.5 124,-175.5 285,-175.5 285,-134.5 124,-134.5"/>
<text text-anchor="start" x="132" y="-163.5" font-family="Helvetica,sans-Serif" font-size="10.00">/home/lemniscate/workspace</text>
<text text-anchor="start" x="132" y="-152.5" font-family="Helvetica,sans-Serif" font-size="10.00">/PFPSim/pfpsim/core/debugger</text>
<text text-anchor="middle" x="204.5" y="-141.5" font-family="Helvetica,sans-Serif" font-size="10.00">/DebugObserver.h</text>
</a>
</g>
</g>
<!-- Node2&#45;&gt;Node4 -->
<g id="edge6" class="edge"><title>Node2&#45;&gt;Node4</title>
<path fill="none" stroke="midnightblue" d="M256.7,-280.215C254.121,-260.35 249.304,-233.952 240.5,-212 235.337,-199.127 227.104,-186.018 219.814,-175.722"/>
<polygon fill="midnightblue" stroke="midnightblue" points="253.234,-280.708 257.883,-290.228 260.185,-279.887 253.234,-280.708"/>
</g>
<!-- Node3&#45;&gt;Node4 -->
<g id="edge3" class="edge"><title>Node3&#45;&gt;Node4</title>
<path fill="none" stroke="midnightblue" d="M170.361,-204.048C177.098,-194.566 184.474,-184.185 190.641,-175.506"/>
<polygon fill="midnightblue" stroke="midnightblue" points="167.345,-202.249 164.406,-212.428 173.052,-206.304 167.345,-202.249"/>
</g>
<!-- Node5 -->
<g id="node5" class="node"><title>Node5</title>
<g id="a_node5"><a xlink:href="DebuggerUtilities_8h_source.html" target="_top" xlink:title="/home/lemniscate/workspace\l/PFPSim/pfpsim/core/DebuggerUtilities.h">
<polygon fill="white" stroke="black" points="102,-67.5 102,-97.5 307,-97.5 307,-67.5 102,-67.5"/>
<text text-anchor="start" x="110" y="-85.5" font-family="Helvetica,sans-Serif" font-size="10.00">/home/lemniscate/workspace</text>
<text text-anchor="middle" x="204.5" y="-74.5" font-family="Helvetica,sans-Serif" font-size="10.00">/PFPSim/pfpsim/core/DebuggerUtilities.h</text>
</a>
</g>
</g>
<!-- Node4&#45;&gt;Node5 -->
<g id="edge4" class="edge"><title>Node4&#45;&gt;Node5</title>
<path fill="none" stroke="midnightblue" d="M204.5,-124.08C204.5,-115.006 204.5,-105.45 204.5,-97.8916"/>
<polygon fill="midnightblue" stroke="midnightblue" points="201,-124.362 204.5,-134.362 208,-124.362 201,-124.362"/>
</g>
<!-- Node6 -->
<g id="node6" class="node"><title>Node6</title>
<g id="a_node6"><a xlink:href="pfpsim_8h_source.html" target="_top" xlink:title="/home/lemniscate/workspace\l/PFPSim/pfpsim/pfpsim.h">
<polygon fill="white" stroke="black" points="128,-0.5 128,-30.5 281,-30.5 281,-0.5 128,-0.5"/>
<text text-anchor="start" x="136" y="-18.5" font-family="Helvetica,sans-Serif" font-size="10.00">/home/lemniscate/workspace</text>
<text text-anchor="middle" x="204.5" y="-7.5" font-family="Helvetica,sans-Serif" font-size="10.00">/PFPSim/pfpsim/pfpsim.h</text>
</a>
</g>
</g>
<!-- Node5&#45;&gt;Node6 -->
<g id="edge5" class="edge"><title>Node5&#45;&gt;Node6</title>
<path fill="none" stroke="midnightblue" d="M204.5,-57.1081C204.5,-48.1539 204.5,-38.3227 204.5,-30.5765"/>
<polygon fill="midnightblue" stroke="midnightblue" points="201,-57.3959 204.5,-67.396 208,-57.396 201,-57.3959"/>
</g>
<!-- Node7&#45;&gt;Node3 -->
<g id="edge8" class="edge"><title>Node7&#45;&gt;Node3</title>
<path fill="none" stroke="midnightblue" d="M105.446,-282.916C114.392,-273.203 124.296,-262.45 132.534,-253.506"/>
<polygon fill="midnightblue" stroke="midnightblue" points="102.727,-280.701 98.5267,-290.428 107.876,-285.444 102.727,-280.701"/>
</g>
</g>
</svg>
