<?xml version="1.0" encoding="UTF-8" standalone="no"?>
<!DOCTYPE svg PUBLIC "-//W3C//DTD SVG 1.1//EN"
 "http://www.w3.org/Graphics/SVG/1.1/DTD/svg11.dtd">
<!-- Generated by graphviz version 2.38.0 (20140413.2041)
 -->
<!-- Title: /home/lemniscate/workspace/PFPSim/pfpsim/core/debugger/Breakpoint.h Pages: 1 -->
<svg width="181pt" height="106pt"
 viewBox="0.00 0.00 181.00 106.00" xmlns="http://www.w3.org/2000/svg" xmlns:xlink="http://www.w3.org/1999/xlink">
<g id="graph0" class="graph" transform="scale(1 1) rotate(0) translate(4 102)">
<title>/home/lemniscate/workspace/PFPSim/pfpsim/core/debugger/Breakpoint.h</title>
<polygon fill="white" stroke="none" points="-4,4 -4,-102 177,-102 177,4 -4,4"/>
<!-- Node1 -->
<g id="node1" class="node"><title>Node1</title>
<polygon fill="#bfbfbf" stroke="black" points="9,-56.5 9,-97.5 170,-97.5 170,-56.5 9,-56.5"/>
<text text-anchor="start" x="17" y="-85.5" font-family="Helvetica,sans-Serif" font-size="10.00">/home/lemniscate/workspace</text>
<text text-anchor="start" x="17" y="-74.5" font-family="Helvetica,sans-Serif" font-size="10.00">/PFPSim/pfpsim/core/debugger</text>
<text text-anchor="middle" x="89.5" y="-63.5" font-family="Helvetica,sans-Serif" font-size="10.00">/Breakpoint.h</text>
</g>
<!-- Node2 -->
<g id="node2" class="node"><title>Node2</title>
<polygon fill="white" stroke="#bfbfbf" points="0,-0.5 0,-19.5 43,-19.5 43,-0.5 0,-0.5"/>
<text text-anchor="middle" x="21.5" y="-7.5" font-family="Helvetica,sans-Serif" font-size="10.00">string</text>
</g>
<!-- Node1&#45;&gt;Node2 -->
<g id="edge1" class="edge"><title>Node1&#45;&gt;Node2</title>
<path fill="none" stroke="midnightblue" d="M69.0978,-56.4979C59.1733,-47.0113 47.3982,-35.7557 38.0429,-26.8131"/>
<polygon fill="midnightblue" stroke="midnightblue" points="40.199,-24.0323 30.5518,-19.6525 35.3621,-29.0924 40.199,-24.0323"/>
</g>
<!-- Node3 -->
<g id="node3" class="node"><title>Node3</title>
<polygon fill="white" stroke="#bfbfbf" points="61,-0.5 61,-19.5 118,-19.5 118,-0.5 61,-0.5"/>
<text text-anchor="middle" x="89.5" y="-7.5" font-family="Helvetica,sans-Serif" font-size="10.00">iostream</text>
</g>
<!-- Node1&#45;&gt;Node3 -->
<g id="edge2" class="edge"><title>Node1&#45;&gt;Node3</title>
<path fill="none" stroke="midnightblue" d="M89.5,-56.4979C89.5,-48.0653 89.5,-38.2351 89.5,-29.874"/>
<polygon fill="midnightblue" stroke="midnightblue" points="93.0001,-29.6525 89.5,-19.6525 86.0001,-29.6525 93.0001,-29.6525"/>
</g>
<!-- Node4 -->
<g id="node4" class="node"><title>Node4</title>
<polygon fill="white" stroke="#bfbfbf" points="136,-0.5 136,-19.5 173,-19.5 173,-0.5 136,-0.5"/>
<text text-anchor="middle" x="154.5" y="-7.5" font-family="Helvetica,sans-Serif" font-size="10.00">map</text>
</g>
<!-- Node1&#45;&gt;Node4 -->
<g id="edge3" class="edge"><title>Node1&#45;&gt;Node4</title>
<path fill="none" stroke="midnightblue" d="M109.002,-56.4979C118.489,-47.0113 129.744,-35.7557 138.687,-26.8131"/>
<polygon fill="midnightblue" stroke="midnightblue" points="141.251,-29.1985 145.848,-19.6525 136.302,-24.2487 141.251,-29.1985"/>
</g>
</g>
</svg>
