<?xml version="1.0" encoding="UTF-8" standalone="no"?>
<!DOCTYPE svg PUBLIC "-//W3C//DTD SVG 1.1//EN"
 "http://www.w3.org/Graphics/SVG/1.1/DTD/svg11.dtd">
<!-- Generated by graphviz version 2.38.0 (20140413.2041)
 -->
<!-- Title: pfp::core::db::DebugObserver::counter_updated Pages: 1 -->
<svg width="367pt" height="186pt"
 viewBox="0.00 0.00 367.00 186.00" xmlns="http://www.w3.org/2000/svg" xmlns:xlink="http://www.w3.org/1999/xlink">
<g id="graph0" class="graph" transform="scale(1 1) rotate(0) translate(4 182)">
<title>pfp::core::db::DebugObserver::counter_updated</title>
<polygon fill="white" stroke="none" points="-4,4 -4,-182 363,-182 363,4 -4,4"/>
<!-- Node1 -->
<g id="node1" class="node"><title>Node1</title>
<polygon fill="#bfbfbf" stroke="black" points="0,-73.5 0,-103.5 151,-103.5 151,-73.5 0,-73.5"/>
<text text-anchor="start" x="8" y="-91.5" font-family="Helvetica,sans-Serif" font-size="10.00">pfp::core::db::DebugObserver</text>
<text text-anchor="middle" x="75.5" y="-80.5" font-family="Helvetica,sans-Serif" font-size="10.00">::counter_updated</text>
</g>
<!-- Node2 -->
<g id="node2" class="node"><title>Node2</title>
<g id="a_node2"><a xlink:href="classpfp_1_1core_1_1db_1_1DebugDataManager.html#a69b2ba1bab0096faad5f2c6b1d263a8c" target="_top" xlink:title="Get the value of a counter. ">
<polygon fill="white" stroke="black" points="201.5,-147.5 201.5,-177.5 344.5,-177.5 344.5,-147.5 201.5,-147.5"/>
<text text-anchor="start" x="209.5" y="-165.5" font-family="Helvetica,sans-Serif" font-size="10.00">pfp::core::db::DebugData</text>
<text text-anchor="middle" x="273" y="-154.5" font-family="Helvetica,sans-Serif" font-size="10.00">Manager::getCounterValue</text>
</a>
</g>
</g>
<!-- Node1&#45;&gt;Node2 -->
<g id="edge1" class="edge"><title>Node1&#45;&gt;Node2</title>
<path fill="none" stroke="midnightblue" d="M106.478,-103.54C128.422,-114.184 159.111,-128.318 187,-138.5 192.537,-140.521 198.327,-142.477 204.17,-144.34"/>
<polygon fill="midnightblue" stroke="midnightblue" points="203.429,-147.775 214.017,-147.386 205.497,-141.087 203.429,-147.775"/>
</g>
<!-- Node3 -->
<g id="node3" class="node"><title>Node3</title>
<g id="a_node3"><a xlink:href="classpfp_1_1core_1_1db_1_1DebugDataManager.html#a5fd70c4c422bda4ce380e0a37a11f01f" target="_top" xlink:title="Update the value of a counter. ">
<polygon fill="white" stroke="black" points="206,-98.5 206,-128.5 340,-128.5 340,-98.5 206,-98.5"/>
<text text-anchor="start" x="214" y="-116.5" font-family="Helvetica,sans-Serif" font-size="10.00">pfp::core::db::DebugData</text>
<text text-anchor="middle" x="273" y="-105.5" font-family="Helvetica,sans-Serif" font-size="10.00">Manager::updateCounter</text>
</a>
</g>
</g>
<!-- Node1&#45;&gt;Node3 -->
<g id="edge2" class="edge"><title>Node1&#45;&gt;Node3</title>
<path fill="none" stroke="midnightblue" d="M151.247,-98.0584C165.873,-99.9288 181.228,-101.892 195.898,-103.768"/>
<polygon fill="midnightblue" stroke="midnightblue" points="195.564,-107.254 205.927,-105.051 196.452,-100.311 195.564,-107.254"/>
</g>
<!-- Node4 -->
<g id="node4" class="node"><title>Node4</title>
<g id="a_node4"><a xlink:href="classpfp_1_1core_1_1db_1_1DebugDataManager.html#a2023ae8a6638064ad4954cab3de6256a" target="_top" xlink:title="Get list of Watchpoints. ">
<polygon fill="white" stroke="black" points="198.5,-49.5 198.5,-79.5 347.5,-79.5 347.5,-49.5 198.5,-49.5"/>
<text text-anchor="start" x="206.5" y="-67.5" font-family="Helvetica,sans-Serif" font-size="10.00">pfp::core::db::DebugData</text>
<text text-anchor="middle" x="273" y="-56.5" font-family="Helvetica,sans-Serif" font-size="10.00">Manager::getWatchpointList</text>
</a>
</g>
</g>
<!-- Node1&#45;&gt;Node4 -->
<g id="edge3" class="edge"><title>Node1&#45;&gt;Node4</title>
<path fill="none" stroke="midnightblue" d="M151.247,-79.3239C163.29,-77.8455 175.826,-76.3065 188.067,-74.8037"/>
<polygon fill="midnightblue" stroke="midnightblue" points="188.764,-78.2445 198.263,-73.5521 187.911,-71.2967 188.764,-78.2445"/>
</g>
<!-- Node5 -->
<g id="node5" class="node"><title>Node5</title>
<g id="a_node5"><a xlink:href="classpfp_1_1core_1_1db_1_1DebuggerIPCServer.html#ab689790660a5111bdfbee8a296fdd9ea" target="_top" xlink:title="Set the message that will be send to pfpdb the next time the simulation is halted. ">
<polygon fill="white" stroke="black" points="187,-0.5 187,-30.5 359,-30.5 359,-0.5 187,-0.5"/>
<text text-anchor="start" x="195" y="-18.5" font-family="Helvetica,sans-Serif" font-size="10.00">pfp::core::db::DebuggerIPCServer</text>
<text text-anchor="middle" x="273" y="-7.5" font-family="Helvetica,sans-Serif" font-size="10.00">::setReplyMessage</text>
</a>
</g>
</g>
<!-- Node1&#45;&gt;Node5 -->
<g id="edge4" class="edge"><title>Node1&#45;&gt;Node5</title>
<path fill="none" stroke="midnightblue" d="M108.47,-73.3602C130.31,-63.3296 160.062,-50.2697 187,-40.5 193.661,-38.0843 200.677,-35.7285 207.704,-33.4893"/>
<polygon fill="midnightblue" stroke="midnightblue" points="208.754,-36.8281 217.261,-30.5134 206.673,-30.1446 208.754,-36.8281"/>
</g>
</g>
</svg>
