<?xml version="1.0" encoding="UTF-8" standalone="no"?>
<!DOCTYPE svg PUBLIC "-//W3C//DTD SVG 1.1//EN"
 "http://www.w3.org/Graphics/SVG/1.1/DTD/svg11.dtd">
<!-- Generated by graphviz version 2.38.0 (20140413.2041)
 -->
<!-- Title: pfp::core::db::DebuggerMessage Pages: 1 -->
<svg width="2920pt" height="215pt"
 viewBox="0.00 0.00 2919.50 215.00" xmlns="http://www.w3.org/2000/svg" xmlns:xlink="http://www.w3.org/1999/xlink">
<g id="graph0" class="graph" transform="scale(1 1) rotate(0) translate(4 211)">
<title>pfp::core::db::DebuggerMessage</title>
<polygon fill="white" stroke="none" points="-4,4 -4,-211 2915.5,-211 2915.5,4 -4,4"/>
<!-- Node1 -->
<g id="node1" class="node"><title>Node1</title>
<polygon fill="#bfbfbf" stroke="black" points="1402,-105.5 1402,-206.5 1569,-206.5 1569,-105.5 1402,-105.5"/>
<text text-anchor="middle" x="1485.5" y="-194.5" font-family="Helvetica,sans-Serif" font-size="10.00">pfp::core::db::DebuggerMessage</text>
<polyline fill="none" stroke="black" points="1402,-187.5 1569,-187.5 "/>
<text text-anchor="start" x="1410" y="-175.5" font-family="Helvetica,sans-Serif" font-size="10.00"># message</text>
<polyline fill="none" stroke="black" points="1402,-168.5 1569,-168.5 "/>
<text text-anchor="start" x="1410" y="-156.5" font-family="Helvetica,sans-Serif" font-size="10.00">+ DebuggerMessage()</text>
<text text-anchor="start" x="1410" y="-145.5" font-family="Helvetica,sans-Serif" font-size="10.00">+ ~DebuggerMessage()</text>
<text text-anchor="start" x="1410" y="-134.5" font-family="Helvetica,sans-Serif" font-size="10.00">+ SerializeToString()</text>
<text text-anchor="start" x="1410" y="-123.5" font-family="Helvetica,sans-Serif" font-size="10.00">+ DebugString()</text>
<text text-anchor="start" x="1410" y="-112.5" font-family="Helvetica,sans-Serif" font-size="10.00">+ type()</text>
</g>
<!-- Node2 -->
<g id="node2" class="node"><title>Node2</title>
<g id="a_node2"><a xlink:href="classpfp_1_1core_1_1db_1_1AllBreakpointValuesMessage.html" target="_top" xlink:title="Message which returns the list of all breakpoints. ">
<polygon fill="white" stroke="black" points="0,-0.5 0,-68.5 171,-68.5 171,-0.5 0,-0.5"/>
<text text-anchor="start" x="8" y="-56.5" font-family="Helvetica,sans-Serif" font-size="10.00">pfp::core::db::AllBreakpoint</text>
<text text-anchor="middle" x="85.5" y="-45.5" font-family="Helvetica,sans-Serif" font-size="10.00">ValuesMessage</text>
<polyline fill="none" stroke="black" points="0,-38.5 171,-38.5 "/>
<text text-anchor="middle" x="85.5" y="-26.5" font-family="Helvetica,sans-Serif" font-size="10.00"> </text>
<polyline fill="none" stroke="black" points="0,-19.5 171,-19.5 "/>
<text text-anchor="start" x="8" y="-7.5" font-family="Helvetica,sans-Serif" font-size="10.00">+ AllBreakpointValuesMessage()</text>
</a>
</g>
</g>
<!-- Node1&#45;&gt;Node2 -->
<g id="edge1" class="edge"><title>Node1&#45;&gt;Node2</title>
<path fill="none" stroke="midnightblue" d="M1391.67,-152.142C1132.81,-143.728 412.47,-116.605 180.5,-69 177.416,-68.3672 174.297,-67.6577 171.161,-66.8855"/>
<polygon fill="none" stroke="midnightblue" points="1391.68,-155.644 1401.79,-152.469 1391.91,-148.648 1391.68,-155.644"/>
</g>
<!-- Node3 -->
<g id="node3" class="node"><title>Node3</title>
<g id="a_node3"><a xlink:href="classpfp_1_1core_1_1db_1_1AllCounterValuesMessage.html" target="_top" xlink:title="Message which returns the value of all the counters. ">
<polygon fill="white" stroke="black" points="189.5,-0.5 189.5,-68.5 347.5,-68.5 347.5,-0.5 189.5,-0.5"/>
<text text-anchor="start" x="197.5" y="-56.5" font-family="Helvetica,sans-Serif" font-size="10.00">pfp::core::db::AllCounter</text>
<text text-anchor="middle" x="268.5" y="-45.5" font-family="Helvetica,sans-Serif" font-size="10.00">ValuesMessage</text>
<polyline fill="none" stroke="black" points="189.5,-38.5 347.5,-38.5 "/>
<text text-anchor="middle" x="268.5" y="-26.5" font-family="Helvetica,sans-Serif" font-size="10.00"> </text>
<polyline fill="none" stroke="black" points="189.5,-19.5 347.5,-19.5 "/>
<text text-anchor="start" x="197.5" y="-7.5" font-family="Helvetica,sans-Serif" font-size="10.00">+ AllCounterValuesMessage()</text>
</a>
</g>
</g>
<!-- Node1&#45;&gt;Node3 -->
<g id="edge2" class="edge"><title>Node1&#45;&gt;Node3</title>
<path fill="none" stroke="midnightblue" d="M1391.67,-151.378C1157.49,-141.773 552.065,-113.319 355.5,-69 352.974,-68.4304 350.423,-67.8012 347.862,-67.122"/>
<polygon fill="none" stroke="midnightblue" points="1391.73,-154.883 1401.86,-151.794 1392.01,-147.889 1391.73,-154.883"/>
</g>
<!-- Node4 -->
<g id="node4" class="node"><title>Node4</title>
<g id="a_node4"><a xlink:href="classpfp_1_1core_1_1db_1_1AllIgnoreModulesMessage.html" target="_top" xlink:title="Message which returns the list of all the modules that are being ignored. ">
<polygon fill="white" stroke="black" points="365,-0.5 365,-68.5 524,-68.5 524,-0.5 365,-0.5"/>
<text text-anchor="start" x="373" y="-56.5" font-family="Helvetica,sans-Serif" font-size="10.00">pfp::core::db::AllIgnore</text>
<text text-anchor="middle" x="444.5" y="-45.5" font-family="Helvetica,sans-Serif" font-size="10.00">ModulesMessage</text>
<polyline fill="none" stroke="black" points="365,-38.5 524,-38.5 "/>
<text text-anchor="middle" x="444.5" y="-26.5" font-family="Helvetica,sans-Serif" font-size="10.00"> </text>
<polyline fill="none" stroke="black" points="365,-19.5 524,-19.5 "/>
<text text-anchor="start" x="373" y="-7.5" font-family="Helvetica,sans-Serif" font-size="10.00">+ AllIgnoreModulesMessage()</text>
</a>
</g>
</g>
<!-- Node1&#45;&gt;Node4 -->
<g id="edge3" class="edge"><title>Node1&#45;&gt;Node4</title>
<path fill="none" stroke="midnightblue" d="M1391.7,-154.981C1219.29,-153.091 841.38,-140.303 532.5,-69 529.792,-68.3749 527.056,-67.6851 524.307,-66.942"/>
<polygon fill="none" stroke="midnightblue" points="1391.72,-158.481 1401.76,-155.081 1391.79,-151.481 1391.72,-158.481"/>
</g>
<!-- Node5 -->
<g id="node5" class="node"><title>Node5</title>
<g id="a_node5"><a xlink:href="classpfp_1_1core_1_1db_1_1AllWatchpointValuesMessage.html" target="_top" xlink:title="Message which returns the list of all the watchpoints. ">
<polygon fill="white" stroke="black" points="542,-0.5 542,-68.5 715,-68.5 715,-0.5 542,-0.5"/>
<text text-anchor="start" x="550" y="-56.5" font-family="Helvetica,sans-Serif" font-size="10.00">pfp::core::db::AllWatchpoint</text>
<text text-anchor="middle" x="628.5" y="-45.5" font-family="Helvetica,sans-Serif" font-size="10.00">ValuesMessage</text>
<polyline fill="none" stroke="black" points="542,-38.5 715,-38.5 "/>
<text text-anchor="middle" x="628.5" y="-26.5" font-family="Helvetica,sans-Serif" font-size="10.00"> </text>
<polyline fill="none" stroke="black" points="542,-19.5 715,-19.5 "/>
<text text-anchor="start" x="550" y="-7.5" font-family="Helvetica,sans-Serif" font-size="10.00">+ AllWatchpointValuesMessage()</text>
</a>
</g>
</g>
<!-- Node1&#45;&gt;Node5 -->
<g id="edge4" class="edge"><title>Node1&#45;&gt;Node5</title>
<path fill="none" stroke="midnightblue" d="M1391.82,-151.14C1247.08,-143.675 961.074,-122.932 724.5,-69 721.402,-68.2938 718.265,-67.5212 715.11,-66.6952"/>
<polygon fill="none" stroke="midnightblue" points="1391.83,-154.645 1402,-151.655 1392.19,-147.654 1391.83,-154.645"/>
</g>
<!-- Node6 -->
<g id="node6" class="node"><title>Node6</title>
<g id="a_node6"><a xlink:href="classpfp_1_1core_1_1db_1_1BacktraceReplyMessage.html" target="_top" xlink:title="Message which returns the backtrace of a packet. ">
<polygon fill="white" stroke="black" points="733.5,-0.5 733.5,-68.5 885.5,-68.5 885.5,-0.5 733.5,-0.5"/>
<text text-anchor="start" x="741.5" y="-56.5" font-family="Helvetica,sans-Serif" font-size="10.00">pfp::core::db::Backtrace</text>
<text text-anchor="middle" x="809.5" y="-45.5" font-family="Helvetica,sans-Serif" font-size="10.00">ReplyMessage</text>
<polyline fill="none" stroke="black" points="733.5,-38.5 885.5,-38.5 "/>
<text text-anchor="middle" x="809.5" y="-26.5" font-family="Helvetica,sans-Serif" font-size="10.00"> </text>
<polyline fill="none" stroke="black" points="733.5,-19.5 885.5,-19.5 "/>
<text text-anchor="start" x="741.5" y="-7.5" font-family="Helvetica,sans-Serif" font-size="10.00">+ BacktraceReplyMessage()</text>
</a>
</g>
</g>
<!-- Node1&#45;&gt;Node6 -->
<g id="edge5" class="edge"><title>Node1&#45;&gt;Node6</title>
<path fill="none" stroke="midnightblue" d="M1391.51,-148.06C1273.77,-137.836 1066.59,-114.773 894.5,-69 891.588,-68.2253 888.639,-67.3811 885.676,-66.482"/>
<polygon fill="none" stroke="midnightblue" points="1391.31,-151.555 1401.57,-148.921 1391.91,-144.581 1391.31,-151.555"/>
</g>
<!-- Node7 -->
<g id="node7" class="node"><title>Node7</title>
<g id="a_node7"><a xlink:href="classpfp_1_1core_1_1db_1_1BreakpointHitMessage.html" target="_top" xlink:title="Message which indicates that a breakpoint has been hit. ">
<polygon fill="white" stroke="black" points="904,-0.5 904,-68.5 1045,-68.5 1045,-0.5 904,-0.5"/>
<text text-anchor="start" x="912" y="-56.5" font-family="Helvetica,sans-Serif" font-size="10.00">pfp::core::db::Breakpoint</text>
<text text-anchor="middle" x="974.5" y="-45.5" font-family="Helvetica,sans-Serif" font-size="10.00">HitMessage</text>
<polyline fill="none" stroke="black" points="904,-38.5 1045,-38.5 "/>
<text text-anchor="middle" x="974.5" y="-26.5" font-family="Helvetica,sans-Serif" font-size="10.00"> </text>
<polyline fill="none" stroke="black" points="904,-19.5 1045,-19.5 "/>
<text text-anchor="start" x="912" y="-7.5" font-family="Helvetica,sans-Serif" font-size="10.00">+ BreakpointHitMessage()</text>
</a>
</g>
</g>
<!-- Node1&#45;&gt;Node7 -->
<g id="edge6" class="edge"><title>Node1&#45;&gt;Node7</title>
<path fill="none" stroke="midnightblue" d="M1391.82,-142.019C1303.39,-128.441 1167.68,-104.167 1053.5,-69 1050.79,-68.1668 1048.06,-67.2728 1045.3,-66.3315"/>
<polygon fill="none" stroke="midnightblue" points="1391.42,-145.498 1401.83,-143.541 1392.47,-138.577 1391.42,-145.498"/>
</g>
<!-- Node8 -->
<g id="node8" class="node"><title>Node8</title>
<g id="a_node8"><a xlink:href="classpfp_1_1core_1_1db_1_1CounterValueMessage.html" target="_top" xlink:title="Message which returns the value of a counter. ">
<polygon fill="white" stroke="black" points="1063,-0.5 1063,-68.5 1204,-68.5 1204,-0.5 1063,-0.5"/>
<text text-anchor="start" x="1071" y="-56.5" font-family="Helvetica,sans-Serif" font-size="10.00">pfp::core::db::CounterValue</text>
<text text-anchor="middle" x="1133.5" y="-45.5" font-family="Helvetica,sans-Serif" font-size="10.00">Message</text>
<polyline fill="none" stroke="black" points="1063,-38.5 1204,-38.5 "/>
<text text-anchor="middle" x="1133.5" y="-26.5" font-family="Helvetica,sans-Serif" font-size="10.00"> </text>
<polyline fill="none" stroke="black" points="1063,-19.5 1204,-19.5 "/>
<text text-anchor="start" x="1071" y="-7.5" font-family="Helvetica,sans-Serif" font-size="10.00">+ CounterValueMessage()</text>
</a>
</g>
</g>
<!-- Node1&#45;&gt;Node8 -->
<g id="edge7" class="edge"><title>Node1&#45;&gt;Node8</title>
<path fill="none" stroke="midnightblue" d="M1392.12,-127.755C1339.3,-111.778 1272.27,-90.5453 1213.5,-69 1210.39,-67.8598 1207.22,-66.6681 1204.03,-65.4422"/>
<polygon fill="none" stroke="midnightblue" points="1391.23,-131.141 1401.81,-130.676 1393.25,-124.439 1391.23,-131.141"/>
</g>
<!-- Node9 -->
<g id="node9" class="node"><title>Node9</title>
<g id="a_node9"><a xlink:href="classpfp_1_1core_1_1db_1_1DroppedPacketsMessage.html" target="_top" xlink:title="Message which returns the list of all dropped packets. ">
<polygon fill="white" stroke="black" points="1222.5,-0.5 1222.5,-68.5 1378.5,-68.5 1378.5,-0.5 1222.5,-0.5"/>
<text text-anchor="start" x="1230.5" y="-56.5" font-family="Helvetica,sans-Serif" font-size="10.00">pfp::core::db::DroppedPackets</text>
<text text-anchor="middle" x="1300.5" y="-45.5" font-family="Helvetica,sans-Serif" font-size="10.00">Message</text>
<polyline fill="none" stroke="black" points="1222.5,-38.5 1378.5,-38.5 "/>
<text text-anchor="middle" x="1300.5" y="-26.5" font-family="Helvetica,sans-Serif" font-size="10.00"> </text>
<polyline fill="none" stroke="black" points="1222.5,-19.5 1378.5,-19.5 "/>
<text text-anchor="start" x="1230.5" y="-7.5" font-family="Helvetica,sans-Serif" font-size="10.00">+ DroppedPacketsMessage()</text>
</a>
</g>
</g>
<!-- Node1&#45;&gt;Node9 -->
<g id="edge8" class="edge"><title>Node1&#45;&gt;Node9</title>
<path fill="none" stroke="midnightblue" d="M1400.07,-99.8159C1383.58,-89.1675 1366.8,-78.3245 1351.82,-68.6504"/>
<polygon fill="none" stroke="midnightblue" points="1398.35,-102.873 1408.65,-105.359 1402.15,-96.9934 1398.35,-102.873"/>
</g>
<!-- Node10 -->
<g id="node10" class="node"><title>Node10</title>
<g id="a_node10"><a xlink:href="classpfp_1_1core_1_1db_1_1GenericAcknowledgeMessage.html" target="_top" xlink:title="Message which is sent to indicate that a request was successful or not when the debugger isn&#39;t expect...">
<polygon fill="white" stroke="black" points="1396.5,-0.5 1396.5,-68.5 1574.5,-68.5 1574.5,-0.5 1396.5,-0.5"/>
<text text-anchor="start" x="1404.5" y="-56.5" font-family="Helvetica,sans-Serif" font-size="10.00">pfp::core::db::GenericAcknowledge</text>
<text text-anchor="middle" x="1485.5" y="-45.5" font-family="Helvetica,sans-Serif" font-size="10.00">Message</text>
<polyline fill="none" stroke="black" points="1396.5,-38.5 1574.5,-38.5 "/>
<text text-anchor="middle" x="1485.5" y="-26.5" font-family="Helvetica,sans-Serif" font-size="10.00"> </text>
<polyline fill="none" stroke="black" points="1396.5,-19.5 1574.5,-19.5 "/>
<text text-anchor="start" x="1404.5" y="-7.5" font-family="Helvetica,sans-Serif" font-size="10.00">+ GenericAcknowledgeMessage()</text>
</a>
</g>
</g>
<!-- Node1&#45;&gt;Node10 -->
<g id="edge9" class="edge"><title>Node1&#45;&gt;Node10</title>
<path fill="none" stroke="midnightblue" d="M1485.5,-95.1717C1485.5,-86.1099 1485.5,-77.0504 1485.5,-68.8271"/>
<polygon fill="none" stroke="midnightblue" points="1482,-95.3594 1485.5,-105.359 1489,-95.3594 1482,-95.3594"/>
</g>
<!-- Node11 -->
<g id="node11" class="node"><title>Node11</title>
<g id="a_node11"><a xlink:href="classpfp_1_1core_1_1db_1_1PacketDroppedMessage.html" target="_top" xlink:title="Message which indicates that a packet has been dropped. ">
<polygon fill="white" stroke="black" points="1593,-0.5 1593,-68.5 1744,-68.5 1744,-0.5 1593,-0.5"/>
<text text-anchor="start" x="1601" y="-56.5" font-family="Helvetica,sans-Serif" font-size="10.00">pfp::core::db::PacketDropped</text>
<text text-anchor="middle" x="1668.5" y="-45.5" font-family="Helvetica,sans-Serif" font-size="10.00">Message</text>
<polyline fill="none" stroke="black" points="1593,-38.5 1744,-38.5 "/>
<text text-anchor="middle" x="1668.5" y="-26.5" font-family="Helvetica,sans-Serif" font-size="10.00"> </text>
<polyline fill="none" stroke="black" points="1593,-19.5 1744,-19.5 "/>
<text text-anchor="start" x="1601" y="-7.5" font-family="Helvetica,sans-Serif" font-size="10.00">+ PacketDroppedMessage()</text>
</a>
</g>
</g>
<!-- Node1&#45;&gt;Node11 -->
<g id="edge10" class="edge"><title>Node1&#45;&gt;Node11</title>
<path fill="none" stroke="midnightblue" d="M1570.01,-99.8159C1586.31,-89.1675 1602.92,-78.3245 1617.73,-68.6504"/>
<polygon fill="none" stroke="midnightblue" points="1567.98,-96.9613 1561.52,-105.359 1571.81,-102.822 1567.98,-96.9613"/>
</g>
<!-- Node12 -->
<g id="node12" class="node"><title>Node12</title>
<g id="a_node12"><a xlink:href="classpfp_1_1core_1_1db_1_1PacketListValuesMessage.html" target="_top" xlink:title="Message which returns the list of all the packets currently within the simulation. ">
<polygon fill="white" stroke="black" points="1762.5,-0.5 1762.5,-68.5 1920.5,-68.5 1920.5,-0.5 1762.5,-0.5"/>
<text text-anchor="start" x="1770.5" y="-56.5" font-family="Helvetica,sans-Serif" font-size="10.00">pfp::core::db::PacketList</text>
<text text-anchor="middle" x="1841.5" y="-45.5" font-family="Helvetica,sans-Serif" font-size="10.00">ValuesMessage</text>
<polyline fill="none" stroke="black" points="1762.5,-38.5 1920.5,-38.5 "/>
<text text-anchor="middle" x="1841.5" y="-26.5" font-family="Helvetica,sans-Serif" font-size="10.00"> </text>
<polyline fill="none" stroke="black" points="1762.5,-19.5 1920.5,-19.5 "/>
<text text-anchor="start" x="1770.5" y="-7.5" font-family="Helvetica,sans-Serif" font-size="10.00">+ PacketListValuesMessage()</text>
</a>
</g>
</g>
<!-- Node1&#45;&gt;Node12 -->
<g id="edge11" class="edge"><title>Node1&#45;&gt;Node12</title>
<path fill="none" stroke="midnightblue" d="M1578.99,-126.34C1630.67,-110.164 1695.88,-89.1957 1753.5,-69 1756.43,-67.9726 1759.41,-66.9132 1762.42,-65.8321"/>
<polygon fill="none" stroke="midnightblue" points="1577.68,-123.084 1569.18,-129.406 1579.77,-129.765 1577.68,-123.084"/>
</g>
<!-- Node13 -->
<g id="node13" class="node"><title>Node13</title>
<g id="a_node13"><a xlink:href="classpfp_1_1core_1_1db_1_1SimulationEndMessage.html" target="_top" xlink:title="Message which indicates that the simulation has ended. ">
<polygon fill="white" stroke="black" points="1938.5,-0.5 1938.5,-68.5 2082.5,-68.5 2082.5,-0.5 1938.5,-0.5"/>
<text text-anchor="start" x="1946.5" y="-56.5" font-family="Helvetica,sans-Serif" font-size="10.00">pfp::core::db::Simulation</text>
<text text-anchor="middle" x="2010.5" y="-45.5" font-family="Helvetica,sans-Serif" font-size="10.00">EndMessage</text>
<polyline fill="none" stroke="black" points="1938.5,-38.5 2082.5,-38.5 "/>
<text text-anchor="middle" x="2010.5" y="-26.5" font-family="Helvetica,sans-Serif" font-size="10.00"> </text>
<polyline fill="none" stroke="black" points="1938.5,-19.5 2082.5,-19.5 "/>
<text text-anchor="start" x="1946.5" y="-7.5" font-family="Helvetica,sans-Serif" font-size="10.00">+ SimulationEndMessage()</text>
</a>
</g>
</g>
<!-- Node1&#45;&gt;Node13 -->
<g id="edge12" class="edge"><title>Node1&#45;&gt;Node13</title>
<path fill="none" stroke="midnightblue" d="M1579.35,-142.423C1670.13,-128.951 1810.99,-104.589 1929.5,-69 1932.41,-68.1246 1935.37,-67.1815 1938.34,-66.1867"/>
<polygon fill="none" stroke="midnightblue" points="1578.74,-138.975 1569.36,-143.892 1579.76,-145.9 1578.74,-138.975"/>
</g>
<!-- Node14 -->
<g id="node14" class="node"><title>Node14</title>
<g id="a_node14"><a xlink:href="classpfp_1_1core_1_1db_1_1SimulationStoppedMessage.html" target="_top" xlink:title="Message which indicates that the simulation has stopped. ">
<polygon fill="white" stroke="black" points="2101,-0.5 2101,-68.5 2266,-68.5 2266,-0.5 2101,-0.5"/>
<text text-anchor="start" x="2109" y="-56.5" font-family="Helvetica,sans-Serif" font-size="10.00">pfp::core::db::Simulation</text>
<text text-anchor="middle" x="2183.5" y="-45.5" font-family="Helvetica,sans-Serif" font-size="10.00">StoppedMessage</text>
<polyline fill="none" stroke="black" points="2101,-38.5 2266,-38.5 "/>
<text text-anchor="middle" x="2183.5" y="-26.5" font-family="Helvetica,sans-Serif" font-size="10.00"> </text>
<polyline fill="none" stroke="black" points="2101,-19.5 2266,-19.5 "/>
<text text-anchor="start" x="2109" y="-7.5" font-family="Helvetica,sans-Serif" font-size="10.00">+ SimulationStoppedMessage()</text>
</a>
</g>
</g>
<!-- Node1&#45;&gt;Node14 -->
<g id="edge13" class="edge"><title>Node1&#45;&gt;Node14</title>
<path fill="none" stroke="midnightblue" d="M1579.65,-147.756C1699.81,-137.121 1913.45,-113.533 2091.5,-69 2094.55,-68.237 2097.64,-67.4093 2100.75,-66.5302"/>
<polygon fill="none" stroke="midnightblue" points="1579.04,-144.296 1569.38,-148.653 1579.65,-151.269 1579.04,-144.296"/>
</g>
<!-- Node15 -->
<g id="node15" class="node"><title>Node15</title>
<g id="a_node15"><a xlink:href="classpfp_1_1core_1_1db_1_1SimulationTimeMessage.html" target="_top" xlink:title="Message which returns the current simulation time. ">
<polygon fill="white" stroke="black" points="2284,-0.5 2284,-68.5 2433,-68.5 2433,-0.5 2284,-0.5"/>
<text text-anchor="start" x="2292" y="-56.5" font-family="Helvetica,sans-Serif" font-size="10.00">pfp::core::db::Simulation</text>
<text text-anchor="middle" x="2358.5" y="-45.5" font-family="Helvetica,sans-Serif" font-size="10.00">TimeMessage</text>
<polyline fill="none" stroke="black" points="2284,-38.5 2433,-38.5 "/>
<text text-anchor="middle" x="2358.5" y="-26.5" font-family="Helvetica,sans-Serif" font-size="10.00"> </text>
<polyline fill="none" stroke="black" points="2284,-19.5 2433,-19.5 "/>
<text text-anchor="start" x="2292" y="-7.5" font-family="Helvetica,sans-Serif" font-size="10.00">+ SimulationTimeMessage()</text>
</a>
</g>
</g>
<!-- Node1&#45;&gt;Node15 -->
<g id="edge14" class="edge"><title>Node1&#45;&gt;Node15</title>
<path fill="none" stroke="midnightblue" d="M1579.34,-153.092C1728.82,-148.209 2029.26,-130.833 2275.5,-69 2278.21,-68.3188 2280.95,-67.5677 2283.71,-66.76"/>
<polygon fill="none" stroke="midnightblue" points="1579.16,-149.595 1569.28,-153.409 1579.38,-156.592 1579.16,-149.595"/>
</g>
<!-- Node16 -->
<g id="node16" class="node"><title>Node16</title>
<g id="a_node16"><a xlink:href="classpfp_1_1core_1_1db_1_1TableEntriesMessage.html" target="_top" xlink:title="Message which returns the list of all the table entries in all of the tables. ">
<polygon fill="white" stroke="black" points="2451,-0.5 2451,-68.5 2588,-68.5 2588,-0.5 2451,-0.5"/>
<text text-anchor="start" x="2459" y="-56.5" font-family="Helvetica,sans-Serif" font-size="10.00">pfp::core::db::TableEntries</text>
<text text-anchor="middle" x="2519.5" y="-45.5" font-family="Helvetica,sans-Serif" font-size="10.00">Message</text>
<polyline fill="none" stroke="black" points="2451,-38.5 2588,-38.5 "/>
<text text-anchor="middle" x="2519.5" y="-26.5" font-family="Helvetica,sans-Serif" font-size="10.00"> </text>
<polyline fill="none" stroke="black" points="2451,-19.5 2588,-19.5 "/>
<text text-anchor="start" x="2459" y="-7.5" font-family="Helvetica,sans-Serif" font-size="10.00">+ TableEntriesMessage()</text>
</a>
</g>
</g>
<!-- Node1&#45;&gt;Node16 -->
<g id="edge15" class="edge"><title>Node1&#45;&gt;Node16</title>
<path fill="none" stroke="midnightblue" d="M1579.65,-150.379C1787.69,-139.545 2280.87,-110.27 2442.5,-69 2445.18,-68.3147 2447.89,-67.5467 2450.61,-66.7118"/>
<polygon fill="none" stroke="midnightblue" points="1579.16,-146.899 1569.36,-150.912 1579.53,-153.89 1579.16,-146.899"/>
</g>
<!-- Node17 -->
<g id="node17" class="node"><title>Node17</title>
<g id="a_node17"><a xlink:href="classpfp_1_1core_1_1db_1_1WatchpointHitMessage.html" target="_top" xlink:title="Message which indicates that a watchpoint has been hit. ">
<polygon fill="white" stroke="black" points="2606,-0.5 2606,-68.5 2749,-68.5 2749,-0.5 2606,-0.5"/>
<text text-anchor="start" x="2614" y="-56.5" font-family="Helvetica,sans-Serif" font-size="10.00">pfp::core::db::Watchpoint</text>
<text text-anchor="middle" x="2677.5" y="-45.5" font-family="Helvetica,sans-Serif" font-size="10.00">HitMessage</text>
<polyline fill="none" stroke="black" points="2606,-38.5 2749,-38.5 "/>
<text text-anchor="middle" x="2677.5" y="-26.5" font-family="Helvetica,sans-Serif" font-size="10.00"> </text>
<polyline fill="none" stroke="black" points="2606,-19.5 2749,-19.5 "/>
<text text-anchor="start" x="2614" y="-7.5" font-family="Helvetica,sans-Serif" font-size="10.00">+ WatchpointHitMessage()</text>
</a>
</g>
</g>
<!-- Node1&#45;&gt;Node17 -->
<g id="edge16" class="edge"><title>Node1&#45;&gt;Node17</title>
<path fill="none" stroke="midnightblue" d="M1579.17,-151.595C1810.7,-142.562 2405.08,-115.452 2597.5,-69 2600.28,-68.3286 2603.09,-67.5724 2605.91,-66.7476"/>
<polygon fill="none" stroke="midnightblue" points="1578.94,-148.101 1569.09,-151.986 1579.21,-155.095 1578.94,-148.101"/>
</g>
<!-- Node18 -->
<g id="node18" class="node"><title>Node18</title>
<g id="a_node18"><a xlink:href="classpfp_1_1core_1_1db_1_1WhoAmIReplyMessage.html" target="_top" xlink:title="Message which returns the ID of the packet which is current being followed. ">
<polygon fill="white" stroke="black" points="2767.5,-0.5 2767.5,-68.5 2911.5,-68.5 2911.5,-0.5 2767.5,-0.5"/>
<text text-anchor="start" x="2775.5" y="-56.5" font-family="Helvetica,sans-Serif" font-size="10.00">pfp::core::db::WhoAmIReply</text>
<text text-anchor="middle" x="2839.5" y="-45.5" font-family="Helvetica,sans-Serif" font-size="10.00">Message</text>
<polyline fill="none" stroke="black" points="2767.5,-38.5 2911.5,-38.5 "/>
<text text-anchor="middle" x="2839.5" y="-26.5" font-family="Helvetica,sans-Serif" font-size="10.00"> </text>
<polyline fill="none" stroke="black" points="2767.5,-19.5 2911.5,-19.5 "/>
<text text-anchor="start" x="2775.5" y="-7.5" font-family="Helvetica,sans-Serif" font-size="10.00">+ WhoAmIReplyMessage()</text>
</a>
</g>
</g>
<!-- Node1&#45;&gt;Node18 -->
<g id="edge17" class="edge"><title>Node1&#45;&gt;Node18</title>
<path fill="none" stroke="midnightblue" d="M1579.35,-152.597C1834.06,-145.45 2534.19,-121.474 2758.5,-69 2761.46,-68.3067 2764.46,-67.5173 2767.46,-66.651"/>
<polygon fill="none" stroke="midnightblue" points="1578.92,-149.108 1569.02,-152.885 1579.11,-156.105 1578.92,-149.108"/>
</g>
</g>
</svg>
