<?xml version="1.0" encoding="UTF-8" standalone="no"?>
<!DOCTYPE svg PUBLIC "-//W3C//DTD SVG 1.1//EN"
 "http://www.w3.org/Graphics/SVG/1.1/DTD/svg11.dtd">
<!-- Generated by graphviz version 2.38.0 (20140413.2041)
 -->
<!-- Title: nlohmann::basic_json::is_null Pages: 1 -->
<svg width="431pt" height="137pt"
 viewBox="0.00 0.00 431.00 137.00" xmlns="http://www.w3.org/2000/svg" xmlns:xlink="http://www.w3.org/1999/xlink">
<g id="graph0" class="graph" transform="scale(1 1) rotate(0) translate(4 133)">
<title>nlohmann::basic_json::is_null</title>
<polygon fill="white" stroke="none" points="-4,4 -4,-133 427,-133 427,4 -4,4"/>
<!-- Node1 -->
<g id="node1" class="node"><title>Node1</title>
<polygon fill="#bfbfbf" stroke="black" points="0,-49.5 0,-79.5 117,-79.5 117,-49.5 0,-49.5"/>
<text text-anchor="start" x="8" y="-67.5" font-family="Helvetica,sans-Serif" font-size="10.00">nlohmann::basic_json</text>
<text text-anchor="middle" x="58.5" y="-56.5" font-family="Helvetica,sans-Serif" font-size="10.00">::is_null</text>
</g>
<!-- Node2 -->
<g id="node2" class="node"><title>Node2</title>
<g id="a_node2"><a xlink:href="classnlohmann_1_1basic__json.html#adcd6086bac286854d5cc8b7f84d74a49" target="_top" xlink:title="return whether type is primitive ">
<polygon fill="white" stroke="black" points="153,-98.5 153,-128.5 270,-128.5 270,-98.5 153,-98.5"/>
<text text-anchor="start" x="161" y="-116.5" font-family="Helvetica,sans-Serif" font-size="10.00">nlohmann::basic_json</text>
<text text-anchor="middle" x="211.5" y="-105.5" font-family="Helvetica,sans-Serif" font-size="10.00">::is_primitive</text>
</a>
</g>
</g>
<!-- Node1&#45;&gt;Node2 -->
<g id="edge1" class="edge"><title>Node1&#45;&gt;Node2</title>
<path fill="none" stroke="midnightblue" d="M115.768,-82.7591C131.694,-87.9273 148.844,-93.4924 164.117,-98.4484"/>
<polygon fill="midnightblue" stroke="midnightblue" points="116.629,-79.359 106.037,-79.6014 114.468,-86.0172 116.629,-79.359"/>
</g>
<!-- Node3 -->
<g id="node3" class="node"><title>Node3</title>
<g id="a_node3"><a xlink:href="classnlohmann_1_1basic__json.html#a59732a1de287a7301cca19a7a7748159" target="_top" xlink:title="access specified array element ">
<polygon fill="white" stroke="black" points="153,-49.5 153,-79.5 270,-79.5 270,-49.5 153,-49.5"/>
<text text-anchor="start" x="161" y="-67.5" font-family="Helvetica,sans-Serif" font-size="10.00">nlohmann::basic_json</text>
<text text-anchor="middle" x="211.5" y="-56.5" font-family="Helvetica,sans-Serif" font-size="10.00">::operator[]</text>
</a>
</g>
</g>
<!-- Node1&#45;&gt;Node3 -->
<g id="edge2" class="edge"><title>Node1&#45;&gt;Node3</title>
<path fill="none" stroke="midnightblue" d="M127.052,-64.5C135.678,-64.5 144.444,-64.5 152.893,-64.5"/>
<polygon fill="midnightblue" stroke="midnightblue" points="127.017,-61.0001 117.017,-64.5 127.017,-68.0001 127.017,-61.0001"/>
</g>
<!-- Node6 -->
<g id="node6" class="node"><title>Node6</title>
<g id="a_node6"><a xlink:href="classnlohmann_1_1basic__json.html#a486b96adbf4886c38e38c952394a220f" target="_top" xlink:title="add an object to an array ">
<polygon fill="white" stroke="black" points="153,-0.5 153,-30.5 270,-30.5 270,-0.5 153,-0.5"/>
<text text-anchor="start" x="161" y="-18.5" font-family="Helvetica,sans-Serif" font-size="10.00">nlohmann::basic_json</text>
<text text-anchor="middle" x="211.5" y="-7.5" font-family="Helvetica,sans-Serif" font-size="10.00">::push_back</text>
</a>
</g>
</g>
<!-- Node1&#45;&gt;Node6 -->
<g id="edge5" class="edge"><title>Node1&#45;&gt;Node6</title>
<path fill="none" stroke="midnightblue" d="M115.768,-46.2409C131.694,-41.0727 148.844,-35.5076 164.117,-30.5516"/>
<polygon fill="midnightblue" stroke="midnightblue" points="114.468,-42.9828 106.037,-49.3986 116.629,-49.641 114.468,-42.9828"/>
</g>
<!-- Node4 -->
<g id="node4" class="node"><title>Node4</title>
<g id="a_node4"><a xlink:href="classnlohmann_1_1basic__json.html#a140b8251f82e99ad279dcad5c977e26b" target="_top" xlink:title="access specified object element ">
<polygon fill="white" stroke="black" points="306,-98.5 306,-128.5 423,-128.5 423,-98.5 306,-98.5"/>
<text text-anchor="start" x="314" y="-116.5" font-family="Helvetica,sans-Serif" font-size="10.00">nlohmann::basic_json</text>
<text text-anchor="middle" x="364.5" y="-105.5" font-family="Helvetica,sans-Serif" font-size="10.00">::operator[]</text>
</a>
</g>
</g>
<!-- Node3&#45;&gt;Node4 -->
<g id="edge3" class="edge"><title>Node3&#45;&gt;Node4</title>
<path fill="none" stroke="midnightblue" d="M268.768,-82.7591C284.694,-87.9273 301.844,-93.4924 317.117,-98.4484"/>
<polygon fill="midnightblue" stroke="midnightblue" points="269.629,-79.359 259.037,-79.6014 267.468,-86.0172 269.629,-79.359"/>
</g>
<!-- Node5 -->
<g id="node5" class="node"><title>Node5</title>
<g id="a_node5"><a xlink:href="classnlohmann_1_1basic__json.html#a9486a272e034c0548305d7a12f3045e6" target="_top" xlink:title="add an object to an object ">
<polygon fill="white" stroke="black" points="306,-49.5 306,-79.5 423,-79.5 423,-49.5 306,-49.5"/>
<text text-anchor="start" x="314" y="-67.5" font-family="Helvetica,sans-Serif" font-size="10.00">nlohmann::basic_json</text>
<text text-anchor="middle" x="364.5" y="-56.5" font-family="Helvetica,sans-Serif" font-size="10.00">::operator+=</text>
</a>
</g>
</g>
<!-- Node3&#45;&gt;Node5 -->
<g id="edge4" class="edge"><title>Node3&#45;&gt;Node5</title>
<path fill="none" stroke="midnightblue" d="M280.052,-64.5C288.678,-64.5 297.444,-64.5 305.893,-64.5"/>
<polygon fill="midnightblue" stroke="midnightblue" points="280.017,-61.0001 270.017,-64.5 280.017,-68.0001 280.017,-61.0001"/>
</g>
<!-- Node7 -->
<g id="node7" class="node"><title>Node7</title>
<g id="a_node7"><a xlink:href="classnlohmann_1_1basic__json.html#a1c1aa2d148a3e4ce0d4e50cf5b894f41" target="_top" xlink:title="add an object to an array ">
<polygon fill="white" stroke="black" points="306,-0.5 306,-30.5 423,-30.5 423,-0.5 306,-0.5"/>
<text text-anchor="start" x="314" y="-18.5" font-family="Helvetica,sans-Serif" font-size="10.00">nlohmann::basic_json</text>
<text text-anchor="middle" x="364.5" y="-7.5" font-family="Helvetica,sans-Serif" font-size="10.00">::operator+=</text>
</a>
</g>
</g>
<!-- Node6&#45;&gt;Node7 -->
<g id="edge6" class="edge"><title>Node6&#45;&gt;Node7</title>
<path fill="none" stroke="midnightblue" d="M280.052,-15.5C288.678,-15.5 297.444,-15.5 305.893,-15.5"/>
<polygon fill="midnightblue" stroke="midnightblue" points="280.017,-12.0001 270.017,-15.5 280.017,-19.0001 280.017,-12.0001"/>
</g>
</g>
</svg>
