<?xml version="1.0" encoding="UTF-8" standalone="no"?>
<!DOCTYPE svg PUBLIC "-//W3C//DTD SVG 1.1//EN"
 "http://www.w3.org/Graphics/SVG/1.1/DTD/svg11.dtd">
<!-- Generated by graphviz version 2.38.0 (20140413.2041)
 -->
<!-- Title: pfp::core::TrType Pages: 1 -->
<svg width="126pt" height="270pt"
 viewBox="0.00 0.00 126.00 270.00" xmlns="http://www.w3.org/2000/svg" xmlns:xlink="http://www.w3.org/1999/xlink">
<g id="graph0" class="graph" transform="scale(1 1) rotate(0) translate(4 266)">
<title>pfp::core::TrType</title>
<polygon fill="white" stroke="none" points="-4,4 -4,-266 122,-266 122,4 -4,4"/>
<!-- Node1 -->
<g id="node1" class="node"><title>Node1</title>
<polygon fill="#bfbfbf" stroke="black" points="11,-138.5 11,-261.5 107,-261.5 107,-138.5 11,-138.5"/>
<text text-anchor="middle" x="59" y="-249.5" font-family="Helvetica,sans-Serif" font-size="10.00">pfp::core::TrType</text>
<polyline fill="none" stroke="black" points="11,-242.5 107,-242.5 "/>
<text text-anchor="middle" x="59" y="-230.5" font-family="Helvetica,sans-Serif" font-size="10.00"> </text>
<polyline fill="none" stroke="black" points="11,-223.5 107,-223.5 "/>
<text text-anchor="start" x="19" y="-211.5" font-family="Helvetica,sans-Serif" font-size="10.00">+ TrType()</text>
<text text-anchor="start" x="19" y="-200.5" font-family="Helvetica,sans-Serif" font-size="10.00">+ TrType()</text>
<text text-anchor="start" x="19" y="-189.5" font-family="Helvetica,sans-Serif" font-size="10.00">+ ~TrType()</text>
<text text-anchor="start" x="19" y="-178.5" font-family="Helvetica,sans-Serif" font-size="10.00">+ id()</text>
<text text-anchor="start" x="19" y="-167.5" font-family="Helvetica,sans-Serif" font-size="10.00">+ id()</text>
<text text-anchor="start" x="19" y="-156.5" font-family="Helvetica,sans-Serif" font-size="10.00">+ data_type()</text>
<text text-anchor="start" x="19" y="-145.5" font-family="Helvetica,sans-Serif" font-size="10.00">+ debuggable()</text>
</g>
<!-- Node2 -->
<g id="node2" class="node"><title>Node2</title>
<g id="a_node2"><a xlink:href="classpfp_1_1core_1_1PacketBase.html" target="_top" xlink:title="{pfp::core::PacketBase\n||+ PacketBase()\l+ ~PacketBase()\l+ PacketBase()\l+ data_type()\l+ debuggable()\l}">
<polygon fill="white" stroke="black" points="0,-0.5 0,-101.5 118,-101.5 118,-0.5 0,-0.5"/>
<text text-anchor="middle" x="59" y="-89.5" font-family="Helvetica,sans-Serif" font-size="10.00">pfp::core::PacketBase</text>
<polyline fill="none" stroke="black" points="0,-82.5 118,-82.5 "/>
<text text-anchor="middle" x="59" y="-70.5" font-family="Helvetica,sans-Serif" font-size="10.00"> </text>
<polyline fill="none" stroke="black" points="0,-63.5 118,-63.5 "/>
<text text-anchor="start" x="8" y="-51.5" font-family="Helvetica,sans-Serif" font-size="10.00">+ PacketBase()</text>
<text text-anchor="start" x="8" y="-40.5" font-family="Helvetica,sans-Serif" font-size="10.00">+ ~PacketBase()</text>
<text text-anchor="start" x="8" y="-29.5" font-family="Helvetica,sans-Serif" font-size="10.00">+ PacketBase()</text>
<text text-anchor="start" x="8" y="-18.5" font-family="Helvetica,sans-Serif" font-size="10.00">+ data_type()</text>
<text text-anchor="start" x="8" y="-7.5" font-family="Helvetica,sans-Serif" font-size="10.00">+ debuggable()</text>
</a>
</g>
</g>
<!-- Node1&#45;&gt;Node2 -->
<g id="edge1" class="edge"><title>Node1&#45;&gt;Node2</title>
<path fill="none" stroke="midnightblue" d="M59,-128.289C59,-119.323 59,-110.301 59,-101.758"/>
<polygon fill="none" stroke="midnightblue" points="55.5001,-128.361 59,-138.361 62.5001,-128.361 55.5001,-128.361"/>
</g>
</g>
</svg>
