<?xml version="1.0" encoding="UTF-8" standalone="no"?>
<!DOCTYPE svg PUBLIC "-//W3C//DTD SVG 1.1//EN"
 "http://www.w3.org/Graphics/SVG/1.1/DTD/svg11.dtd">
<!-- Generated by graphviz version 2.38.0 (20140413.2041)
 -->
<!-- Title: pfp::core::db::DebugDataManager::getCounterValue Pages: 1 -->
<svg width="338pt" height="39pt"
 viewBox="0.00 0.00 338.00 39.00" xmlns="http://www.w3.org/2000/svg" xmlns:xlink="http://www.w3.org/1999/xlink">
<g id="graph0" class="graph" transform="scale(1 1) rotate(0) translate(4 35)">
<title>pfp::core::db::DebugDataManager::getCounterValue</title>
<polygon fill="white" stroke="none" points="-4,4 -4,-35 334,-35 334,4 -4,4"/>
<!-- Node1 -->
<g id="node1" class="node"><title>Node1</title>
<polygon fill="#bfbfbf" stroke="black" points="0,-0.5 0,-30.5 143,-30.5 143,-0.5 0,-0.5"/>
<text text-anchor="start" x="8" y="-18.5" font-family="Helvetica,sans-Serif" font-size="10.00">pfp::core::db::DebugData</text>
<text text-anchor="middle" x="71.5" y="-7.5" font-family="Helvetica,sans-Serif" font-size="10.00">Manager::getCounterValue</text>
</g>
<!-- Node2 -->
<g id="node2" class="node"><title>Node2</title>
<g id="a_node2"><a xlink:href="classpfp_1_1core_1_1db_1_1DebugObserver.html#a35f3c0c7e02efc144fca3b8352e82002" target="_top" xlink:title="Function called by the simulation when a counter is updated. ">
<polygon fill="white" stroke="black" points="179,-0.5 179,-30.5 330,-30.5 330,-0.5 179,-0.5"/>
<text text-anchor="start" x="187" y="-18.5" font-family="Helvetica,sans-Serif" font-size="10.00">pfp::core::db::DebugObserver</text>
<text text-anchor="middle" x="254.5" y="-7.5" font-family="Helvetica,sans-Serif" font-size="10.00">::counter_updated</text>
</a>
</g>
</g>
<!-- Node1&#45;&gt;Node2 -->
<g id="edge1" class="edge"><title>Node1&#45;&gt;Node2</title>
<path fill="none" stroke="midnightblue" d="M153.499,-15.5C161.957,-15.5 170.528,-15.5 178.91,-15.5"/>
<polygon fill="midnightblue" stroke="midnightblue" points="153.257,-12.0001 143.257,-15.5 153.257,-19.0001 153.257,-12.0001"/>
</g>
</g>
</svg>
