<?xml version="1.0" encoding="UTF-8" standalone="no"?>
<!DOCTYPE svg PUBLIC "-//W3C//DTD SVG 1.1//EN"
 "http://www.w3.org/Graphics/SVG/1.1/DTD/svg11.dtd">
<!-- Generated by graphviz version 2.38.0 (20140413.2041)
 -->
<!-- Title: pfp::core::db::DebugObserver::data_written Pages: 1 -->
<svg width="548pt" height="186pt"
 viewBox="0.00 0.00 548.00 186.00" xmlns="http://www.w3.org/2000/svg" xmlns:xlink="http://www.w3.org/1999/xlink">
<g id="graph0" class="graph" transform="scale(1 1) rotate(0) translate(4 182)">
<title>pfp::core::db::DebugObserver::data_written</title>
<polygon fill="white" stroke="none" points="-4,4 -4,-182 544,-182 544,4 -4,4"/>
<!-- Node1 -->
<g id="node1" class="node"><title>Node1</title>
<polygon fill="#bfbfbf" stroke="black" points="0,-48.5 0,-78.5 151,-78.5 151,-48.5 0,-48.5"/>
<text text-anchor="start" x="8" y="-66.5" font-family="Helvetica,sans-Serif" font-size="10.00">pfp::core::db::DebugObserver</text>
<text text-anchor="middle" x="75.5" y="-55.5" font-family="Helvetica,sans-Serif" font-size="10.00">::data_written</text>
</g>
<!-- Node2 -->
<g id="node2" class="node"><title>Node2</title>
<g id="a_node2"><a xlink:href="classpfp_1_1core_1_1db_1_1DebugDataManager.html#aa59e25a018d39d224d580ebdbcd85255" target="_top" xlink:title="Add a new packet or update an existing one. ">
<polygon fill="white" stroke="black" points="203,-73.5 203,-103.5 333,-103.5 333,-73.5 203,-73.5"/>
<text text-anchor="start" x="211" y="-91.5" font-family="Helvetica,sans-Serif" font-size="10.00">pfp::core::db::DebugData</text>
<text text-anchor="middle" x="268" y="-80.5" font-family="Helvetica,sans-Serif" font-size="10.00">Manager::updatePacket</text>
</a>
</g>
</g>
<!-- Node1&#45;&gt;Node2 -->
<g id="edge1" class="edge"><title>Node1&#45;&gt;Node2</title>
<path fill="none" stroke="midnightblue" d="M151.244,-73.3089C164.866,-75.0966 179.076,-76.9615 192.686,-78.7476"/>
<polygon fill="midnightblue" stroke="midnightblue" points="192.587,-82.2645 202.958,-80.0955 193.498,-75.324 192.587,-82.2645"/>
</g>
<!-- Node7 -->
<g id="node7" class="node"><title>Node7</title>
<g id="a_node7"><a xlink:href="classpfp_1_1core_1_1db_1_1DebugDataManager.html#a82d394d7fc4f0159c10422283e0d99c6" target="_top" xlink:title="Check if the given module is being ignored. ">
<polygon fill="white" stroke="black" points="187,-24.5 187,-54.5 349,-54.5 349,-24.5 187,-24.5"/>
<text text-anchor="start" x="195" y="-42.5" font-family="Helvetica,sans-Serif" font-size="10.00">pfp::core::db::DebugData</text>
<text text-anchor="middle" x="268" y="-31.5" font-family="Helvetica,sans-Serif" font-size="10.00">Manager::checkIgnoreModules</text>
</a>
</g>
</g>
<!-- Node1&#45;&gt;Node7 -->
<g id="edge6" class="edge"><title>Node1&#45;&gt;Node7</title>
<path fill="none" stroke="midnightblue" d="M151.244,-54.0834C159.635,-53.0263 168.249,-51.9411 176.808,-50.8627"/>
<polygon fill="midnightblue" stroke="midnightblue" points="177.331,-54.3247 186.815,-49.6021 176.456,-47.3796 177.331,-54.3247"/>
</g>
<!-- Node3 -->
<g id="node3" class="node"><title>Node3</title>
<g id="a_node3"><a xlink:href="classpfp_1_1core_1_1db_1_1DebuggerPacket.html#a2c2828ba58aa35c87cb7075ca260294b" target="_top" xlink:title="Set the current time of the packet. ">
<polygon fill="white" stroke="black" points="385,-147.5 385,-177.5 540,-177.5 540,-147.5 385,-147.5"/>
<text text-anchor="start" x="393" y="-165.5" font-family="Helvetica,sans-Serif" font-size="10.00">pfp::core::db::DebuggerPacket</text>
<text text-anchor="middle" x="462.5" y="-154.5" font-family="Helvetica,sans-Serif" font-size="10.00">::setTime</text>
</a>
</g>
</g>
<!-- Node2&#45;&gt;Node3 -->
<g id="edge2" class="edge"><title>Node2&#45;&gt;Node3</title>
<path fill="none" stroke="midnightblue" d="M301.635,-103.637C324.68,-114.062 356.423,-127.891 385,-138.5 390.22,-140.438 395.676,-142.356 401.167,-144.213"/>
<polygon fill="midnightblue" stroke="midnightblue" points="400.453,-147.664 411.046,-147.482 402.652,-141.018 400.453,-147.664"/>
</g>
<!-- Node4 -->
<g id="node4" class="node"><title>Node4</title>
<g id="a_node4"><a xlink:href="classpfp_1_1core_1_1db_1_1DebuggerPacket.html#ab6bbc1ea6b78add2c88f089b595a059c" target="_top" xlink:title="Set the current location of the packet. ">
<polygon fill="white" stroke="black" points="385,-98.5 385,-128.5 540,-128.5 540,-98.5 385,-98.5"/>
<text text-anchor="start" x="393" y="-116.5" font-family="Helvetica,sans-Serif" font-size="10.00">pfp::core::db::DebuggerPacket</text>
<text text-anchor="middle" x="462.5" y="-105.5" font-family="Helvetica,sans-Serif" font-size="10.00">::setCurrentLocation</text>
</a>
</g>
</g>
<!-- Node2&#45;&gt;Node4 -->
<g id="edge3" class="edge"><title>Node2&#45;&gt;Node4</title>
<path fill="none" stroke="midnightblue" d="M333.1,-96.8246C346.477,-98.562 360.791,-100.421 374.83,-102.244"/>
<polygon fill="midnightblue" stroke="midnightblue" points="374.619,-105.746 384.987,-103.563 375.521,-98.8044 374.619,-105.746"/>
</g>
<!-- Node5 -->
<g id="node5" class="node"><title>Node5</title>
<g id="a_node5"><a xlink:href="classpfp_1_1core_1_1db_1_1DebuggerPacket.html#a39ed8b29b2560595e17ab66f2d32fcee" target="_top" xlink:title="Update the time at which the packet entered a module. ">
<polygon fill="white" stroke="black" points="385,-49.5 385,-79.5 540,-79.5 540,-49.5 385,-49.5"/>
<text text-anchor="start" x="393" y="-67.5" font-family="Helvetica,sans-Serif" font-size="10.00">pfp::core::db::DebuggerPacket</text>
<text text-anchor="middle" x="462.5" y="-56.5" font-family="Helvetica,sans-Serif" font-size="10.00">::updateTraceReadTime</text>
</a>
</g>
</g>
<!-- Node2&#45;&gt;Node5 -->
<g id="edge4" class="edge"><title>Node2&#45;&gt;Node5</title>
<path fill="none" stroke="midnightblue" d="M333.1,-80.5083C346.477,-78.8405 360.791,-77.0559 374.83,-75.3056"/>
<polygon fill="midnightblue" stroke="midnightblue" points="375.497,-78.7497 384.987,-74.0393 374.631,-71.8035 375.497,-78.7497"/>
</g>
<!-- Node6 -->
<g id="node6" class="node"><title>Node6</title>
<g id="a_node6"><a xlink:href="classpfp_1_1core_1_1db_1_1DebuggerPacket.html#a890ca341604503c739dcffe9d9f6e89d" target="_top" xlink:title="Update the time at which the packet left a module. ">
<polygon fill="white" stroke="black" points="385,-0.5 385,-30.5 540,-30.5 540,-0.5 385,-0.5"/>
<text text-anchor="start" x="393" y="-18.5" font-family="Helvetica,sans-Serif" font-size="10.00">pfp::core::db::DebuggerPacket</text>
<text text-anchor="middle" x="462.5" y="-7.5" font-family="Helvetica,sans-Serif" font-size="10.00">::updateTraceWriteTime</text>
</a>
</g>
</g>
<!-- Node2&#45;&gt;Node6 -->
<g id="edge5" class="edge"><title>Node2&#45;&gt;Node6</title>
<path fill="none" stroke="midnightblue" d="M326.589,-73.4792C334.259,-70.8282 341.915,-67.8333 349,-64.5 366.4,-56.3141 367.701,-48.8976 385,-40.5 389.596,-38.269 394.439,-36.1654 399.366,-34.1982"/>
<polygon fill="midnightblue" stroke="midnightblue" points="400.789,-37.402 408.9,-30.5857 398.308,-30.8562 400.789,-37.402"/>
</g>
</g>
</svg>
