<?xml version="1.0" encoding="UTF-8" standalone="no"?>
<!DOCTYPE svg PUBLIC "-//W3C//DTD SVG 1.1//EN"
 "http://www.w3.org/Graphics/SVG/1.1/DTD/svg11.dtd">
<!-- Generated by graphviz version 2.38.0 (20140413.2041)
 -->
<!-- Title: pfp::core::PFPObject::notify_data_dropped Pages: 1 -->
<svg width="288pt" height="78pt"
 viewBox="0.00 0.00 288.00 77.50" xmlns="http://www.w3.org/2000/svg" xmlns:xlink="http://www.w3.org/1999/xlink">
<g id="graph0" class="graph" transform="scale(1 1) rotate(0) translate(4 73.5)">
<title>pfp::core::PFPObject::notify_data_dropped</title>
<polygon fill="white" stroke="none" points="-4,4 -4,-73.5 284,-73.5 284,4 -4,4"/>
<!-- Node1 -->
<g id="node1" class="node"><title>Node1</title>
<polygon fill="#bfbfbf" stroke="black" points="0,-17 0,-47 119,-47 119,-17 0,-17"/>
<text text-anchor="start" x="8" y="-35" font-family="Helvetica,sans-Serif" font-size="10.00">pfp::core::PFPObject</text>
<text text-anchor="middle" x="59.5" y="-24" font-family="Helvetica,sans-Serif" font-size="10.00">::notify_data_dropped</text>
</g>
<!-- Node2 -->
<g id="node2" class="node"><title>Node2</title>
<g id="a_node2"><a xlink:href="classpfp_1_1core_1_1PFPObserver.html#aa190ee3f13d9958c3a9039eea1f9ed9c" target="_top" xlink:title="Function called by the NPU when data is dropped in a module. ">
<polygon fill="white" stroke="black" points="155,-39 155,-69 280,-69 280,-39 155,-39"/>
<text text-anchor="start" x="163" y="-57" font-family="Helvetica,sans-Serif" font-size="10.00">pfp::core::PFPObserver</text>
<text text-anchor="middle" x="217.5" y="-46" font-family="Helvetica,sans-Serif" font-size="10.00">::data_dropped</text>
</a>
</g>
</g>
<!-- Node1&#45;&gt;Node2 -->
<g id="edge1" class="edge"><title>Node1&#45;&gt;Node2</title>
<path fill="none" stroke="midnightblue" d="M119.032,-40.2546C127.421,-41.4376 136.131,-42.666 144.739,-43.8799"/>
<polygon fill="midnightblue" stroke="midnightblue" points="144.381,-47.364 154.772,-45.2948 145.359,-40.4325 144.381,-47.364"/>
</g>
<!-- Node3 -->
<g id="node3" class="node"><title>Node3</title>
<g id="a_node3"><a xlink:href="classMTQueue.html#a1b8d763529ae9eb53bce1c09f8f82507" target="_top" xlink:title="Push an item onto the MTQueue. ">
<polygon fill="white" stroke="black" points="172.5,-0.5 172.5,-19.5 262.5,-19.5 262.5,-0.5 172.5,-0.5"/>
<text text-anchor="middle" x="217.5" y="-7.5" font-family="Helvetica,sans-Serif" font-size="10.00">MTQueue::push</text>
</a>
</g>
</g>
<!-- Node1&#45;&gt;Node3 -->
<g id="edge2" class="edge"><title>Node1&#45;&gt;Node3</title>
<path fill="none" stroke="midnightblue" d="M119.032,-23.7454C133.225,-21.7439 148.336,-19.6129 162.317,-17.6411"/>
<polygon fill="midnightblue" stroke="midnightblue" points="162.856,-21.0999 172.269,-16.2377 161.878,-14.1685 162.856,-21.0999"/>
</g>
</g>
</svg>
