<?xml version="1.0" encoding="UTF-8" standalone="no"?>
<!DOCTYPE svg PUBLIC "-//W3C//DTD SVG 1.1//EN"
 "http://www.w3.org/Graphics/SVG/1.1/DTD/svg11.dtd">
<!-- Generated by graphviz version 2.38.0 (20140413.2041)
 -->
<!-- Title: nlohmann::basic_json::end Pages: 1 -->
<svg width="607pt" height="274pt"
 viewBox="0.00 0.00 607.00 274.00" xmlns="http://www.w3.org/2000/svg" xmlns:xlink="http://www.w3.org/1999/xlink">
<g id="graph0" class="graph" transform="scale(1 1) rotate(0) translate(4 270)">
<title>nlohmann::basic_json::end</title>
<polygon fill="white" stroke="none" points="-4,4 -4,-270 603,-270 603,4 -4,4"/>
<!-- Node1 -->
<g id="node1" class="node"><title>Node1</title>
<polygon fill="#bfbfbf" stroke="black" points="0,-128 0,-147 140,-147 140,-128 0,-128"/>
<text text-anchor="middle" x="70" y="-135" font-family="Helvetica,sans-Serif" font-size="10.00">nlohmann::basic_json::end</text>
</g>
<!-- Node2 -->
<g id="node2" class="node"><title>Node2</title>
<g id="a_node2"><a xlink:href="classnlohmann_1_1basic__json.html#ab7be2bc58ae0c2c2c30d40f15d6399f8" target="_top" xlink:title="create an object (implicit) ">
<polygon fill="white" stroke="black" points="176,-235.5 176,-265.5 293,-265.5 293,-235.5 176,-235.5"/>
<text text-anchor="start" x="184" y="-253.5" font-family="Helvetica,sans-Serif" font-size="10.00">nlohmann::basic_json</text>
<text text-anchor="middle" x="234.5" y="-242.5" font-family="Helvetica,sans-Serif" font-size="10.00">::basic_json</text>
</a>
</g>
</g>
<!-- Node1&#45;&gt;Node2 -->
<g id="edge1" class="edge"><title>Node1&#45;&gt;Node2</title>
<path fill="none" stroke="midnightblue" d="M89.4117,-153.811C109.773,-171.421 143.948,-199.734 176,-220.5 184.127,-225.765 193.282,-230.879 201.859,-235.348"/>
<polygon fill="midnightblue" stroke="midnightblue" points="91.6599,-151.128 81.8241,-147.189 87.0572,-156.402 91.6599,-151.128"/>
</g>
<!-- Node3 -->
<g id="node3" class="node"><title>Node3</title>
<g id="a_node3"><a xlink:href="classnlohmann_1_1basic__json.html#a0a2cbbd95862a623e7dc5c37e67dead0" target="_top" xlink:title="access specified object element with default value ">
<polygon fill="white" stroke="black" points="329,-120.5 329,-150.5 446,-150.5 446,-120.5 329,-120.5"/>
<text text-anchor="start" x="337" y="-138.5" font-family="Helvetica,sans-Serif" font-size="10.00">nlohmann::basic_json</text>
<text text-anchor="middle" x="387.5" y="-127.5" font-family="Helvetica,sans-Serif" font-size="10.00">::value</text>
</a>
</g>
</g>
<!-- Node1&#45;&gt;Node3 -->
<g id="edge2" class="edge"><title>Node1&#45;&gt;Node3</title>
<path fill="none" stroke="midnightblue" d="M94.1845,-152.261C114.761,-164.43 146.113,-180.747 176,-187.5 226.721,-198.96 242.665,-200.555 293,-187.5 320.508,-180.365 348.533,-163.185 366.631,-150.515"/>
<polygon fill="midnightblue" stroke="midnightblue" points="95.8974,-149.206 85.5325,-147.011 92.266,-155.19 95.8974,-149.206"/>
</g>
<!-- Node5 -->
<g id="node5" class="node"><title>Node5</title>
<g id="a_node5"><a xlink:href="classnlohmann_1_1basic__json.html#a71b1d38ef402dfee58fba1fe01fa67f5" target="_top" xlink:title="access the last element ">
<polygon fill="white" stroke="black" points="176,-147.5 176,-177.5 293,-177.5 293,-147.5 176,-147.5"/>
<text text-anchor="start" x="184" y="-165.5" font-family="Helvetica,sans-Serif" font-size="10.00">nlohmann::basic_json</text>
<text text-anchor="middle" x="234.5" y="-154.5" font-family="Helvetica,sans-Serif" font-size="10.00">::back</text>
</a>
</g>
</g>
<!-- Node1&#45;&gt;Node5 -->
<g id="edge4" class="edge"><title>Node1&#45;&gt;Node5</title>
<path fill="none" stroke="midnightblue" d="M142.911,-148.563C153.911,-150.256 165.142,-151.983 175.784,-153.621"/>
<polygon fill="midnightblue" stroke="midnightblue" points="143.314,-145.084 132.898,-147.023 142.249,-152.003 143.314,-145.084"/>
</g>
<!-- Node6 -->
<g id="node6" class="node"><title>Node6</title>
<g id="a_node6"><a xlink:href="classnlohmann_1_1basic__json.html#a45e789042a23138eba2b69f34df9fc45" target="_top" xlink:title="remove element given an iterator ">
<polygon fill="white" stroke="black" points="176,-98.5 176,-128.5 293,-128.5 293,-98.5 176,-98.5"/>
<text text-anchor="start" x="184" y="-116.5" font-family="Helvetica,sans-Serif" font-size="10.00">nlohmann::basic_json</text>
<text text-anchor="middle" x="234.5" y="-105.5" font-family="Helvetica,sans-Serif" font-size="10.00">::erase</text>
</a>
</g>
</g>
<!-- Node1&#45;&gt;Node6 -->
<g id="edge5" class="edge"><title>Node1&#45;&gt;Node6</title>
<path fill="none" stroke="midnightblue" d="M145.74,-126.461C155.858,-124.967 166.111,-123.453 175.867,-122.012"/>
<polygon fill="midnightblue" stroke="midnightblue" points="145.073,-123.022 135.691,-127.946 146.095,-129.947 145.073,-123.022"/>
</g>
<!-- Node7 -->
<g id="node7" class="node"><title>Node7</title>
<g id="a_node7"><a xlink:href="classnlohmann_1_1basic__json.html#affe7e160e7bb06eed83c8b437af4692f" target="_top" xlink:title="find an element in a JSON object ">
<polygon fill="white" stroke="black" points="176,-49.5 176,-79.5 293,-79.5 293,-49.5 176,-49.5"/>
<text text-anchor="start" x="184" y="-67.5" font-family="Helvetica,sans-Serif" font-size="10.00">nlohmann::basic_json</text>
<text text-anchor="middle" x="234.5" y="-56.5" font-family="Helvetica,sans-Serif" font-size="10.00">::find</text>
</a>
</g>
</g>
<!-- Node1&#45;&gt;Node7 -->
<g id="edge6" class="edge"><title>Node1&#45;&gt;Node7</title>
<path fill="none" stroke="midnightblue" d="M101.201,-123.513C122.148,-113.857 150.715,-100.775 176,-89.5 183.257,-86.2638 191.051,-82.8404 198.486,-79.5997"/>
<polygon fill="midnightblue" stroke="midnightblue" points="99.4784,-120.453 91.866,-127.823 102.412,-126.809 99.4784,-120.453"/>
</g>
<!-- Node8 -->
<g id="node8" class="node"><title>Node8</title>
<g id="a_node8"><a xlink:href="classnlohmann_1_1basic__json.html#a62ccf5b9b3674aec2403fbc02da03db8" target="_top" xlink:title="returns an iterator to the reverse&#45;beginning ">
<polygon fill="white" stroke="black" points="176,-0.5 176,-30.5 293,-30.5 293,-0.5 176,-0.5"/>
<text text-anchor="start" x="184" y="-18.5" font-family="Helvetica,sans-Serif" font-size="10.00">nlohmann::basic_json</text>
<text text-anchor="middle" x="234.5" y="-7.5" font-family="Helvetica,sans-Serif" font-size="10.00">::rbegin</text>
</a>
</g>
</g>
<!-- Node1&#45;&gt;Node8 -->
<g id="edge8" class="edge"><title>Node1&#45;&gt;Node8</title>
<path fill="none" stroke="midnightblue" d="M86.1947,-120.286C105.439,-99.2861 140.4,-63.7207 176,-40.5 181.562,-36.8724 187.737,-33.5541 193.919,-30.6037"/>
<polygon fill="midnightblue" stroke="midnightblue" points="83.5001,-118.048 79.3973,-127.816 88.6961,-122.738 83.5001,-118.048"/>
</g>
<!-- Node4 -->
<g id="node4" class="node"><title>Node4</title>
<g id="a_node4"><a xlink:href="classnlohmann_1_1basic__json.html#af071057ebab57744f5767eb369e99d42" target="_top" xlink:title="overload for a default value of type const char* ">
<polygon fill="white" stroke="black" points="482,-120.5 482,-150.5 599,-150.5 599,-120.5 482,-120.5"/>
<text text-anchor="start" x="490" y="-138.5" font-family="Helvetica,sans-Serif" font-size="10.00">nlohmann::basic_json</text>
<text text-anchor="middle" x="540.5" y="-127.5" font-family="Helvetica,sans-Serif" font-size="10.00">::value</text>
</a>
</g>
</g>
<!-- Node3&#45;&gt;Node4 -->
<g id="edge3" class="edge"><title>Node3&#45;&gt;Node4</title>
<path fill="none" stroke="midnightblue" d="M456.052,-135.5C464.678,-135.5 473.444,-135.5 481.893,-135.5"/>
<polygon fill="midnightblue" stroke="midnightblue" points="456.017,-132 446.017,-135.5 456.017,-139 456.017,-132"/>
</g>
<!-- Node7&#45;&gt;Node3 -->
<g id="edge7" class="edge"><title>Node7&#45;&gt;Node3</title>
<path fill="none" stroke="midnightblue" d="M280.284,-83.7267C284.594,-85.6503 288.888,-87.596 293,-89.5 314.505,-99.4584 338.485,-111.27 356.775,-120.431"/>
<polygon fill="midnightblue" stroke="midnightblue" points="281.453,-80.4166 270.891,-79.5757 278.623,-86.8193 281.453,-80.4166"/>
</g>
</g>
</svg>
