<?xml version="1.0" encoding="UTF-8" standalone="no"?>
<!DOCTYPE svg PUBLIC "-//W3C//DTD SVG 1.1//EN"
 "http://www.w3.org/Graphics/SVG/1.1/DTD/svg11.dtd">
<!-- Generated by graphviz version 2.38.0 (20140413.2041)
 -->
<!-- Title: pfp::cp::ExactKey Pages: 1 -->
<svg width="109pt" height="259pt"
 viewBox="0.00 0.00 109.00 259.00" xmlns="http://www.w3.org/2000/svg" xmlns:xlink="http://www.w3.org/1999/xlink">
<g id="graph0" class="graph" transform="scale(1 1) rotate(0) translate(4 255)">
<title>pfp::cp::ExactKey</title>
<polygon fill="white" stroke="none" points="-4,4 -4,-255 105,-255 105,4 -4,4"/>
<!-- Node1 -->
<g id="node1" class="node"><title>Node1</title>
<polygon fill="#bfbfbf" stroke="black" points="2.5,-0.5 2.5,-90.5 98.5,-90.5 98.5,-0.5 2.5,-0.5"/>
<text text-anchor="middle" x="50.5" y="-78.5" font-family="Helvetica,sans-Serif" font-size="10.00">pfp::cp::ExactKey</text>
<polyline fill="none" stroke="black" points="2.5,-71.5 98.5,-71.5 "/>
<text text-anchor="middle" x="50.5" y="-59.5" font-family="Helvetica,sans-Serif" font-size="10.00"> </text>
<polyline fill="none" stroke="black" points="2.5,-52.5 98.5,-52.5 "/>
<text text-anchor="start" x="10.5" y="-40.5" font-family="Helvetica,sans-Serif" font-size="10.00">+ ExactKey()</text>
<text text-anchor="start" x="10.5" y="-29.5" font-family="Helvetica,sans-Serif" font-size="10.00">+ print()</text>
<text text-anchor="start" x="10.5" y="-18.5" font-family="Helvetica,sans-Serif" font-size="10.00">+ ~ExactKey()</text>
<text text-anchor="start" x="10.5" y="-7.5" font-family="Helvetica,sans-Serif" font-size="10.00">+ get_type()</text>
</g>
<!-- Node2 -->
<g id="node2" class="node"><title>Node2</title>
<g id="a_node2"><a xlink:href="classpfp_1_1cp_1_1MatchKey.html" target="_top" xlink:title="{pfp::cp::MatchKey\n|# data\l|+ MatchKey()\l+ print()\l+ ~MatchKey()\l+ get_data()\l+ get_prefix_len()\l+ get_mask()\l+ get_type()\l}">
<polygon fill="white" stroke="black" points="0,-127.5 0,-250.5 101,-250.5 101,-127.5 0,-127.5"/>
<text text-anchor="middle" x="50.5" y="-238.5" font-family="Helvetica,sans-Serif" font-size="10.00">pfp::cp::MatchKey</text>
<polyline fill="none" stroke="black" points="0,-231.5 101,-231.5 "/>
<text text-anchor="start" x="8" y="-219.5" font-family="Helvetica,sans-Serif" font-size="10.00"># data</text>
<polyline fill="none" stroke="black" points="0,-212.5 101,-212.5 "/>
<text text-anchor="start" x="8" y="-200.5" font-family="Helvetica,sans-Serif" font-size="10.00">+ MatchKey()</text>
<text text-anchor="start" x="8" y="-189.5" font-family="Helvetica,sans-Serif" font-size="10.00">+ print()</text>
<text text-anchor="start" x="8" y="-178.5" font-family="Helvetica,sans-Serif" font-size="10.00">+ ~MatchKey()</text>
<text text-anchor="start" x="8" y="-167.5" font-family="Helvetica,sans-Serif" font-size="10.00">+ get_data()</text>
<text text-anchor="start" x="8" y="-156.5" font-family="Helvetica,sans-Serif" font-size="10.00">+ get_prefix_len()</text>
<text text-anchor="start" x="8" y="-145.5" font-family="Helvetica,sans-Serif" font-size="10.00">+ get_mask()</text>
<text text-anchor="start" x="8" y="-134.5" font-family="Helvetica,sans-Serif" font-size="10.00">+ get_type()</text>
</a>
</g>
</g>
<!-- Node2&#45;&gt;Node1 -->
<g id="edge1" class="edge"><title>Node2&#45;&gt;Node1</title>
<path fill="none" stroke="midnightblue" d="M50.5,-117.033C50.5,-108.028 50.5,-99.0285 50.5,-90.6168"/>
<polygon fill="none" stroke="midnightblue" points="47.0001,-117.17 50.5,-127.17 54.0001,-117.17 47.0001,-117.17"/>
</g>
</g>
</svg>
