<?xml version="1.0" encoding="UTF-8" standalone="no"?>
<!DOCTYPE svg PUBLIC "-//W3C//DTD SVG 1.1//EN"
 "http://www.w3.org/Graphics/SVG/1.1/DTD/svg11.dtd">
<!-- Generated by graphviz version 2.38.0 (20140413.2041)
 -->
<!-- Title: pfp::cp::CommandResult Pages: 1 -->
<svg width="638pt" height="204pt"
 viewBox="0.00 0.00 638.00 204.00" xmlns="http://www.w3.org/2000/svg" xmlns:xlink="http://www.w3.org/1999/xlink">
<g id="graph0" class="graph" transform="scale(1 1) rotate(0) translate(4 200)">
<title>pfp::cp::CommandResult</title>
<polygon fill="white" stroke="none" points="-4,4 -4,-200 634,-200 634,4 -4,4"/>
<!-- Node1 -->
<g id="node1" class="node"><title>Node1</title>
<polygon fill="#bfbfbf" stroke="black" points="250.5,-116.5 250.5,-195.5 379.5,-195.5 379.5,-116.5 250.5,-116.5"/>
<text text-anchor="middle" x="315" y="-183.5" font-family="Helvetica,sans-Serif" font-size="10.00">pfp::cp::CommandResult</text>
<polyline fill="none" stroke="black" points="250.5,-176.5 379.5,-176.5 "/>
<text text-anchor="start" x="258.5" y="-164.5" font-family="Helvetica,sans-Serif" font-size="10.00">+ command</text>
<polyline fill="none" stroke="black" points="250.5,-157.5 379.5,-157.5 "/>
<text text-anchor="start" x="258.5" y="-145.5" font-family="Helvetica,sans-Serif" font-size="10.00">+ ~CommandResult()</text>
<text text-anchor="start" x="258.5" y="-134.5" font-family="Helvetica,sans-Serif" font-size="10.00">+ process()</text>
<text text-anchor="start" x="258.5" y="-123.5" font-family="Helvetica,sans-Serif" font-size="10.00">+ CommandResult()</text>
</g>
<!-- Node2 -->
<g id="node2" class="node"><title>Node2</title>
<g id="a_node2"><a xlink:href="classpfp_1_1cp_1_1DeleteResult.html" target="_top" xlink:title="{pfp::cp::DeleteResult\n||+ ~DeleteResult()\l+ OVERRIDE_PROCESS()\l}">
<polygon fill="white" stroke="black" points="0,-6 0,-74 144,-74 144,-6 0,-6"/>
<text text-anchor="middle" x="72" y="-62" font-family="Helvetica,sans-Serif" font-size="10.00">pfp::cp::DeleteResult</text>
<polyline fill="none" stroke="black" points="0,-55 144,-55 "/>
<text text-anchor="middle" x="72" y="-43" font-family="Helvetica,sans-Serif" font-size="10.00"> </text>
<polyline fill="none" stroke="black" points="0,-36 144,-36 "/>
<text text-anchor="start" x="8" y="-24" font-family="Helvetica,sans-Serif" font-size="10.00">+ ~DeleteResult()</text>
<text text-anchor="start" x="8" y="-13" font-family="Helvetica,sans-Serif" font-size="10.00">+ OVERRIDE_PROCESS()</text>
</a>
</g>
</g>
<!-- Node1&#45;&gt;Node2 -->
<g id="edge1" class="edge"><title>Node1&#45;&gt;Node2</title>
<path fill="none" stroke="midnightblue" d="M241.036,-121.043C213.371,-108.267 181.704,-93.5539 153,-80 148.907,-78.0674 144.702,-76.0722 140.463,-74.0533"/>
<polygon fill="none" stroke="midnightblue" points="239.708,-124.285 250.254,-125.297 242.641,-117.929 239.708,-124.285"/>
</g>
<!-- Node3 -->
<g id="node3" class="node"><title>Node3</title>
<g id="a_node3"><a xlink:href="classpfp_1_1cp_1_1FailedResult.html" target="_top" xlink:title="{pfp::cp::FailedResult\n|+ message\l|+ ~FailedResult()\l+ OVERRIDE_PROCESS()\l}">
<polygon fill="white" stroke="black" points="162,-6 162,-74 306,-74 306,-6 162,-6"/>
<text text-anchor="middle" x="234" y="-62" font-family="Helvetica,sans-Serif" font-size="10.00">pfp::cp::FailedResult</text>
<polyline fill="none" stroke="black" points="162,-55 306,-55 "/>
<text text-anchor="start" x="170" y="-43" font-family="Helvetica,sans-Serif" font-size="10.00">+ message</text>
<polyline fill="none" stroke="black" points="162,-36 306,-36 "/>
<text text-anchor="start" x="170" y="-24" font-family="Helvetica,sans-Serif" font-size="10.00">+ ~FailedResult()</text>
<text text-anchor="start" x="170" y="-13" font-family="Helvetica,sans-Serif" font-size="10.00">+ OVERRIDE_PROCESS()</text>
</a>
</g>
</g>
<!-- Node1&#45;&gt;Node3 -->
<g id="edge2" class="edge"><title>Node1&#45;&gt;Node3</title>
<path fill="none" stroke="midnightblue" d="M281.766,-108.227C273.662,-96.8206 265.156,-84.8497 257.605,-74.2225"/>
<polygon fill="none" stroke="midnightblue" points="278.932,-110.28 287.577,-116.405 284.638,-106.226 278.932,-110.28"/>
</g>
<!-- Node4 -->
<g id="node4" class="node"><title>Node4</title>
<g id="a_node4"><a xlink:href="classpfp_1_1cp_1_1InsertResult.html" target="_top" xlink:title="{pfp::cp::InsertResult\n|+ handle\l|+ ~InsertResult()\l+ OVERRIDE_PROCESS()\l+ InsertResult()\l}">
<polygon fill="white" stroke="black" points="324,-0.5 324,-79.5 468,-79.5 468,-0.5 324,-0.5"/>
<text text-anchor="middle" x="396" y="-67.5" font-family="Helvetica,sans-Serif" font-size="10.00">pfp::cp::InsertResult</text>
<polyline fill="none" stroke="black" points="324,-60.5 468,-60.5 "/>
<text text-anchor="start" x="332" y="-48.5" font-family="Helvetica,sans-Serif" font-size="10.00">+ handle</text>
<polyline fill="none" stroke="black" points="324,-41.5 468,-41.5 "/>
<text text-anchor="start" x="332" y="-29.5" font-family="Helvetica,sans-Serif" font-size="10.00">+ ~InsertResult()</text>
<text text-anchor="start" x="332" y="-18.5" font-family="Helvetica,sans-Serif" font-size="10.00">+ OVERRIDE_PROCESS()</text>
<text text-anchor="start" x="332" y="-7.5" font-family="Helvetica,sans-Serif" font-size="10.00">+ InsertResult()</text>
</a>
</g>
</g>
<!-- Node1&#45;&gt;Node4 -->
<g id="edge3" class="edge"><title>Node1&#45;&gt;Node4</title>
<path fill="none" stroke="midnightblue" d="M348.274,-108.17C355.036,-98.6535 362.075,-88.746 368.605,-79.5555"/>
<polygon fill="none" stroke="midnightblue" points="345.362,-106.226 342.423,-116.405 351.068,-110.28 345.362,-106.226"/>
</g>
<!-- Node5 -->
<g id="node5" class="node"><title>Node5</title>
<g id="a_node5"><a xlink:href="classpfp_1_1cp_1_1ModifyResult.html" target="_top" xlink:title="{pfp::cp::ModifyResult\n||+ ~ModifyResult()\l+ OVERRIDE_PROCESS()\l}">
<polygon fill="white" stroke="black" points="486,-6 486,-74 630,-74 630,-6 486,-6"/>
<text text-anchor="middle" x="558" y="-62" font-family="Helvetica,sans-Serif" font-size="10.00">pfp::cp::ModifyResult</text>
<polyline fill="none" stroke="black" points="486,-55 630,-55 "/>
<text text-anchor="middle" x="558" y="-43" font-family="Helvetica,sans-Serif" font-size="10.00"> </text>
<polyline fill="none" stroke="black" points="486,-36 630,-36 "/>
<text text-anchor="start" x="494" y="-24" font-family="Helvetica,sans-Serif" font-size="10.00">+ ~ModifyResult()</text>
<text text-anchor="start" x="494" y="-13" font-family="Helvetica,sans-Serif" font-size="10.00">+ OVERRIDE_PROCESS()</text>
</a>
</g>
</g>
<!-- Node1&#45;&gt;Node5 -->
<g id="edge4" class="edge"><title>Node1&#45;&gt;Node5</title>
<path fill="none" stroke="midnightblue" d="M388.964,-121.043C416.629,-108.267 448.296,-93.5539 477,-80 481.093,-78.0674 485.298,-76.0722 489.537,-74.0533"/>
<polygon fill="none" stroke="midnightblue" points="387.359,-117.929 379.746,-125.297 390.292,-124.285 387.359,-117.929"/>
</g>
</g>
</svg>
