<?xml version="1.0" encoding="UTF-8" standalone="no"?>
<!DOCTYPE svg PUBLIC "-//W3C//DTD SVG 1.1//EN"
 "http://www.w3.org/Graphics/SVG/1.1/DTD/svg11.dtd">
<!-- Generated by graphviz version 2.38.0 (20140413.2041)
 -->
<!-- Title: nlohmann::basic_json::is_object Pages: 1 -->
<svg width="598pt" height="411pt"
 viewBox="0.00 0.00 598.00 411.00" xmlns="http://www.w3.org/2000/svg" xmlns:xlink="http://www.w3.org/1999/xlink">
<g id="graph0" class="graph" transform="scale(1 1) rotate(0) translate(4 407)">
<title>nlohmann::basic_json::is_object</title>
<polygon fill="white" stroke="none" points="-4,4 -4,-407 594,-407 594,4 -4,4"/>
<!-- Node1 -->
<g id="node1" class="node"><title>Node1</title>
<polygon fill="#bfbfbf" stroke="black" points="0,-196.5 0,-226.5 117,-226.5 117,-196.5 0,-196.5"/>
<text text-anchor="start" x="8" y="-214.5" font-family="Helvetica,sans-Serif" font-size="10.00">nlohmann::basic_json</text>
<text text-anchor="middle" x="58.5" y="-203.5" font-family="Helvetica,sans-Serif" font-size="10.00">::is_object</text>
</g>
<!-- Node2 -->
<g id="node2" class="node"><title>Node2</title>
<g id="a_node2"><a xlink:href="classnlohmann_1_1basic__json.html#a873f4bff2f2a83f68fc1b5341ebdd446" target="_top" xlink:title="return whether type is structured ">
<polygon fill="white" stroke="black" points="160,-372.5 160,-402.5 277,-402.5 277,-372.5 160,-372.5"/>
<text text-anchor="start" x="168" y="-390.5" font-family="Helvetica,sans-Serif" font-size="10.00">nlohmann::basic_json</text>
<text text-anchor="middle" x="218.5" y="-379.5" font-family="Helvetica,sans-Serif" font-size="10.00">::is_structured</text>
</a>
</g>
</g>
<!-- Node1&#45;&gt;Node2 -->
<g id="edge1" class="edge"><title>Node1&#45;&gt;Node2</title>
<path fill="none" stroke="midnightblue" d="M68.7872,-235.96C82.4815,-268.982 111.082,-327.686 153,-362.5 157.619,-366.336 162.895,-369.628 168.394,-372.441"/>
<polygon fill="midnightblue" stroke="midnightblue" points="71.9975,-234.562 65.0176,-226.591 65.5034,-237.175 71.9975,-234.562"/>
</g>
<!-- Node3 -->
<g id="node3" class="node"><title>Node3</title>
<g id="a_node3"><a xlink:href="classnlohmann_1_1basic__json.html#a7ed92d56cb313b243c1917696ffdf074" target="_top" xlink:title="access specified object element with bounds checking ">
<polygon fill="white" stroke="black" points="153,-334 153,-353 284,-353 284,-334 153,-334"/>
<text text-anchor="middle" x="218.5" y="-341" font-family="Helvetica,sans-Serif" font-size="10.00">nlohmann::basic_json::at</text>
</a>
</g>
</g>
<!-- Node1&#45;&gt;Node3 -->
<g id="edge2" class="edge"><title>Node1&#45;&gt;Node3</title>
<path fill="none" stroke="midnightblue" d="M73.3167,-235.526C89.3045,-261.228 117.976,-301.402 153,-324.5 158.847,-328.356 165.497,-331.448 172.251,-333.923"/>
<polygon fill="midnightblue" stroke="midnightblue" points="76.1872,-233.509 68.012,-226.77 70.2003,-237.136 76.1872,-233.509"/>
</g>
<!-- Node4 -->
<g id="node4" class="node"><title>Node4</title>
<g id="a_node4"><a xlink:href="classnlohmann_1_1basic__json.html#a92fbb711a36b5ce78ee228b26787c034" target="_top" xlink:title="access specified object element ">
<polygon fill="white" stroke="black" points="160,-284.5 160,-314.5 277,-314.5 277,-284.5 160,-284.5"/>
<text text-anchor="start" x="168" y="-302.5" font-family="Helvetica,sans-Serif" font-size="10.00">nlohmann::basic_json</text>
<text text-anchor="middle" x="218.5" y="-291.5" font-family="Helvetica,sans-Serif" font-size="10.00">::operator[]</text>
</a>
</g>
</g>
<!-- Node1&#45;&gt;Node4 -->
<g id="edge3" class="edge"><title>Node1&#45;&gt;Node4</title>
<path fill="none" stroke="midnightblue" d="M90.9498,-232.321C108.831,-243.824 131.818,-258.058 153,-269.5 162.562,-274.665 173.172,-279.824 182.979,-284.371"/>
<polygon fill="midnightblue" stroke="midnightblue" points="92.3959,-229.088 82.1011,-226.584 88.5877,-234.961 92.3959,-229.088"/>
</g>
<!-- Node5 -->
<g id="node5" class="node"><title>Node5</title>
<g id="a_node5"><a xlink:href="classnlohmann_1_1basic__json.html#a0a2cbbd95862a623e7dc5c37e67dead0" target="_top" xlink:title="access specified object element with default value ">
<polygon fill="white" stroke="black" points="320,-193.5 320,-223.5 437,-223.5 437,-193.5 320,-193.5"/>
<text text-anchor="start" x="328" y="-211.5" font-family="Helvetica,sans-Serif" font-size="10.00">nlohmann::basic_json</text>
<text text-anchor="middle" x="378.5" y="-200.5" font-family="Helvetica,sans-Serif" font-size="10.00">::value</text>
</a>
</g>
</g>
<!-- Node1&#45;&gt;Node5 -->
<g id="edge4" class="edge"><title>Node1&#45;&gt;Node5</title>
<path fill="none" stroke="midnightblue" d="M116.055,-229.155C128.131,-232.208 140.896,-234.91 153,-236.5 210.726,-244.084 226.393,-244.94 284,-236.5 301.604,-233.921 320.497,-228.747 336.659,-223.541"/>
<polygon fill="midnightblue" stroke="midnightblue" points="116.666,-225.696 106.103,-226.523 114.876,-232.463 116.666,-225.696"/>
</g>
<!-- Node7 -->
<g id="node7" class="node"><title>Node7</title>
<g id="a_node7"><a xlink:href="classnlohmann_1_1basic__json.html#aa36e72ffc3241b960fe9186d19e03bc3" target="_top" xlink:title="remove element from a JSON object given a key ">
<polygon fill="white" stroke="black" points="160,-196.5 160,-226.5 277,-226.5 277,-196.5 160,-196.5"/>
<text text-anchor="start" x="168" y="-214.5" font-family="Helvetica,sans-Serif" font-size="10.00">nlohmann::basic_json</text>
<text text-anchor="middle" x="218.5" y="-203.5" font-family="Helvetica,sans-Serif" font-size="10.00">::erase</text>
</a>
</g>
</g>
<!-- Node1&#45;&gt;Node7 -->
<g id="edge6" class="edge"><title>Node1&#45;&gt;Node7</title>
<path fill="none" stroke="midnightblue" d="M127.62,-211.5C138.356,-211.5 149.366,-211.5 159.835,-211.5"/>
<polygon fill="midnightblue" stroke="midnightblue" points="127.436,-208 117.436,-211.5 127.436,-215 127.436,-208"/>
</g>
<!-- Node8 -->
<g id="node8" class="node"><title>Node8</title>
<g id="a_node8"><a xlink:href="classnlohmann_1_1basic__json.html#affe7e160e7bb06eed83c8b437af4692f" target="_top" xlink:title="find an element in a JSON object ">
<polygon fill="white" stroke="black" points="160,-147.5 160,-177.5 277,-177.5 277,-147.5 160,-147.5"/>
<text text-anchor="start" x="168" y="-165.5" font-family="Helvetica,sans-Serif" font-size="10.00">nlohmann::basic_json</text>
<text text-anchor="middle" x="218.5" y="-154.5" font-family="Helvetica,sans-Serif" font-size="10.00">::find</text>
</a>
</g>
</g>
<!-- Node1&#45;&gt;Node8 -->
<g id="edge7" class="edge"><title>Node1&#45;&gt;Node8</title>
<path fill="none" stroke="midnightblue" d="M117.905,-193.387C134.702,-188.178 152.835,-182.554 168.966,-177.552"/>
<polygon fill="midnightblue" stroke="midnightblue" points="116.709,-190.093 108.194,-196.399 118.782,-196.779 116.709,-190.093"/>
</g>
<!-- Node9 -->
<g id="node9" class="node"><title>Node9</title>
<g id="a_node9"><a xlink:href="classnlohmann_1_1basic__json.html#a51b0036310d8aa5858fecc0d91127f27" target="_top" xlink:title="returns the number of occurrences of a key in a JSON object ">
<polygon fill="white" stroke="black" points="160,-98.5 160,-128.5 277,-128.5 277,-98.5 160,-98.5"/>
<text text-anchor="start" x="168" y="-116.5" font-family="Helvetica,sans-Serif" font-size="10.00">nlohmann::basic_json</text>
<text text-anchor="middle" x="218.5" y="-105.5" font-family="Helvetica,sans-Serif" font-size="10.00">::count</text>
</a>
</g>
</g>
<!-- Node1&#45;&gt;Node9 -->
<g id="edge9" class="edge"><title>Node1&#45;&gt;Node9</title>
<path fill="none" stroke="midnightblue" d="M83.3977,-189.626C101.502,-173.883 127.529,-152.96 153,-138.5 159.371,-134.883 166.368,-131.571 173.331,-128.623"/>
<polygon fill="midnightblue" stroke="midnightblue" points="80.8461,-187.21 75.6674,-196.453 85.4797,-192.457 80.8461,-187.21"/>
</g>
<!-- Node10 -->
<g id="node10" class="node"><title>Node10</title>
<g id="a_node10"><a xlink:href="classnlohmann_1_1basic__json.html#a5212588544f6d2266384c3be9bfda0c5" target="_top" xlink:title="add an object to an object ">
<polygon fill="white" stroke="black" points="160,-49.5 160,-79.5 277,-79.5 277,-49.5 160,-49.5"/>
<text text-anchor="start" x="168" y="-67.5" font-family="Helvetica,sans-Serif" font-size="10.00">nlohmann::basic_json</text>
<text text-anchor="middle" x="218.5" y="-56.5" font-family="Helvetica,sans-Serif" font-size="10.00">::push_back</text>
</a>
</g>
</g>
<!-- Node1&#45;&gt;Node10 -->
<g id="edge10" class="edge"><title>Node1&#45;&gt;Node10</title>
<path fill="none" stroke="midnightblue" d="M72.5375,-187.345C88.3224,-160.15 117.284,-116.277 153,-89.5 158.093,-85.6818 163.841,-82.3731 169.756,-79.5264"/>
<polygon fill="midnightblue" stroke="midnightblue" points="69.3976,-185.787 67.5143,-196.213 75.4883,-189.237 69.3976,-185.787"/>
</g>
<!-- Node11 -->
<g id="node11" class="node"><title>Node11</title>
<g id="a_node11"><a xlink:href="classnlohmann_1_1basic__json.html#a38ee0f09a318d003add75e0787040794" target="_top" xlink:title="exchanges the values ">
<polygon fill="white" stroke="black" points="160,-0.5 160,-30.5 277,-30.5 277,-0.5 160,-0.5"/>
<text text-anchor="start" x="168" y="-18.5" font-family="Helvetica,sans-Serif" font-size="10.00">nlohmann::basic_json</text>
<text text-anchor="middle" x="218.5" y="-7.5" font-family="Helvetica,sans-Serif" font-size="10.00">::swap</text>
</a>
</g>
</g>
<!-- Node1&#45;&gt;Node11 -->
<g id="edge11" class="edge"><title>Node1&#45;&gt;Node11</title>
<path fill="none" stroke="midnightblue" d="M66.9941,-186.542C79.2473,-149.738 106.931,-80.9138 153,-40.5 157.334,-36.6985 162.31,-33.4436 167.535,-30.6641"/>
<polygon fill="midnightblue" stroke="midnightblue" points="63.5386,-185.855 63.8137,-196.447 70.2034,-187.996 63.5386,-185.855"/>
</g>
<!-- Node6 -->
<g id="node6" class="node"><title>Node6</title>
<g id="a_node6"><a xlink:href="classnlohmann_1_1basic__json.html#af071057ebab57744f5767eb369e99d42" target="_top" xlink:title="overload for a default value of type const char* ">
<polygon fill="white" stroke="black" points="473,-193.5 473,-223.5 590,-223.5 590,-193.5 473,-193.5"/>
<text text-anchor="start" x="481" y="-211.5" font-family="Helvetica,sans-Serif" font-size="10.00">nlohmann::basic_json</text>
<text text-anchor="middle" x="531.5" y="-200.5" font-family="Helvetica,sans-Serif" font-size="10.00">::value</text>
</a>
</g>
</g>
<!-- Node5&#45;&gt;Node6 -->
<g id="edge5" class="edge"><title>Node5&#45;&gt;Node6</title>
<path fill="none" stroke="midnightblue" d="M447.052,-208.5C455.678,-208.5 464.444,-208.5 472.893,-208.5"/>
<polygon fill="midnightblue" stroke="midnightblue" points="447.017,-205 437.017,-208.5 447.017,-212 447.017,-205"/>
</g>
<!-- Node8&#45;&gt;Node5 -->
<g id="edge8" class="edge"><title>Node8&#45;&gt;Node5</title>
<path fill="none" stroke="midnightblue" d="M280.87,-180.367C295.761,-184.702 311.532,-189.294 325.919,-193.483"/>
<polygon fill="midnightblue" stroke="midnightblue" points="281.815,-176.997 271.235,-177.562 279.858,-183.718 281.815,-176.997"/>
</g>
</g>
</svg>
