<?xml version="1.0" encoding="UTF-8" standalone="no"?>
<!DOCTYPE svg PUBLIC "-//W3C//DTD SVG 1.1//EN"
 "http://www.w3.org/Graphics/SVG/1.1/DTD/svg11.dtd">
<!-- Generated by graphviz version 2.38.0 (20140413.2041)
 -->
<!-- Title: nlohmann::basic_json::operator+= Pages: 1 -->
<svg width="431pt" height="137pt"
 viewBox="0.00 0.00 431.00 137.00" xmlns="http://www.w3.org/2000/svg" xmlns:xlink="http://www.w3.org/1999/xlink">
<g id="graph0" class="graph" transform="scale(1 1) rotate(0) translate(4 133)">
<title>nlohmann::basic_json::operator+=</title>
<polygon fill="white" stroke="none" points="-4,4 -4,-133 427,-133 427,4 -4,4"/>
<!-- Node1 -->
<g id="node1" class="node"><title>Node1</title>
<polygon fill="#bfbfbf" stroke="black" points="0,-73.5 0,-103.5 117,-103.5 117,-73.5 0,-73.5"/>
<text text-anchor="start" x="8" y="-91.5" font-family="Helvetica,sans-Serif" font-size="10.00">nlohmann::basic_json</text>
<text text-anchor="middle" x="58.5" y="-80.5" font-family="Helvetica,sans-Serif" font-size="10.00">::operator+=</text>
</g>
<!-- Node2 -->
<g id="node2" class="node"><title>Node2</title>
<g id="a_node2"><a xlink:href="classnlohmann_1_1basic__json.html#a486b96adbf4886c38e38c952394a220f" target="_top" xlink:title="add an object to an array ">
<polygon fill="white" stroke="black" points="153,-98.5 153,-128.5 270,-128.5 270,-98.5 153,-98.5"/>
<text text-anchor="start" x="161" y="-116.5" font-family="Helvetica,sans-Serif" font-size="10.00">nlohmann::basic_json</text>
<text text-anchor="middle" x="211.5" y="-105.5" font-family="Helvetica,sans-Serif" font-size="10.00">::push_back</text>
</a>
</g>
</g>
<!-- Node1&#45;&gt;Node2 -->
<g id="edge1" class="edge"><title>Node1&#45;&gt;Node2</title>
<path fill="none" stroke="midnightblue" d="M117.017,-98.0227C125.464,-99.4212 134.229,-100.872 142.856,-102.301"/>
<polygon fill="midnightblue" stroke="midnightblue" points="142.455,-105.782 152.893,-103.962 143.599,-98.8759 142.455,-105.782"/>
</g>
<!-- Node5 -->
<g id="node5" class="node"><title>Node5</title>
<g id="a_node5"><a xlink:href="classnlohmann_1_1basic__json.html#a59732a1de287a7301cca19a7a7748159" target="_top" xlink:title="access specified array element ">
<polygon fill="white" stroke="black" points="153,-49.5 153,-79.5 270,-79.5 270,-49.5 153,-49.5"/>
<text text-anchor="start" x="161" y="-67.5" font-family="Helvetica,sans-Serif" font-size="10.00">nlohmann::basic_json</text>
<text text-anchor="middle" x="211.5" y="-56.5" font-family="Helvetica,sans-Serif" font-size="10.00">::operator[]</text>
</a>
</g>
</g>
<!-- Node1&#45;&gt;Node5 -->
<g id="edge4" class="edge"><title>Node1&#45;&gt;Node5</title>
<path fill="none" stroke="midnightblue" d="M117.017,-79.3582C125.464,-78.0157 134.229,-76.6225 142.856,-75.2513"/>
<polygon fill="midnightblue" stroke="midnightblue" points="143.566,-78.6826 152.893,-73.6562 142.467,-71.7693 143.566,-78.6826"/>
</g>
<!-- Node3 -->
<g id="node3" class="node"><title>Node3</title>
<g id="a_node3"><a xlink:href="classnlohmann_1_1basic__json.html#a8abdfc0d6e051f6fa29d49da57bce631" target="_top" xlink:title="return whether value is null ">
<polygon fill="white" stroke="black" points="306,-49.5 306,-79.5 423,-79.5 423,-49.5 306,-49.5"/>
<text text-anchor="start" x="314" y="-67.5" font-family="Helvetica,sans-Serif" font-size="10.00">nlohmann::basic_json</text>
<text text-anchor="middle" x="364.5" y="-56.5" font-family="Helvetica,sans-Serif" font-size="10.00">::is_null</text>
</a>
</g>
</g>
<!-- Node2&#45;&gt;Node3 -->
<g id="edge2" class="edge"><title>Node2&#45;&gt;Node3</title>
<path fill="none" stroke="midnightblue" d="M259.037,-98.3986C274.322,-93.4385 291.474,-87.8726 307.392,-82.7071"/>
<polygon fill="midnightblue" stroke="midnightblue" points="308.685,-85.9673 317.117,-79.5516 306.525,-79.3091 308.685,-85.9673"/>
</g>
<!-- Node4 -->
<g id="node4" class="node"><title>Node4</title>
<g id="a_node4"><a xlink:href="classnlohmann_1_1basic__json.html#a256a4cef002023acab3c9d75b569f54a" target="_top" xlink:title="return whether value is an array ">
<polygon fill="white" stroke="black" points="306,-98.5 306,-128.5 423,-128.5 423,-98.5 306,-98.5"/>
<text text-anchor="start" x="314" y="-116.5" font-family="Helvetica,sans-Serif" font-size="10.00">nlohmann::basic_json</text>
<text text-anchor="middle" x="364.5" y="-105.5" font-family="Helvetica,sans-Serif" font-size="10.00">::is_array</text>
</a>
</g>
</g>
<!-- Node2&#45;&gt;Node4 -->
<g id="edge3" class="edge"><title>Node2&#45;&gt;Node4</title>
<path fill="none" stroke="midnightblue" d="M270.017,-113.5C278.464,-113.5 287.229,-113.5 295.856,-113.5"/>
<polygon fill="midnightblue" stroke="midnightblue" points="295.893,-117 305.893,-113.5 295.892,-110 295.893,-117"/>
</g>
<!-- Node5&#45;&gt;Node3 -->
<g id="edge5" class="edge"><title>Node5&#45;&gt;Node3</title>
<path fill="none" stroke="midnightblue" d="M270.017,-64.5C278.464,-64.5 287.229,-64.5 295.856,-64.5"/>
<polygon fill="midnightblue" stroke="midnightblue" points="295.893,-68.0001 305.893,-64.5 295.892,-61.0001 295.893,-68.0001"/>
</g>
<!-- Node5&#45;&gt;Node4 -->
<g id="edge6" class="edge"><title>Node5&#45;&gt;Node4</title>
<path fill="none" stroke="midnightblue" d="M259.037,-79.6014C274.322,-84.5615 291.474,-90.1274 307.392,-95.2929"/>
<polygon fill="midnightblue" stroke="midnightblue" points="306.525,-98.6909 317.117,-98.4484 308.685,-92.0327 306.525,-98.6909"/>
</g>
<!-- Node6 -->
<g id="node6" class="node"><title>Node6</title>
<g id="a_node6"><a xlink:href="classnlohmann_1_1basic__json.html#a53771a7a4f2787125e55f64448f24ce6" target="_top" xlink:title="create a null object (implicitly) ">
<polygon fill="white" stroke="black" points="306,-0.5 306,-30.5 423,-30.5 423,-0.5 306,-0.5"/>
<text text-anchor="start" x="314" y="-18.5" font-family="Helvetica,sans-Serif" font-size="10.00">nlohmann::basic_json</text>
<text text-anchor="middle" x="364.5" y="-7.5" font-family="Helvetica,sans-Serif" font-size="10.00">::basic_json</text>
</a>
</g>
</g>
<!-- Node5&#45;&gt;Node6 -->
<g id="edge7" class="edge"><title>Node5&#45;&gt;Node6</title>
<path fill="none" stroke="midnightblue" d="M259.037,-49.3986C274.322,-44.4385 291.474,-38.8726 307.392,-33.7071"/>
<polygon fill="midnightblue" stroke="midnightblue" points="308.685,-36.9673 317.117,-30.5516 306.525,-30.3091 308.685,-36.9673"/>
</g>
</g>
</svg>
