<?xml version="1.0" encoding="UTF-8" standalone="no"?>
<!DOCTYPE svg PUBLIC "-//W3C//DTD SVG 1.1//EN"
 "http://www.w3.org/Graphics/SVG/1.1/DTD/svg11.dtd">
<!-- Generated by graphviz version 2.38.0 (20140413.2041)
 -->
<!-- Title: pfp::core::PFPObserver::counter_updated Pages: 1 -->
<svg width="453pt" height="137pt"
 viewBox="0.00 0.00 453.00 137.00" xmlns="http://www.w3.org/2000/svg" xmlns:xlink="http://www.w3.org/1999/xlink">
<g id="graph0" class="graph" transform="scale(1 1) rotate(0) translate(4 133)">
<title>pfp::core::PFPObserver::counter_updated</title>
<polygon fill="white" stroke="none" points="-4,4 -4,-133 449,-133 449,4 -4,4"/>
<!-- Node1 -->
<g id="node1" class="node"><title>Node1</title>
<polygon fill="#bfbfbf" stroke="black" points="0,-49.5 0,-79.5 125,-79.5 125,-49.5 0,-49.5"/>
<text text-anchor="start" x="8" y="-67.5" font-family="Helvetica,sans-Serif" font-size="10.00">pfp::core::PFPObserver</text>
<text text-anchor="middle" x="62.5" y="-56.5" font-family="Helvetica,sans-Serif" font-size="10.00">::counter_updated</text>
</g>
<!-- Node2 -->
<g id="node2" class="node"><title>Node2</title>
<g id="a_node2"><a xlink:href="classpfp_1_1core_1_1PFPObject.html#a04e6dd971750758a0706c6a73fd77021" target="_top" xlink:title="Notify all attached observers when a counter is changed. ">
<polygon fill="white" stroke="black" points="161,-49.5 161,-79.5 296,-79.5 296,-49.5 161,-49.5"/>
<text text-anchor="start" x="169" y="-67.5" font-family="Helvetica,sans-Serif" font-size="10.00">pfp::core::PFPObject</text>
<text text-anchor="middle" x="228.5" y="-56.5" font-family="Helvetica,sans-Serif" font-size="10.00">::notify_counter_changed</text>
</a>
</g>
</g>
<!-- Node1&#45;&gt;Node2 -->
<g id="edge1" class="edge"><title>Node1&#45;&gt;Node2</title>
<path fill="none" stroke="midnightblue" d="M135.045,-64.5C143.654,-64.5 152.419,-64.5 160.953,-64.5"/>
<polygon fill="midnightblue" stroke="midnightblue" points="135.034,-61.0001 125.034,-64.5 135.034,-68.0001 135.034,-61.0001"/>
</g>
<!-- Node3 -->
<g id="node3" class="node"><title>Node3</title>
<g id="a_node3"><a xlink:href="classpfp_1_1core_1_1PFPObject.html#ab8e4b5c8876e05fa30c360140534886d" target="_top" xlink:title="Set the value of a counter. ">
<polygon fill="white" stroke="black" points="333,-98.5 333,-128.5 444,-128.5 444,-98.5 333,-98.5"/>
<text text-anchor="start" x="341" y="-116.5" font-family="Helvetica,sans-Serif" font-size="10.00">pfp::core::PFPObject</text>
<text text-anchor="middle" x="388.5" y="-105.5" font-family="Helvetica,sans-Serif" font-size="10.00">::set_counter</text>
</a>
</g>
</g>
<!-- Node2&#45;&gt;Node3 -->
<g id="edge2" class="edge"><title>Node2&#45;&gt;Node3</title>
<path fill="none" stroke="midnightblue" d="M287.905,-82.6129C304.702,-87.8222 322.835,-93.4457 338.966,-98.4484"/>
<polygon fill="midnightblue" stroke="midnightblue" points="288.782,-79.2207 278.194,-79.6014 286.709,-85.9065 288.782,-79.2207"/>
</g>
<!-- Node4 -->
<g id="node4" class="node"><title>Node4</title>
<g id="a_node4"><a xlink:href="classpfp_1_1core_1_1PFPObject.html#ab222c952c3baaee7a1e1500e50b4c413" target="_top" xlink:title="Increment the specified counter. ">
<polygon fill="white" stroke="black" points="333,-49.5 333,-79.5 444,-79.5 444,-49.5 333,-49.5"/>
<text text-anchor="start" x="341" y="-67.5" font-family="Helvetica,sans-Serif" font-size="10.00">pfp::core::PFPObject</text>
<text text-anchor="middle" x="388.5" y="-56.5" font-family="Helvetica,sans-Serif" font-size="10.00">::increment_counter</text>
</a>
</g>
</g>
<!-- Node2&#45;&gt;Node4 -->
<g id="edge3" class="edge"><title>Node2&#45;&gt;Node4</title>
<path fill="none" stroke="midnightblue" d="M306.216,-64.5C315.26,-64.5 324.343,-64.5 332.992,-64.5"/>
<polygon fill="midnightblue" stroke="midnightblue" points="306.048,-61.0001 296.048,-64.5 306.048,-68.0001 306.048,-61.0001"/>
</g>
<!-- Node5 -->
<g id="node5" class="node"><title>Node5</title>
<g id="a_node5"><a xlink:href="classpfp_1_1core_1_1PFPObject.html#a33c74496232302a3d5b794292eeda719" target="_top" xlink:title="Decrement the specified counter. ">
<polygon fill="white" stroke="black" points="332,-0.5 332,-30.5 445,-30.5 445,-0.5 332,-0.5"/>
<text text-anchor="start" x="340" y="-18.5" font-family="Helvetica,sans-Serif" font-size="10.00">pfp::core::PFPObject</text>
<text text-anchor="middle" x="388.5" y="-7.5" font-family="Helvetica,sans-Serif" font-size="10.00">::decrement_counter</text>
</a>
</g>
</g>
<!-- Node2&#45;&gt;Node5 -->
<g id="edge4" class="edge"><title>Node2&#45;&gt;Node5</title>
<path fill="none" stroke="midnightblue" d="M287.905,-46.3871C304.702,-41.1778 322.835,-35.5543 338.966,-30.5516"/>
<polygon fill="midnightblue" stroke="midnightblue" points="286.709,-43.0935 278.194,-49.3986 288.782,-49.7793 286.709,-43.0935"/>
</g>
</g>
</svg>
