<?xml version="1.0" encoding="UTF-8" standalone="no"?>
<!DOCTYPE svg PUBLIC "-//W3C//DTD SVG 1.1//EN"
 "http://www.w3.org/Graphics/SVG/1.1/DTD/svg11.dtd">
<!-- Generated by graphviz version 2.38.0 (20140413.2041)
 -->
<!-- Title: pfp::cp::Command Pages: 1 -->
<svg width="662pt" height="397pt"
 viewBox="0.00 0.00 661.50 397.00" xmlns="http://www.w3.org/2000/svg" xmlns:xlink="http://www.w3.org/1999/xlink">
<g id="graph0" class="graph" transform="scale(1 1) rotate(0) translate(4 393)">
<title>pfp::cp::Command</title>
<polygon fill="white" stroke="none" points="-4,4 -4,-393 657.5,-393 657.5,4 -4,4"/>
<!-- Node1 -->
<g id="node1" class="node"><title>Node1</title>
<polygon fill="#bfbfbf" stroke="black" points="283.5,-171.5 283.5,-283.5 393.5,-283.5 393.5,-171.5 283.5,-171.5"/>
<text text-anchor="middle" x="338.5" y="-271.5" font-family="Helvetica,sans-Serif" font-size="10.00">pfp::cp::Command</text>
<polyline fill="none" stroke="black" points="283.5,-264.5 393.5,-264.5 "/>
<text text-anchor="start" x="291.5" y="-252.5" font-family="Helvetica,sans-Serif" font-size="10.00"># table_name</text>
<polyline fill="none" stroke="black" points="283.5,-245.5 393.5,-245.5 "/>
<text text-anchor="start" x="291.5" y="-233.5" font-family="Helvetica,sans-Serif" font-size="10.00">+ print()</text>
<text text-anchor="start" x="291.5" y="-222.5" font-family="Helvetica,sans-Serif" font-size="10.00">+ process()</text>
<text text-anchor="start" x="291.5" y="-211.5" font-family="Helvetica,sans-Serif" font-size="10.00">+ set_table_name()</text>
<text text-anchor="start" x="291.5" y="-200.5" font-family="Helvetica,sans-Serif" font-size="10.00">+ get_table_name()</text>
<text text-anchor="start" x="291.5" y="-189.5" font-family="Helvetica,sans-Serif" font-size="10.00">+ ~Command()</text>
<text text-anchor="start" x="291.5" y="-178.5" font-family="Helvetica,sans-Serif" font-size="10.00">+ failure_result()</text>
</g>
<!-- Node3 -->
<g id="node3" class="node"><title>Node3</title>
<g id="a_node3"><a xlink:href="classpfp_1_1cp_1_1BootCompleteCommand.html" target="_top" xlink:title="{pfp::cp::BootCompleteCommand\n||+ print()\l+ OVERRIDE_PROCESS()\l+ ~BootCompleteCommand()\l}">
<polygon fill="white" stroke="black" points="0,-28 0,-107 167,-107 167,-28 0,-28"/>
<text text-anchor="middle" x="83.5" y="-95" font-family="Helvetica,sans-Serif" font-size="10.00">pfp::cp::BootCompleteCommand</text>
<polyline fill="none" stroke="black" points="0,-88 167,-88 "/>
<text text-anchor="middle" x="83.5" y="-76" font-family="Helvetica,sans-Serif" font-size="10.00"> </text>
<polyline fill="none" stroke="black" points="0,-69 167,-69 "/>
<text text-anchor="start" x="8" y="-57" font-family="Helvetica,sans-Serif" font-size="10.00">+ print()</text>
<text text-anchor="start" x="8" y="-46" font-family="Helvetica,sans-Serif" font-size="10.00">+ OVERRIDE_PROCESS()</text>
<text text-anchor="start" x="8" y="-35" font-family="Helvetica,sans-Serif" font-size="10.00">+ ~BootCompleteCommand()</text>
</a>
</g>
</g>
<!-- Node1&#45;&gt;Node3 -->
<g id="edge2" class="edge"><title>Node1&#45;&gt;Node3</title>
<path fill="none" stroke="midnightblue" d="M274.138,-192.21C244.038,-175.653 207.973,-155.061 176.5,-135 162.942,-126.359 148.653,-116.528 135.454,-107.126"/>
<polygon fill="none" stroke="midnightblue" points="272.824,-195.481 283.276,-197.214 276.186,-189.341 272.824,-195.481"/>
</g>
<!-- Node4 -->
<g id="node4" class="node"><title>Node4</title>
<g id="a_node4"><a xlink:href="classpfp_1_1cp_1_1DeleteCommand.html" target="_top" xlink:title="{pfp::cp::DeleteCommand\n||+ print()\l+ OVERRIDE_PROCESS()\l+ set_handle()\l+ get_handle()\l+ ~DeleteCommand()\l+ success_result()\l}">
<polygon fill="white" stroke="black" points="185.5,-11.5 185.5,-123.5 329.5,-123.5 329.5,-11.5 185.5,-11.5"/>
<text text-anchor="middle" x="257.5" y="-111.5" font-family="Helvetica,sans-Serif" font-size="10.00">pfp::cp::DeleteCommand</text>
<polyline fill="none" stroke="black" points="185.5,-104.5 329.5,-104.5 "/>
<text text-anchor="middle" x="257.5" y="-92.5" font-family="Helvetica,sans-Serif" font-size="10.00"> </text>
<polyline fill="none" stroke="black" points="185.5,-85.5 329.5,-85.5 "/>
<text text-anchor="start" x="193.5" y="-73.5" font-family="Helvetica,sans-Serif" font-size="10.00">+ print()</text>
<text text-anchor="start" x="193.5" y="-62.5" font-family="Helvetica,sans-Serif" font-size="10.00">+ OVERRIDE_PROCESS()</text>
<text text-anchor="start" x="193.5" y="-51.5" font-family="Helvetica,sans-Serif" font-size="10.00">+ set_handle()</text>
<text text-anchor="start" x="193.5" y="-40.5" font-family="Helvetica,sans-Serif" font-size="10.00">+ get_handle()</text>
<text text-anchor="start" x="193.5" y="-29.5" font-family="Helvetica,sans-Serif" font-size="10.00">+ ~DeleteCommand()</text>
<text text-anchor="start" x="193.5" y="-18.5" font-family="Helvetica,sans-Serif" font-size="10.00">+ success_result()</text>
</a>
</g>
</g>
<!-- Node1&#45;&gt;Node4 -->
<g id="edge3" class="edge"><title>Node1&#45;&gt;Node4</title>
<path fill="none" stroke="midnightblue" d="M305.478,-162.087C298.955,-149.363 292.164,-136.116 285.814,-123.73"/>
<polygon fill="none" stroke="midnightblue" points="302.493,-163.937 310.17,-171.239 308.723,-160.744 302.493,-163.937"/>
</g>
<!-- Node5 -->
<g id="node5" class="node"><title>Node5</title>
<g id="a_node5"><a xlink:href="classpfp_1_1cp_1_1InsertCommand.html" target="_top" xlink:title="{pfp::cp::InsertCommand\n||+ print()\l+ OVERRIDE_PROCESS()\l+ set_match_keys()\l+ set_action()\l+ ~InsertCommand()\l+ get_keys()\l+ get_action()\l+ success_result()\l}">
<polygon fill="white" stroke="black" points="347.5,-0.5 347.5,-134.5 491.5,-134.5 491.5,-0.5 347.5,-0.5"/>
<text text-anchor="middle" x="419.5" y="-122.5" font-family="Helvetica,sans-Serif" font-size="10.00">pfp::cp::InsertCommand</text>
<polyline fill="none" stroke="black" points="347.5,-115.5 491.5,-115.5 "/>
<text text-anchor="middle" x="419.5" y="-103.5" font-family="Helvetica,sans-Serif" font-size="10.00"> </text>
<polyline fill="none" stroke="black" points="347.5,-96.5 491.5,-96.5 "/>
<text text-anchor="start" x="355.5" y="-84.5" font-family="Helvetica,sans-Serif" font-size="10.00">+ print()</text>
<text text-anchor="start" x="355.5" y="-73.5" font-family="Helvetica,sans-Serif" font-size="10.00">+ OVERRIDE_PROCESS()</text>
<text text-anchor="start" x="355.5" y="-62.5" font-family="Helvetica,sans-Serif" font-size="10.00">+ set_match_keys()</text>
<text text-anchor="start" x="355.5" y="-51.5" font-family="Helvetica,sans-Serif" font-size="10.00">+ set_action()</text>
<text text-anchor="start" x="355.5" y="-40.5" font-family="Helvetica,sans-Serif" font-size="10.00">+ ~InsertCommand()</text>
<text text-anchor="start" x="355.5" y="-29.5" font-family="Helvetica,sans-Serif" font-size="10.00">+ get_keys()</text>
<text text-anchor="start" x="355.5" y="-18.5" font-family="Helvetica,sans-Serif" font-size="10.00">+ get_action()</text>
<text text-anchor="start" x="355.5" y="-7.5" font-family="Helvetica,sans-Serif" font-size="10.00">+ success_result()</text>
</a>
</g>
</g>
<!-- Node1&#45;&gt;Node5 -->
<g id="edge4" class="edge"><title>Node1&#45;&gt;Node5</title>
<path fill="none" stroke="midnightblue" d="M371.446,-162.234C376.119,-153.12 380.93,-143.735 385.62,-134.587"/>
<polygon fill="none" stroke="midnightblue" points="368.277,-160.744 366.83,-171.239 374.507,-163.937 368.277,-160.744"/>
</g>
<!-- Node6 -->
<g id="node6" class="node"><title>Node6</title>
<g id="a_node6"><a xlink:href="classpfp_1_1cp_1_1ModifyCommand.html" target="_top" xlink:title="{pfp::cp::ModifyCommand\n||+ print()\l+ OVERRIDE_PROCESS()\l+ set_handle()\l+ get_handle()\l+ set_action()\l+ get_action()\l+ ~ModifyCommand()\l+ success_result()\l}">
<polygon fill="white" stroke="black" points="509.5,-0.5 509.5,-134.5 653.5,-134.5 653.5,-0.5 509.5,-0.5"/>
<text text-anchor="middle" x="581.5" y="-122.5" font-family="Helvetica,sans-Serif" font-size="10.00">pfp::cp::ModifyCommand</text>
<polyline fill="none" stroke="black" points="509.5,-115.5 653.5,-115.5 "/>
<text text-anchor="middle" x="581.5" y="-103.5" font-family="Helvetica,sans-Serif" font-size="10.00"> </text>
<polyline fill="none" stroke="black" points="509.5,-96.5 653.5,-96.5 "/>
<text text-anchor="start" x="517.5" y="-84.5" font-family="Helvetica,sans-Serif" font-size="10.00">+ print()</text>
<text text-anchor="start" x="517.5" y="-73.5" font-family="Helvetica,sans-Serif" font-size="10.00">+ OVERRIDE_PROCESS()</text>
<text text-anchor="start" x="517.5" y="-62.5" font-family="Helvetica,sans-Serif" font-size="10.00">+ set_handle()</text>
<text text-anchor="start" x="517.5" y="-51.5" font-family="Helvetica,sans-Serif" font-size="10.00">+ get_handle()</text>
<text text-anchor="start" x="517.5" y="-40.5" font-family="Helvetica,sans-Serif" font-size="10.00">+ set_action()</text>
<text text-anchor="start" x="517.5" y="-29.5" font-family="Helvetica,sans-Serif" font-size="10.00">+ get_action()</text>
<text text-anchor="start" x="517.5" y="-18.5" font-family="Helvetica,sans-Serif" font-size="10.00">+ ~ModifyCommand()</text>
<text text-anchor="start" x="517.5" y="-7.5" font-family="Helvetica,sans-Serif" font-size="10.00">+ success_result()</text>
</a>
</g>
</g>
<!-- Node1&#45;&gt;Node6 -->
<g id="edge5" class="edge"><title>Node1&#45;&gt;Node6</title>
<path fill="none" stroke="midnightblue" d="M402.378,-193.743C432.836,-177.295 469.337,-156.355 500.5,-135 503.352,-133.046 506.226,-131.015 509.105,-128.931"/>
<polygon fill="none" stroke="midnightblue" points="400.706,-190.668 393.546,-198.478 404.013,-196.838 400.706,-190.668"/>
</g>
<!-- Node2 -->
<g id="node2" class="node"><title>Node2</title>
<polygon fill="white" stroke="#bfbfbf" points="272.5,-320.5 272.5,-388.5 404.5,-388.5 404.5,-320.5 272.5,-320.5"/>
<text text-anchor="start" x="280.5" y="-376.5" font-family="Helvetica,sans-Serif" font-size="10.00">std::enable_shared</text>
<text text-anchor="middle" x="338.5" y="-365.5" font-family="Helvetica,sans-Serif" font-size="10.00">_from_this&lt; Command &gt;</text>
<polyline fill="none" stroke="#bfbfbf" points="272.5,-358.5 404.5,-358.5 "/>
<text text-anchor="middle" x="338.5" y="-346.5" font-family="Helvetica,sans-Serif" font-size="10.00"> </text>
<polyline fill="none" stroke="#bfbfbf" points="272.5,-339.5 404.5,-339.5 "/>
<text text-anchor="middle" x="338.5" y="-327.5" font-family="Helvetica,sans-Serif" font-size="10.00"> </text>
</g>
<!-- Node2&#45;&gt;Node1 -->
<g id="edge1" class="edge"><title>Node2&#45;&gt;Node1</title>
<path fill="none" stroke="midnightblue" d="M338.5,-310.182C338.5,-301.604 338.5,-292.493 338.5,-283.585"/>
<polygon fill="none" stroke="midnightblue" points="335,-310.33 338.5,-320.33 342,-310.331 335,-310.33"/>
</g>
</g>
</svg>
