<?xml version="1.0" encoding="UTF-8" standalone="no"?>
<!DOCTYPE svg PUBLIC "-//W3C//DTD SVG 1.1//EN"
 "http://www.w3.org/Graphics/SVG/1.1/DTD/svg11.dtd">
<!-- Generated by graphviz version 2.38.0 (20140413.2041)
 -->
<!-- Title: pfp::core::db::DebugDataManager::checkIgnoreModules Pages: 1 -->
<svg width="357pt" height="88pt"
 viewBox="0.00 0.00 357.00 88.00" xmlns="http://www.w3.org/2000/svg" xmlns:xlink="http://www.w3.org/1999/xlink">
<g id="graph0" class="graph" transform="scale(1 1) rotate(0) translate(4 84)">
<title>pfp::core::db::DebugDataManager::checkIgnoreModules</title>
<polygon fill="white" stroke="none" points="-4,4 -4,-84 353,-84 353,4 -4,4"/>
<!-- Node1 -->
<g id="node1" class="node"><title>Node1</title>
<polygon fill="#bfbfbf" stroke="black" points="0,-24.5 0,-54.5 162,-54.5 162,-24.5 0,-24.5"/>
<text text-anchor="start" x="8" y="-42.5" font-family="Helvetica,sans-Serif" font-size="10.00">pfp::core::db::DebugData</text>
<text text-anchor="middle" x="81" y="-31.5" font-family="Helvetica,sans-Serif" font-size="10.00">Manager::checkIgnoreModules</text>
</g>
<!-- Node2 -->
<g id="node2" class="node"><title>Node2</title>
<g id="a_node2"><a xlink:href="classpfp_1_1core_1_1db_1_1DebugObserver.html#a53f5ee3a75637268e52ffe45a38229d0" target="_top" xlink:title="Function called by the simulation when data is written by a module. ">
<polygon fill="white" stroke="black" points="198,-49.5 198,-79.5 349,-79.5 349,-49.5 198,-49.5"/>
<text text-anchor="start" x="206" y="-67.5" font-family="Helvetica,sans-Serif" font-size="10.00">pfp::core::db::DebugObserver</text>
<text text-anchor="middle" x="273.5" y="-56.5" font-family="Helvetica,sans-Serif" font-size="10.00">::data_written</text>
</a>
</g>
</g>
<!-- Node1&#45;&gt;Node2 -->
<g id="edge1" class="edge"><title>Node1&#45;&gt;Node2</title>
<path fill="none" stroke="midnightblue" d="M172.247,-51.3435C180.81,-52.4672 189.427,-53.598 197.82,-54.6995"/>
<polygon fill="midnightblue" stroke="midnightblue" points="172.607,-47.8608 162.237,-50.0298 171.697,-54.8013 172.607,-47.8608"/>
</g>
<!-- Node3 -->
<g id="node3" class="node"><title>Node3</title>
<g id="a_node3"><a xlink:href="classpfp_1_1core_1_1db_1_1DebugObserver.html#ace8d5bad24c9d4f4b561c4fd36d57185" target="_top" xlink:title="Function called by the simulation when data is read by a module. ">
<polygon fill="white" stroke="black" points="198,-0.5 198,-30.5 349,-30.5 349,-0.5 198,-0.5"/>
<text text-anchor="start" x="206" y="-18.5" font-family="Helvetica,sans-Serif" font-size="10.00">pfp::core::db::DebugObserver</text>
<text text-anchor="middle" x="273.5" y="-7.5" font-family="Helvetica,sans-Serif" font-size="10.00">::data_read</text>
</a>
</g>
</g>
<!-- Node1&#45;&gt;Node3 -->
<g id="edge2" class="edge"><title>Node1&#45;&gt;Node3</title>
<path fill="none" stroke="midnightblue" d="M172.247,-28.1302C180.81,-27.0515 189.427,-25.9659 197.82,-24.9085"/>
<polygon fill="midnightblue" stroke="midnightblue" points="171.721,-24.6688 162.237,-29.3914 172.596,-31.6139 171.721,-24.6688"/>
</g>
</g>
</svg>
