<?xml version="1.0" encoding="UTF-8" standalone="no"?>
<!DOCTYPE svg PUBLIC "-//W3C//DTD SVG 1.1//EN"
 "http://www.w3.org/Graphics/SVG/1.1/DTD/svg11.dtd">
<!-- Generated by graphviz version 2.38.0 (20140413.2041)
 -->
<!-- Title: nlohmann::basic_json::erase Pages: 1 -->
<svg width="301pt" height="78pt"
 viewBox="0.00 0.00 301.00 77.50" xmlns="http://www.w3.org/2000/svg" xmlns:xlink="http://www.w3.org/1999/xlink">
<g id="graph0" class="graph" transform="scale(1 1) rotate(0) translate(4 73.5)">
<title>nlohmann::basic_json::erase</title>
<polygon fill="white" stroke="none" points="-4,4 -4,-73.5 297,-73.5 297,4 -4,4"/>
<!-- Node1 -->
<g id="node1" class="node"><title>Node1</title>
<polygon fill="#bfbfbf" stroke="black" points="0,-22.5 0,-52.5 117,-52.5 117,-22.5 0,-22.5"/>
<text text-anchor="start" x="8" y="-40.5" font-family="Helvetica,sans-Serif" font-size="10.00">nlohmann::basic_json</text>
<text text-anchor="middle" x="58.5" y="-29.5" font-family="Helvetica,sans-Serif" font-size="10.00">::erase</text>
</g>
<!-- Node2 -->
<g id="node2" class="node"><title>Node2</title>
<g id="a_node2"><a xlink:href="classnlohmann_1_1basic__json.html#a12ccf14d39ddae52f6c7e126105a230b" target="_top" xlink:title="returns an iterator to one past the last element ">
<polygon fill="white" stroke="black" points="153,-50 153,-69 293,-69 293,-50 153,-50"/>
<text text-anchor="middle" x="223" y="-57" font-family="Helvetica,sans-Serif" font-size="10.00">nlohmann::basic_json::end</text>
</a>
</g>
</g>
<!-- Node1&#45;&gt;Node2 -->
<g id="edge1" class="edge"><title>Node1&#45;&gt;Node2</title>
<path fill="none" stroke="midnightblue" d="M117.249,-45.3183C125.511,-46.4368 134.127,-47.6033 142.714,-48.7659"/>
<polygon fill="midnightblue" stroke="midnightblue" points="142.378,-52.2523 152.758,-50.1257 143.318,-45.3156 142.378,-52.2523"/>
</g>
<!-- Node3 -->
<g id="node3" class="node"><title>Node3</title>
<g id="a_node3"><a xlink:href="classnlohmann_1_1basic__json.html#a409e854d754f5684b2cce74ee20dbc3b" target="_top" xlink:title="return whether value is a string ">
<polygon fill="white" stroke="black" points="164.5,-0.5 164.5,-30.5 281.5,-30.5 281.5,-0.5 164.5,-0.5"/>
<text text-anchor="start" x="172.5" y="-18.5" font-family="Helvetica,sans-Serif" font-size="10.00">nlohmann::basic_json</text>
<text text-anchor="middle" x="223" y="-7.5" font-family="Helvetica,sans-Serif" font-size="10.00">::is_string</text>
</a>
</g>
</g>
<!-- Node1&#45;&gt;Node3 -->
<g id="edge2" class="edge"><title>Node1&#45;&gt;Node3</title>
<path fill="none" stroke="midnightblue" d="M117.249,-29.6817C129.222,-28.0607 141.94,-26.3388 154.235,-24.6743"/>
<polygon fill="midnightblue" stroke="midnightblue" points="154.997,-28.1032 164.437,-23.2931 154.058,-21.1665 154.997,-28.1032"/>
</g>
</g>
</svg>
