<?xml version="1.0" encoding="UTF-8" standalone="no"?>
<!DOCTYPE svg PUBLIC "-//W3C//DTD SVG 1.1//EN"
 "http://www.w3.org/Graphics/SVG/1.1/DTD/svg11.dtd">
<!-- Generated by graphviz version 2.38.0 (20140413.2041)
 -->
<!-- Title: nlohmann::basic_json::is_array Pages: 1 -->
<svg width="445pt" height="323pt"
 viewBox="0.00 0.00 445.00 323.00" xmlns="http://www.w3.org/2000/svg" xmlns:xlink="http://www.w3.org/1999/xlink">
<g id="graph0" class="graph" transform="scale(1 1) rotate(0) translate(4 319)">
<title>nlohmann::basic_json::is_array</title>
<polygon fill="white" stroke="none" points="-4,4 -4,-319 441,-319 441,4 -4,4"/>
<!-- Node1 -->
<g id="node1" class="node"><title>Node1</title>
<polygon fill="#bfbfbf" stroke="black" points="0,-147.5 0,-177.5 117,-177.5 117,-147.5 0,-147.5"/>
<text text-anchor="start" x="8" y="-165.5" font-family="Helvetica,sans-Serif" font-size="10.00">nlohmann::basic_json</text>
<text text-anchor="middle" x="58.5" y="-154.5" font-family="Helvetica,sans-Serif" font-size="10.00">::is_array</text>
</g>
<!-- Node2 -->
<g id="node2" class="node"><title>Node2</title>
<g id="a_node2"><a xlink:href="classnlohmann_1_1basic__json.html#a873f4bff2f2a83f68fc1b5341ebdd446" target="_top" xlink:title="return whether type is structured ">
<polygon fill="white" stroke="black" points="160,-284.5 160,-314.5 277,-314.5 277,-284.5 160,-284.5"/>
<text text-anchor="start" x="168" y="-302.5" font-family="Helvetica,sans-Serif" font-size="10.00">nlohmann::basic_json</text>
<text text-anchor="middle" x="218.5" y="-291.5" font-family="Helvetica,sans-Serif" font-size="10.00">::is_structured</text>
</a>
</g>
</g>
<!-- Node1&#45;&gt;Node2 -->
<g id="edge1" class="edge"><title>Node1&#45;&gt;Node2</title>
<path fill="none" stroke="midnightblue" d="M74.0088,-186.171C90.4145,-211.187 119.277,-250.298 153,-274.5 158.269,-278.281 164.185,-281.58 170.24,-284.431"/>
<polygon fill="midnightblue" stroke="midnightblue" points="76.8866,-184.175 68.5423,-177.646 70.994,-187.954 76.8866,-184.175"/>
</g>
<!-- Node3 -->
<g id="node3" class="node"><title>Node3</title>
<g id="a_node3"><a xlink:href="classnlohmann_1_1basic__json.html#a214a8c22d616fd3567b88932c07436c9" target="_top" xlink:title="access specified array element with bounds checking ">
<polygon fill="white" stroke="black" points="153,-246 153,-265 284,-265 284,-246 153,-246"/>
<text text-anchor="middle" x="218.5" y="-253" font-family="Helvetica,sans-Serif" font-size="10.00">nlohmann::basic_json::at</text>
</a>
</g>
</g>
<!-- Node1&#45;&gt;Node3 -->
<g id="edge2" class="edge"><title>Node1&#45;&gt;Node3</title>
<path fill="none" stroke="midnightblue" d="M82.3485,-184.741C100.273,-201.102 126.54,-222.792 153,-236.5 160.256,-240.259 168.366,-243.383 176.321,-245.938"/>
<polygon fill="midnightblue" stroke="midnightblue" points="84.4331,-181.899 74.7294,-177.646 79.6629,-187.022 84.4331,-181.899"/>
</g>
<!-- Node4 -->
<g id="node4" class="node"><title>Node4</title>
<g id="a_node4"><a xlink:href="classnlohmann_1_1basic__json.html#a59732a1de287a7301cca19a7a7748159" target="_top" xlink:title="access specified array element ">
<polygon fill="white" stroke="black" points="160,-196.5 160,-226.5 277,-226.5 277,-196.5 160,-196.5"/>
<text text-anchor="start" x="168" y="-214.5" font-family="Helvetica,sans-Serif" font-size="10.00">nlohmann::basic_json</text>
<text text-anchor="middle" x="218.5" y="-203.5" font-family="Helvetica,sans-Serif" font-size="10.00">::operator[]</text>
</a>
</g>
</g>
<!-- Node1&#45;&gt;Node4 -->
<g id="edge3" class="edge"><title>Node1&#45;&gt;Node4</title>
<path fill="none" stroke="midnightblue" d="M117.905,-180.613C134.702,-185.822 152.835,-191.446 168.966,-196.448"/>
<polygon fill="midnightblue" stroke="midnightblue" points="118.782,-177.221 108.194,-177.601 116.709,-183.907 118.782,-177.221"/>
</g>
<!-- Node7 -->
<g id="node7" class="node"><title>Node7</title>
<g id="a_node7"><a xlink:href="classnlohmann_1_1basic__json.html#a3da254c422ede5495f2815c5e48c00c5" target="_top" xlink:title="remove element from a JSON array given an index ">
<polygon fill="white" stroke="black" points="160,-147.5 160,-177.5 277,-177.5 277,-147.5 160,-147.5"/>
<text text-anchor="start" x="168" y="-165.5" font-family="Helvetica,sans-Serif" font-size="10.00">nlohmann::basic_json</text>
<text text-anchor="middle" x="218.5" y="-154.5" font-family="Helvetica,sans-Serif" font-size="10.00">::erase</text>
</a>
</g>
</g>
<!-- Node1&#45;&gt;Node7 -->
<g id="edge6" class="edge"><title>Node1&#45;&gt;Node7</title>
<path fill="none" stroke="midnightblue" d="M127.62,-162.5C138.356,-162.5 149.366,-162.5 159.835,-162.5"/>
<polygon fill="midnightblue" stroke="midnightblue" points="127.436,-159 117.436,-162.5 127.436,-166 127.436,-159"/>
</g>
<!-- Node8 -->
<g id="node8" class="node"><title>Node8</title>
<g id="a_node8"><a xlink:href="classnlohmann_1_1basic__json.html#a486b96adbf4886c38e38c952394a220f" target="_top" xlink:title="add an object to an array ">
<polygon fill="white" stroke="black" points="160,-98.5 160,-128.5 277,-128.5 277,-98.5 160,-98.5"/>
<text text-anchor="start" x="168" y="-116.5" font-family="Helvetica,sans-Serif" font-size="10.00">nlohmann::basic_json</text>
<text text-anchor="middle" x="218.5" y="-105.5" font-family="Helvetica,sans-Serif" font-size="10.00">::push_back</text>
</a>
</g>
</g>
<!-- Node1&#45;&gt;Node8 -->
<g id="edge7" class="edge"><title>Node1&#45;&gt;Node8</title>
<path fill="none" stroke="midnightblue" d="M117.905,-144.387C134.702,-139.178 152.835,-133.554 168.966,-128.552"/>
<polygon fill="midnightblue" stroke="midnightblue" points="116.709,-141.093 108.194,-147.399 118.782,-147.779 116.709,-141.093"/>
</g>
<!-- Node10 -->
<g id="node10" class="node"><title>Node10</title>
<g id="a_node10"><a xlink:href="classnlohmann_1_1basic__json.html#a7f7bbb3a9efef2e2442f538a24c1c47b" target="_top" xlink:title="inserts element ">
<polygon fill="white" stroke="black" points="160,-49.5 160,-79.5 277,-79.5 277,-49.5 160,-49.5"/>
<text text-anchor="start" x="168" y="-67.5" font-family="Helvetica,sans-Serif" font-size="10.00">nlohmann::basic_json</text>
<text text-anchor="middle" x="218.5" y="-56.5" font-family="Helvetica,sans-Serif" font-size="10.00">::insert</text>
</a>
</g>
</g>
<!-- Node1&#45;&gt;Node10 -->
<g id="edge9" class="edge"><title>Node1&#45;&gt;Node10</title>
<path fill="none" stroke="midnightblue" d="M82.96,-140.493C101.022,-124.439 127.19,-103.034 153,-88.5 158.83,-85.217 165.196,-82.2218 171.584,-79.5457"/>
<polygon fill="midnightblue" stroke="midnightblue" points="80.3349,-138.148 75.2618,-147.449 85.028,-143.342 80.3349,-138.148"/>
</g>
<!-- Node12 -->
<g id="node12" class="node"><title>Node12</title>
<g id="a_node12"><a xlink:href="classnlohmann_1_1basic__json.html#a8209621de6184d9eabe136b7c8f61935" target="_top" xlink:title="exchanges the values ">
<polygon fill="white" stroke="black" points="160,-0.5 160,-30.5 277,-30.5 277,-0.5 160,-0.5"/>
<text text-anchor="start" x="168" y="-18.5" font-family="Helvetica,sans-Serif" font-size="10.00">nlohmann::basic_json</text>
<text text-anchor="middle" x="218.5" y="-7.5" font-family="Helvetica,sans-Serif" font-size="10.00">::swap</text>
</a>
</g>
</g>
<!-- Node1&#45;&gt;Node12 -->
<g id="edge11" class="edge"><title>Node1&#45;&gt;Node12</title>
<path fill="none" stroke="midnightblue" d="M72.1741,-138.495C87.7965,-111.028 116.778,-66.3857 153,-39.5 157.605,-36.0819 162.751,-33.1018 168.073,-30.5157"/>
<polygon fill="midnightblue" stroke="midnightblue" points="69.0042,-136.994 67.2154,-147.437 75.126,-140.389 69.0042,-136.994"/>
</g>
<!-- Node5 -->
<g id="node5" class="node"><title>Node5</title>
<g id="a_node5"><a xlink:href="classnlohmann_1_1basic__json.html#a140b8251f82e99ad279dcad5c977e26b" target="_top" xlink:title="access specified object element ">
<polygon fill="white" stroke="black" points="320,-220.5 320,-250.5 437,-250.5 437,-220.5 320,-220.5"/>
<text text-anchor="start" x="328" y="-238.5" font-family="Helvetica,sans-Serif" font-size="10.00">nlohmann::basic_json</text>
<text text-anchor="middle" x="378.5" y="-227.5" font-family="Helvetica,sans-Serif" font-size="10.00">::operator[]</text>
</a>
</g>
</g>
<!-- Node4&#45;&gt;Node5 -->
<g id="edge4" class="edge"><title>Node4&#45;&gt;Node5</title>
<path fill="none" stroke="midnightblue" d="M287.62,-221.847C298.356,-223.478 309.366,-225.15 319.835,-226.741"/>
<polygon fill="midnightblue" stroke="midnightblue" points="287.848,-218.342 277.436,-220.3 286.797,-225.263 287.848,-218.342"/>
</g>
<!-- Node6 -->
<g id="node6" class="node"><title>Node6</title>
<g id="a_node6"><a xlink:href="classnlohmann_1_1basic__json.html#a9486a272e034c0548305d7a12f3045e6" target="_top" xlink:title="add an object to an object ">
<polygon fill="white" stroke="black" points="320,-171.5 320,-201.5 437,-201.5 437,-171.5 320,-171.5"/>
<text text-anchor="start" x="328" y="-189.5" font-family="Helvetica,sans-Serif" font-size="10.00">nlohmann::basic_json</text>
<text text-anchor="middle" x="378.5" y="-178.5" font-family="Helvetica,sans-Serif" font-size="10.00">::operator+=</text>
</a>
</g>
</g>
<!-- Node4&#45;&gt;Node6 -->
<g id="edge5" class="edge"><title>Node4&#45;&gt;Node6</title>
<path fill="none" stroke="midnightblue" d="M287.62,-200.722C298.356,-199.023 309.366,-197.281 319.835,-195.624"/>
<polygon fill="midnightblue" stroke="midnightblue" points="286.766,-197.313 277.436,-202.333 287.86,-204.227 286.766,-197.313"/>
</g>
<!-- Node9 -->
<g id="node9" class="node"><title>Node9</title>
<g id="a_node9"><a xlink:href="classnlohmann_1_1basic__json.html#a1c1aa2d148a3e4ce0d4e50cf5b894f41" target="_top" xlink:title="add an object to an array ">
<polygon fill="white" stroke="black" points="320,-98.5 320,-128.5 437,-128.5 437,-98.5 320,-98.5"/>
<text text-anchor="start" x="328" y="-116.5" font-family="Helvetica,sans-Serif" font-size="10.00">nlohmann::basic_json</text>
<text text-anchor="middle" x="378.5" y="-105.5" font-family="Helvetica,sans-Serif" font-size="10.00">::operator+=</text>
</a>
</g>
</g>
<!-- Node8&#45;&gt;Node9 -->
<g id="edge8" class="edge"><title>Node8&#45;&gt;Node9</title>
<path fill="none" stroke="midnightblue" d="M287.62,-113.5C298.356,-113.5 309.366,-113.5 319.835,-113.5"/>
<polygon fill="midnightblue" stroke="midnightblue" points="287.436,-110 277.436,-113.5 287.436,-117 287.436,-110"/>
</g>
<!-- Node11 -->
<g id="node11" class="node"><title>Node11</title>
<g id="a_node11"><a xlink:href="classnlohmann_1_1basic__json.html#a8468efcfcd95db15f46887b29924ed5c" target="_top" xlink:title="inserts element ">
<polygon fill="white" stroke="black" points="320,-49.5 320,-79.5 437,-79.5 437,-49.5 320,-49.5"/>
<text text-anchor="start" x="328" y="-67.5" font-family="Helvetica,sans-Serif" font-size="10.00">nlohmann::basic_json</text>
<text text-anchor="middle" x="378.5" y="-56.5" font-family="Helvetica,sans-Serif" font-size="10.00">::insert</text>
</a>
</g>
</g>
<!-- Node10&#45;&gt;Node11 -->
<g id="edge10" class="edge"><title>Node10&#45;&gt;Node11</title>
<path fill="none" stroke="midnightblue" d="M287.62,-64.5C298.356,-64.5 309.366,-64.5 319.835,-64.5"/>
<polygon fill="midnightblue" stroke="midnightblue" points="287.436,-61.0001 277.436,-64.5 287.436,-68.0001 287.436,-61.0001"/>
</g>
</g>
</svg>
