<?xml version="1.0" encoding="UTF-8" standalone="no"?>
<!DOCTYPE svg PUBLIC "-//W3C//DTD SVG 1.1//EN"
 "http://www.w3.org/Graphics/SVG/1.1/DTD/svg11.dtd">
<!-- Generated by graphviz version 2.38.0 (20140413.2041)
 -->
<!-- Title: pfp::cp::Command Pages: 1 -->
<svg width="140pt" height="226pt"
 viewBox="0.00 0.00 140.00 226.00" xmlns="http://www.w3.org/2000/svg" xmlns:xlink="http://www.w3.org/1999/xlink">
<g id="graph0" class="graph" transform="scale(1 1) rotate(0) translate(4 222)">
<title>pfp::cp::Command</title>
<polygon fill="white" stroke="none" points="-4,4 -4,-222 136,-222 136,4 -4,4"/>
<!-- Node1 -->
<g id="node1" class="node"><title>Node1</title>
<polygon fill="#bfbfbf" stroke="black" points="11,-0.5 11,-112.5 121,-112.5 121,-0.5 11,-0.5"/>
<text text-anchor="middle" x="66" y="-100.5" font-family="Helvetica,sans-Serif" font-size="10.00">pfp::cp::Command</text>
<polyline fill="none" stroke="black" points="11,-93.5 121,-93.5 "/>
<text text-anchor="start" x="19" y="-81.5" font-family="Helvetica,sans-Serif" font-size="10.00"># table_name</text>
<polyline fill="none" stroke="black" points="11,-74.5 121,-74.5 "/>
<text text-anchor="start" x="19" y="-62.5" font-family="Helvetica,sans-Serif" font-size="10.00">+ print()</text>
<text text-anchor="start" x="19" y="-51.5" font-family="Helvetica,sans-Serif" font-size="10.00">+ process()</text>
<text text-anchor="start" x="19" y="-40.5" font-family="Helvetica,sans-Serif" font-size="10.00">+ set_table_name()</text>
<text text-anchor="start" x="19" y="-29.5" font-family="Helvetica,sans-Serif" font-size="10.00">+ get_table_name()</text>
<text text-anchor="start" x="19" y="-18.5" font-family="Helvetica,sans-Serif" font-size="10.00">+ ~Command()</text>
<text text-anchor="start" x="19" y="-7.5" font-family="Helvetica,sans-Serif" font-size="10.00">+ failure_result()</text>
</g>
<!-- Node2 -->
<g id="node2" class="node"><title>Node2</title>
<polygon fill="white" stroke="#bfbfbf" points="0,-149.5 0,-217.5 132,-217.5 132,-149.5 0,-149.5"/>
<text text-anchor="start" x="8" y="-205.5" font-family="Helvetica,sans-Serif" font-size="10.00">std::enable_shared</text>
<text text-anchor="middle" x="66" y="-194.5" font-family="Helvetica,sans-Serif" font-size="10.00">_from_this&lt; Command &gt;</text>
<polyline fill="none" stroke="#bfbfbf" points="0,-187.5 132,-187.5 "/>
<text text-anchor="middle" x="66" y="-175.5" font-family="Helvetica,sans-Serif" font-size="10.00"> </text>
<polyline fill="none" stroke="#bfbfbf" points="0,-168.5 132,-168.5 "/>
<text text-anchor="middle" x="66" y="-156.5" font-family="Helvetica,sans-Serif" font-size="10.00"> </text>
</g>
<!-- Node2&#45;&gt;Node1 -->
<g id="edge1" class="edge"><title>Node2&#45;&gt;Node1</title>
<path fill="none" stroke="midnightblue" d="M66,-139.182C66,-130.604 66,-121.493 66,-112.585"/>
<polygon fill="none" stroke="midnightblue" points="62.5001,-139.33 66,-149.33 69.5001,-139.331 62.5001,-139.33"/>
</g>
</g>
</svg>
