<?xml version="1.0" encoding="UTF-8" standalone="no"?>
<!DOCTYPE svg PUBLIC "-//W3C//DTD SVG 1.1//EN"
 "http://www.w3.org/Graphics/SVG/1.1/DTD/svg11.dtd">
<!-- Generated by graphviz version 2.38.0 (20140413.2041)
 -->
<!-- Title: pfp::cp::DeleteCommand Pages: 1 -->
<svg width="152pt" height="375pt"
 viewBox="0.00 0.00 152.00 375.00" xmlns="http://www.w3.org/2000/svg" xmlns:xlink="http://www.w3.org/1999/xlink">
<g id="graph0" class="graph" transform="scale(1 1) rotate(0) translate(4 371)">
<title>pfp::cp::DeleteCommand</title>
<polygon fill="white" stroke="none" points="-4,4 -4,-371 148,-371 148,4 -4,4"/>
<!-- Node1 -->
<g id="node1" class="node"><title>Node1</title>
<polygon fill="#bfbfbf" stroke="black" points="0,-0.5 0,-112.5 144,-112.5 144,-0.5 0,-0.5"/>
<text text-anchor="middle" x="72" y="-100.5" font-family="Helvetica,sans-Serif" font-size="10.00">pfp::cp::DeleteCommand</text>
<polyline fill="none" stroke="black" points="0,-93.5 144,-93.5 "/>
<text text-anchor="middle" x="72" y="-81.5" font-family="Helvetica,sans-Serif" font-size="10.00"> </text>
<polyline fill="none" stroke="black" points="0,-74.5 144,-74.5 "/>
<text text-anchor="start" x="8" y="-62.5" font-family="Helvetica,sans-Serif" font-size="10.00">+ print()</text>
<text text-anchor="start" x="8" y="-51.5" font-family="Helvetica,sans-Serif" font-size="10.00">+ OVERRIDE_PROCESS()</text>
<text text-anchor="start" x="8" y="-40.5" font-family="Helvetica,sans-Serif" font-size="10.00">+ set_handle()</text>
<text text-anchor="start" x="8" y="-29.5" font-family="Helvetica,sans-Serif" font-size="10.00">+ get_handle()</text>
<text text-anchor="start" x="8" y="-18.5" font-family="Helvetica,sans-Serif" font-size="10.00">+ ~DeleteCommand()</text>
<text text-anchor="start" x="8" y="-7.5" font-family="Helvetica,sans-Serif" font-size="10.00">+ success_result()</text>
</g>
<!-- Node2 -->
<g id="node2" class="node"><title>Node2</title>
<g id="a_node2"><a xlink:href="classpfp_1_1cp_1_1Command.html" target="_top" xlink:title="{pfp::cp::Command\n|# table_name\l|+ print()\l+ process()\l+ set_table_name()\l+ get_table_name()\l+ ~Command()\l+ failure_result()\l}">
<polygon fill="white" stroke="black" points="17,-149.5 17,-261.5 127,-261.5 127,-149.5 17,-149.5"/>
<text text-anchor="middle" x="72" y="-249.5" font-family="Helvetica,sans-Serif" font-size="10.00">pfp::cp::Command</text>
<polyline fill="none" stroke="black" points="17,-242.5 127,-242.5 "/>
<text text-anchor="start" x="25" y="-230.5" font-family="Helvetica,sans-Serif" font-size="10.00"># table_name</text>
<polyline fill="none" stroke="black" points="17,-223.5 127,-223.5 "/>
<text text-anchor="start" x="25" y="-211.5" font-family="Helvetica,sans-Serif" font-size="10.00">+ print()</text>
<text text-anchor="start" x="25" y="-200.5" font-family="Helvetica,sans-Serif" font-size="10.00">+ process()</text>
<text text-anchor="start" x="25" y="-189.5" font-family="Helvetica,sans-Serif" font-size="10.00">+ set_table_name()</text>
<text text-anchor="start" x="25" y="-178.5" font-family="Helvetica,sans-Serif" font-size="10.00">+ get_table_name()</text>
<text text-anchor="start" x="25" y="-167.5" font-family="Helvetica,sans-Serif" font-size="10.00">+ ~Command()</text>
<text text-anchor="start" x="25" y="-156.5" font-family="Helvetica,sans-Serif" font-size="10.00">+ failure_result()</text>
</a>
</g>
</g>
<!-- Node2&#45;&gt;Node1 -->
<g id="edge1" class="edge"><title>Node2&#45;&gt;Node1</title>
<path fill="none" stroke="midnightblue" d="M72,-139.176C72,-130.427 72,-121.522 72,-112.965"/>
<polygon fill="none" stroke="midnightblue" points="68.5001,-139.344 72,-149.344 75.5001,-139.344 68.5001,-139.344"/>
</g>
<!-- Node3 -->
<g id="node3" class="node"><title>Node3</title>
<polygon fill="white" stroke="#bfbfbf" points="6,-298.5 6,-366.5 138,-366.5 138,-298.5 6,-298.5"/>
<text text-anchor="start" x="14" y="-354.5" font-family="Helvetica,sans-Serif" font-size="10.00">std::enable_shared</text>
<text text-anchor="middle" x="72" y="-343.5" font-family="Helvetica,sans-Serif" font-size="10.00">_from_this&lt; Command &gt;</text>
<polyline fill="none" stroke="#bfbfbf" points="6,-336.5 138,-336.5 "/>
<text text-anchor="middle" x="72" y="-324.5" font-family="Helvetica,sans-Serif" font-size="10.00"> </text>
<polyline fill="none" stroke="#bfbfbf" points="6,-317.5 138,-317.5 "/>
<text text-anchor="middle" x="72" y="-305.5" font-family="Helvetica,sans-Serif" font-size="10.00"> </text>
</g>
<!-- Node3&#45;&gt;Node2 -->
<g id="edge2" class="edge"><title>Node3&#45;&gt;Node2</title>
<path fill="none" stroke="midnightblue" d="M72,-288.182C72,-279.604 72,-270.493 72,-261.585"/>
<polygon fill="none" stroke="midnightblue" points="68.5001,-288.33 72,-298.33 75.5001,-288.331 68.5001,-288.33"/>
</g>
</g>
</svg>
