<?xml version="1.0" encoding="UTF-8" standalone="no"?>
<!DOCTYPE svg PUBLIC "-//W3C//DTD SVG 1.1//EN"
 "http://www.w3.org/Graphics/SVG/1.1/DTD/svg11.dtd">
<!-- Generated by graphviz version 2.38.0 (20140413.2041)
 -->
<!-- Title: pfp::core::db::DebugDataManager::updatePacket Pages: 1 -->
<svg width="329pt" height="186pt"
 viewBox="0.00 0.00 329.00 186.00" xmlns="http://www.w3.org/2000/svg" xmlns:xlink="http://www.w3.org/1999/xlink">
<g id="graph0" class="graph" transform="scale(1 1) rotate(0) translate(4 182)">
<title>pfp::core::db::DebugDataManager::updatePacket</title>
<polygon fill="white" stroke="none" points="-4,4 -4,-182 325,-182 325,4 -4,4"/>
<!-- Node1 -->
<g id="node1" class="node"><title>Node1</title>
<polygon fill="#bfbfbf" stroke="black" points="0,-73.5 0,-103.5 130,-103.5 130,-73.5 0,-73.5"/>
<text text-anchor="start" x="8" y="-91.5" font-family="Helvetica,sans-Serif" font-size="10.00">pfp::core::db::DebugData</text>
<text text-anchor="middle" x="65" y="-80.5" font-family="Helvetica,sans-Serif" font-size="10.00">Manager::updatePacket</text>
</g>
<!-- Node2 -->
<g id="node2" class="node"><title>Node2</title>
<g id="a_node2"><a xlink:href="classpfp_1_1core_1_1db_1_1DebuggerPacket.html#a2c2828ba58aa35c87cb7075ca260294b" target="_top" xlink:title="Set the current time of the packet. ">
<polygon fill="white" stroke="black" points="166,-147.5 166,-177.5 321,-177.5 321,-147.5 166,-147.5"/>
<text text-anchor="start" x="174" y="-165.5" font-family="Helvetica,sans-Serif" font-size="10.00">pfp::core::db::DebuggerPacket</text>
<text text-anchor="middle" x="243.5" y="-154.5" font-family="Helvetica,sans-Serif" font-size="10.00">::setTime</text>
</a>
</g>
</g>
<!-- Node1&#45;&gt;Node2 -->
<g id="edge1" class="edge"><title>Node1&#45;&gt;Node2</title>
<path fill="none" stroke="midnightblue" d="M93.0458,-103.5C112.864,-114.124 140.623,-128.251 166,-138.5 170.798,-140.438 175.815,-142.318 180.887,-144.118"/>
<polygon fill="midnightblue" stroke="midnightblue" points="180.07,-147.538 190.665,-147.473 182.342,-140.917 180.07,-147.538"/>
</g>
<!-- Node3 -->
<g id="node3" class="node"><title>Node3</title>
<g id="a_node3"><a xlink:href="classpfp_1_1core_1_1db_1_1DebuggerPacket.html#ab6bbc1ea6b78add2c88f089b595a059c" target="_top" xlink:title="Set the current location of the packet. ">
<polygon fill="white" stroke="black" points="166,-98.5 166,-128.5 321,-128.5 321,-98.5 166,-98.5"/>
<text text-anchor="start" x="174" y="-116.5" font-family="Helvetica,sans-Serif" font-size="10.00">pfp::core::db::DebuggerPacket</text>
<text text-anchor="middle" x="243.5" y="-105.5" font-family="Helvetica,sans-Serif" font-size="10.00">::setCurrentLocation</text>
</a>
</g>
</g>
<!-- Node1&#45;&gt;Node3 -->
<g id="edge2" class="edge"><title>Node1&#45;&gt;Node3</title>
<path fill="none" stroke="midnightblue" d="M130.22,-97.5963C138.509,-98.7703 147.104,-99.9878 155.68,-101.203"/>
<polygon fill="midnightblue" stroke="midnightblue" points="155.329,-104.688 165.721,-102.625 156.311,-97.7569 155.329,-104.688"/>
</g>
<!-- Node4 -->
<g id="node4" class="node"><title>Node4</title>
<g id="a_node4"><a xlink:href="classpfp_1_1core_1_1db_1_1DebuggerPacket.html#a39ed8b29b2560595e17ab66f2d32fcee" target="_top" xlink:title="Update the time at which the packet entered a module. ">
<polygon fill="white" stroke="black" points="166,-49.5 166,-79.5 321,-79.5 321,-49.5 166,-49.5"/>
<text text-anchor="start" x="174" y="-67.5" font-family="Helvetica,sans-Serif" font-size="10.00">pfp::core::db::DebuggerPacket</text>
<text text-anchor="middle" x="243.5" y="-56.5" font-family="Helvetica,sans-Serif" font-size="10.00">::updateTraceReadTime</text>
</a>
</g>
</g>
<!-- Node1&#45;&gt;Node4 -->
<g id="edge3" class="edge"><title>Node1&#45;&gt;Node4</title>
<path fill="none" stroke="midnightblue" d="M130.22,-79.7676C138.509,-78.6405 147.104,-77.4718 155.68,-76.3055"/>
<polygon fill="midnightblue" stroke="midnightblue" points="156.284,-79.7557 165.721,-74.9402 155.341,-72.8195 156.284,-79.7557"/>
</g>
<!-- Node5 -->
<g id="node5" class="node"><title>Node5</title>
<g id="a_node5"><a xlink:href="classpfp_1_1core_1_1db_1_1DebuggerPacket.html#a890ca341604503c739dcffe9d9f6e89d" target="_top" xlink:title="Update the time at which the packet left a module. ">
<polygon fill="white" stroke="black" points="166,-0.5 166,-30.5 321,-30.5 321,-0.5 166,-0.5"/>
<text text-anchor="start" x="174" y="-18.5" font-family="Helvetica,sans-Serif" font-size="10.00">pfp::core::db::DebuggerPacket</text>
<text text-anchor="middle" x="243.5" y="-7.5" font-family="Helvetica,sans-Serif" font-size="10.00">::updateTraceWriteTime</text>
</a>
</g>
</g>
<!-- Node1&#45;&gt;Node5 -->
<g id="edge4" class="edge"><title>Node1&#45;&gt;Node5</title>
<path fill="none" stroke="midnightblue" d="M94.8636,-73.3975C114.598,-63.3831 141.516,-50.3273 166,-40.5 171.701,-38.2116 177.701,-35.9718 183.728,-33.8314"/>
<polygon fill="midnightblue" stroke="midnightblue" points="184.879,-37.1368 193.183,-30.5571 182.589,-30.5222 184.879,-37.1368"/>
</g>
</g>
</svg>
