<?xml version="1.0" encoding="UTF-8" standalone="no"?>
<!DOCTYPE svg PUBLIC "-//W3C//DTD SVG 1.1//EN"
 "http://www.w3.org/Graphics/SVG/1.1/DTD/svg11.dtd">
<!-- Generated by graphviz version 2.38.0 (20140413.2041)
 -->
<!-- Title: pfp::core::db::DebugDataManager::addWatchpoint Pages: 1 -->
<svg width="310pt" height="39pt"
 viewBox="0.00 0.00 310.00 39.00" xmlns="http://www.w3.org/2000/svg" xmlns:xlink="http://www.w3.org/1999/xlink">
<g id="graph0" class="graph" transform="scale(1 1) rotate(0) translate(4 35)">
<title>pfp::core::db::DebugDataManager::addWatchpoint</title>
<polygon fill="white" stroke="none" points="-4,4 -4,-35 306,-35 306,4 -4,4"/>
<!-- Node1 -->
<g id="node1" class="node"><title>Node1</title>
<polygon fill="#bfbfbf" stroke="black" points="0,-0.5 0,-30.5 135,-30.5 135,-0.5 0,-0.5"/>
<text text-anchor="start" x="8" y="-18.5" font-family="Helvetica,sans-Serif" font-size="10.00">pfp::core::db::DebugData</text>
<text text-anchor="middle" x="67.5" y="-7.5" font-family="Helvetica,sans-Serif" font-size="10.00">Manager::addWatchpoint</text>
</g>
<!-- Node2 -->
<g id="node2" class="node"><title>Node2</title>
<g id="a_node2"><a xlink:href="classpfp_1_1core_1_1db_1_1Watchpoint.html#a151bdd88f3b30b845277af1ed55b0fbe" target="_top" xlink:title="Get name of counter the Watchpoint is set on. ">
<polygon fill="white" stroke="black" points="171,-0.5 171,-30.5 302,-30.5 302,-0.5 171,-0.5"/>
<text text-anchor="start" x="179" y="-18.5" font-family="Helvetica,sans-Serif" font-size="10.00">pfp::core::db::Watchpoint</text>
<text text-anchor="middle" x="236.5" y="-7.5" font-family="Helvetica,sans-Serif" font-size="10.00">::getCounterName</text>
</a>
</g>
</g>
<!-- Node1&#45;&gt;Node2 -->
<g id="edge1" class="edge"><title>Node1&#45;&gt;Node2</title>
<path fill="none" stroke="midnightblue" d="M135.463,-15.5C143.785,-15.5 152.336,-15.5 160.766,-15.5"/>
<polygon fill="midnightblue" stroke="midnightblue" points="160.965,-19.0001 170.965,-15.5 160.965,-12.0001 160.965,-19.0001"/>
</g>
</g>
</svg>
