<?xml version="1.0" encoding="UTF-8" standalone="no"?>
<!DOCTYPE svg PUBLIC "-//W3C//DTD SVG 1.1//EN"
 "http://www.w3.org/Graphics/SVG/1.1/DTD/svg11.dtd">
<!-- Generated by graphviz version 2.38.0 (20140413.2041)
 -->
<!-- Title: pfp::core::PFPObject::notify_data_read Pages: 1 -->
<svg width="280pt" height="78pt"
 viewBox="0.00 0.00 280.00 77.50" xmlns="http://www.w3.org/2000/svg" xmlns:xlink="http://www.w3.org/1999/xlink">
<g id="graph0" class="graph" transform="scale(1 1) rotate(0) translate(4 73.5)">
<title>pfp::core::PFPObject::notify_data_read</title>
<polygon fill="white" stroke="none" points="-4,4 -4,-73.5 276,-73.5 276,4 -4,4"/>
<!-- Node1 -->
<g id="node1" class="node"><title>Node1</title>
<polygon fill="#bfbfbf" stroke="black" points="0,-17 0,-47 111,-47 111,-17 0,-17"/>
<text text-anchor="start" x="8" y="-35" font-family="Helvetica,sans-Serif" font-size="10.00">pfp::core::PFPObject</text>
<text text-anchor="middle" x="55.5" y="-24" font-family="Helvetica,sans-Serif" font-size="10.00">::notify_data_read</text>
</g>
<!-- Node2 -->
<g id="node2" class="node"><title>Node2</title>
<g id="a_node2"><a xlink:href="classpfp_1_1core_1_1PFPObserver.html#ab5f65bc105aaffb0d8e5b3499b6f1bdf" target="_top" xlink:title="Function called by the NPU when data is read by a module. ">
<polygon fill="white" stroke="black" points="147,-39 147,-69 272,-69 272,-39 147,-39"/>
<text text-anchor="start" x="155" y="-57" font-family="Helvetica,sans-Serif" font-size="10.00">pfp::core::PFPObserver</text>
<text text-anchor="middle" x="209.5" y="-46" font-family="Helvetica,sans-Serif" font-size="10.00">::data_read</text>
</a>
</g>
</g>
<!-- Node1&#45;&gt;Node2 -->
<g id="edge1" class="edge"><title>Node1&#45;&gt;Node2</title>
<path fill="none" stroke="midnightblue" d="M111.375,-39.9425C119.627,-41.1368 128.239,-42.3832 136.778,-43.6193"/>
<polygon fill="midnightblue" stroke="midnightblue" points="136.346,-47.093 146.744,-45.0617 137.349,-40.1652 136.346,-47.093"/>
</g>
<!-- Node3 -->
<g id="node3" class="node"><title>Node3</title>
<g id="a_node3"><a xlink:href="classMTQueue.html#a1b8d763529ae9eb53bce1c09f8f82507" target="_top" xlink:title="Push an item onto the MTQueue. ">
<polygon fill="white" stroke="black" points="164.5,-0.5 164.5,-19.5 254.5,-19.5 254.5,-0.5 164.5,-0.5"/>
<text text-anchor="middle" x="209.5" y="-7.5" font-family="Helvetica,sans-Serif" font-size="10.00">MTQueue::push</text>
</a>
</g>
</g>
<!-- Node1&#45;&gt;Node3 -->
<g id="edge2" class="edge"><title>Node1&#45;&gt;Node3</title>
<path fill="none" stroke="midnightblue" d="M111.375,-24.0575C125.335,-22.0371 140.327,-19.8672 154.254,-17.8513"/>
<polygon fill="midnightblue" stroke="midnightblue" points="154.782,-21.3115 164.178,-16.4151 153.78,-14.3837 154.782,-21.3115"/>
</g>
</g>
</svg>
