<?xml version="1.0" encoding="UTF-8" standalone="no"?>
<!DOCTYPE svg PUBLIC "-//W3C//DTD SVG 1.1//EN"
 "http://www.w3.org/Graphics/SVG/1.1/DTD/svg11.dtd">
<!-- Generated by graphviz version 2.38.0 (20140413.2041)
 -->
<!-- Title: pfp::cp::CommandProcessor Pages: 1 -->
<svg width="156pt" height="237pt"
 viewBox="0.00 0.00 156.00 237.00" xmlns="http://www.w3.org/2000/svg" xmlns:xlink="http://www.w3.org/1999/xlink">
<g id="graph0" class="graph" transform="scale(1 1) rotate(0) translate(4 233)">
<title>pfp::cp::CommandProcessor</title>
<polygon fill="white" stroke="none" points="-4,4 -4,-233 152,-233 152,4 -4,4"/>
<!-- Node1 -->
<g id="node1" class="node"><title>Node1</title>
<polygon fill="#bfbfbf" stroke="black" points="0,-127.5 0,-228.5 148,-228.5 148,-127.5 0,-127.5"/>
<text text-anchor="middle" x="74" y="-216.5" font-family="Helvetica,sans-Serif" font-size="10.00">pfp::cp::CommandProcessor</text>
<polyline fill="none" stroke="black" points="0,-209.5 148,-209.5 "/>
<text text-anchor="middle" x="74" y="-197.5" font-family="Helvetica,sans-Serif" font-size="10.00"> </text>
<polyline fill="none" stroke="black" points="0,-190.5 148,-190.5 "/>
<text text-anchor="start" x="8" y="-178.5" font-family="Helvetica,sans-Serif" font-size="10.00">+ accept_command()</text>
<text text-anchor="start" x="8" y="-167.5" font-family="Helvetica,sans-Serif" font-size="10.00"># DECLARE_PROCESS()</text>
<text text-anchor="start" x="8" y="-156.5" font-family="Helvetica,sans-Serif" font-size="10.00"># DECLARE_PROCESS()</text>
<text text-anchor="start" x="8" y="-145.5" font-family="Helvetica,sans-Serif" font-size="10.00"># DECLARE_PROCESS()</text>
<text text-anchor="start" x="8" y="-134.5" font-family="Helvetica,sans-Serif" font-size="10.00"># DECLARE_PROCESS()</text>
</g>
<!-- Node2 -->
<g id="node2" class="node"><title>Node2</title>
<g id="a_node2"><a xlink:href="classMiniCPA.html" target="_top" xlink:title="{MiniCPA\n||# process()\l# process()\l# process()\l# process()\l}">
<polygon fill="white" stroke="black" points="38.5,-0.5 38.5,-90.5 109.5,-90.5 109.5,-0.5 38.5,-0.5"/>
<text text-anchor="middle" x="74" y="-78.5" font-family="Helvetica,sans-Serif" font-size="10.00">MiniCPA</text>
<polyline fill="none" stroke="black" points="38.5,-71.5 109.5,-71.5 "/>
<text text-anchor="middle" x="74" y="-59.5" font-family="Helvetica,sans-Serif" font-size="10.00"> </text>
<polyline fill="none" stroke="black" points="38.5,-52.5 109.5,-52.5 "/>
<text text-anchor="start" x="46.5" y="-40.5" font-family="Helvetica,sans-Serif" font-size="10.00"># process()</text>
<text text-anchor="start" x="46.5" y="-29.5" font-family="Helvetica,sans-Serif" font-size="10.00"># process()</text>
<text text-anchor="start" x="46.5" y="-18.5" font-family="Helvetica,sans-Serif" font-size="10.00"># process()</text>
<text text-anchor="start" x="46.5" y="-7.5" font-family="Helvetica,sans-Serif" font-size="10.00"># process()</text>
</a>
</g>
</g>
<!-- Node1&#45;&gt;Node2 -->
<g id="edge1" class="edge"><title>Node1&#45;&gt;Node2</title>
<path fill="none" stroke="midnightblue" d="M74,-117.232C74,-108.236 74,-99.1012 74,-90.5165"/>
<polygon fill="none" stroke="midnightblue" points="70.5001,-117.291 74,-127.291 77.5001,-117.291 70.5001,-117.291"/>
</g>
</g>
</svg>
