<?xml version="1.0" encoding="UTF-8" standalone="no"?>
<!DOCTYPE svg PUBLIC "-//W3C//DTD SVG 1.1//EN"
 "http://www.w3.org/Graphics/SVG/1.1/DTD/svg11.dtd">
<!-- Generated by graphviz version 2.38.0 (20140413.2041)
 -->
<!-- Title: nlohmann::basic_json::value Pages: 1 -->
<svg width="607pt" height="89pt"
 viewBox="0.00 0.00 607.00 88.50" xmlns="http://www.w3.org/2000/svg" xmlns:xlink="http://www.w3.org/1999/xlink">
<g id="graph0" class="graph" transform="scale(1 1) rotate(0) translate(4 84.5)">
<title>nlohmann::basic_json::value</title>
<polygon fill="white" stroke="none" points="-4,4 -4,-84.5 603,-84.5 603,4 -4,4"/>
<!-- Node1 -->
<g id="node1" class="node"><title>Node1</title>
<polygon fill="#bfbfbf" stroke="black" points="0,-28 0,-58 117,-58 117,-28 0,-28"/>
<text text-anchor="start" x="8" y="-46" font-family="Helvetica,sans-Serif" font-size="10.00">nlohmann::basic_json</text>
<text text-anchor="middle" x="58.5" y="-35" font-family="Helvetica,sans-Serif" font-size="10.00">::value</text>
</g>
<!-- Node2 -->
<g id="node2" class="node"><title>Node2</title>
<g id="a_node2"><a xlink:href="classnlohmann_1_1basic__json.html#a0a2cbbd95862a623e7dc5c37e67dead0" target="_top" xlink:title="access specified object element with default value ">
<polygon fill="white" stroke="black" points="153,-28 153,-58 270,-58 270,-28 153,-28"/>
<text text-anchor="start" x="161" y="-46" font-family="Helvetica,sans-Serif" font-size="10.00">nlohmann::basic_json</text>
<text text-anchor="middle" x="211.5" y="-35" font-family="Helvetica,sans-Serif" font-size="10.00">::value</text>
</a>
</g>
</g>
<!-- Node1&#45;&gt;Node2 -->
<g id="edge1" class="edge"><title>Node1&#45;&gt;Node2</title>
<path fill="none" stroke="midnightblue" d="M117.017,-43C125.464,-43 134.229,-43 142.856,-43"/>
<polygon fill="midnightblue" stroke="midnightblue" points="142.893,-46.5001 152.893,-43 142.892,-39.5001 142.893,-46.5001"/>
</g>
<!-- Node3 -->
<g id="node3" class="node"><title>Node3</title>
<g id="a_node3"><a xlink:href="classnlohmann_1_1basic__json.html#a94ba313c00f1713fa4be85de64083754" target="_top" xlink:title="return whether value is an object ">
<polygon fill="white" stroke="black" points="470.5,-50 470.5,-80 587.5,-80 587.5,-50 470.5,-50"/>
<text text-anchor="start" x="478.5" y="-68" font-family="Helvetica,sans-Serif" font-size="10.00">nlohmann::basic_json</text>
<text text-anchor="middle" x="529" y="-57" font-family="Helvetica,sans-Serif" font-size="10.00">::is_object</text>
</a>
</g>
</g>
<!-- Node2&#45;&gt;Node3 -->
<g id="edge2" class="edge"><title>Node2&#45;&gt;Node3</title>
<path fill="none" stroke="midnightblue" d="M259.103,-58.0234C273.93,-62.1085 290.506,-65.9644 306,-68 357.41,-74.7543 416.09,-73.5818 460.204,-70.9482"/>
<polygon fill="midnightblue" stroke="midnightblue" points="460.48,-74.4378 470.238,-70.3092 460.035,-67.4519 460.48,-74.4378"/>
</g>
<!-- Node4 -->
<g id="node4" class="node"><title>Node4</title>
<g id="a_node4"><a xlink:href="classnlohmann_1_1basic__json.html#affe7e160e7bb06eed83c8b437af4692f" target="_top" xlink:title="find an element in a JSON object ">
<polygon fill="white" stroke="black" points="306,-28 306,-58 423,-58 423,-28 306,-28"/>
<text text-anchor="start" x="314" y="-46" font-family="Helvetica,sans-Serif" font-size="10.00">nlohmann::basic_json</text>
<text text-anchor="middle" x="364.5" y="-35" font-family="Helvetica,sans-Serif" font-size="10.00">::find</text>
</a>
</g>
</g>
<!-- Node2&#45;&gt;Node4 -->
<g id="edge3" class="edge"><title>Node2&#45;&gt;Node4</title>
<path fill="none" stroke="midnightblue" d="M270.017,-43C278.464,-43 287.229,-43 295.856,-43"/>
<polygon fill="midnightblue" stroke="midnightblue" points="295.893,-46.5001 305.893,-43 295.892,-39.5001 295.893,-46.5001"/>
</g>
<!-- Node5 -->
<g id="node5" class="node"><title>Node5</title>
<g id="a_node5"><a xlink:href="classnlohmann_1_1basic__json.html#a12ccf14d39ddae52f6c7e126105a230b" target="_top" xlink:title="returns an iterator to one past the last element ">
<polygon fill="white" stroke="black" points="459,-0.5 459,-19.5 599,-19.5 599,-0.5 459,-0.5"/>
<text text-anchor="middle" x="529" y="-7.5" font-family="Helvetica,sans-Serif" font-size="10.00">nlohmann::basic_json::end</text>
</a>
</g>
</g>
<!-- Node2&#45;&gt;Node5 -->
<g id="edge6" class="edge"><title>Node2&#45;&gt;Node5</title>
<path fill="none" stroke="midnightblue" d="M260.591,-27.9222C275.048,-23.9944 291.044,-20.2396 306,-18 352.963,-10.9673 406.107,-8.84903 448.621,-8.54464"/>
<polygon fill="midnightblue" stroke="midnightblue" points="448.646,-12.0447 458.632,-8.50481 448.618,-5.04472 448.646,-12.0447"/>
</g>
<!-- Node4&#45;&gt;Node3 -->
<g id="edge5" class="edge"><title>Node4&#45;&gt;Node3</title>
<path fill="none" stroke="midnightblue" d="M423.249,-50.8183C435.222,-52.4393 447.94,-54.1612 460.235,-55.8257"/>
<polygon fill="midnightblue" stroke="midnightblue" points="460.058,-59.3335 470.437,-57.2069 460.997,-52.3968 460.058,-59.3335"/>
</g>
<!-- Node4&#45;&gt;Node5 -->
<g id="edge4" class="edge"><title>Node4&#45;&gt;Node5</title>
<path fill="none" stroke="midnightblue" d="M423.249,-31.2725C438.814,-28.1116 455.638,-24.695 471.154,-21.5441"/>
<polygon fill="midnightblue" stroke="midnightblue" points="472.031,-24.9375 481.135,-19.5173 470.638,-18.0775 472.031,-24.9375"/>
</g>
</g>
</svg>
