<?xml version="1.0" encoding="UTF-8" standalone="no"?>
<!DOCTYPE svg PUBLIC "-//W3C//DTD SVG 1.1//EN"
 "http://www.w3.org/Graphics/SVG/1.1/DTD/svg11.dtd">
<!-- Generated by graphviz version 2.38.0 (20140413.2041)
 -->
<!-- Title: pfp::cp::MatchKey Pages: 1 -->
<svg width="349pt" height="270pt"
 viewBox="0.00 0.00 348.50 270.00" xmlns="http://www.w3.org/2000/svg" xmlns:xlink="http://www.w3.org/1999/xlink">
<g id="graph0" class="graph" transform="scale(1 1) rotate(0) translate(4 266)">
<title>pfp::cp::MatchKey</title>
<polygon fill="white" stroke="none" points="-4,4 -4,-266 344.5,-266 344.5,4 -4,4"/>
<!-- Node1 -->
<g id="node1" class="node"><title>Node1</title>
<polygon fill="#bfbfbf" stroke="black" points="114.5,-138.5 114.5,-261.5 215.5,-261.5 215.5,-138.5 114.5,-138.5"/>
<text text-anchor="middle" x="165" y="-249.5" font-family="Helvetica,sans-Serif" font-size="10.00">pfp::cp::MatchKey</text>
<polyline fill="none" stroke="black" points="114.5,-242.5 215.5,-242.5 "/>
<text text-anchor="start" x="122.5" y="-230.5" font-family="Helvetica,sans-Serif" font-size="10.00"># data</text>
<polyline fill="none" stroke="black" points="114.5,-223.5 215.5,-223.5 "/>
<text text-anchor="start" x="122.5" y="-211.5" font-family="Helvetica,sans-Serif" font-size="10.00">+ MatchKey()</text>
<text text-anchor="start" x="122.5" y="-200.5" font-family="Helvetica,sans-Serif" font-size="10.00">+ print()</text>
<text text-anchor="start" x="122.5" y="-189.5" font-family="Helvetica,sans-Serif" font-size="10.00">+ ~MatchKey()</text>
<text text-anchor="start" x="122.5" y="-178.5" font-family="Helvetica,sans-Serif" font-size="10.00">+ get_data()</text>
<text text-anchor="start" x="122.5" y="-167.5" font-family="Helvetica,sans-Serif" font-size="10.00">+ get_prefix_len()</text>
<text text-anchor="start" x="122.5" y="-156.5" font-family="Helvetica,sans-Serif" font-size="10.00">+ get_mask()</text>
<text text-anchor="start" x="122.5" y="-145.5" font-family="Helvetica,sans-Serif" font-size="10.00">+ get_type()</text>
</g>
<!-- Node2 -->
<g id="node2" class="node"><title>Node2</title>
<g id="a_node2"><a xlink:href="classpfp_1_1cp_1_1ExactKey.html" target="_top" xlink:title="{pfp::cp::ExactKey\n||+ ExactKey()\l+ print()\l+ ~ExactKey()\l+ get_type()\l}">
<polygon fill="white" stroke="black" points="0,-6 0,-96 96,-96 96,-6 0,-6"/>
<text text-anchor="middle" x="48" y="-84" font-family="Helvetica,sans-Serif" font-size="10.00">pfp::cp::ExactKey</text>
<polyline fill="none" stroke="black" points="0,-77 96,-77 "/>
<text text-anchor="middle" x="48" y="-65" font-family="Helvetica,sans-Serif" font-size="10.00"> </text>
<polyline fill="none" stroke="black" points="0,-58 96,-58 "/>
<text text-anchor="start" x="8" y="-46" font-family="Helvetica,sans-Serif" font-size="10.00">+ ExactKey()</text>
<text text-anchor="start" x="8" y="-35" font-family="Helvetica,sans-Serif" font-size="10.00">+ print()</text>
<text text-anchor="start" x="8" y="-24" font-family="Helvetica,sans-Serif" font-size="10.00">+ ~ExactKey()</text>
<text text-anchor="start" x="8" y="-13" font-family="Helvetica,sans-Serif" font-size="10.00">+ get_type()</text>
</a>
</g>
</g>
<!-- Node1&#45;&gt;Node2 -->
<g id="edge1" class="edge"><title>Node1&#45;&gt;Node2</title>
<path fill="none" stroke="midnightblue" d="M110.39,-130.388C101.178,-118.813 91.8364,-107.077 83.2848,-96.3322"/>
<polygon fill="none" stroke="midnightblue" points="107.77,-132.716 116.736,-138.361 113.247,-128.357 107.77,-132.716"/>
</g>
<!-- Node3 -->
<g id="node3" class="node"><title>Node3</title>
<g id="a_node3"><a xlink:href="classpfp_1_1cp_1_1LpmKey.html" target="_top" xlink:title="{pfp::cp::LpmKey\n||+ LpmKey()\l+ print()\l+ ~LpmKey()\l+ get_prefix_len()\l+ get_type()\l}">
<polygon fill="white" stroke="black" points="114.5,-0.5 114.5,-101.5 215.5,-101.5 215.5,-0.5 114.5,-0.5"/>
<text text-anchor="middle" x="165" y="-89.5" font-family="Helvetica,sans-Serif" font-size="10.00">pfp::cp::LpmKey</text>
<polyline fill="none" stroke="black" points="114.5,-82.5 215.5,-82.5 "/>
<text text-anchor="middle" x="165" y="-70.5" font-family="Helvetica,sans-Serif" font-size="10.00"> </text>
<polyline fill="none" stroke="black" points="114.5,-63.5 215.5,-63.5 "/>
<text text-anchor="start" x="122.5" y="-51.5" font-family="Helvetica,sans-Serif" font-size="10.00">+ LpmKey()</text>
<text text-anchor="start" x="122.5" y="-40.5" font-family="Helvetica,sans-Serif" font-size="10.00">+ print()</text>
<text text-anchor="start" x="122.5" y="-29.5" font-family="Helvetica,sans-Serif" font-size="10.00">+ ~LpmKey()</text>
<text text-anchor="start" x="122.5" y="-18.5" font-family="Helvetica,sans-Serif" font-size="10.00">+ get_prefix_len()</text>
<text text-anchor="start" x="122.5" y="-7.5" font-family="Helvetica,sans-Serif" font-size="10.00">+ get_type()</text>
</a>
</g>
</g>
<!-- Node1&#45;&gt;Node3 -->
<g id="edge2" class="edge"><title>Node1&#45;&gt;Node3</title>
<path fill="none" stroke="midnightblue" d="M165,-128.289C165,-119.323 165,-110.301 165,-101.758"/>
<polygon fill="none" stroke="midnightblue" points="161.5,-128.361 165,-138.361 168.5,-128.361 161.5,-128.361"/>
</g>
<!-- Node4 -->
<g id="node4" class="node"><title>Node4</title>
<g id="a_node4"><a xlink:href="classpfp_1_1cp_1_1TernaryKey.html" target="_top" xlink:title="{pfp::cp::TernaryKey\n||+ TernaryKey()\l+ print()\l+ ~TernaryKey()\l+ get_mask()\l+ get_type()\l}">
<polygon fill="white" stroke="black" points="233.5,-0.5 233.5,-101.5 340.5,-101.5 340.5,-0.5 233.5,-0.5"/>
<text text-anchor="middle" x="287" y="-89.5" font-family="Helvetica,sans-Serif" font-size="10.00">pfp::cp::TernaryKey</text>
<polyline fill="none" stroke="black" points="233.5,-82.5 340.5,-82.5 "/>
<text text-anchor="middle" x="287" y="-70.5" font-family="Helvetica,sans-Serif" font-size="10.00"> </text>
<polyline fill="none" stroke="black" points="233.5,-63.5 340.5,-63.5 "/>
<text text-anchor="start" x="241.5" y="-51.5" font-family="Helvetica,sans-Serif" font-size="10.00">+ TernaryKey()</text>
<text text-anchor="start" x="241.5" y="-40.5" font-family="Helvetica,sans-Serif" font-size="10.00">+ print()</text>
<text text-anchor="start" x="241.5" y="-29.5" font-family="Helvetica,sans-Serif" font-size="10.00">+ ~TernaryKey()</text>
<text text-anchor="start" x="241.5" y="-18.5" font-family="Helvetica,sans-Serif" font-size="10.00">+ get_mask()</text>
<text text-anchor="start" x="241.5" y="-7.5" font-family="Helvetica,sans-Serif" font-size="10.00">+ get_type()</text>
</a>
</g>
</g>
<!-- Node1&#45;&gt;Node4 -->
<g id="edge3" class="edge"><title>Node1&#45;&gt;Node4</title>
<path fill="none" stroke="midnightblue" d="M221.766,-130.602C229.836,-120.878 238.005,-111.035 245.704,-101.758"/>
<polygon fill="none" stroke="midnightblue" points="219.02,-128.43 215.326,-138.361 224.406,-132.901 219.02,-128.43"/>
</g>
</g>
</svg>
