<?xml version="1.0" encoding="UTF-8" standalone="no"?>
<!DOCTYPE svg PUBLIC "-//W3C//DTD SVG 1.1//EN"
 "http://www.w3.org/Graphics/SVG/1.1/DTD/svg11.dtd">
<!-- Generated by graphviz version 2.38.0 (20140413.2041)
 -->
<!-- Title: pfp::core::db::DebugObserver::counter_added Pages: 1 -->
<svg width="325pt" height="39pt"
 viewBox="0.00 0.00 325.00 39.00" xmlns="http://www.w3.org/2000/svg" xmlns:xlink="http://www.w3.org/1999/xlink">
<g id="graph0" class="graph" transform="scale(1 1) rotate(0) translate(4 35)">
<title>pfp::core::db::DebugObserver::counter_added</title>
<polygon fill="white" stroke="none" points="-4,4 -4,-35 321,-35 321,4 -4,4"/>
<!-- Node1 -->
<g id="node1" class="node"><title>Node1</title>
<polygon fill="#bfbfbf" stroke="black" points="0,-0.5 0,-30.5 151,-30.5 151,-0.5 0,-0.5"/>
<text text-anchor="start" x="8" y="-18.5" font-family="Helvetica,sans-Serif" font-size="10.00">pfp::core::db::DebugObserver</text>
<text text-anchor="middle" x="75.5" y="-7.5" font-family="Helvetica,sans-Serif" font-size="10.00">::counter_added</text>
</g>
<!-- Node2 -->
<g id="node2" class="node"><title>Node2</title>
<g id="a_node2"><a xlink:href="classpfp_1_1core_1_1db_1_1DebugDataManager.html#a09362476221cdd50dd5c34bf6f3edf70" target="_top" xlink:title="Add a counter. ">
<polygon fill="white" stroke="black" points="187,-0.5 187,-30.5 317,-30.5 317,-0.5 187,-0.5"/>
<text text-anchor="start" x="195" y="-18.5" font-family="Helvetica,sans-Serif" font-size="10.00">pfp::core::db::DebugData</text>
<text text-anchor="middle" x="252" y="-7.5" font-family="Helvetica,sans-Serif" font-size="10.00">Manager::addCounter</text>
</a>
</g>
</g>
<!-- Node1&#45;&gt;Node2 -->
<g id="edge1" class="edge"><title>Node1&#45;&gt;Node2</title>
<path fill="none" stroke="midnightblue" d="M151.01,-15.5C159.505,-15.5 168.166,-15.5 176.659,-15.5"/>
<polygon fill="midnightblue" stroke="midnightblue" points="176.914,-19.0001 186.914,-15.5 176.914,-12.0001 176.914,-19.0001"/>
</g>
</g>
</svg>
