<?xml version="1.0" encoding="UTF-8" standalone="no"?>
<!DOCTYPE svg PUBLIC "-//W3C//DTD SVG 1.1//EN"
 "http://www.w3.org/Graphics/SVG/1.1/DTD/svg11.dtd">
<!-- Generated by graphviz version 2.38.0 (20140413.2041)
 -->
<!-- Title: nlohmann::basic_json::basic_json Pages: 1 -->
<svg width="431pt" height="161pt"
 viewBox="0.00 0.00 431.00 161.00" xmlns="http://www.w3.org/2000/svg" xmlns:xlink="http://www.w3.org/1999/xlink">
<g id="graph0" class="graph" transform="scale(1 1) rotate(0) translate(4 157)">
<title>nlohmann::basic_json::basic_json</title>
<polygon fill="white" stroke="none" points="-4,4 -4,-157 427,-157 427,4 -4,4"/>
<!-- Node1 -->
<g id="node1" class="node"><title>Node1</title>
<polygon fill="#bfbfbf" stroke="black" points="0,-73.5 0,-103.5 117,-103.5 117,-73.5 0,-73.5"/>
<text text-anchor="start" x="8" y="-91.5" font-family="Helvetica,sans-Serif" font-size="10.00">nlohmann::basic_json</text>
<text text-anchor="middle" x="58.5" y="-80.5" font-family="Helvetica,sans-Serif" font-size="10.00">::basic_json</text>
</g>
<!-- Node2 -->
<g id="node2" class="node"><title>Node2</title>
<g id="a_node2"><a xlink:href="classnlohmann_1_1basic__json.html#a5685815624b086caa532f41e853d4b0f" target="_top" xlink:title="explicitly create an array from an initializer list ">
<polygon fill="white" stroke="black" points="153,-122.5 153,-152.5 270,-152.5 270,-122.5 153,-122.5"/>
<text text-anchor="start" x="161" y="-140.5" font-family="Helvetica,sans-Serif" font-size="10.00">nlohmann::basic_json</text>
<text text-anchor="middle" x="211.5" y="-129.5" font-family="Helvetica,sans-Serif" font-size="10.00">::array</text>
</a>
</g>
</g>
<!-- Node1&#45;&gt;Node2 -->
<g id="edge1" class="edge"><title>Node1&#45;&gt;Node2</title>
<path fill="none" stroke="midnightblue" d="M115.768,-106.759C131.694,-111.927 148.844,-117.492 164.117,-122.448"/>
<polygon fill="midnightblue" stroke="midnightblue" points="116.629,-103.359 106.037,-103.601 114.468,-110.017 116.629,-103.359"/>
</g>
<!-- Node3 -->
<g id="node3" class="node"><title>Node3</title>
<g id="a_node3"><a xlink:href="classnlohmann_1_1basic__json.html#ad25b2f8c21e241e2d63455537a9294ff" target="_top" xlink:title="explicitly create an object from an initializer list ">
<polygon fill="white" stroke="black" points="153,-73.5 153,-103.5 270,-103.5 270,-73.5 153,-73.5"/>
<text text-anchor="start" x="161" y="-91.5" font-family="Helvetica,sans-Serif" font-size="10.00">nlohmann::basic_json</text>
<text text-anchor="middle" x="211.5" y="-80.5" font-family="Helvetica,sans-Serif" font-size="10.00">::object</text>
</a>
</g>
</g>
<!-- Node1&#45;&gt;Node3 -->
<g id="edge2" class="edge"><title>Node1&#45;&gt;Node3</title>
<path fill="none" stroke="midnightblue" d="M127.052,-88.5C135.678,-88.5 144.444,-88.5 152.893,-88.5"/>
<polygon fill="midnightblue" stroke="midnightblue" points="127.017,-85.0001 117.017,-88.5 127.017,-92.0001 127.017,-85.0001"/>
</g>
<!-- Node4 -->
<g id="node4" class="node"><title>Node4</title>
<g id="a_node4"><a xlink:href="classnlohmann_1_1basic__json.html#a59732a1de287a7301cca19a7a7748159" target="_top" xlink:title="access specified array element ">
<polygon fill="white" stroke="black" points="153,-24.5 153,-54.5 270,-54.5 270,-24.5 153,-24.5"/>
<text text-anchor="start" x="161" y="-42.5" font-family="Helvetica,sans-Serif" font-size="10.00">nlohmann::basic_json</text>
<text text-anchor="middle" x="211.5" y="-31.5" font-family="Helvetica,sans-Serif" font-size="10.00">::operator[]</text>
</a>
</g>
</g>
<!-- Node1&#45;&gt;Node4 -->
<g id="edge3" class="edge"><title>Node1&#45;&gt;Node4</title>
<path fill="none" stroke="midnightblue" d="M115.768,-70.2409C131.694,-65.0727 148.844,-59.5076 164.117,-54.5516"/>
<polygon fill="midnightblue" stroke="midnightblue" points="114.468,-66.9828 106.037,-73.3986 116.629,-73.641 114.468,-66.9828"/>
</g>
<!-- Node5 -->
<g id="node5" class="node"><title>Node5</title>
<g id="a_node5"><a xlink:href="classnlohmann_1_1basic__json.html#a140b8251f82e99ad279dcad5c977e26b" target="_top" xlink:title="access specified object element ">
<polygon fill="white" stroke="black" points="306,-49.5 306,-79.5 423,-79.5 423,-49.5 306,-49.5"/>
<text text-anchor="start" x="314" y="-67.5" font-family="Helvetica,sans-Serif" font-size="10.00">nlohmann::basic_json</text>
<text text-anchor="middle" x="364.5" y="-56.5" font-family="Helvetica,sans-Serif" font-size="10.00">::operator[]</text>
</a>
</g>
</g>
<!-- Node4&#45;&gt;Node5 -->
<g id="edge4" class="edge"><title>Node4&#45;&gt;Node5</title>
<path fill="none" stroke="midnightblue" d="M280.052,-50.6841C288.678,-52.1122 297.444,-53.5635 305.893,-54.9623"/>
<polygon fill="midnightblue" stroke="midnightblue" points="280.455,-47.2032 270.017,-49.0227 279.311,-54.1092 280.455,-47.2032"/>
</g>
<!-- Node6 -->
<g id="node6" class="node"><title>Node6</title>
<g id="a_node6"><a xlink:href="classnlohmann_1_1basic__json.html#a9486a272e034c0548305d7a12f3045e6" target="_top" xlink:title="add an object to an object ">
<polygon fill="white" stroke="black" points="306,-0.5 306,-30.5 423,-30.5 423,-0.5 306,-0.5"/>
<text text-anchor="start" x="314" y="-18.5" font-family="Helvetica,sans-Serif" font-size="10.00">nlohmann::basic_json</text>
<text text-anchor="middle" x="364.5" y="-7.5" font-family="Helvetica,sans-Serif" font-size="10.00">::operator+=</text>
</a>
</g>
</g>
<!-- Node4&#45;&gt;Node6 -->
<g id="edge5" class="edge"><title>Node4&#45;&gt;Node6</title>
<path fill="none" stroke="midnightblue" d="M280.052,-28.7633C288.678,-27.3923 297.444,-25.999 305.893,-24.6562"/>
<polygon fill="midnightblue" stroke="midnightblue" points="279.344,-25.3318 270.017,-30.3582 280.443,-32.245 279.344,-25.3318"/>
</g>
</g>
</svg>
