<?xml version="1.0" encoding="UTF-8" standalone="no"?>
<!DOCTYPE svg PUBLIC "-//W3C//DTD SVG 1.1//EN"
 "http://www.w3.org/Graphics/SVG/1.1/DTD/svg11.dtd">
<!-- Generated by graphviz version 2.38.0 (20140413.2041)
 -->
<!-- Title: nlohmann::basic_json::is_primitive Pages: 1 -->
<svg width="431pt" height="210pt"
 viewBox="0.00 0.00 431.00 210.00" xmlns="http://www.w3.org/2000/svg" xmlns:xlink="http://www.w3.org/1999/xlink">
<g id="graph0" class="graph" transform="scale(1 1) rotate(0) translate(4 206)">
<title>nlohmann::basic_json::is_primitive</title>
<polygon fill="white" stroke="none" points="-4,4 -4,-206 427,-206 427,4 -4,4"/>
<!-- Node1 -->
<g id="node1" class="node"><title>Node1</title>
<polygon fill="#bfbfbf" stroke="black" points="0,-97.5 0,-127.5 117,-127.5 117,-97.5 0,-97.5"/>
<text text-anchor="start" x="8" y="-115.5" font-family="Helvetica,sans-Serif" font-size="10.00">nlohmann::basic_json</text>
<text text-anchor="middle" x="58.5" y="-104.5" font-family="Helvetica,sans-Serif" font-size="10.00">::is_primitive</text>
</g>
<!-- Node2 -->
<g id="node2" class="node"><title>Node2</title>
<g id="a_node2"><a xlink:href="classnlohmann_1_1basic__json.html#a8abdfc0d6e051f6fa29d49da57bce631" target="_top" xlink:title="return whether value is null ">
<polygon fill="white" stroke="black" points="153,-171.5 153,-201.5 270,-201.5 270,-171.5 153,-171.5"/>
<text text-anchor="start" x="161" y="-189.5" font-family="Helvetica,sans-Serif" font-size="10.00">nlohmann::basic_json</text>
<text text-anchor="middle" x="211.5" y="-178.5" font-family="Helvetica,sans-Serif" font-size="10.00">::is_null</text>
</a>
</g>
</g>
<!-- Node1&#45;&gt;Node2 -->
<g id="edge1" class="edge"><title>Node1&#45;&gt;Node2</title>
<path fill="none" stroke="midnightblue" d="M86.1557,-127.632C104.675,-137.927 130.052,-151.606 153,-162.5 156.374,-164.102 159.885,-165.708 163.433,-167.289"/>
<polygon fill="midnightblue" stroke="midnightblue" points="162.28,-170.605 172.846,-171.392 165.077,-164.188 162.28,-170.605"/>
</g>
<!-- Node3 -->
<g id="node3" class="node"><title>Node3</title>
<g id="a_node3"><a xlink:href="classnlohmann_1_1basic__json.html#a409e854d754f5684b2cce74ee20dbc3b" target="_top" xlink:title="return whether value is a string ">
<polygon fill="white" stroke="black" points="153,-122.5 153,-152.5 270,-152.5 270,-122.5 153,-122.5"/>
<text text-anchor="start" x="161" y="-140.5" font-family="Helvetica,sans-Serif" font-size="10.00">nlohmann::basic_json</text>
<text text-anchor="middle" x="211.5" y="-129.5" font-family="Helvetica,sans-Serif" font-size="10.00">::is_string</text>
</a>
</g>
</g>
<!-- Node1&#45;&gt;Node3 -->
<g id="edge2" class="edge"><title>Node1&#45;&gt;Node3</title>
<path fill="none" stroke="midnightblue" d="M117.017,-122.023C125.464,-123.421 134.229,-124.872 142.856,-126.301"/>
<polygon fill="midnightblue" stroke="midnightblue" points="142.455,-129.782 152.893,-127.962 143.599,-122.876 142.455,-129.782"/>
</g>
<!-- Node4 -->
<g id="node4" class="node"><title>Node4</title>
<g id="a_node4"><a xlink:href="classnlohmann_1_1basic__json.html#adade77415e7f7bf08a9b5150c742714d" target="_top" xlink:title="return whether value is a boolean ">
<polygon fill="white" stroke="black" points="153,-73.5 153,-103.5 270,-103.5 270,-73.5 153,-73.5"/>
<text text-anchor="start" x="161" y="-91.5" font-family="Helvetica,sans-Serif" font-size="10.00">nlohmann::basic_json</text>
<text text-anchor="middle" x="211.5" y="-80.5" font-family="Helvetica,sans-Serif" font-size="10.00">::is_boolean</text>
</a>
</g>
</g>
<!-- Node1&#45;&gt;Node4 -->
<g id="edge3" class="edge"><title>Node1&#45;&gt;Node4</title>
<path fill="none" stroke="midnightblue" d="M117.017,-103.358C125.464,-102.016 134.229,-100.623 142.856,-99.2513"/>
<polygon fill="midnightblue" stroke="midnightblue" points="143.566,-102.683 152.893,-97.6562 142.467,-95.7693 143.566,-102.683"/>
</g>
<!-- Node5 -->
<g id="node5" class="node"><title>Node5</title>
<g id="a_node5"><a xlink:href="classnlohmann_1_1basic__json.html#a957eb9594c7f0ca93212c30f3a400873" target="_top" xlink:title="return whether value is a number ">
<polygon fill="white" stroke="black" points="153,-24.5 153,-54.5 270,-54.5 270,-24.5 153,-24.5"/>
<text text-anchor="start" x="161" y="-42.5" font-family="Helvetica,sans-Serif" font-size="10.00">nlohmann::basic_json</text>
<text text-anchor="middle" x="211.5" y="-31.5" font-family="Helvetica,sans-Serif" font-size="10.00">::is_number</text>
</a>
</g>
</g>
<!-- Node1&#45;&gt;Node5 -->
<g id="edge4" class="edge"><title>Node1&#45;&gt;Node5</title>
<path fill="none" stroke="midnightblue" d="M87.9087,-97.3153C106.319,-87.6242 130.901,-74.9633 153,-64.5 157.038,-62.5879 161.26,-60.6463 165.502,-58.7338"/>
<polygon fill="midnightblue" stroke="midnightblue" points="167.045,-61.8783 174.759,-54.6161 164.2,-55.4825 167.045,-61.8783"/>
</g>
<!-- Node6 -->
<g id="node6" class="node"><title>Node6</title>
<g id="a_node6"><a xlink:href="classnlohmann_1_1basic__json.html#a435c93d06ef28f8003c31f62ffe4aed1" target="_top" xlink:title="return whether value is an integer number ">
<polygon fill="white" stroke="black" points="306,-49.5 306,-79.5 423,-79.5 423,-49.5 306,-49.5"/>
<text text-anchor="start" x="314" y="-67.5" font-family="Helvetica,sans-Serif" font-size="10.00">nlohmann::basic_json</text>
<text text-anchor="middle" x="364.5" y="-56.5" font-family="Helvetica,sans-Serif" font-size="10.00">::is_number_integer</text>
</a>
</g>
</g>
<!-- Node5&#45;&gt;Node6 -->
<g id="edge5" class="edge"><title>Node5&#45;&gt;Node6</title>
<path fill="none" stroke="midnightblue" d="M270.017,-49.0227C278.464,-50.4212 287.229,-51.8724 295.856,-53.3007"/>
<polygon fill="midnightblue" stroke="midnightblue" points="295.455,-56.7819 305.893,-54.9623 296.599,-49.8759 295.455,-56.7819"/>
</g>
<!-- Node7 -->
<g id="node7" class="node"><title>Node7</title>
<g id="a_node7"><a xlink:href="classnlohmann_1_1basic__json.html#a7641371be8a347f3c1e05ac089a74c36" target="_top" xlink:title="return whether value is a floating&#45;point number ">
<polygon fill="white" stroke="black" points="306,-0.5 306,-30.5 423,-30.5 423,-0.5 306,-0.5"/>
<text text-anchor="start" x="314" y="-18.5" font-family="Helvetica,sans-Serif" font-size="10.00">nlohmann::basic_json</text>
<text text-anchor="middle" x="364.5" y="-7.5" font-family="Helvetica,sans-Serif" font-size="10.00">::is_number_float</text>
</a>
</g>
</g>
<!-- Node5&#45;&gt;Node7 -->
<g id="edge6" class="edge"><title>Node5&#45;&gt;Node7</title>
<path fill="none" stroke="midnightblue" d="M270.017,-30.3582C278.464,-29.0157 287.229,-27.6225 295.856,-26.2513"/>
<polygon fill="midnightblue" stroke="midnightblue" points="296.566,-29.6826 305.893,-24.6562 295.467,-22.7693 296.566,-29.6826"/>
</g>
</g>
</svg>
