<?xml version="1.0" encoding="UTF-8" standalone="no"?>
<!DOCTYPE svg PUBLIC "-//W3C//DTD SVG 1.1//EN"
 "http://www.w3.org/Graphics/SVG/1.1/DTD/svg11.dtd">
<!-- Generated by graphviz version 2.38.0 (20140413.2041)
 -->
<!-- Title: pfp::cp::CommandResult Pages: 1 -->
<!--zoomable 204 -->
<svg id="main" version="1.1" xmlns="http://www.w3.org/2000/svg" xmlns:xlink="http://www.w3.org/1999/xlink" xml:space="preserve" onload="init(evt)">
<style type="text/css"><![CDATA[
.edge:hover path { stroke: red; }
.edge:hover polygon { stroke: red; fill: red; }
]]></style>
<script type="text/javascript"><![CDATA[
var edges = document.getElementsByTagName('g');
if (edges && edges.length) {
  for (var i=0;i<edges.length;i++) {
    if (edges[i].id.substr(0,4)=='edge') {
      edges[i].setAttribute('class','edge');
    }
  }
}
]]></script>
        <defs>
                <circle id="rim" cx="0" cy="0" r="7"/>
                <circle id="rim2" cx="0" cy="0" r="3.5"/>
                <g id="zoomPlus">
                        <use xlink:href="#rim" fill="#404040">
                                <set attributeName="fill" to="#808080" begin="zoomplus.mouseover" end="zoomplus.mouseout"/>
                        </use>
                        <path d="M-4,0h8M0,-4v8" fill="none" stroke="white" stroke-width="1.5" pointer-events="none"/>
                </g>
                <g id="zoomMin">
                        <use xlink:href="#rim" fill="#404040">
                                <set attributeName="fill" to="#808080" begin="zoomminus.mouseover" end="zoomminus.mouseout"/>
                        </use>
                        <path d="M-4,0h8" fill="none" stroke="white" stroke-width="1.5" pointer-events="none"/>
                </g>
                <g id="dirArrow">
                        <path fill="none" stroke="white" stroke-width="1.5" d="M0,-3.0v7 M-2.5,-0.5L0,-3.0L2.5,-0.5"/>
                </g>
               <g id="resetDef">
                       <use xlink:href="#rim2" fill="#404040">
                               <set attributeName="fill" to="#808080" begin="reset.mouseover" end="reset.mouseout"/>
                       </use>
               </g>
        </defs>

<script type="text/javascript">
var viewWidth = 638;
var viewHeight = 204;
var sectionId = 'dynsection-0';
</script>
<script xlink:href="svgpan.js"/>
<svg id="graph" class="graph">
<g id="viewport">
<title>pfp::cp::CommandResult</title>
<polygon fill="white" stroke="none" points="-4,4 -4,-200 634,-200 634,4 -4,4"/>
<!-- Node1 -->
<g id="node1" class="node"><title>Node1</title>
<polygon fill="#bfbfbf" stroke="black" points="250.5,-116.5 250.5,-195.5 379.5,-195.5 379.5,-116.5 250.5,-116.5"/>
<text text-anchor="middle" x="315" y="-183.5" font-family="Helvetica,sans-Serif" font-size="10.00">pfp::cp::CommandResult</text>
<polyline fill="none" stroke="black" points="250.5,-176.5 379.5,-176.5 "/>
<text text-anchor="start" x="258.5" y="-164.5" font-family="Helvetica,sans-Serif" font-size="10.00">+ command</text>
<polyline fill="none" stroke="black" points="250.5,-157.5 379.5,-157.5 "/>
<text text-anchor="start" x="258.5" y="-145.5" font-family="Helvetica,sans-Serif" font-size="10.00">+ ~CommandResult()</text>
<text text-anchor="start" x="258.5" y="-134.5" font-family="Helvetica,sans-Serif" font-size="10.00">+ process()</text>
<text text-anchor="start" x="258.5" y="-123.5" font-family="Helvetica,sans-Serif" font-size="10.00">+ CommandResult()</text>
</g>
<!-- Node2 -->
<g id="node2" class="node"><title>Node2</title>
<g id="a_node2"><a xlink:href="classpfp_1_1cp_1_1DeleteResult.html" target="_top" xlink:title="{pfp::cp::DeleteResult\n||+ ~DeleteResult()\l+ OVERRIDE_PROCESS()\l}">
<polygon fill="white" stroke="black" points="0,-6 0,-74 144,-74 144,-6 0,-6"/>
<text text-anchor="middle" x="72" y="-62" font-family="Helvetica,sans-Serif" font-size="10.00">pfp::cp::DeleteResult</text>
<polyline fill="none" stroke="black" points="0,-55 144,-55 "/>
<text text-anchor="middle" x="72" y="-43" font-family="Helvetica,sans-Serif" font-size="10.00"> </text>
<polyline fill="none" stroke="black" points="0,-36 144,-36 "/>
<text text-anchor="start" x="8" y="-24" font-family="Helvetica,sans-Serif" font-size="10.00">+ ~DeleteResult()</text>
<text text-anchor="start" x="8" y="-13" font-family="Helvetica,sans-Serif" font-size="10.00">+ OVERRIDE_PROCESS()</text>
</a>
</g>
</g>
<!-- Node1&#45;&gt;Node2 -->
<g id="edge1" class="edge"><title>Node1&#45;&gt;Node2</title>
<path fill="none" stroke="midnightblue" d="M241.036,-121.043C213.371,-108.267 181.704,-93.5539 153,-80 148.907,-78.0674 144.702,-76.0722 140.463,-74.0533"/>
<polygon fill="none" stroke="midnightblue" points="239.708,-124.285 250.254,-125.297 242.641,-117.929 239.708,-124.285"/>
</g>
<!-- Node3 -->
<g id="node3" class="node"><title>Node3</title>
<g id="a_node3"><a xlink:href="classpfp_1_1cp_1_1FailedResult.html" target="_top" xlink:title="{pfp::cp::FailedResult\n|+ message\l|+ ~FailedResult()\l+ OVERRIDE_PROCESS()\l}">
<polygon fill="white" stroke="black" points="162,-6 162,-74 306,-74 306,-6 162,-6"/>
<text text-anchor="middle" x="234" y="-62" font-family="Helvetica,sans-Serif" font-size="10.00">pfp::cp::FailedResult</text>
<polyline fill="none" stroke="black" points="162,-55 306,-55 "/>
<text text-anchor="start" x="170" y="-43" font-family="Helvetica,sans-Serif" font-size="10.00">+ message</text>
<polyline fill="none" stroke="black" points="162,-36 306,-36 "/>
<text text-anchor="start" x="170" y="-24" font-family="Helvetica,sans-Serif" font-size="10.00">+ ~FailedResult()</text>
<text text-anchor="start" x="170" y="-13" font-family="Helvetica,sans-Serif" font-size="10.00">+ OVERRIDE_PROCESS()</text>
</a>
</g>
</g>
<!-- Node1&#45;&gt;Node3 -->
<g id="edge2" class="edge"><title>Node1&#45;&gt;Node3</title>
<path fill="none" stroke="midnightblue" d="M281.766,-108.227C273.662,-96.8206 265.156,-84.8497 257.605,-74.2225"/>
<polygon fill="none" stroke="midnightblue" points="278.932,-110.28 287.577,-116.405 284.638,-106.226 278.932,-110.28"/>
</g>
<!-- Node4 -->
<g id="node4" class="node"><title>Node4</title>
<g id="a_node4"><a xlink:href="classpfp_1_1cp_1_1InsertResult.html" target="_top" xlink:title="{pfp::cp::InsertResult\n|+ handle\l|+ ~InsertResult()\l+ OVERRIDE_PROCESS()\l+ InsertResult()\l}">
<polygon fill="white" stroke="black" points="324,-0.5 324,-79.5 468,-79.5 468,-0.5 324,-0.5"/>
<text text-anchor="middle" x="396" y="-67.5" font-family="Helvetica,sans-Serif" font-size="10.00">pfp::cp::InsertResult</text>
<polyline fill="none" stroke="black" points="324,-60.5 468,-60.5 "/>
<text text-anchor="start" x="332" y="-48.5" font-family="Helvetica,sans-Serif" font-size="10.00">+ handle</text>
<polyline fill="none" stroke="black" points="324,-41.5 468,-41.5 "/>
<text text-anchor="start" x="332" y="-29.5" font-family="Helvetica,sans-Serif" font-size="10.00">+ ~InsertResult()</text>
<text text-anchor="start" x="332" y="-18.5" font-family="Helvetica,sans-Serif" font-size="10.00">+ OVERRIDE_PROCESS()</text>
<text text-anchor="start" x="332" y="-7.5" font-family="Helvetica,sans-Serif" font-size="10.00">+ InsertResult()</text>
</a>
</g>
</g>
<!-- Node1&#45;&gt;Node4 -->
<g id="edge3" class="edge"><title>Node1&#45;&gt;Node4</title>
<path fill="none" stroke="midnightblue" d="M348.274,-108.17C355.036,-98.6535 362.075,-88.746 368.605,-79.5555"/>
<polygon fill="none" stroke="midnightblue" points="345.362,-106.226 342.423,-116.405 351.068,-110.28 345.362,-106.226"/>
</g>
<!-- Node5 -->
<g id="node5" class="node"><title>Node5</title>
<g id="a_node5"><a xlink:href="classpfp_1_1cp_1_1ModifyResult.html" target="_top" xlink:title="{pfp::cp::ModifyResult\n||+ ~ModifyResult()\l+ OVERRIDE_PROCESS()\l}">
<polygon fill="white" stroke="black" points="486,-6 486,-74 630,-74 630,-6 486,-6"/>
<text text-anchor="middle" x="558" y="-62" font-family="Helvetica,sans-Serif" font-size="10.00">pfp::cp::ModifyResult</text>
<polyline fill="none" stroke="black" points="486,-55 630,-55 "/>
<text text-anchor="middle" x="558" y="-43" font-family="Helvetica,sans-Serif" font-size="10.00"> </text>
<polyline fill="none" stroke="black" points="486,-36 630,-36 "/>
<text text-anchor="start" x="494" y="-24" font-family="Helvetica,sans-Serif" font-size="10.00">+ ~ModifyResult()</text>
<text text-anchor="start" x="494" y="-13" font-family="Helvetica,sans-Serif" font-size="10.00">+ OVERRIDE_PROCESS()</text>
</a>
</g>
</g>
<!-- Node1&#45;&gt;Node5 -->
<g id="edge4" class="edge"><title>Node1&#45;&gt;Node5</title>
<path fill="none" stroke="midnightblue" d="M388.964,-121.043C416.629,-108.267 448.296,-93.5539 477,-80 481.093,-78.0674 485.298,-76.0722 489.537,-74.0533"/>
<polygon fill="none" stroke="midnightblue" points="387.359,-117.929 379.746,-125.297 390.292,-124.285 387.359,-117.929"/>
</g>
</g>
</svg>
        <g id="navigator" transform="translate(0 0)" fill="#404254">
                <rect fill="#f2f5e9" fill-opacity="0.5" stroke="#606060" stroke-width=".5" x="0" y="0" width="60" height="60"/>
                <use id="zoomplus" xlink:href="#zoomPlus" x="17" y="9" onmousedown="handleZoom(evt,'in')"/>
                <use id="zoomminus" xlink:href="#zoomMin" x="42" y="9" onmousedown="handleZoom(evt,'out')"/>
                <use id="reset" xlink:href="#resetDef" x="30" y="36" onmousedown="handleReset()"/>
                <g id="arrowUp" xlink:href="#dirArrow" transform="translate(30 24)" onmousedown="handlePan(0,-1)">
                  <use xlink:href="#rim" fill="#404040">
                        <set attributeName="fill" to="#808080" begin="arrowUp.mouseover" end="arrowUp.mouseout"/>
                  </use>
                  <path fill="none" stroke="white" stroke-width="1.5" d="M0,-3.0v7 M-2.5,-0.5L0,-3.0L2.5,-0.5"/>
                </g>
                <g id="arrowRight" xlink:href="#dirArrow" transform="rotate(90) translate(36 -43)" onmousedown="handlePan(1,0)">
                  <use xlink:href="#rim" fill="#404040">
                        <set attributeName="fill" to="#808080" begin="arrowRight.mouseover" end="arrowRight.mouseout"/>
                  </use>
                  <path fill="none" stroke="white" stroke-width="1.5" d="M0,-3.0v7 M-2.5,-0.5L0,-3.0L2.5,-0.5"/>
                </g>
                <g id="arrowDown" xlink:href="#dirArrow" transform="rotate(180) translate(-30 -48)" onmousedown="handlePan(0,1)">
                  <use xlink:href="#rim" fill="#404040">
                        <set attributeName="fill" to="#808080" begin="arrowDown.mouseover" end="arrowDown.mouseout"/>
                  </use>
                  <path fill="none" stroke="white" stroke-width="1.5" d="M0,-3.0v7 M-2.5,-0.5L0,-3.0L2.5,-0.5"/>
                </g>
                <g id="arrowLeft" xlink:href="#dirArrow" transform="rotate(270) translate(-36 17)" onmousedown="handlePan(-1,0)">
                  <use xlink:href="#rim" fill="#404040">
                        <set attributeName="fill" to="#808080" begin="arrowLeft.mouseover" end="arrowLeft.mouseout"/>
                  </use>
                  <path fill="none" stroke="white" stroke-width="1.5" d="M0,-3.0v7 M-2.5,-0.5L0,-3.0L2.5,-0.5"/>
                </g>
        </g>
        <svg viewBox="0 0 15 15" width="100%" height="30px" preserveAspectRatio="xMaxYMin meet">
         <g id="arrow_out" transform="scale(0.3 0.3)">
          <a xlink:href="classpfp_1_1cp_1_1CommandResult__inherit__graph_org.svg" target="_base">
           <rect id="button" ry="5" rx="5" y="6" x="6" height="38" width="38"
                fill="#f2f5e9" fill-opacity="0.5" stroke="#606060" stroke-width="1.0"/>
           <path id="arrow"
             d="M 11.500037,31.436501 C 11.940474,20.09759 22.043105,11.32322 32.158766,21.979434 L 37.068811,17.246167 C 37.068811,17.246167 37.088388,32 37.088388,32 L 22.160133,31.978069 C 22.160133,31.978069 26.997745,27.140456 26.997745,27.140456 C 18.528582,18.264221 13.291696,25.230495 11.500037,31.436501 z"
             style="fill:#404040;"/>
          </a>
         </g>
        </svg>
</svg>
