<?xml version="1.0" encoding="UTF-8" standalone="no"?>
<!DOCTYPE svg PUBLIC "-//W3C//DTD SVG 1.1//EN"
 "http://www.w3.org/Graphics/SVG/1.1/DTD/svg11.dtd">
<!-- Generated by graphviz version 2.38.0 (20140413.2041)
 -->
<!-- Title: pfp::core::db::DebugObserver::data_written Pages: 1 -->
<!--zoomable 186 -->
<svg id="main" version="1.1" xmlns="http://www.w3.org/2000/svg" xmlns:xlink="http://www.w3.org/1999/xlink" xml:space="preserve" onload="init(evt)">
<style type="text/css"><![CDATA[
.edge:hover path { stroke: red; }
.edge:hover polygon { stroke: red; fill: red; }
]]></style>
<script type="text/javascript"><![CDATA[
var edges = document.getElementsByTagName('g');
if (edges && edges.length) {
  for (var i=0;i<edges.length;i++) {
    if (edges[i].id.substr(0,4)=='edge') {
      edges[i].setAttribute('class','edge');
    }
  }
}
]]></script>
        <defs>
                <circle id="rim" cx="0" cy="0" r="7"/>
                <circle id="rim2" cx="0" cy="0" r="3.5"/>
                <g id="zoomPlus">
                        <use xlink:href="#rim" fill="#404040">
                                <set attributeName="fill" to="#808080" begin="zoomplus.mouseover" end="zoomplus.mouseout"/>
                        </use>
                        <path d="M-4,0h8M0,-4v8" fill="none" stroke="white" stroke-width="1.5" pointer-events="none"/>
                </g>
                <g id="zoomMin">
                        <use xlink:href="#rim" fill="#404040">
                                <set attributeName="fill" to="#808080" begin="zoomminus.mouseover" end="zoomminus.mouseout"/>
                        </use>
                        <path d="M-4,0h8" fill="none" stroke="white" stroke-width="1.5" pointer-events="none"/>
                </g>
                <g id="dirArrow">
                        <path fill="none" stroke="white" stroke-width="1.5" d="M0,-3.0v7 M-2.5,-0.5L0,-3.0L2.5,-0.5"/>
                </g>
               <g id="resetDef">
                       <use xlink:href="#rim2" fill="#404040">
                               <set attributeName="fill" to="#808080" begin="reset.mouseover" end="reset.mouseout"/>
                       </use>
               </g>
        </defs>

<script type="text/javascript">
var viewWidth = 548;
var viewHeight = 186;
var sectionId = 'dynsection-7';
</script>
<script xlink:href="svgpan.js"/>
<svg id="graph" class="graph">
<g id="viewport">
<title>pfp::core::db::DebugObserver::data_written</title>
<polygon fill="white" stroke="none" points="-4,4 -4,-182 544,-182 544,4 -4,4"/>
<!-- Node1 -->
<g id="node1" class="node"><title>Node1</title>
<polygon fill="#bfbfbf" stroke="black" points="0,-48.5 0,-78.5 151,-78.5 151,-48.5 0,-48.5"/>
<text text-anchor="start" x="8" y="-66.5" font-family="Helvetica,sans-Serif" font-size="10.00">pfp::core::db::DebugObserver</text>
<text text-anchor="middle" x="75.5" y="-55.5" font-family="Helvetica,sans-Serif" font-size="10.00">::data_written</text>
</g>
<!-- Node2 -->
<g id="node2" class="node"><title>Node2</title>
<g id="a_node2"><a xlink:href="classpfp_1_1core_1_1db_1_1DebugDataManager.html#aa59e25a018d39d224d580ebdbcd85255" target="_top" xlink:title="Add a new packet or update an existing one. ">
<polygon fill="white" stroke="black" points="203,-73.5 203,-103.5 333,-103.5 333,-73.5 203,-73.5"/>
<text text-anchor="start" x="211" y="-91.5" font-family="Helvetica,sans-Serif" font-size="10.00">pfp::core::db::DebugData</text>
<text text-anchor="middle" x="268" y="-80.5" font-family="Helvetica,sans-Serif" font-size="10.00">Manager::updatePacket</text>
</a>
</g>
</g>
<!-- Node1&#45;&gt;Node2 -->
<g id="edge1" class="edge"><title>Node1&#45;&gt;Node2</title>
<path fill="none" stroke="midnightblue" d="M151.244,-73.3089C164.866,-75.0966 179.076,-76.9615 192.686,-78.7476"/>
<polygon fill="midnightblue" stroke="midnightblue" points="192.587,-82.2645 202.958,-80.0955 193.498,-75.324 192.587,-82.2645"/>
</g>
<!-- Node7 -->
<g id="node7" class="node"><title>Node7</title>
<g id="a_node7"><a xlink:href="classpfp_1_1core_1_1db_1_1DebugDataManager.html#a82d394d7fc4f0159c10422283e0d99c6" target="_top" xlink:title="Check if the given module is being ignored. ">
<polygon fill="white" stroke="black" points="187,-24.5 187,-54.5 349,-54.5 349,-24.5 187,-24.5"/>
<text text-anchor="start" x="195" y="-42.5" font-family="Helvetica,sans-Serif" font-size="10.00">pfp::core::db::DebugData</text>
<text text-anchor="middle" x="268" y="-31.5" font-family="Helvetica,sans-Serif" font-size="10.00">Manager::checkIgnoreModules</text>
</a>
</g>
</g>
<!-- Node1&#45;&gt;Node7 -->
<g id="edge6" class="edge"><title>Node1&#45;&gt;Node7</title>
<path fill="none" stroke="midnightblue" d="M151.244,-54.0834C159.635,-53.0263 168.249,-51.9411 176.808,-50.8627"/>
<polygon fill="midnightblue" stroke="midnightblue" points="177.331,-54.3247 186.815,-49.6021 176.456,-47.3796 177.331,-54.3247"/>
</g>
<!-- Node3 -->
<g id="node3" class="node"><title>Node3</title>
<g id="a_node3"><a xlink:href="classpfp_1_1core_1_1db_1_1DebuggerPacket.html#a2c2828ba58aa35c87cb7075ca260294b" target="_top" xlink:title="Set the current time of the packet. ">
<polygon fill="white" stroke="black" points="385,-147.5 385,-177.5 540,-177.5 540,-147.5 385,-147.5"/>
<text text-anchor="start" x="393" y="-165.5" font-family="Helvetica,sans-Serif" font-size="10.00">pfp::core::db::DebuggerPacket</text>
<text text-anchor="middle" x="462.5" y="-154.5" font-family="Helvetica,sans-Serif" font-size="10.00">::setTime</text>
</a>
</g>
</g>
<!-- Node2&#45;&gt;Node3 -->
<g id="edge2" class="edge"><title>Node2&#45;&gt;Node3</title>
<path fill="none" stroke="midnightblue" d="M301.635,-103.637C324.68,-114.062 356.423,-127.891 385,-138.5 390.22,-140.438 395.676,-142.356 401.167,-144.213"/>
<polygon fill="midnightblue" stroke="midnightblue" points="400.453,-147.664 411.046,-147.482 402.652,-141.018 400.453,-147.664"/>
</g>
<!-- Node4 -->
<g id="node4" class="node"><title>Node4</title>
<g id="a_node4"><a xlink:href="classpfp_1_1core_1_1db_1_1DebuggerPacket.html#ab6bbc1ea6b78add2c88f089b595a059c" target="_top" xlink:title="Set the current location of the packet. ">
<polygon fill="white" stroke="black" points="385,-98.5 385,-128.5 540,-128.5 540,-98.5 385,-98.5"/>
<text text-anchor="start" x="393" y="-116.5" font-family="Helvetica,sans-Serif" font-size="10.00">pfp::core::db::DebuggerPacket</text>
<text text-anchor="middle" x="462.5" y="-105.5" font-family="Helvetica,sans-Serif" font-size="10.00">::setCurrentLocation</text>
</a>
</g>
</g>
<!-- Node2&#45;&gt;Node4 -->
<g id="edge3" class="edge"><title>Node2&#45;&gt;Node4</title>
<path fill="none" stroke="midnightblue" d="M333.1,-96.8246C346.477,-98.562 360.791,-100.421 374.83,-102.244"/>
<polygon fill="midnightblue" stroke="midnightblue" points="374.619,-105.746 384.987,-103.563 375.521,-98.8044 374.619,-105.746"/>
</g>
<!-- Node5 -->
<g id="node5" class="node"><title>Node5</title>
<g id="a_node5"><a xlink:href="classpfp_1_1core_1_1db_1_1DebuggerPacket.html#a39ed8b29b2560595e17ab66f2d32fcee" target="_top" xlink:title="Update the time at which the packet entered a module. ">
<polygon fill="white" stroke="black" points="385,-49.5 385,-79.5 540,-79.5 540,-49.5 385,-49.5"/>
<text text-anchor="start" x="393" y="-67.5" font-family="Helvetica,sans-Serif" font-size="10.00">pfp::core::db::DebuggerPacket</text>
<text text-anchor="middle" x="462.5" y="-56.5" font-family="Helvetica,sans-Serif" font-size="10.00">::updateTraceReadTime</text>
</a>
</g>
</g>
<!-- Node2&#45;&gt;Node5 -->
<g id="edge4" class="edge"><title>Node2&#45;&gt;Node5</title>
<path fill="none" stroke="midnightblue" d="M333.1,-80.5083C346.477,-78.8405 360.791,-77.0559 374.83,-75.3056"/>
<polygon fill="midnightblue" stroke="midnightblue" points="375.497,-78.7497 384.987,-74.0393 374.631,-71.8035 375.497,-78.7497"/>
</g>
<!-- Node6 -->
<g id="node6" class="node"><title>Node6</title>
<g id="a_node6"><a xlink:href="classpfp_1_1core_1_1db_1_1DebuggerPacket.html#a890ca341604503c739dcffe9d9f6e89d" target="_top" xlink:title="Update the time at which the packet left a module. ">
<polygon fill="white" stroke="black" points="385,-0.5 385,-30.5 540,-30.5 540,-0.5 385,-0.5"/>
<text text-anchor="start" x="393" y="-18.5" font-family="Helvetica,sans-Serif" font-size="10.00">pfp::core::db::DebuggerPacket</text>
<text text-anchor="middle" x="462.5" y="-7.5" font-family="Helvetica,sans-Serif" font-size="10.00">::updateTraceWriteTime</text>
</a>
</g>
</g>
<!-- Node2&#45;&gt;Node6 -->
<g id="edge5" class="edge"><title>Node2&#45;&gt;Node6</title>
<path fill="none" stroke="midnightblue" d="M326.589,-73.4792C334.259,-70.8282 341.915,-67.8333 349,-64.5 366.4,-56.3141 367.701,-48.8976 385,-40.5 389.596,-38.269 394.439,-36.1654 399.366,-34.1982"/>
<polygon fill="midnightblue" stroke="midnightblue" points="400.789,-37.402 408.9,-30.5857 398.308,-30.8562 400.789,-37.402"/>
</g>
</g>
</svg>
        <g id="navigator" transform="translate(0 0)" fill="#404254">
                <rect fill="#f2f5e9" fill-opacity="0.5" stroke="#606060" stroke-width=".5" x="0" y="0" width="60" height="60"/>
                <use id="zoomplus" xlink:href="#zoomPlus" x="17" y="9" onmousedown="handleZoom(evt,'in')"/>
                <use id="zoomminus" xlink:href="#zoomMin" x="42" y="9" onmousedown="handleZoom(evt,'out')"/>
                <use id="reset" xlink:href="#resetDef" x="30" y="36" onmousedown="handleReset()"/>
                <g id="arrowUp" xlink:href="#dirArrow" transform="translate(30 24)" onmousedown="handlePan(0,-1)">
                  <use xlink:href="#rim" fill="#404040">
                        <set attributeName="fill" to="#808080" begin="arrowUp.mouseover" end="arrowUp.mouseout"/>
                  </use>
                  <path fill="none" stroke="white" stroke-width="1.5" d="M0,-3.0v7 M-2.5,-0.5L0,-3.0L2.5,-0.5"/>
                </g>
                <g id="arrowRight" xlink:href="#dirArrow" transform="rotate(90) translate(36 -43)" onmousedown="handlePan(1,0)">
                  <use xlink:href="#rim" fill="#404040">
                        <set attributeName="fill" to="#808080" begin="arrowRight.mouseover" end="arrowRight.mouseout"/>
                  </use>
                  <path fill="none" stroke="white" stroke-width="1.5" d="M0,-3.0v7 M-2.5,-0.5L0,-3.0L2.5,-0.5"/>
                </g>
                <g id="arrowDown" xlink:href="#dirArrow" transform="rotate(180) translate(-30 -48)" onmousedown="handlePan(0,1)">
                  <use xlink:href="#rim" fill="#404040">
                        <set attributeName="fill" to="#808080" begin="arrowDown.mouseover" end="arrowDown.mouseout"/>
                  </use>
                  <path fill="none" stroke="white" stroke-width="1.5" d="M0,-3.0v7 M-2.5,-0.5L0,-3.0L2.5,-0.5"/>
                </g>
                <g id="arrowLeft" xlink:href="#dirArrow" transform="rotate(270) translate(-36 17)" onmousedown="handlePan(-1,0)">
                  <use xlink:href="#rim" fill="#404040">
                        <set attributeName="fill" to="#808080" begin="arrowLeft.mouseover" end="arrowLeft.mouseout"/>
                  </use>
                  <path fill="none" stroke="white" stroke-width="1.5" d="M0,-3.0v7 M-2.5,-0.5L0,-3.0L2.5,-0.5"/>
                </g>
        </g>
        <svg viewBox="0 0 15 15" width="100%" height="30px" preserveAspectRatio="xMaxYMin meet">
         <g id="arrow_out" transform="scale(0.3 0.3)">
          <a xlink:href="classpfp_1_1core_1_1db_1_1DebugObserver_a53f5ee3a75637268e52ffe45a38229d0_cgraph_org.svg" target="_base">
           <rect id="button" ry="5" rx="5" y="6" x="6" height="38" width="38"
                fill="#f2f5e9" fill-opacity="0.5" stroke="#606060" stroke-width="1.0"/>
           <path id="arrow"
             d="M 11.500037,31.436501 C 11.940474,20.09759 22.043105,11.32322 32.158766,21.979434 L 37.068811,17.246167 C 37.068811,17.246167 37.088388,32 37.088388,32 L 22.160133,31.978069 C 22.160133,31.978069 26.997745,27.140456 26.997745,27.140456 C 18.528582,18.264221 13.291696,25.230495 11.500037,31.436501 z"
             style="fill:#404040;"/>
          </a>
         </g>
        </svg>
</svg>
