<?xml version="1.0" encoding="UTF-8" standalone="no"?>
<!DOCTYPE svg PUBLIC "-//W3C//DTD SVG 1.1//EN"
 "http://www.w3.org/Graphics/SVG/1.1/DTD/svg11.dtd">
<!-- Generated by graphviz version 2.38.0 (20140413.2041)
 -->
<!-- Title: pfp::core::db::AllWatchpointValuesMessage Pages: 1 -->
<svg width="181pt" height="215pt"
 viewBox="0.00 0.00 181.00 215.00" xmlns="http://www.w3.org/2000/svg" xmlns:xlink="http://www.w3.org/1999/xlink">
<g id="graph0" class="graph" transform="scale(1 1) rotate(0) translate(4 211)">
<title>pfp::core::db::AllWatchpointValuesMessage</title>
<polygon fill="white" stroke="none" points="-4,4 -4,-211 177,-211 177,4 -4,4"/>
<!-- Node1 -->
<g id="node1" class="node"><title>Node1</title>
<polygon fill="#bfbfbf" stroke="black" points="0,-0.5 0,-68.5 173,-68.5 173,-0.5 0,-0.5"/>
<text text-anchor="start" x="8" y="-56.5" font-family="Helvetica,sans-Serif" font-size="10.00">pfp::core::db::AllWatchpoint</text>
<text text-anchor="middle" x="86.5" y="-45.5" font-family="Helvetica,sans-Serif" font-size="10.00">ValuesMessage</text>
<polyline fill="none" stroke="black" points="0,-38.5 173,-38.5 "/>
<text text-anchor="middle" x="86.5" y="-26.5" font-family="Helvetica,sans-Serif" font-size="10.00"> </text>
<polyline fill="none" stroke="black" points="0,-19.5 173,-19.5 "/>
<text text-anchor="start" x="8" y="-7.5" font-family="Helvetica,sans-Serif" font-size="10.00">+ AllWatchpointValuesMessage()</text>
</g>
<!-- Node2 -->
<g id="node2" class="node"><title>Node2</title>
<g id="a_node2"><a xlink:href="classpfp_1_1core_1_1db_1_1DebuggerMessage.html" target="_top" xlink:title="Base class for an messages that will be sent to pfpdb via the DebuggerIPCServer. ">
<polygon fill="white" stroke="black" points="3,-105.5 3,-206.5 170,-206.5 170,-105.5 3,-105.5"/>
<text text-anchor="middle" x="86.5" y="-194.5" font-family="Helvetica,sans-Serif" font-size="10.00">pfp::core::db::DebuggerMessage</text>
<polyline fill="none" stroke="black" points="3,-187.5 170,-187.5 "/>
<text text-anchor="start" x="11" y="-175.5" font-family="Helvetica,sans-Serif" font-size="10.00"># message</text>
<polyline fill="none" stroke="black" points="3,-168.5 170,-168.5 "/>
<text text-anchor="start" x="11" y="-156.5" font-family="Helvetica,sans-Serif" font-size="10.00">+ DebuggerMessage()</text>
<text text-anchor="start" x="11" y="-145.5" font-family="Helvetica,sans-Serif" font-size="10.00">+ ~DebuggerMessage()</text>
<text text-anchor="start" x="11" y="-134.5" font-family="Helvetica,sans-Serif" font-size="10.00">+ SerializeToString()</text>
<text text-anchor="start" x="11" y="-123.5" font-family="Helvetica,sans-Serif" font-size="10.00">+ DebugString()</text>
<text text-anchor="start" x="11" y="-112.5" font-family="Helvetica,sans-Serif" font-size="10.00">+ type()</text>
</a>
</g>
</g>
<!-- Node2&#45;&gt;Node1 -->
<g id="edge1" class="edge"><title>Node2&#45;&gt;Node1</title>
<path fill="none" stroke="midnightblue" d="M86.5,-95.1717C86.5,-86.1099 86.5,-77.0504 86.5,-68.8271"/>
<polygon fill="none" stroke="midnightblue" points="83.0001,-95.3594 86.5,-105.359 90.0001,-95.3594 83.0001,-95.3594"/>
</g>
</g>
</svg>
