<?xml version="1.0" encoding="UTF-8" standalone="no"?>
<!DOCTYPE svg PUBLIC "-//W3C//DTD SVG 1.1//EN"
 "http://www.w3.org/Graphics/SVG/1.1/DTD/svg11.dtd">
<!-- Generated by graphviz version 2.38.0 (20140413.2041)
 -->
<!-- Title: pfp::cp::ModifyResult Pages: 1 -->
<svg width="152pt" height="193pt"
 viewBox="0.00 0.00 152.00 193.00" xmlns="http://www.w3.org/2000/svg" xmlns:xlink="http://www.w3.org/1999/xlink">
<g id="graph0" class="graph" transform="scale(1 1) rotate(0) translate(4 189)">
<title>pfp::cp::ModifyResult</title>
<polygon fill="white" stroke="none" points="-4,4 -4,-189 148,-189 148,4 -4,4"/>
<!-- Node1 -->
<g id="node1" class="node"><title>Node1</title>
<polygon fill="#bfbfbf" stroke="black" points="0,-0.5 0,-68.5 144,-68.5 144,-0.5 0,-0.5"/>
<text text-anchor="middle" x="72" y="-56.5" font-family="Helvetica,sans-Serif" font-size="10.00">pfp::cp::ModifyResult</text>
<polyline fill="none" stroke="black" points="0,-49.5 144,-49.5 "/>
<text text-anchor="middle" x="72" y="-37.5" font-family="Helvetica,sans-Serif" font-size="10.00"> </text>
<polyline fill="none" stroke="black" points="0,-30.5 144,-30.5 "/>
<text text-anchor="start" x="8" y="-18.5" font-family="Helvetica,sans-Serif" font-size="10.00">+ ~ModifyResult()</text>
<text text-anchor="start" x="8" y="-7.5" font-family="Helvetica,sans-Serif" font-size="10.00">+ OVERRIDE_PROCESS()</text>
</g>
<!-- Node2 -->
<g id="node2" class="node"><title>Node2</title>
<g id="a_node2"><a xlink:href="classpfp_1_1cp_1_1CommandResult.html" target="_top" xlink:title="{pfp::cp::CommandResult\n|+ command\l|+ ~CommandResult()\l+ process()\l+ CommandResult()\l}">
<polygon fill="white" stroke="black" points="7.5,-105.5 7.5,-184.5 136.5,-184.5 136.5,-105.5 7.5,-105.5"/>
<text text-anchor="middle" x="72" y="-172.5" font-family="Helvetica,sans-Serif" font-size="10.00">pfp::cp::CommandResult</text>
<polyline fill="none" stroke="black" points="7.5,-165.5 136.5,-165.5 "/>
<text text-anchor="start" x="15.5" y="-153.5" font-family="Helvetica,sans-Serif" font-size="10.00">+ command</text>
<polyline fill="none" stroke="black" points="7.5,-146.5 136.5,-146.5 "/>
<text text-anchor="start" x="15.5" y="-134.5" font-family="Helvetica,sans-Serif" font-size="10.00">+ ~CommandResult()</text>
<text text-anchor="start" x="15.5" y="-123.5" font-family="Helvetica,sans-Serif" font-size="10.00">+ process()</text>
<text text-anchor="start" x="15.5" y="-112.5" font-family="Helvetica,sans-Serif" font-size="10.00">+ CommandResult()</text>
</a>
</g>
</g>
<!-- Node2&#45;&gt;Node1 -->
<g id="edge1" class="edge"><title>Node2&#45;&gt;Node1</title>
<path fill="none" stroke="midnightblue" d="M72,-95.3492C72,-86.2824 72,-77.0048 72,-68.5439"/>
<polygon fill="none" stroke="midnightblue" points="68.5001,-95.4414 72,-105.441 75.5001,-95.4415 68.5001,-95.4414"/>
</g>
</g>
</svg>
