<?xml version="1.0" encoding="UTF-8" standalone="no"?>
<!DOCTYPE svg PUBLIC "-//W3C//DTD SVG 1.1//EN"
 "http://www.w3.org/Graphics/SVG/1.1/DTD/svg11.dtd">
<!-- Generated by graphviz version 2.38.0 (20140413.2041)
 -->
<!-- Title: pfp::core::db::DebugDataManager::getWatchpointList Pages: 1 -->
<svg width="344pt" height="39pt"
 viewBox="0.00 0.00 344.00 39.00" xmlns="http://www.w3.org/2000/svg" xmlns:xlink="http://www.w3.org/1999/xlink">
<g id="graph0" class="graph" transform="scale(1 1) rotate(0) translate(4 35)">
<title>pfp::core::db::DebugDataManager::getWatchpointList</title>
<polygon fill="white" stroke="none" points="-4,4 -4,-35 340,-35 340,4 -4,4"/>
<!-- Node1 -->
<g id="node1" class="node"><title>Node1</title>
<polygon fill="#bfbfbf" stroke="black" points="0,-0.5 0,-30.5 149,-30.5 149,-0.5 0,-0.5"/>
<text text-anchor="start" x="8" y="-18.5" font-family="Helvetica,sans-Serif" font-size="10.00">pfp::core::db::DebugData</text>
<text text-anchor="middle" x="74.5" y="-7.5" font-family="Helvetica,sans-Serif" font-size="10.00">Manager::getWatchpointList</text>
</g>
<!-- Node2 -->
<g id="node2" class="node"><title>Node2</title>
<g id="a_node2"><a xlink:href="classpfp_1_1core_1_1db_1_1DebugObserver.html#a35f3c0c7e02efc144fca3b8352e82002" target="_top" xlink:title="Function called by the simulation when a counter is updated. ">
<polygon fill="white" stroke="black" points="185,-0.5 185,-30.5 336,-30.5 336,-0.5 185,-0.5"/>
<text text-anchor="start" x="193" y="-18.5" font-family="Helvetica,sans-Serif" font-size="10.00">pfp::core::db::DebugObserver</text>
<text text-anchor="middle" x="260.5" y="-7.5" font-family="Helvetica,sans-Serif" font-size="10.00">::counter_updated</text>
</a>
</g>
</g>
<!-- Node1&#45;&gt;Node2 -->
<g id="edge1" class="edge"><title>Node1&#45;&gt;Node2</title>
<path fill="none" stroke="midnightblue" d="M159.063,-15.5C167.678,-15.5 176.392,-15.5 184.9,-15.5"/>
<polygon fill="midnightblue" stroke="midnightblue" points="159.015,-12.0001 149.015,-15.5 159.015,-19.0001 159.015,-12.0001"/>
</g>
</g>
</svg>
