<?xml version="1.0" encoding="UTF-8" standalone="no"?>
<!DOCTYPE svg PUBLIC "-//W3C//DTD SVG 1.1//EN"
 "http://www.w3.org/Graphics/SVG/1.1/DTD/svg11.dtd">
<!-- Generated by graphviz version 2.38.0 (20140413.2041)
 -->
<!-- Title: pfp::core::PFPObject Pages: 1 -->
<!--zoomable 639 -->
<svg id="main" version="1.1" xmlns="http://www.w3.org/2000/svg" xmlns:xlink="http://www.w3.org/1999/xlink" xml:space="preserve" onload="init(evt)">
<style type="text/css"><![CDATA[
.edge:hover path { stroke: red; }
.edge:hover polygon { stroke: red; fill: red; }
]]></style>
<script type="text/javascript"><![CDATA[
var edges = document.getElementsByTagName('g');
if (edges && edges.length) {
  for (var i=0;i<edges.length;i++) {
    if (edges[i].id.substr(0,4)=='edge') {
      edges[i].setAttribute('class','edge');
    }
  }
}
]]></script>
        <defs>
                <circle id="rim" cx="0" cy="0" r="7"/>
                <circle id="rim2" cx="0" cy="0" r="3.5"/>
                <g id="zoomPlus">
                        <use xlink:href="#rim" fill="#404040">
                                <set attributeName="fill" to="#808080" begin="zoomplus.mouseover" end="zoomplus.mouseout"/>
                        </use>
                        <path d="M-4,0h8M0,-4v8" fill="none" stroke="white" stroke-width="1.5" pointer-events="none"/>
                </g>
                <g id="zoomMin">
                        <use xlink:href="#rim" fill="#404040">
                                <set attributeName="fill" to="#808080" begin="zoomminus.mouseover" end="zoomminus.mouseout"/>
                        </use>
                        <path d="M-4,0h8" fill="none" stroke="white" stroke-width="1.5" pointer-events="none"/>
                </g>
                <g id="dirArrow">
                        <path fill="none" stroke="white" stroke-width="1.5" d="M0,-3.0v7 M-2.5,-0.5L0,-3.0L2.5,-0.5"/>
                </g>
               <g id="resetDef">
                       <use xlink:href="#rim2" fill="#404040">
                               <set attributeName="fill" to="#808080" begin="reset.mouseover" end="reset.mouseout"/>
                       </use>
               </g>
        </defs>

<script type="text/javascript">
var viewWidth = 359;
var viewHeight = 639;
var sectionId = 'dynsection-0';
</script>
<script xlink:href="svgpan.js"/>
<svg id="graph" class="graph">
<g id="viewport">
<title>pfp::core::PFPObject</title>
<polygon fill="white" stroke="none" points="-4,4 -4,-635 355,-635 355,4 -4,4"/>
<!-- Node1 -->
<g id="node1" class="node"><title>Node1</title>
<polygon fill="#bfbfbf" stroke="black" points="81.5,-0.5 81.5,-233.5 242.5,-233.5 242.5,-0.5 81.5,-0.5"/>
<text text-anchor="middle" x="162" y="-221.5" font-family="Helvetica,sans-Serif" font-size="10.00">pfp::core::PFPObject</text>
<polyline fill="none" stroke="black" points="81.5,-214.5 242.5,-214.5 "/>
<text text-anchor="start" x="89.5" y="-202.5" font-family="Helvetica,sans-Serif" font-size="10.00">+ dicp_enabled</text>
<text text-anchor="start" x="89.5" y="-191.5" font-family="Helvetica,sans-Serif" font-size="10.00"># GlobalConfigPath</text>
<text text-anchor="start" x="89.5" y="-180.5" font-family="Helvetica,sans-Serif" font-size="10.00"># module_name_</text>
<text text-anchor="start" x="89.5" y="-169.5" font-family="Helvetica,sans-Serif" font-size="10.00"># configMap</text>
<text text-anchor="start" x="89.5" y="-158.5" font-family="Helvetica,sans-Serif" font-size="10.00"># counters_</text>
<text text-anchor="start" x="89.5" y="-147.5" font-family="Helvetica,sans-Serif" font-size="10.00"># observers_</text>
<text text-anchor="start" x="89.5" y="-136.5" font-family="Helvetica,sans-Serif" font-size="10.00"># childModules_</text>
<polyline fill="none" stroke="black" points="81.5,-129.5 242.5,-129.5 "/>
<text text-anchor="start" x="89.5" y="-117.5" font-family="Helvetica,sans-Serif" font-size="10.00">+ PFPObject()</text>
<text text-anchor="start" x="89.5" y="-106.5" font-family="Helvetica,sans-Serif" font-size="10.00">+ PFPObject()</text>
<text text-anchor="start" x="89.5" y="-95.5" font-family="Helvetica,sans-Serif" font-size="10.00">+ PFPObject()</text>
<text text-anchor="start" x="89.5" y="-84.5" font-family="Helvetica,sans-Serif" font-size="10.00">+ PFPObject()</text>
<text text-anchor="start" x="89.5" y="-73.5" font-family="Helvetica,sans-Serif" font-size="10.00">+ ~PFPObject()</text>
<text text-anchor="start" x="89.5" y="-62.5" font-family="Helvetica,sans-Serif" font-size="10.00">+ LoadBaseConfiguration()</text>
<text text-anchor="start" x="89.5" y="-51.5" font-family="Helvetica,sans-Serif" font-size="10.00">+ LoadInstanceConfiguration()</text>
<text text-anchor="start" x="89.5" y="-40.5" font-family="Helvetica,sans-Serif" font-size="10.00">+ GetParameter()</text>
<text text-anchor="start" x="89.5" y="-29.5" font-family="Helvetica,sans-Serif" font-size="10.00">+ GetParameterfromParent()</text>
<text text-anchor="start" x="89.5" y="-18.5" font-family="Helvetica,sans-Serif" font-size="10.00">+ ModuleHierarchy()</text>
<text text-anchor="start" x="89.5" y="-7.5" font-family="Helvetica,sans-Serif" font-size="10.00">and 20 more...</text>
</g>
<!-- Node1&#45;&gt;Node1 -->
<g id="edge2" class="edge"><title>Node1&#45;&gt;Node1</title>
<path fill="none" stroke="#404040" d="M242.77,-140.148C253.43,-136.2 260.5,-128.484 260.5,-117 260.5,-110.002 257.875,-104.403 253.411,-100.203"/>
<polygon fill="none" stroke="#404040" points="253.074,-100.002 245.872,-100.362 242.77,-93.8518 249.972,-93.492 253.074,-100.002"/>
<text text-anchor="middle" x="283.5" y="-114.5" font-family="Helvetica,sans-Serif" font-size="10.00"> #parent_</text>
</g>
<!-- Node2 -->
<g id="node2" class="node"><title>Node2</title>
<g id="a_node2"><a xlink:href="classpfp_1_1core_1_1ConfigurationParameterNode.html" target="_top" xlink:title="{pfp::core::Configuration\lParameterNode\n||+ ConfigurationParameterNode()\l+ ConfigurationParameterNode()\l+ ConfigurationParameterNode()\l+ operator[]()\l+ operator[]()\l+ get()\l+ get()\l+ LocalSearch()\l+ LocalSearch()\l+ HeirarchalSearch()\land 7 more...\l}">
<polygon fill="white" stroke="black" points="0,-281.5 0,-459.5 172,-459.5 172,-281.5 0,-281.5"/>
<text text-anchor="start" x="8" y="-447.5" font-family="Helvetica,sans-Serif" font-size="10.00">pfp::core::Configuration</text>
<text text-anchor="middle" x="86" y="-436.5" font-family="Helvetica,sans-Serif" font-size="10.00">ParameterNode</text>
<polyline fill="none" stroke="black" points="0,-429.5 172,-429.5 "/>
<text text-anchor="middle" x="86" y="-417.5" font-family="Helvetica,sans-Serif" font-size="10.00"> </text>
<polyline fill="none" stroke="black" points="0,-410.5 172,-410.5 "/>
<text text-anchor="start" x="8" y="-398.5" font-family="Helvetica,sans-Serif" font-size="10.00">+ ConfigurationParameterNode()</text>
<text text-anchor="start" x="8" y="-387.5" font-family="Helvetica,sans-Serif" font-size="10.00">+ ConfigurationParameterNode()</text>
<text text-anchor="start" x="8" y="-376.5" font-family="Helvetica,sans-Serif" font-size="10.00">+ ConfigurationParameterNode()</text>
<text text-anchor="start" x="8" y="-365.5" font-family="Helvetica,sans-Serif" font-size="10.00">+ operator[]()</text>
<text text-anchor="start" x="8" y="-354.5" font-family="Helvetica,sans-Serif" font-size="10.00">+ operator[]()</text>
<text text-anchor="start" x="8" y="-343.5" font-family="Helvetica,sans-Serif" font-size="10.00">+ get()</text>
<text text-anchor="start" x="8" y="-332.5" font-family="Helvetica,sans-Serif" font-size="10.00">+ get()</text>
<text text-anchor="start" x="8" y="-321.5" font-family="Helvetica,sans-Serif" font-size="10.00">+ LocalSearch()</text>
<text text-anchor="start" x="8" y="-310.5" font-family="Helvetica,sans-Serif" font-size="10.00">+ LocalSearch()</text>
<text text-anchor="start" x="8" y="-299.5" font-family="Helvetica,sans-Serif" font-size="10.00">+ HeirarchalSearch()</text>
<text text-anchor="start" x="8" y="-288.5" font-family="Helvetica,sans-Serif" font-size="10.00">and 7 more...</text>
</a>
</g>
</g>
<!-- Node2&#45;&gt;Node1 -->
<g id="edge1" class="edge"><title>Node2&#45;&gt;Node1</title>
<path fill="none" stroke="#404040" d="M96.0917,-281.363C98.0194,-271.375 100.302,-261.411 103,-252 103.617,-249.849 104.261,-247.687 104.93,-245.518"/>
<polygon fill="none" stroke="#404040" points="105.009,-245.276 103.066,-238.331 108.728,-233.867 110.672,-240.811 105.009,-245.276"/>
<text text-anchor="middle" x="159.5" y="-255" font-family="Helvetica,sans-Serif" font-size="10.00"> +SimulationParameters</text>
</g>
<!-- Node3 -->
<g id="node3" class="node"><title>Node3</title>
<g id="a_node3"><a xlink:href="classMTQueue.html" target="_top" xlink:title="{MTQueue\&lt; std::function\l\&lt; void(void)\&gt; \&gt;\n||+ MTQueue()\l+ pop()\l+ pop()\l+ push()\l+ push()\l+ size()\l}">
<polygon fill="white" stroke="black" points="190,-309 190,-432 318,-432 318,-309 190,-309"/>
<text text-anchor="start" x="198" y="-420" font-family="Helvetica,sans-Serif" font-size="10.00">MTQueue&lt; std::function</text>
<text text-anchor="middle" x="254" y="-409" font-family="Helvetica,sans-Serif" font-size="10.00">&lt; void(void)&gt; &gt;</text>
<polyline fill="none" stroke="black" points="190,-402 318,-402 "/>
<text text-anchor="middle" x="254" y="-390" font-family="Helvetica,sans-Serif" font-size="10.00"> </text>
<polyline fill="none" stroke="black" points="190,-383 318,-383 "/>
<text text-anchor="start" x="198" y="-371" font-family="Helvetica,sans-Serif" font-size="10.00">+ MTQueue()</text>
<text text-anchor="start" x="198" y="-360" font-family="Helvetica,sans-Serif" font-size="10.00">+ pop()</text>
<text text-anchor="start" x="198" y="-349" font-family="Helvetica,sans-Serif" font-size="10.00">+ pop()</text>
<text text-anchor="start" x="198" y="-338" font-family="Helvetica,sans-Serif" font-size="10.00">+ push()</text>
<text text-anchor="start" x="198" y="-327" font-family="Helvetica,sans-Serif" font-size="10.00">+ push()</text>
<text text-anchor="start" x="198" y="-316" font-family="Helvetica,sans-Serif" font-size="10.00">+ size()</text>
</a>
</g>
</g>
<!-- Node3&#45;&gt;Node1 -->
<g id="edge3" class="edge"><title>Node3&#45;&gt;Node1</title>
<path fill="none" stroke="#404040" d="M235.281,-308.844C229.376,-290.49 222.652,-270.341 216,-252 215.148,-249.651 214.281,-247.283 213.401,-244.899"/>
<polygon fill="none" stroke="#404040" points="213.398,-244.893 207.55,-240.674 209.196,-233.653 215.044,-237.872 213.398,-244.893"/>
<text text-anchor="middle" x="243" y="-255" font-family="Helvetica,sans-Serif" font-size="10.00"> +events_</text>
</g>
<!-- Node4 -->
<g id="node4" class="node"><title>Node4</title>
<g id="a_node4"><a xlink:href="classMTQueue.html" target="_top" xlink:title="A multiple&#45;producer, multiple&#45;consumer, thread&#45;safe queue implemented using SystemC primitives The MT...">
<polygon fill="white" stroke="black" points="210,-518.5 210,-630.5 298,-630.5 298,-518.5 210,-518.5"/>
<text text-anchor="middle" x="254" y="-618.5" font-family="Helvetica,sans-Serif" font-size="10.00">MTQueue&lt; T &gt;</text>
<polyline fill="none" stroke="black" points="210,-611.5 298,-611.5 "/>
<text text-anchor="middle" x="254" y="-599.5" font-family="Helvetica,sans-Serif" font-size="10.00"> </text>
<polyline fill="none" stroke="black" points="210,-592.5 298,-592.5 "/>
<text text-anchor="start" x="218" y="-580.5" font-family="Helvetica,sans-Serif" font-size="10.00">+ MTQueue()</text>
<text text-anchor="start" x="218" y="-569.5" font-family="Helvetica,sans-Serif" font-size="10.00">+ pop()</text>
<text text-anchor="start" x="218" y="-558.5" font-family="Helvetica,sans-Serif" font-size="10.00">+ pop()</text>
<text text-anchor="start" x="218" y="-547.5" font-family="Helvetica,sans-Serif" font-size="10.00">+ push()</text>
<text text-anchor="start" x="218" y="-536.5" font-family="Helvetica,sans-Serif" font-size="10.00">+ push()</text>
<text text-anchor="start" x="218" y="-525.5" font-family="Helvetica,sans-Serif" font-size="10.00">+ size()</text>
</a>
</g>
</g>
<!-- Node4&#45;&gt;Node3 -->
<g id="edge4" class="edge"><title>Node4&#45;&gt;Node3</title>
<path fill="none" stroke="orange" d="M254,-508.082C254,-483.736 254,-456.228 254,-432.312"/>
<polygon fill="orange" stroke="orange" points="250.5,-508.303 254,-518.303 257.5,-508.303 250.5,-508.303"/>
<text text-anchor="start" x="254" y="-492" font-family="Helvetica,sans-Serif" font-size="10.00"> &lt; std::function&lt; void</text>
<text text-anchor="middle" x="302.5" y="-481" font-family="Helvetica,sans-Serif" font-size="10.00">(void)&gt; &gt;</text>
</g>
</g>
</svg>
        <g id="navigator" transform="translate(0 0)" fill="#404254">
                <rect fill="#f2f5e9" fill-opacity="0.5" stroke="#606060" stroke-width=".5" x="0" y="0" width="60" height="60"/>
                <use id="zoomplus" xlink:href="#zoomPlus" x="17" y="9" onmousedown="handleZoom(evt,'in')"/>
                <use id="zoomminus" xlink:href="#zoomMin" x="42" y="9" onmousedown="handleZoom(evt,'out')"/>
                <use id="reset" xlink:href="#resetDef" x="30" y="36" onmousedown="handleReset()"/>
                <g id="arrowUp" xlink:href="#dirArrow" transform="translate(30 24)" onmousedown="handlePan(0,-1)">
                  <use xlink:href="#rim" fill="#404040">
                        <set attributeName="fill" to="#808080" begin="arrowUp.mouseover" end="arrowUp.mouseout"/>
                  </use>
                  <path fill="none" stroke="white" stroke-width="1.5" d="M0,-3.0v7 M-2.5,-0.5L0,-3.0L2.5,-0.5"/>
                </g>
                <g id="arrowRight" xlink:href="#dirArrow" transform="rotate(90) translate(36 -43)" onmousedown="handlePan(1,0)">
                  <use xlink:href="#rim" fill="#404040">
                        <set attributeName="fill" to="#808080" begin="arrowRight.mouseover" end="arrowRight.mouseout"/>
                  </use>
                  <path fill="none" stroke="white" stroke-width="1.5" d="M0,-3.0v7 M-2.5,-0.5L0,-3.0L2.5,-0.5"/>
                </g>
                <g id="arrowDown" xlink:href="#dirArrow" transform="rotate(180) translate(-30 -48)" onmousedown="handlePan(0,1)">
                  <use xlink:href="#rim" fill="#404040">
                        <set attributeName="fill" to="#808080" begin="arrowDown.mouseover" end="arrowDown.mouseout"/>
                  </use>
                  <path fill="none" stroke="white" stroke-width="1.5" d="M0,-3.0v7 M-2.5,-0.5L0,-3.0L2.5,-0.5"/>
                </g>
                <g id="arrowLeft" xlink:href="#dirArrow" transform="rotate(270) translate(-36 17)" onmousedown="handlePan(-1,0)">
                  <use xlink:href="#rim" fill="#404040">
                        <set attributeName="fill" to="#808080" begin="arrowLeft.mouseover" end="arrowLeft.mouseout"/>
                  </use>
                  <path fill="none" stroke="white" stroke-width="1.5" d="M0,-3.0v7 M-2.5,-0.5L0,-3.0L2.5,-0.5"/>
                </g>
        </g>
        <svg viewBox="0 0 15 15" width="100%" height="30px" preserveAspectRatio="xMaxYMin meet">
         <g id="arrow_out" transform="scale(0.3 0.3)">
          <a xlink:href="classpfp_1_1core_1_1PFPObject__coll__graph_org.svg" target="_base">
           <rect id="button" ry="5" rx="5" y="6" x="6" height="38" width="38"
                fill="#f2f5e9" fill-opacity="0.5" stroke="#606060" stroke-width="1.0"/>
           <path id="arrow"
             d="M 11.500037,31.436501 C 11.940474,20.09759 22.043105,11.32322 32.158766,21.979434 L 37.068811,17.246167 C 37.068811,17.246167 37.088388,32 37.088388,32 L 22.160133,31.978069 C 22.160133,31.978069 26.997745,27.140456 26.997745,27.140456 C 18.528582,18.264221 13.291696,25.230495 11.500037,31.436501 z"
             style="fill:#404040;"/>
          </a>
         </g>
        </svg>
</svg>
