<?xml version="1.0" encoding="UTF-8" standalone="no"?>
<!DOCTYPE svg PUBLIC "-//W3C//DTD SVG 1.1//EN"
 "http://www.w3.org/Graphics/SVG/1.1/DTD/svg11.dtd">
<!-- Generated by graphviz version 2.38.0 (20140413.2041)
 -->
<!-- Title: pfp::cp::InsertCommand Pages: 1 -->
<svg width="152pt" height="397pt"
 viewBox="0.00 0.00 152.00 397.00" xmlns="http://www.w3.org/2000/svg" xmlns:xlink="http://www.w3.org/1999/xlink">
<g id="graph0" class="graph" transform="scale(1 1) rotate(0) translate(4 393)">
<title>pfp::cp::InsertCommand</title>
<polygon fill="white" stroke="none" points="-4,4 -4,-393 148,-393 148,4 -4,4"/>
<!-- Node1 -->
<g id="node1" class="node"><title>Node1</title>
<polygon fill="#bfbfbf" stroke="black" points="0,-0.5 0,-134.5 144,-134.5 144,-0.5 0,-0.5"/>
<text text-anchor="middle" x="72" y="-122.5" font-family="Helvetica,sans-Serif" font-size="10.00">pfp::cp::InsertCommand</text>
<polyline fill="none" stroke="black" points="0,-115.5 144,-115.5 "/>
<text text-anchor="middle" x="72" y="-103.5" font-family="Helvetica,sans-Serif" font-size="10.00"> </text>
<polyline fill="none" stroke="black" points="0,-96.5 144,-96.5 "/>
<text text-anchor="start" x="8" y="-84.5" font-family="Helvetica,sans-Serif" font-size="10.00">+ print()</text>
<text text-anchor="start" x="8" y="-73.5" font-family="Helvetica,sans-Serif" font-size="10.00">+ OVERRIDE_PROCESS()</text>
<text text-anchor="start" x="8" y="-62.5" font-family="Helvetica,sans-Serif" font-size="10.00">+ set_match_keys()</text>
<text text-anchor="start" x="8" y="-51.5" font-family="Helvetica,sans-Serif" font-size="10.00">+ set_action()</text>
<text text-anchor="start" x="8" y="-40.5" font-family="Helvetica,sans-Serif" font-size="10.00">+ ~InsertCommand()</text>
<text text-anchor="start" x="8" y="-29.5" font-family="Helvetica,sans-Serif" font-size="10.00">+ get_keys()</text>
<text text-anchor="start" x="8" y="-18.5" font-family="Helvetica,sans-Serif" font-size="10.00">+ get_action()</text>
<text text-anchor="start" x="8" y="-7.5" font-family="Helvetica,sans-Serif" font-size="10.00">+ success_result()</text>
</g>
<!-- Node2 -->
<g id="node2" class="node"><title>Node2</title>
<g id="a_node2"><a xlink:href="classpfp_1_1cp_1_1Command.html" target="_top" xlink:title="{pfp::cp::Command\n|# table_name\l|+ print()\l+ process()\l+ set_table_name()\l+ get_table_name()\l+ ~Command()\l+ failure_result()\l}">
<polygon fill="white" stroke="black" points="17,-171.5 17,-283.5 127,-283.5 127,-171.5 17,-171.5"/>
<text text-anchor="middle" x="72" y="-271.5" font-family="Helvetica,sans-Serif" font-size="10.00">pfp::cp::Command</text>
<polyline fill="none" stroke="black" points="17,-264.5 127,-264.5 "/>
<text text-anchor="start" x="25" y="-252.5" font-family="Helvetica,sans-Serif" font-size="10.00"># table_name</text>
<polyline fill="none" stroke="black" points="17,-245.5 127,-245.5 "/>
<text text-anchor="start" x="25" y="-233.5" font-family="Helvetica,sans-Serif" font-size="10.00">+ print()</text>
<text text-anchor="start" x="25" y="-222.5" font-family="Helvetica,sans-Serif" font-size="10.00">+ process()</text>
<text text-anchor="start" x="25" y="-211.5" font-family="Helvetica,sans-Serif" font-size="10.00">+ set_table_name()</text>
<text text-anchor="start" x="25" y="-200.5" font-family="Helvetica,sans-Serif" font-size="10.00">+ get_table_name()</text>
<text text-anchor="start" x="25" y="-189.5" font-family="Helvetica,sans-Serif" font-size="10.00">+ ~Command()</text>
<text text-anchor="start" x="25" y="-178.5" font-family="Helvetica,sans-Serif" font-size="10.00">+ failure_result()</text>
</a>
</g>
</g>
<!-- Node2&#45;&gt;Node1 -->
<g id="edge1" class="edge"><title>Node2&#45;&gt;Node1</title>
<path fill="none" stroke="midnightblue" d="M72,-161.094C72,-152.339 72,-143.354 72,-134.587"/>
<polygon fill="none" stroke="midnightblue" points="68.5001,-161.239 72,-171.239 75.5001,-161.239 68.5001,-161.239"/>
</g>
<!-- Node3 -->
<g id="node3" class="node"><title>Node3</title>
<polygon fill="white" stroke="#bfbfbf" points="6,-320.5 6,-388.5 138,-388.5 138,-320.5 6,-320.5"/>
<text text-anchor="start" x="14" y="-376.5" font-family="Helvetica,sans-Serif" font-size="10.00">std::enable_shared</text>
<text text-anchor="middle" x="72" y="-365.5" font-family="Helvetica,sans-Serif" font-size="10.00">_from_this&lt; Command &gt;</text>
<polyline fill="none" stroke="#bfbfbf" points="6,-358.5 138,-358.5 "/>
<text text-anchor="middle" x="72" y="-346.5" font-family="Helvetica,sans-Serif" font-size="10.00"> </text>
<polyline fill="none" stroke="#bfbfbf" points="6,-339.5 138,-339.5 "/>
<text text-anchor="middle" x="72" y="-327.5" font-family="Helvetica,sans-Serif" font-size="10.00"> </text>
</g>
<!-- Node3&#45;&gt;Node2 -->
<g id="edge2" class="edge"><title>Node3&#45;&gt;Node2</title>
<path fill="none" stroke="midnightblue" d="M72,-310.182C72,-301.604 72,-292.493 72,-283.585"/>
<polygon fill="none" stroke="midnightblue" points="68.5001,-310.33 72,-320.33 75.5001,-310.331 68.5001,-310.33"/>
</g>
</g>
</svg>
