<?xml version="1.0" encoding="UTF-8" standalone="no"?>
<!DOCTYPE svg PUBLIC "-//W3C//DTD SVG 1.1//EN"
 "http://www.w3.org/Graphics/SVG/1.1/DTD/svg11.dtd">
<!-- Generated by graphviz version 2.38.0 (20140413.2041)
 -->
<!-- Title: pfp::core::db::DebugObserver::data_dropped Pages: 1 -->
<svg width="371pt" height="137pt"
 viewBox="0.00 0.00 371.00 137.00" xmlns="http://www.w3.org/2000/svg" xmlns:xlink="http://www.w3.org/1999/xlink">
<g id="graph0" class="graph" transform="scale(1 1) rotate(0) translate(4 133)">
<title>pfp::core::db::DebugObserver::data_dropped</title>
<polygon fill="white" stroke="none" points="-4,4 -4,-133 367,-133 367,4 -4,4"/>
<!-- Node1 -->
<g id="node1" class="node"><title>Node1</title>
<polygon fill="#bfbfbf" stroke="black" points="0,-49.5 0,-79.5 151,-79.5 151,-49.5 0,-49.5"/>
<text text-anchor="start" x="8" y="-67.5" font-family="Helvetica,sans-Serif" font-size="10.00">pfp::core::db::DebugObserver</text>
<text text-anchor="middle" x="75.5" y="-56.5" font-family="Helvetica,sans-Serif" font-size="10.00">::data_dropped</text>
</g>
<!-- Node2 -->
<g id="node2" class="node"><title>Node2</title>
<g id="a_node2"><a xlink:href="classpfp_1_1core_1_1db_1_1DebugDataManager.html#aea94ae1a112343ee3773cd2b55d98544" target="_top" xlink:title="Add a packet to the list of dropped packets. ">
<polygon fill="white" stroke="black" points="197.5,-98.5 197.5,-128.5 352.5,-128.5 352.5,-98.5 197.5,-98.5"/>
<text text-anchor="start" x="205.5" y="-116.5" font-family="Helvetica,sans-Serif" font-size="10.00">pfp::core::db::DebugData</text>
<text text-anchor="middle" x="275" y="-105.5" font-family="Helvetica,sans-Serif" font-size="10.00">Manager::addDroppedPacket</text>
</a>
</g>
</g>
<!-- Node1&#45;&gt;Node2 -->
<g id="edge1" class="edge"><title>Node1&#45;&gt;Node2</title>
<path fill="none" stroke="midnightblue" d="M137.099,-79.5346C158.142,-84.7554 181.916,-90.6537 203.676,-96.0526"/>
<polygon fill="midnightblue" stroke="midnightblue" points="202.967,-99.4827 213.516,-98.4938 204.653,-92.6887 202.967,-99.4827"/>
</g>
<!-- Node3 -->
<g id="node3" class="node"><title>Node3</title>
<g id="a_node3"><a xlink:href="classpfp_1_1core_1_1db_1_1DebugDataManager.html#a8998990ca92d7b587ed4d32dc08b083e" target="_top" xlink:title="Check if the debugger is currently set to break when a packet is dropped. ">
<polygon fill="white" stroke="black" points="187,-49.5 187,-79.5 363,-79.5 363,-49.5 187,-49.5"/>
<text text-anchor="start" x="195" y="-67.5" font-family="Helvetica,sans-Serif" font-size="10.00">pfp::core::db::DebugData</text>
<text text-anchor="middle" x="275" y="-56.5" font-family="Helvetica,sans-Serif" font-size="10.00">Manager::getBreakOnPacketDrop</text>
</a>
</g>
</g>
<!-- Node1&#45;&gt;Node3 -->
<g id="edge2" class="edge"><title>Node1&#45;&gt;Node3</title>
<path fill="none" stroke="midnightblue" d="M151.166,-64.5C159.567,-64.5 168.216,-64.5 176.848,-64.5"/>
<polygon fill="midnightblue" stroke="midnightblue" points="176.958,-68.0001 186.958,-64.5 176.958,-61.0001 176.958,-68.0001"/>
</g>
<!-- Node4 -->
<g id="node4" class="node"><title>Node4</title>
<g id="a_node4"><a xlink:href="classpfp_1_1core_1_1db_1_1DebuggerIPCServer.html#ab689790660a5111bdfbee8a296fdd9ea" target="_top" xlink:title="Set the message that will be send to pfpdb the next time the simulation is halted. ">
<polygon fill="white" stroke="black" points="189,-0.5 189,-30.5 361,-30.5 361,-0.5 189,-0.5"/>
<text text-anchor="start" x="197" y="-18.5" font-family="Helvetica,sans-Serif" font-size="10.00">pfp::core::db::DebuggerIPCServer</text>
<text text-anchor="middle" x="275" y="-7.5" font-family="Helvetica,sans-Serif" font-size="10.00">::setReplyMessage</text>
</a>
</g>
</g>
<!-- Node1&#45;&gt;Node4 -->
<g id="edge3" class="edge"><title>Node1&#45;&gt;Node4</title>
<path fill="none" stroke="midnightblue" d="M137.099,-49.4654C158.142,-44.2446 181.916,-38.3463 203.676,-32.9474"/>
<polygon fill="midnightblue" stroke="midnightblue" points="204.653,-36.3113 213.516,-30.5062 202.967,-29.5173 204.653,-36.3113"/>
</g>
</g>
</svg>
