<?xml version="1.0" encoding="UTF-8" standalone="no"?>
<!DOCTYPE svg PUBLIC "-//W3C//DTD SVG 1.1//EN"
 "http://www.w3.org/Graphics/SVG/1.1/DTD/svg11.dtd">
<!-- Generated by graphviz version 2.38.0 (20140413.2041)
 -->
<!-- Title: pfp::core::PFPObject::set_counter Pages: 1 -->
<svg width="451pt" height="154pt"
 viewBox="0.00 0.00 451.00 153.50" xmlns="http://www.w3.org/2000/svg" xmlns:xlink="http://www.w3.org/1999/xlink">
<g id="graph0" class="graph" transform="scale(1 1) rotate(0) translate(4 149.5)">
<title>pfp::core::PFPObject::set_counter</title>
<polygon fill="white" stroke="none" points="-4,4 -4,-149.5 447,-149.5 447,4 -4,4"/>
<!-- Node1 -->
<g id="node1" class="node"><title>Node1</title>
<polygon fill="#bfbfbf" stroke="black" points="0,-66 0,-96 111,-96 111,-66 0,-66"/>
<text text-anchor="start" x="8" y="-84" font-family="Helvetica,sans-Serif" font-size="10.00">pfp::core::PFPObject</text>
<text text-anchor="middle" x="55.5" y="-73" font-family="Helvetica,sans-Serif" font-size="10.00">::set_counter</text>
</g>
<!-- Node2 -->
<g id="node2" class="node"><title>Node2</title>
<g id="a_node2"><a xlink:href="classpfp_1_1core_1_1PFPObject.html#a6a70ae0eb4e9e61f010bad08deb1b184" target="_top" xlink:title="Get the number of counters in the PFPObject. ">
<polygon fill="white" stroke="black" points="159,-115 159,-145 270,-145 270,-115 159,-115"/>
<text text-anchor="start" x="167" y="-133" font-family="Helvetica,sans-Serif" font-size="10.00">pfp::core::PFPObject</text>
<text text-anchor="middle" x="214.5" y="-122" font-family="Helvetica,sans-Serif" font-size="10.00">::num_counters</text>
</a>
</g>
</g>
<!-- Node1&#45;&gt;Node2 -->
<g id="edge1" class="edge"><title>Node1&#45;&gt;Node2</title>
<path fill="none" stroke="midnightblue" d="M104.886,-96.1014C120.929,-101.108 138.949,-106.732 155.631,-111.939"/>
<polygon fill="midnightblue" stroke="midnightblue" points="154.685,-115.31 165.274,-114.948 156.77,-108.628 154.685,-115.31"/>
</g>
<!-- Node3 -->
<g id="node3" class="node"><title>Node3</title>
<g id="a_node3"><a xlink:href="classpfp_1_1core_1_1PFPObject.html#af1321f9bc592a4dcc8e58cc4a4b5ecf6" target="_top" xlink:title="Get the value of a counter Note: This will throw a std::out_of_range exception if the counter does no...">
<polygon fill="white" stroke="black" points="159,-66 159,-96 270,-96 270,-66 159,-66"/>
<text text-anchor="start" x="167" y="-84" font-family="Helvetica,sans-Serif" font-size="10.00">pfp::core::PFPObject</text>
<text text-anchor="middle" x="214.5" y="-73" font-family="Helvetica,sans-Serif" font-size="10.00">::counter_value</text>
</a>
</g>
</g>
<!-- Node1&#45;&gt;Node3 -->
<g id="edge2" class="edge"><title>Node1&#45;&gt;Node3</title>
<path fill="none" stroke="midnightblue" d="M111.411,-81C123.431,-81 136.265,-81 148.634,-81"/>
<polygon fill="midnightblue" stroke="midnightblue" points="148.885,-84.5001 158.885,-81 148.885,-77.5001 148.885,-84.5001"/>
</g>
<!-- Node4 -->
<g id="node4" class="node"><title>Node4</title>
<g id="a_node4"><a xlink:href="classpfp_1_1core_1_1PFPObject.html#a04e6dd971750758a0706c6a73fd77021" target="_top" xlink:title="Notify all attached observers when a counter is changed. ">
<polygon fill="white" stroke="black" points="147,-17 147,-47 282,-47 282,-17 147,-17"/>
<text text-anchor="start" x="155" y="-35" font-family="Helvetica,sans-Serif" font-size="10.00">pfp::core::PFPObject</text>
<text text-anchor="middle" x="214.5" y="-24" font-family="Helvetica,sans-Serif" font-size="10.00">::notify_counter_changed</text>
</a>
</g>
</g>
<!-- Node1&#45;&gt;Node4 -->
<g id="edge3" class="edge"><title>Node1&#45;&gt;Node4</title>
<path fill="none" stroke="midnightblue" d="M104.886,-65.8986C120.929,-60.8917 138.949,-55.2676 155.631,-50.061"/>
<polygon fill="midnightblue" stroke="midnightblue" points="156.77,-53.372 165.274,-47.0516 154.685,-46.6899 156.77,-53.372"/>
</g>
<!-- Node5 -->
<g id="node5" class="node"><title>Node5</title>
<g id="a_node5"><a xlink:href="classpfp_1_1core_1_1PFPObserver.html#a5c3e36359e94a116b57ff36dbd9d481a" target="_top" xlink:title="Function called by the NPU when a counter is updated. ">
<polygon fill="white" stroke="black" points="318,-39 318,-69 443,-69 443,-39 318,-39"/>
<text text-anchor="start" x="326" y="-57" font-family="Helvetica,sans-Serif" font-size="10.00">pfp::core::PFPObserver</text>
<text text-anchor="middle" x="380.5" y="-46" font-family="Helvetica,sans-Serif" font-size="10.00">::counter_updated</text>
</a>
</g>
</g>
<!-- Node4&#45;&gt;Node5 -->
<g id="edge4" class="edge"><title>Node4&#45;&gt;Node5</title>
<path fill="none" stroke="midnightblue" d="M282.205,-40.9482C290.682,-42.0854 299.386,-43.253 307.935,-44.3999"/>
<polygon fill="midnightblue" stroke="midnightblue" points="307.502,-47.873 317.878,-45.7337 308.432,-40.9351 307.502,-47.873"/>
</g>
<!-- Node6 -->
<g id="node6" class="node"><title>Node6</title>
<g id="a_node6"><a xlink:href="classMTQueue.html#a1b8d763529ae9eb53bce1c09f8f82507" target="_top" xlink:title="Push an item onto the MTQueue. ">
<polygon fill="white" stroke="black" points="335.5,-0.5 335.5,-19.5 425.5,-19.5 425.5,-0.5 335.5,-0.5"/>
<text text-anchor="middle" x="380.5" y="-7.5" font-family="Helvetica,sans-Serif" font-size="10.00">MTQueue::push</text>
</a>
</g>
</g>
<!-- Node4&#45;&gt;Node6 -->
<g id="edge5" class="edge"><title>Node4&#45;&gt;Node6</title>
<path fill="none" stroke="midnightblue" d="M282.205,-23.0518C296.48,-21.1369 311.396,-19.1359 325.139,-17.2924"/>
<polygon fill="midnightblue" stroke="midnightblue" points="325.943,-20.7159 335.389,-15.9173 325.013,-13.778 325.943,-20.7159"/>
</g>
</g>
</svg>
