<?xml version="1.0" encoding="UTF-8" standalone="no"?>
<!DOCTYPE svg PUBLIC "-//W3C//DTD SVG 1.1//EN"
 "http://www.w3.org/Graphics/SVG/1.1/DTD/svg11.dtd">
<!-- Generated by graphviz version 2.38.0 (20140413.2041)
 -->
<!-- Title: nlohmann::basic_json::cend Pages: 1 -->
<svg width="454pt" height="176pt"
 viewBox="0.00 0.00 454.00 176.00" xmlns="http://www.w3.org/2000/svg" xmlns:xlink="http://www.w3.org/1999/xlink">
<g id="graph0" class="graph" transform="scale(1 1) rotate(0) translate(4 172)">
<title>nlohmann::basic_json::cend</title>
<polygon fill="white" stroke="none" points="-4,4 -4,-172 450,-172 450,4 -4,4"/>
<!-- Node1 -->
<g id="node1" class="node"><title>Node1</title>
<polygon fill="#bfbfbf" stroke="black" points="0,-66.5 0,-96.5 117,-96.5 117,-66.5 0,-66.5"/>
<text text-anchor="start" x="8" y="-84.5" font-family="Helvetica,sans-Serif" font-size="10.00">nlohmann::basic_json</text>
<text text-anchor="middle" x="58.5" y="-73.5" font-family="Helvetica,sans-Serif" font-size="10.00">::cend</text>
</g>
<!-- Node2 -->
<g id="node2" class="node"><title>Node2</title>
<g id="a_node2"><a xlink:href="classnlohmann_1_1basic__json.html#a098482190447461f47f80b99bf2519f6" target="_top" xlink:title="access the last element ">
<polygon fill="white" stroke="black" points="164.5,-137.5 164.5,-167.5 281.5,-167.5 281.5,-137.5 164.5,-137.5"/>
<text text-anchor="start" x="172.5" y="-155.5" font-family="Helvetica,sans-Serif" font-size="10.00">nlohmann::basic_json</text>
<text text-anchor="middle" x="223" y="-144.5" font-family="Helvetica,sans-Serif" font-size="10.00">::back</text>
</a>
</g>
</g>
<!-- Node1&#45;&gt;Node2 -->
<g id="edge1" class="edge"><title>Node1&#45;&gt;Node2</title>
<path fill="none" stroke="midnightblue" d="M96.3248,-101.413C113.332,-110.243 133.941,-120.436 153,-128.5 160.359,-131.614 168.274,-134.648 176.027,-137.454"/>
<polygon fill="midnightblue" stroke="midnightblue" points="97.7615,-98.2139 87.2799,-96.6689 94.5103,-104.413 97.7615,-98.2139"/>
</g>
<!-- Node3 -->
<g id="node3" class="node"><title>Node3</title>
<g id="a_node3"><a xlink:href="classnlohmann_1_1basic__json.html#aaa687595d7627925fbf6d6eb97e2021e" target="_top" xlink:title="find an element in a JSON object ">
<polygon fill="white" stroke="black" points="164.5,-88.5 164.5,-118.5 281.5,-118.5 281.5,-88.5 164.5,-88.5"/>
<text text-anchor="start" x="172.5" y="-106.5" font-family="Helvetica,sans-Serif" font-size="10.00">nlohmann::basic_json</text>
<text text-anchor="middle" x="223" y="-95.5" font-family="Helvetica,sans-Serif" font-size="10.00">::find</text>
</a>
</g>
</g>
<!-- Node1&#45;&gt;Node3 -->
<g id="edge2" class="edge"><title>Node1&#45;&gt;Node3</title>
<path fill="none" stroke="midnightblue" d="M127.456,-90.7002C139.755,-92.3653 152.471,-94.0869 164.437,-95.7069"/>
<polygon fill="midnightblue" stroke="midnightblue" points="127.628,-87.1917 117.249,-89.3183 126.689,-94.1284 127.628,-87.1917"/>
</g>
<!-- Node4 -->
<g id="node4" class="node"><title>Node4</title>
<g id="a_node4"><a xlink:href="classnlohmann_1_1basic__json.html#abd7e95159740e94160c13392b1536eb1" target="_top" xlink:title="returns a const iterator to one past the last element ">
<polygon fill="white" stroke="black" points="153,-50 153,-69 293,-69 293,-50 153,-50"/>
<text text-anchor="middle" x="223" y="-57" font-family="Helvetica,sans-Serif" font-size="10.00">nlohmann::basic_json::end</text>
</a>
</g>
</g>
<!-- Node1&#45;&gt;Node4 -->
<g id="edge3" class="edge"><title>Node1&#45;&gt;Node4</title>
<path fill="none" stroke="midnightblue" d="M127.364,-72.3123C135.756,-71.1761 144.345,-70.0133 152.758,-68.8743"/>
<polygon fill="midnightblue" stroke="midnightblue" points="126.689,-68.8716 117.249,-73.6817 127.628,-75.8083 126.689,-68.8716"/>
</g>
<!-- Node5 -->
<g id="node5" class="node"><title>Node5</title>
<g id="a_node5"><a xlink:href="classnlohmann_1_1basic__json.html#a060b33f8f255986088652625f9d50681" target="_top" xlink:title="returns a const reverse iterator to the last element ">
<polygon fill="white" stroke="black" points="164.5,-0.5 164.5,-30.5 281.5,-30.5 281.5,-0.5 164.5,-0.5"/>
<text text-anchor="start" x="172.5" y="-18.5" font-family="Helvetica,sans-Serif" font-size="10.00">nlohmann::basic_json</text>
<text text-anchor="middle" x="223" y="-7.5" font-family="Helvetica,sans-Serif" font-size="10.00">::crbegin</text>
</a>
</g>
</g>
<!-- Node1&#45;&gt;Node5 -->
<g id="edge4" class="edge"><title>Node1&#45;&gt;Node5</title>
<path fill="none" stroke="midnightblue" d="M102.14,-62.0987C118.011,-55.0639 136.237,-47.2039 153,-40.5 161.4,-37.141 170.447,-33.7221 179.138,-30.5351"/>
<polygon fill="midnightblue" stroke="midnightblue" points="100.304,-59.085 92.5966,-66.3545 103.155,-65.4781 100.304,-59.085"/>
</g>
<!-- Node6 -->
<g id="node6" class="node"><title>Node6</title>
<g id="a_node6"><a xlink:href="classnlohmann_1_1basic__json.html#a15e70a44e2a8db929694819fed256653" target="_top" xlink:title="returns a const reverse iterator to the last element ">
<polygon fill="white" stroke="black" points="329,-0.5 329,-30.5 446,-30.5 446,-0.5 329,-0.5"/>
<text text-anchor="start" x="337" y="-18.5" font-family="Helvetica,sans-Serif" font-size="10.00">nlohmann::basic_json</text>
<text text-anchor="middle" x="387.5" y="-7.5" font-family="Helvetica,sans-Serif" font-size="10.00">::rbegin</text>
</a>
</g>
</g>
<!-- Node5&#45;&gt;Node6 -->
<g id="edge5" class="edge"><title>Node5&#45;&gt;Node6</title>
<path fill="none" stroke="midnightblue" d="M291.956,-15.5C304.255,-15.5 316.971,-15.5 328.937,-15.5"/>
<polygon fill="midnightblue" stroke="midnightblue" points="291.749,-12.0001 281.749,-15.5 291.749,-19.0001 291.749,-12.0001"/>
</g>
</g>
</svg>
