<?xml version="1.0" encoding="UTF-8" standalone="no"?>
<!DOCTYPE svg PUBLIC "-//W3C//DTD SVG 1.1//EN"
 "http://www.w3.org/Graphics/SVG/1.1/DTD/svg11.dtd">
<!-- Generated by graphviz version 2.38.0 (20140413.2041)
 -->
<!-- Title: pfp::cp::TernaryKey Pages: 1 -->
<svg width="115pt" height="270pt"
 viewBox="0.00 0.00 115.00 270.00" xmlns="http://www.w3.org/2000/svg" xmlns:xlink="http://www.w3.org/1999/xlink">
<g id="graph0" class="graph" transform="scale(1 1) rotate(0) translate(4 266)">
<title>pfp::cp::TernaryKey</title>
<polygon fill="white" stroke="none" points="-4,4 -4,-266 111,-266 111,4 -4,4"/>
<!-- Node1 -->
<g id="node1" class="node"><title>Node1</title>
<polygon fill="#bfbfbf" stroke="black" points="-7.10543e-15,-0.5 -7.10543e-15,-101.5 107,-101.5 107,-0.5 -7.10543e-15,-0.5"/>
<text text-anchor="middle" x="53.5" y="-89.5" font-family="Helvetica,sans-Serif" font-size="10.00">pfp::cp::TernaryKey</text>
<polyline fill="none" stroke="black" points="-7.10543e-15,-82.5 107,-82.5 "/>
<text text-anchor="middle" x="53.5" y="-70.5" font-family="Helvetica,sans-Serif" font-size="10.00"> </text>
<polyline fill="none" stroke="black" points="-7.10543e-15,-63.5 107,-63.5 "/>
<text text-anchor="start" x="8" y="-51.5" font-family="Helvetica,sans-Serif" font-size="10.00">+ TernaryKey()</text>
<text text-anchor="start" x="8" y="-40.5" font-family="Helvetica,sans-Serif" font-size="10.00">+ print()</text>
<text text-anchor="start" x="8" y="-29.5" font-family="Helvetica,sans-Serif" font-size="10.00">+ ~TernaryKey()</text>
<text text-anchor="start" x="8" y="-18.5" font-family="Helvetica,sans-Serif" font-size="10.00">+ get_mask()</text>
<text text-anchor="start" x="8" y="-7.5" font-family="Helvetica,sans-Serif" font-size="10.00">+ get_type()</text>
</g>
<!-- Node2 -->
<g id="node2" class="node"><title>Node2</title>
<g id="a_node2"><a xlink:href="classpfp_1_1cp_1_1MatchKey.html" target="_top" xlink:title="{pfp::cp::MatchKey\n|# data\l|+ MatchKey()\l+ print()\l+ ~MatchKey()\l+ get_data()\l+ get_prefix_len()\l+ get_mask()\l+ get_type()\l}">
<polygon fill="white" stroke="black" points="3,-138.5 3,-261.5 104,-261.5 104,-138.5 3,-138.5"/>
<text text-anchor="middle" x="53.5" y="-249.5" font-family="Helvetica,sans-Serif" font-size="10.00">pfp::cp::MatchKey</text>
<polyline fill="none" stroke="black" points="3,-242.5 104,-242.5 "/>
<text text-anchor="start" x="11" y="-230.5" font-family="Helvetica,sans-Serif" font-size="10.00"># data</text>
<polyline fill="none" stroke="black" points="3,-223.5 104,-223.5 "/>
<text text-anchor="start" x="11" y="-211.5" font-family="Helvetica,sans-Serif" font-size="10.00">+ MatchKey()</text>
<text text-anchor="start" x="11" y="-200.5" font-family="Helvetica,sans-Serif" font-size="10.00">+ print()</text>
<text text-anchor="start" x="11" y="-189.5" font-family="Helvetica,sans-Serif" font-size="10.00">+ ~MatchKey()</text>
<text text-anchor="start" x="11" y="-178.5" font-family="Helvetica,sans-Serif" font-size="10.00">+ get_data()</text>
<text text-anchor="start" x="11" y="-167.5" font-family="Helvetica,sans-Serif" font-size="10.00">+ get_prefix_len()</text>
<text text-anchor="start" x="11" y="-156.5" font-family="Helvetica,sans-Serif" font-size="10.00">+ get_mask()</text>
<text text-anchor="start" x="11" y="-145.5" font-family="Helvetica,sans-Serif" font-size="10.00">+ get_type()</text>
</a>
</g>
</g>
<!-- Node2&#45;&gt;Node1 -->
<g id="edge1" class="edge"><title>Node2&#45;&gt;Node1</title>
<path fill="none" stroke="midnightblue" d="M53.5,-128.289C53.5,-119.323 53.5,-110.301 53.5,-101.758"/>
<polygon fill="none" stroke="midnightblue" points="50.0001,-128.361 53.5,-138.361 57.0001,-128.361 50.0001,-128.361"/>
</g>
</g>
</svg>
