<?xml version="1.0" encoding="UTF-8" standalone="no"?>
<!DOCTYPE svg PUBLIC "-//W3C//DTD SVG 1.1//EN"
 "http://www.w3.org/Graphics/SVG/1.1/DTD/svg11.dtd">
<!-- Generated by graphviz version 2.38.0 (20140413.2041)
 -->
<!-- Title: pfp::core::PFPObject::notify_counter_changed Pages: 1 -->
<svg width="304pt" height="78pt"
 viewBox="0.00 0.00 304.00 77.50" xmlns="http://www.w3.org/2000/svg" xmlns:xlink="http://www.w3.org/1999/xlink">
<g id="graph0" class="graph" transform="scale(1 1) rotate(0) translate(4 73.5)">
<title>pfp::core::PFPObject::notify_counter_changed</title>
<polygon fill="white" stroke="none" points="-4,4 -4,-73.5 300,-73.5 300,4 -4,4"/>
<!-- Node1 -->
<g id="node1" class="node"><title>Node1</title>
<polygon fill="#bfbfbf" stroke="black" points="0,-17 0,-47 135,-47 135,-17 0,-17"/>
<text text-anchor="start" x="8" y="-35" font-family="Helvetica,sans-Serif" font-size="10.00">pfp::core::PFPObject</text>
<text text-anchor="middle" x="67.5" y="-24" font-family="Helvetica,sans-Serif" font-size="10.00">::notify_counter_changed</text>
</g>
<!-- Node2 -->
<g id="node2" class="node"><title>Node2</title>
<g id="a_node2"><a xlink:href="classpfp_1_1core_1_1PFPObserver.html#a5c3e36359e94a116b57ff36dbd9d481a" target="_top" xlink:title="Function called by the NPU when a counter is updated. ">
<polygon fill="white" stroke="black" points="171,-39 171,-69 296,-69 296,-39 171,-39"/>
<text text-anchor="start" x="179" y="-57" font-family="Helvetica,sans-Serif" font-size="10.00">pfp::core::PFPObserver</text>
<text text-anchor="middle" x="233.5" y="-46" font-family="Helvetica,sans-Serif" font-size="10.00">::counter_updated</text>
</a>
</g>
</g>
<!-- Node1&#45;&gt;Node2 -->
<g id="edge1" class="edge"><title>Node1&#45;&gt;Node2</title>
<path fill="none" stroke="midnightblue" d="M135.205,-40.9482C143.682,-42.0854 152.386,-43.253 160.935,-44.3999"/>
<polygon fill="midnightblue" stroke="midnightblue" points="160.502,-47.873 170.878,-45.7337 161.432,-40.9351 160.502,-47.873"/>
</g>
<!-- Node3 -->
<g id="node3" class="node"><title>Node3</title>
<g id="a_node3"><a xlink:href="classMTQueue.html#a1b8d763529ae9eb53bce1c09f8f82507" target="_top" xlink:title="Push an item onto the MTQueue. ">
<polygon fill="white" stroke="black" points="188.5,-0.5 188.5,-19.5 278.5,-19.5 278.5,-0.5 188.5,-0.5"/>
<text text-anchor="middle" x="233.5" y="-7.5" font-family="Helvetica,sans-Serif" font-size="10.00">MTQueue::push</text>
</a>
</g>
</g>
<!-- Node1&#45;&gt;Node3 -->
<g id="edge2" class="edge"><title>Node1&#45;&gt;Node3</title>
<path fill="none" stroke="midnightblue" d="M135.205,-23.0518C149.48,-21.1369 164.396,-19.1359 178.139,-17.2924"/>
<polygon fill="midnightblue" stroke="midnightblue" points="178.943,-20.7159 188.389,-15.9173 178.013,-13.778 178.943,-20.7159"/>
</g>
</g>
</svg>
