<?xml version="1.0" encoding="UTF-8" standalone="no"?>
<!DOCTYPE svg PUBLIC "-//W3C//DTD SVG 1.1//EN"
 "http://www.w3.org/Graphics/SVG/1.1/DTD/svg11.dtd">
<!-- Generated by graphviz version 2.38.0 (20140413.2041)
 -->
<!-- Title: pfp::core::PFPObject::remove_counter Pages: 1 -->
<svg width="451pt" height="105pt"
 viewBox="0.00 0.00 451.00 104.50" xmlns="http://www.w3.org/2000/svg" xmlns:xlink="http://www.w3.org/1999/xlink">
<g id="graph0" class="graph" transform="scale(1 1) rotate(0) translate(4 100.5)">
<title>pfp::core::PFPObject::remove_counter</title>
<polygon fill="white" stroke="none" points="-4,4 -4,-100.5 447,-100.5 447,4 -4,4"/>
<!-- Node1 -->
<g id="node1" class="node"><title>Node1</title>
<polygon fill="#bfbfbf" stroke="black" points="0,-41 0,-71 111,-71 111,-41 0,-41"/>
<text text-anchor="start" x="8" y="-59" font-family="Helvetica,sans-Serif" font-size="10.00">pfp::core::PFPObject</text>
<text text-anchor="middle" x="55.5" y="-48" font-family="Helvetica,sans-Serif" font-size="10.00">::remove_counter</text>
</g>
<!-- Node2 -->
<g id="node2" class="node"><title>Node2</title>
<g id="a_node2"><a xlink:href="classpfp_1_1core_1_1PFPObject.html#a6a70ae0eb4e9e61f010bad08deb1b184" target="_top" xlink:title="Get the number of counters in the PFPObject. ">
<polygon fill="white" stroke="black" points="159,-66 159,-96 270,-96 270,-66 159,-66"/>
<text text-anchor="start" x="167" y="-84" font-family="Helvetica,sans-Serif" font-size="10.00">pfp::core::PFPObject</text>
<text text-anchor="middle" x="214.5" y="-73" font-family="Helvetica,sans-Serif" font-size="10.00">::num_counters</text>
</a>
</g>
</g>
<!-- Node1&#45;&gt;Node2 -->
<g id="edge1" class="edge"><title>Node1&#45;&gt;Node2</title>
<path fill="none" stroke="midnightblue" d="M111.411,-64.7438C123.552,-66.677 136.522,-68.7424 149.004,-70.73"/>
<polygon fill="midnightblue" stroke="midnightblue" points="148.459,-74.1872 158.885,-72.3034 149.56,-67.2743 148.459,-74.1872"/>
</g>
<!-- Node3 -->
<g id="node3" class="node"><title>Node3</title>
<g id="a_node3"><a xlink:href="classpfp_1_1core_1_1PFPObject.html#ac8a70a449f6774597968f0b33d0594b4" target="_top" xlink:title="Notify all attached observers when a counter is removed from the PFPObject. ">
<polygon fill="white" stroke="black" points="147,-17 147,-47 282,-47 282,-17 147,-17"/>
<text text-anchor="start" x="155" y="-35" font-family="Helvetica,sans-Serif" font-size="10.00">pfp::core::PFPObject</text>
<text text-anchor="middle" x="214.5" y="-24" font-family="Helvetica,sans-Serif" font-size="10.00">::notify_counter_removed</text>
</a>
</g>
</g>
<!-- Node1&#45;&gt;Node3 -->
<g id="edge2" class="edge"><title>Node1&#45;&gt;Node3</title>
<path fill="none" stroke="midnightblue" d="M111.411,-47.606C119.61,-46.3526 128.187,-45.0415 136.737,-43.7345"/>
<polygon fill="midnightblue" stroke="midnightblue" points="137.38,-47.1769 146.736,-42.2059 136.322,-40.2573 137.38,-47.1769"/>
</g>
<!-- Node4 -->
<g id="node4" class="node"><title>Node4</title>
<g id="a_node4"><a xlink:href="classpfp_1_1core_1_1PFPObserver.html#a2281daf8c9923c7159963245aafd6789" target="_top" xlink:title="Function called by the NPU when a counter is removed from a module. ">
<polygon fill="white" stroke="black" points="318,-39 318,-69 443,-69 443,-39 318,-39"/>
<text text-anchor="start" x="326" y="-57" font-family="Helvetica,sans-Serif" font-size="10.00">pfp::core::PFPObserver</text>
<text text-anchor="middle" x="380.5" y="-46" font-family="Helvetica,sans-Serif" font-size="10.00">::counter_removed</text>
</a>
</g>
</g>
<!-- Node3&#45;&gt;Node4 -->
<g id="edge3" class="edge"><title>Node3&#45;&gt;Node4</title>
<path fill="none" stroke="midnightblue" d="M282.205,-40.9482C290.682,-42.0854 299.386,-43.253 307.935,-44.3999"/>
<polygon fill="midnightblue" stroke="midnightblue" points="307.502,-47.873 317.878,-45.7337 308.432,-40.9351 307.502,-47.873"/>
</g>
<!-- Node5 -->
<g id="node5" class="node"><title>Node5</title>
<g id="a_node5"><a xlink:href="classMTQueue.html#a1b8d763529ae9eb53bce1c09f8f82507" target="_top" xlink:title="Push an item onto the MTQueue. ">
<polygon fill="white" stroke="black" points="335.5,-0.5 335.5,-19.5 425.5,-19.5 425.5,-0.5 335.5,-0.5"/>
<text text-anchor="middle" x="380.5" y="-7.5" font-family="Helvetica,sans-Serif" font-size="10.00">MTQueue::push</text>
</a>
</g>
</g>
<!-- Node3&#45;&gt;Node5 -->
<g id="edge4" class="edge"><title>Node3&#45;&gt;Node5</title>
<path fill="none" stroke="midnightblue" d="M282.205,-23.0518C296.48,-21.1369 311.396,-19.1359 325.139,-17.2924"/>
<polygon fill="midnightblue" stroke="midnightblue" points="325.943,-20.7159 335.389,-15.9173 325.013,-13.778 325.943,-20.7159"/>
</g>
</g>
</svg>
