<?xml version="1.0" encoding="UTF-8" standalone="no"?>
<!DOCTYPE svg PUBLIC "-//W3C//DTD SVG 1.1//EN"
 "http://www.w3.org/Graphics/SVG/1.1/DTD/svg11.dtd">
<!-- Generated by graphviz version 2.38.0 (20140413.2041)
 -->
<!-- Title: pfp::core::PFPObject::notify_counter_changed Pages: 1 -->
<svg width="292pt" height="137pt"
 viewBox="0.00 0.00 292.00 137.00" xmlns="http://www.w3.org/2000/svg" xmlns:xlink="http://www.w3.org/1999/xlink">
<g id="graph0" class="graph" transform="scale(1 1) rotate(0) translate(4 133)">
<title>pfp::core::PFPObject::notify_counter_changed</title>
<polygon fill="white" stroke="none" points="-4,4 -4,-133 288,-133 288,4 -4,4"/>
<!-- Node1 -->
<g id="node1" class="node"><title>Node1</title>
<polygon fill="#bfbfbf" stroke="black" points="0,-49.5 0,-79.5 135,-79.5 135,-49.5 0,-49.5"/>
<text text-anchor="start" x="8" y="-67.5" font-family="Helvetica,sans-Serif" font-size="10.00">pfp::core::PFPObject</text>
<text text-anchor="middle" x="67.5" y="-56.5" font-family="Helvetica,sans-Serif" font-size="10.00">::notify_counter_changed</text>
</g>
<!-- Node2 -->
<g id="node2" class="node"><title>Node2</title>
<g id="a_node2"><a xlink:href="classpfp_1_1core_1_1PFPObject.html#ab8e4b5c8876e05fa30c360140534886d" target="_top" xlink:title="Set the value of a counter. ">
<polygon fill="white" stroke="black" points="172,-98.5 172,-128.5 283,-128.5 283,-98.5 172,-98.5"/>
<text text-anchor="start" x="180" y="-116.5" font-family="Helvetica,sans-Serif" font-size="10.00">pfp::core::PFPObject</text>
<text text-anchor="middle" x="227.5" y="-105.5" font-family="Helvetica,sans-Serif" font-size="10.00">::set_counter</text>
</a>
</g>
</g>
<!-- Node1&#45;&gt;Node2 -->
<g id="edge1" class="edge"><title>Node1&#45;&gt;Node2</title>
<path fill="none" stroke="midnightblue" d="M126.905,-82.6129C143.702,-87.8222 161.835,-93.4457 177.966,-98.4484"/>
<polygon fill="midnightblue" stroke="midnightblue" points="127.782,-79.2207 117.194,-79.6014 125.709,-85.9065 127.782,-79.2207"/>
</g>
<!-- Node3 -->
<g id="node3" class="node"><title>Node3</title>
<g id="a_node3"><a xlink:href="classpfp_1_1core_1_1PFPObject.html#ab222c952c3baaee7a1e1500e50b4c413" target="_top" xlink:title="Increment the specified counter. ">
<polygon fill="white" stroke="black" points="172,-49.5 172,-79.5 283,-79.5 283,-49.5 172,-49.5"/>
<text text-anchor="start" x="180" y="-67.5" font-family="Helvetica,sans-Serif" font-size="10.00">pfp::core::PFPObject</text>
<text text-anchor="middle" x="227.5" y="-56.5" font-family="Helvetica,sans-Serif" font-size="10.00">::increment_counter</text>
</a>
</g>
</g>
<!-- Node1&#45;&gt;Node3 -->
<g id="edge2" class="edge"><title>Node1&#45;&gt;Node3</title>
<path fill="none" stroke="midnightblue" d="M145.216,-64.5C154.26,-64.5 163.343,-64.5 171.992,-64.5"/>
<polygon fill="midnightblue" stroke="midnightblue" points="145.048,-61.0001 135.048,-64.5 145.048,-68.0001 145.048,-61.0001"/>
</g>
<!-- Node4 -->
<g id="node4" class="node"><title>Node4</title>
<g id="a_node4"><a xlink:href="classpfp_1_1core_1_1PFPObject.html#a33c74496232302a3d5b794292eeda719" target="_top" xlink:title="Decrement the specified counter. ">
<polygon fill="white" stroke="black" points="171,-0.5 171,-30.5 284,-30.5 284,-0.5 171,-0.5"/>
<text text-anchor="start" x="179" y="-18.5" font-family="Helvetica,sans-Serif" font-size="10.00">pfp::core::PFPObject</text>
<text text-anchor="middle" x="227.5" y="-7.5" font-family="Helvetica,sans-Serif" font-size="10.00">::decrement_counter</text>
</a>
</g>
</g>
<!-- Node1&#45;&gt;Node4 -->
<g id="edge3" class="edge"><title>Node1&#45;&gt;Node4</title>
<path fill="none" stroke="midnightblue" d="M126.905,-46.3871C143.702,-41.1778 161.835,-35.5543 177.966,-30.5516"/>
<polygon fill="midnightblue" stroke="midnightblue" points="125.709,-43.0935 117.194,-49.3986 127.782,-49.7793 125.709,-43.0935"/>
</g>
</g>
</svg>
