<?xml version="1.0" encoding="UTF-8" standalone="no"?>
<!DOCTYPE svg PUBLIC "-//W3C//DTD SVG 1.1//EN"
 "http://www.w3.org/Graphics/SVG/1.1/DTD/svg11.dtd">
<!-- Generated by graphviz version 2.38.0 (20140413.2041)
 -->
<!-- Title: pfp::core::db::DebuggerIPCServer::setReplyMessage Pages: 1 -->
<svg width="367pt" height="137pt"
 viewBox="0.00 0.00 367.00 137.00" xmlns="http://www.w3.org/2000/svg" xmlns:xlink="http://www.w3.org/1999/xlink">
<g id="graph0" class="graph" transform="scale(1 1) rotate(0) translate(4 133)">
<title>pfp::core::db::DebuggerIPCServer::setReplyMessage</title>
<polygon fill="white" stroke="none" points="-4,4 -4,-133 363,-133 363,4 -4,4"/>
<!-- Node1 -->
<g id="node1" class="node"><title>Node1</title>
<polygon fill="#bfbfbf" stroke="black" points="0,-49.5 0,-79.5 172,-79.5 172,-49.5 0,-49.5"/>
<text text-anchor="start" x="8" y="-67.5" font-family="Helvetica,sans-Serif" font-size="10.00">pfp::core::db::DebuggerIPCServer</text>
<text text-anchor="middle" x="86" y="-56.5" font-family="Helvetica,sans-Serif" font-size="10.00">::setReplyMessage</text>
</g>
<!-- Node2 -->
<g id="node2" class="node"><title>Node2</title>
<g id="a_node2"><a xlink:href="classpfp_1_1core_1_1db_1_1DebugObserver.html#a3af473908c24bb877ad2e1b6083e174b" target="_top" xlink:title="Destructor. ">
<polygon fill="white" stroke="black" points="208,-98.5 208,-128.5 359,-128.5 359,-98.5 208,-98.5"/>
<text text-anchor="start" x="216" y="-116.5" font-family="Helvetica,sans-Serif" font-size="10.00">pfp::core::db::DebugObserver</text>
<text text-anchor="middle" x="283.5" y="-105.5" font-family="Helvetica,sans-Serif" font-size="10.00">::~DebugObserver</text>
</a>
</g>
</g>
<!-- Node1&#45;&gt;Node2 -->
<g id="edge1" class="edge"><title>Node1&#45;&gt;Node2</title>
<path fill="none" stroke="midnightblue" d="M156.729,-81.9768C178.277,-87.3775 201.808,-93.2755 222.628,-98.4938"/>
<polygon fill="midnightblue" stroke="midnightblue" points="157.536,-78.5709 146.985,-79.5346 155.834,-85.3609 157.536,-78.5709"/>
</g>
<!-- Node3 -->
<g id="node3" class="node"><title>Node3</title>
<g id="a_node3"><a xlink:href="classpfp_1_1core_1_1db_1_1DebugObserver.html#a35f3c0c7e02efc144fca3b8352e82002" target="_top" xlink:title="Function called by the simulation when a counter is updated. ">
<polygon fill="white" stroke="black" points="208,-49.5 208,-79.5 359,-79.5 359,-49.5 208,-49.5"/>
<text text-anchor="start" x="216" y="-67.5" font-family="Helvetica,sans-Serif" font-size="10.00">pfp::core::db::DebugObserver</text>
<text text-anchor="middle" x="283.5" y="-56.5" font-family="Helvetica,sans-Serif" font-size="10.00">::counter_updated</text>
</a>
</g>
</g>
<!-- Node1&#45;&gt;Node3 -->
<g id="edge2" class="edge"><title>Node1&#45;&gt;Node3</title>
<path fill="none" stroke="midnightblue" d="M182.208,-64.5C190.774,-64.5 199.366,-64.5 207.72,-64.5"/>
<polygon fill="midnightblue" stroke="midnightblue" points="182.18,-61.0001 172.18,-64.5 182.18,-68.0001 182.18,-61.0001"/>
</g>
<!-- Node4 -->
<g id="node4" class="node"><title>Node4</title>
<g id="a_node4"><a xlink:href="classpfp_1_1core_1_1db_1_1DebugObserver.html#ac627c4500d9edf6bdde07d85ef2aae65" target="_top" xlink:title="Function called by the simulation when data is dropped in a module. ">
<polygon fill="white" stroke="black" points="208,-0.5 208,-30.5 359,-30.5 359,-0.5 208,-0.5"/>
<text text-anchor="start" x="216" y="-18.5" font-family="Helvetica,sans-Serif" font-size="10.00">pfp::core::db::DebugObserver</text>
<text text-anchor="middle" x="283.5" y="-7.5" font-family="Helvetica,sans-Serif" font-size="10.00">::data_dropped</text>
</a>
</g>
</g>
<!-- Node1&#45;&gt;Node4 -->
<g id="edge3" class="edge"><title>Node1&#45;&gt;Node4</title>
<path fill="none" stroke="midnightblue" d="M156.729,-47.0232C178.277,-41.6225 201.808,-35.7245 222.628,-30.5062"/>
<polygon fill="midnightblue" stroke="midnightblue" points="155.834,-43.6391 146.985,-49.4654 157.536,-50.4291 155.834,-43.6391"/>
</g>
</g>
</svg>
