<?xml version="1.0" encoding="UTF-8" standalone="no"?>
<!DOCTYPE svg PUBLIC "-//W3C//DTD SVG 1.1//EN"
 "http://www.w3.org/Graphics/SVG/1.1/DTD/svg11.dtd">
<!-- Generated by graphviz version 2.38.0 (20140413.2041)
 -->
<!-- Title: MTQueue&lt; T &gt; Pages: 1 -->
<svg width="169pt" height="303pt"
 viewBox="0.00 0.00 169.00 303.00" xmlns="http://www.w3.org/2000/svg" xmlns:xlink="http://www.w3.org/1999/xlink">
<g id="graph0" class="graph" transform="scale(1 1) rotate(0) translate(4 299)">
<title>MTQueue&lt; T &gt;</title>
<polygon fill="white" stroke="none" points="-4,4 -4,-299 165,-299 165,4 -4,4"/>
<!-- Node1 -->
<g id="node1" class="node"><title>Node1</title>
<polygon fill="#bfbfbf" stroke="black" points="20,-182.5 20,-294.5 108,-294.5 108,-182.5 20,-182.5"/>
<text text-anchor="middle" x="64" y="-282.5" font-family="Helvetica,sans-Serif" font-size="10.00">MTQueue&lt; T &gt;</text>
<polyline fill="none" stroke="black" points="20,-275.5 108,-275.5 "/>
<text text-anchor="middle" x="64" y="-263.5" font-family="Helvetica,sans-Serif" font-size="10.00"> </text>
<polyline fill="none" stroke="black" points="20,-256.5 108,-256.5 "/>
<text text-anchor="start" x="28" y="-244.5" font-family="Helvetica,sans-Serif" font-size="10.00">+ MTQueue()</text>
<text text-anchor="start" x="28" y="-233.5" font-family="Helvetica,sans-Serif" font-size="10.00">+ pop()</text>
<text text-anchor="start" x="28" y="-222.5" font-family="Helvetica,sans-Serif" font-size="10.00">+ pop()</text>
<text text-anchor="start" x="28" y="-211.5" font-family="Helvetica,sans-Serif" font-size="10.00">+ push()</text>
<text text-anchor="start" x="28" y="-200.5" font-family="Helvetica,sans-Serif" font-size="10.00">+ push()</text>
<text text-anchor="start" x="28" y="-189.5" font-family="Helvetica,sans-Serif" font-size="10.00">+ size()</text>
</g>
<!-- Node2 -->
<g id="node2" class="node"><title>Node2</title>
<g id="a_node2"><a xlink:href="classMTQueue.html" target="_top" xlink:title="{MTQueue\&lt; std::function\l\&lt; void(void)\&gt; \&gt;\n||+ MTQueue()\l+ pop()\l+ pop()\l+ push()\l+ push()\l+ size()\l}">
<polygon fill="white" stroke="black" points="0,-0.5 0,-123.5 128,-123.5 128,-0.5 0,-0.5"/>
<text text-anchor="start" x="8" y="-111.5" font-family="Helvetica,sans-Serif" font-size="10.00">MTQueue&lt; std::function</text>
<text text-anchor="middle" x="64" y="-100.5" font-family="Helvetica,sans-Serif" font-size="10.00">&lt; void(void)&gt; &gt;</text>
<polyline fill="none" stroke="black" points="0,-93.5 128,-93.5 "/>
<text text-anchor="middle" x="64" y="-81.5" font-family="Helvetica,sans-Serif" font-size="10.00"> </text>
<polyline fill="none" stroke="black" points="0,-74.5 128,-74.5 "/>
<text text-anchor="start" x="8" y="-62.5" font-family="Helvetica,sans-Serif" font-size="10.00">+ MTQueue()</text>
<text text-anchor="start" x="8" y="-51.5" font-family="Helvetica,sans-Serif" font-size="10.00">+ pop()</text>
<text text-anchor="start" x="8" y="-40.5" font-family="Helvetica,sans-Serif" font-size="10.00">+ pop()</text>
<text text-anchor="start" x="8" y="-29.5" font-family="Helvetica,sans-Serif" font-size="10.00">+ push()</text>
<text text-anchor="start" x="8" y="-18.5" font-family="Helvetica,sans-Serif" font-size="10.00">+ push()</text>
<text text-anchor="start" x="8" y="-7.5" font-family="Helvetica,sans-Serif" font-size="10.00">+ size()</text>
</a>
</g>
</g>
<!-- Node1&#45;&gt;Node2 -->
<g id="edge1" class="edge"><title>Node1&#45;&gt;Node2</title>
<path fill="none" stroke="orange" d="M64,-172.026C64,-156.149 64,-139.244 64,-123.603"/>
<polygon fill="orange" stroke="orange" points="60.5001,-172.287 64,-182.287 67.5001,-172.287 60.5001,-172.287"/>
<text text-anchor="start" x="64" y="-156" font-family="Helvetica,sans-Serif" font-size="10.00"> &lt; std::function&lt; void</text>
<text text-anchor="middle" x="112.5" y="-145" font-family="Helvetica,sans-Serif" font-size="10.00">(void)&gt; &gt;</text>
</g>
</g>
</svg>
