<?xml version="1.0" encoding="UTF-8" standalone="no"?>
<!DOCTYPE svg PUBLIC "-//W3C//DTD SVG 1.1//EN"
 "http://www.w3.org/Graphics/SVG/1.1/DTD/svg11.dtd">
<!-- Generated by graphviz version 2.38.0 (20140413.2041)
 -->
<!-- Title: pfp::core::PFPObject::decrement_counter Pages: 1 -->
<svg width="453pt" height="78pt"
 viewBox="0.00 0.00 453.00 77.50" xmlns="http://www.w3.org/2000/svg" xmlns:xlink="http://www.w3.org/1999/xlink">
<g id="graph0" class="graph" transform="scale(1 1) rotate(0) translate(4 73.5)">
<title>pfp::core::PFPObject::decrement_counter</title>
<polygon fill="white" stroke="none" points="-4,4 -4,-73.5 449,-73.5 449,4 -4,4"/>
<!-- Node1 -->
<g id="node1" class="node"><title>Node1</title>
<polygon fill="#bfbfbf" stroke="black" points="0,-17 0,-47 113,-47 113,-17 0,-17"/>
<text text-anchor="start" x="8" y="-35" font-family="Helvetica,sans-Serif" font-size="10.00">pfp::core::PFPObject</text>
<text text-anchor="middle" x="56.5" y="-24" font-family="Helvetica,sans-Serif" font-size="10.00">::decrement_counter</text>
</g>
<!-- Node2 -->
<g id="node2" class="node"><title>Node2</title>
<g id="a_node2"><a xlink:href="classpfp_1_1core_1_1PFPObject.html#a04e6dd971750758a0706c6a73fd77021" target="_top" xlink:title="Notify all attached observers when a counter is changed. ">
<polygon fill="white" stroke="black" points="149,-17 149,-47 284,-47 284,-17 149,-17"/>
<text text-anchor="start" x="157" y="-35" font-family="Helvetica,sans-Serif" font-size="10.00">pfp::core::PFPObject</text>
<text text-anchor="middle" x="216.5" y="-24" font-family="Helvetica,sans-Serif" font-size="10.00">::notify_counter_changed</text>
</a>
</g>
</g>
<!-- Node1&#45;&gt;Node2 -->
<g id="edge1" class="edge"><title>Node1&#45;&gt;Node2</title>
<path fill="none" stroke="midnightblue" d="M113.205,-32C121.506,-32 130.185,-32 138.826,-32"/>
<polygon fill="midnightblue" stroke="midnightblue" points="138.928,-35.5001 148.928,-32 138.928,-28.5001 138.928,-35.5001"/>
</g>
<!-- Node3 -->
<g id="node3" class="node"><title>Node3</title>
<g id="a_node3"><a xlink:href="classpfp_1_1core_1_1PFPObserver.html#a5c3e36359e94a116b57ff36dbd9d481a" target="_top" xlink:title="Function called by the NPU when a counter is updated. ">
<polygon fill="white" stroke="black" points="320,-39 320,-69 445,-69 445,-39 320,-39"/>
<text text-anchor="start" x="328" y="-57" font-family="Helvetica,sans-Serif" font-size="10.00">pfp::core::PFPObserver</text>
<text text-anchor="middle" x="382.5" y="-46" font-family="Helvetica,sans-Serif" font-size="10.00">::counter_updated</text>
</a>
</g>
</g>
<!-- Node2&#45;&gt;Node3 -->
<g id="edge2" class="edge"><title>Node2&#45;&gt;Node3</title>
<path fill="none" stroke="midnightblue" d="M284.205,-40.9482C292.682,-42.0854 301.386,-43.253 309.935,-44.3999"/>
<polygon fill="midnightblue" stroke="midnightblue" points="309.502,-47.873 319.878,-45.7337 310.432,-40.9351 309.502,-47.873"/>
</g>
<!-- Node4 -->
<g id="node4" class="node"><title>Node4</title>
<g id="a_node4"><a xlink:href="classMTQueue.html#a1b8d763529ae9eb53bce1c09f8f82507" target="_top" xlink:title="Push an item onto the MTQueue. ">
<polygon fill="white" stroke="black" points="337.5,-0.5 337.5,-19.5 427.5,-19.5 427.5,-0.5 337.5,-0.5"/>
<text text-anchor="middle" x="382.5" y="-7.5" font-family="Helvetica,sans-Serif" font-size="10.00">MTQueue::push</text>
</a>
</g>
</g>
<!-- Node2&#45;&gt;Node4 -->
<g id="edge3" class="edge"><title>Node2&#45;&gt;Node4</title>
<path fill="none" stroke="midnightblue" d="M284.205,-23.0518C298.48,-21.1369 313.396,-19.1359 327.139,-17.2924"/>
<polygon fill="midnightblue" stroke="midnightblue" points="327.943,-20.7159 337.389,-15.9173 327.013,-13.778 327.943,-20.7159"/>
</g>
</g>
</svg>
