<?xml version="1.0" encoding="UTF-8" standalone="no"?>
<!DOCTYPE svg PUBLIC "-//W3C//DTD SVG 1.1//EN"
 "http://www.w3.org/Graphics/SVG/1.1/DTD/svg11.dtd">
<!-- Generated by graphviz version 2.38.0 (20140413.2041)
 -->
<!-- Title: pfp::cp::BootCompleteCommand Pages: 1 -->
<svg width="175pt" height="342pt"
 viewBox="0.00 0.00 175.00 342.00" xmlns="http://www.w3.org/2000/svg" xmlns:xlink="http://www.w3.org/1999/xlink">
<g id="graph0" class="graph" transform="scale(1 1) rotate(0) translate(4 338)">
<title>pfp::cp::BootCompleteCommand</title>
<polygon fill="white" stroke="none" points="-4,4 -4,-338 171,-338 171,4 -4,4"/>
<!-- Node1 -->
<g id="node1" class="node"><title>Node1</title>
<polygon fill="#bfbfbf" stroke="black" points="-1.42109e-14,-0.5 -1.42109e-14,-79.5 167,-79.5 167,-0.5 -1.42109e-14,-0.5"/>
<text text-anchor="middle" x="83.5" y="-67.5" font-family="Helvetica,sans-Serif" font-size="10.00">pfp::cp::BootCompleteCommand</text>
<polyline fill="none" stroke="black" points="-1.42109e-14,-60.5 167,-60.5 "/>
<text text-anchor="middle" x="83.5" y="-48.5" font-family="Helvetica,sans-Serif" font-size="10.00"> </text>
<polyline fill="none" stroke="black" points="-1.42109e-14,-41.5 167,-41.5 "/>
<text text-anchor="start" x="8" y="-29.5" font-family="Helvetica,sans-Serif" font-size="10.00">+ print()</text>
<text text-anchor="start" x="8" y="-18.5" font-family="Helvetica,sans-Serif" font-size="10.00">+ OVERRIDE_PROCESS()</text>
<text text-anchor="start" x="8" y="-7.5" font-family="Helvetica,sans-Serif" font-size="10.00">+ ~BootCompleteCommand()</text>
</g>
<!-- Node2 -->
<g id="node2" class="node"><title>Node2</title>
<g id="a_node2"><a xlink:href="classpfp_1_1cp_1_1Command.html" target="_top" xlink:title="{pfp::cp::Command\n|# table_name\l|+ print()\l+ process()\l+ set_table_name()\l+ get_table_name()\l+ ~Command()\l+ failure_result()\l}">
<polygon fill="white" stroke="black" points="28.5,-116.5 28.5,-228.5 138.5,-228.5 138.5,-116.5 28.5,-116.5"/>
<text text-anchor="middle" x="83.5" y="-216.5" font-family="Helvetica,sans-Serif" font-size="10.00">pfp::cp::Command</text>
<polyline fill="none" stroke="black" points="28.5,-209.5 138.5,-209.5 "/>
<text text-anchor="start" x="36.5" y="-197.5" font-family="Helvetica,sans-Serif" font-size="10.00"># table_name</text>
<polyline fill="none" stroke="black" points="28.5,-190.5 138.5,-190.5 "/>
<text text-anchor="start" x="36.5" y="-178.5" font-family="Helvetica,sans-Serif" font-size="10.00">+ print()</text>
<text text-anchor="start" x="36.5" y="-167.5" font-family="Helvetica,sans-Serif" font-size="10.00">+ process()</text>
<text text-anchor="start" x="36.5" y="-156.5" font-family="Helvetica,sans-Serif" font-size="10.00">+ set_table_name()</text>
<text text-anchor="start" x="36.5" y="-145.5" font-family="Helvetica,sans-Serif" font-size="10.00">+ get_table_name()</text>
<text text-anchor="start" x="36.5" y="-134.5" font-family="Helvetica,sans-Serif" font-size="10.00">+ ~Command()</text>
<text text-anchor="start" x="36.5" y="-123.5" font-family="Helvetica,sans-Serif" font-size="10.00">+ failure_result()</text>
</a>
</g>
</g>
<!-- Node2&#45;&gt;Node1 -->
<g id="edge1" class="edge"><title>Node2&#45;&gt;Node1</title>
<path fill="none" stroke="midnightblue" d="M83.5,-106.056C83.5,-97.0806 83.5,-88.1097 83.5,-79.823"/>
<polygon fill="none" stroke="midnightblue" points="80.0001,-106.156 83.5,-116.156 87.0001,-106.156 80.0001,-106.156"/>
</g>
<!-- Node3 -->
<g id="node3" class="node"><title>Node3</title>
<polygon fill="white" stroke="#bfbfbf" points="17.5,-265.5 17.5,-333.5 149.5,-333.5 149.5,-265.5 17.5,-265.5"/>
<text text-anchor="start" x="25.5" y="-321.5" font-family="Helvetica,sans-Serif" font-size="10.00">std::enable_shared</text>
<text text-anchor="middle" x="83.5" y="-310.5" font-family="Helvetica,sans-Serif" font-size="10.00">_from_this&lt; Command &gt;</text>
<polyline fill="none" stroke="#bfbfbf" points="17.5,-303.5 149.5,-303.5 "/>
<text text-anchor="middle" x="83.5" y="-291.5" font-family="Helvetica,sans-Serif" font-size="10.00"> </text>
<polyline fill="none" stroke="#bfbfbf" points="17.5,-284.5 149.5,-284.5 "/>
<text text-anchor="middle" x="83.5" y="-272.5" font-family="Helvetica,sans-Serif" font-size="10.00"> </text>
</g>
<!-- Node3&#45;&gt;Node2 -->
<g id="edge2" class="edge"><title>Node3&#45;&gt;Node2</title>
<path fill="none" stroke="midnightblue" d="M83.5,-255.182C83.5,-246.604 83.5,-237.493 83.5,-228.585"/>
<polygon fill="none" stroke="midnightblue" points="80.0001,-255.33 83.5,-265.33 87.0001,-255.331 80.0001,-255.33"/>
</g>
</g>
</svg>
