<?xml version="1.0" encoding="UTF-8" standalone="no"?>
<!DOCTYPE svg PUBLIC "-//W3C//DTD SVG 1.1//EN"
 "http://www.w3.org/Graphics/SVG/1.1/DTD/svg11.dtd">
<!-- Generated by graphviz version 2.38.0 (20140413.2041)
 -->
<!-- Title: nlohmann::basic_json::basic_json Pages: 1 -->
<svg width="301pt" height="78pt"
 viewBox="0.00 0.00 301.00 77.50" xmlns="http://www.w3.org/2000/svg" xmlns:xlink="http://www.w3.org/1999/xlink">
<g id="graph0" class="graph" transform="scale(1 1) rotate(0) translate(4 73.5)">
<title>nlohmann::basic_json::basic_json</title>
<polygon fill="white" stroke="none" points="-4,4 -4,-73.5 297,-73.5 297,4 -4,4"/>
<!-- Node1 -->
<g id="node1" class="node"><title>Node1</title>
<polygon fill="#bfbfbf" stroke="black" points="0,-17 0,-47 117,-47 117,-17 0,-17"/>
<text text-anchor="start" x="8" y="-35" font-family="Helvetica,sans-Serif" font-size="10.00">nlohmann::basic_json</text>
<text text-anchor="middle" x="58.5" y="-24" font-family="Helvetica,sans-Serif" font-size="10.00">::basic_json</text>
</g>
<!-- Node2 -->
<g id="node2" class="node"><title>Node2</title>
<g id="a_node2"><a xlink:href="classnlohmann_1_1basic__json.html#ad4e381c54039607be08d7af41a1f6ad1" target="_top" xlink:title="returns an iterator to the first element ">
<polygon fill="white" stroke="black" points="164.5,-39 164.5,-69 281.5,-69 281.5,-39 164.5,-39"/>
<text text-anchor="start" x="172.5" y="-57" font-family="Helvetica,sans-Serif" font-size="10.00">nlohmann::basic_json</text>
<text text-anchor="middle" x="223" y="-46" font-family="Helvetica,sans-Serif" font-size="10.00">::begin</text>
</a>
</g>
</g>
<!-- Node1&#45;&gt;Node2 -->
<g id="edge1" class="edge"><title>Node1&#45;&gt;Node2</title>
<path fill="none" stroke="midnightblue" d="M117.249,-39.8183C129.222,-41.4393 141.94,-43.1612 154.235,-44.8257"/>
<polygon fill="midnightblue" stroke="midnightblue" points="154.058,-48.3335 164.437,-46.2069 154.997,-41.3968 154.058,-48.3335"/>
</g>
<!-- Node3 -->
<g id="node3" class="node"><title>Node3</title>
<g id="a_node3"><a xlink:href="classnlohmann_1_1basic__json.html#a12ccf14d39ddae52f6c7e126105a230b" target="_top" xlink:title="returns an iterator to one past the last element ">
<polygon fill="white" stroke="black" points="153,-0.5 153,-19.5 293,-19.5 293,-0.5 153,-0.5"/>
<text text-anchor="middle" x="223" y="-7.5" font-family="Helvetica,sans-Serif" font-size="10.00">nlohmann::basic_json::end</text>
</a>
</g>
</g>
<!-- Node1&#45;&gt;Node3 -->
<g id="edge2" class="edge"><title>Node1&#45;&gt;Node3</title>
<path fill="none" stroke="midnightblue" d="M117.249,-24.1817C125.511,-23.0632 134.127,-21.8967 142.714,-20.7341"/>
<polygon fill="midnightblue" stroke="midnightblue" points="143.318,-24.1844 152.758,-19.3743 142.378,-17.2477 143.318,-24.1844"/>
</g>
</g>
</svg>
