<?xml version="1.0" encoding="UTF-8" standalone="no"?>
<!DOCTYPE svg PUBLIC "-//W3C//DTD SVG 1.1//EN"
 "http://www.w3.org/Graphics/SVG/1.1/DTD/svg11.dtd">
<!-- Generated by graphviz version 2.38.0 (20140413.2041)
 -->
<!-- Title: nlohmann::basic_json::parse Pages: 1 -->
<svg width="278pt" height="57pt"
 viewBox="0.00 0.00 278.00 57.00" xmlns="http://www.w3.org/2000/svg" xmlns:xlink="http://www.w3.org/1999/xlink">
<g id="graph0" class="graph" transform="scale(1 1) rotate(0) translate(4 53)">
<title>nlohmann::basic_json::parse</title>
<polygon fill="white" stroke="none" points="-4,4 -4,-53 274,-53 274,4 -4,4"/>
<!-- Node1 -->
<g id="node1" class="node"><title>Node1</title>
<polygon fill="#bfbfbf" stroke="black" points="0,-0.5 0,-30.5 117,-30.5 117,-0.5 0,-0.5"/>
<text text-anchor="start" x="8" y="-18.5" font-family="Helvetica,sans-Serif" font-size="10.00">nlohmann::basic_json</text>
<text text-anchor="middle" x="58.5" y="-7.5" font-family="Helvetica,sans-Serif" font-size="10.00">::parse</text>
</g>
<!-- Node2 -->
<g id="node2" class="node"><title>Node2</title>
<g id="a_node2"><a xlink:href="classnlohmann_1_1basic__json.html#a35303ad045a06c2a79dc28ac29652e86" target="_top" xlink:title="deserialize from string ">
<polygon fill="white" stroke="black" points="153,-0.5 153,-30.5 270,-30.5 270,-0.5 153,-0.5"/>
<text text-anchor="start" x="161" y="-18.5" font-family="Helvetica,sans-Serif" font-size="10.00">nlohmann::basic_json</text>
<text text-anchor="middle" x="211.5" y="-7.5" font-family="Helvetica,sans-Serif" font-size="10.00">::parse</text>
</a>
</g>
</g>
<!-- Node1&#45;&gt;Node2 -->
<g id="edge1" class="edge"><title>Node1&#45;&gt;Node2</title>
<path fill="none" stroke="midnightblue" d="M117.017,-15.5C125.464,-15.5 134.229,-15.5 142.856,-15.5"/>
<polygon fill="midnightblue" stroke="midnightblue" points="142.893,-19.0001 152.893,-15.5 142.892,-12.0001 142.893,-19.0001"/>
</g>
<!-- Node2&#45;&gt;Node2 -->
<g id="edge2" class="edge"><title>Node2&#45;&gt;Node2</title>
<path fill="none" stroke="midnightblue" d="M185.011,-30.659C178.623,-40.0566 187.453,-49 211.5,-49 226.154,-49 235.156,-45.679 238.509,-40.9579"/>
<polygon fill="midnightblue" stroke="midnightblue" points="241.988,-40.47 237.989,-30.659 234.997,-40.8226 241.988,-40.47"/>
</g>
</g>
</svg>
