<?xml version="1.0" encoding="UTF-8" standalone="no"?>
<!DOCTYPE svg PUBLIC "-//W3C//DTD SVG 1.1//EN"
 "http://www.w3.org/Graphics/SVG/1.1/DTD/svg11.dtd">
<!-- Generated by graphviz version 2.38.0 (20140413.2041)
 -->
<!-- Title: MTQueue::push Pages: 1 -->
<svg width="418pt" height="320pt"
 viewBox="0.00 0.00 418.00 320.00" xmlns="http://www.w3.org/2000/svg" xmlns:xlink="http://www.w3.org/1999/xlink">
<g id="graph0" class="graph" transform="scale(1 1) rotate(0) translate(4 316)">
<title>MTQueue::push</title>
<polygon fill="white" stroke="none" points="-4,4 -4,-316 414,-316 414,4 -4,4"/>
<!-- Node1 -->
<g id="node1" class="node"><title>Node1</title>
<polygon fill="#bfbfbf" stroke="black" points="0,-104 0,-123 90,-123 90,-104 0,-104"/>
<text text-anchor="middle" x="45" y="-111" font-family="Helvetica,sans-Serif" font-size="10.00">MTQueue::push</text>
</g>
<!-- Node2 -->
<g id="node2" class="node"><title>Node2</title>
<g id="a_node2"><a xlink:href="classpfp_1_1core_1_1PFPObject.html#a04e6dd971750758a0706c6a73fd77021" target="_top" xlink:title="Notify all attached observers when a counter is changed. ">
<polygon fill="white" stroke="black" points="126,-220.5 126,-250.5 261,-250.5 261,-220.5 126,-220.5"/>
<text text-anchor="start" x="134" y="-238.5" font-family="Helvetica,sans-Serif" font-size="10.00">pfp::core::PFPObject</text>
<text text-anchor="middle" x="193.5" y="-227.5" font-family="Helvetica,sans-Serif" font-size="10.00">::notify_counter_changed</text>
</a>
</g>
</g>
<!-- Node1&#45;&gt;Node2 -->
<g id="edge1" class="edge"><title>Node1&#45;&gt;Node2</title>
<path fill="none" stroke="midnightblue" d="M62.9386,-130.299C78.77,-145.722 103.308,-168.93 126,-187.5 140.215,-199.133 156.989,-211.23 170.135,-220.37"/>
<polygon fill="midnightblue" stroke="midnightblue" points="65.0983,-127.514 55.5093,-123.008 60.1956,-132.511 65.0983,-127.514"/>
</g>
<!-- Node6 -->
<g id="node6" class="node"><title>Node6</title>
<g id="a_node6"><a xlink:href="classpfp_1_1core_1_1PFPObject.html#ac8a70a449f6774597968f0b33d0594b4" target="_top" xlink:title="Notify all attached observers when a counter is removed from the PFPObject. ">
<polygon fill="white" stroke="black" points="126,-147.5 126,-177.5 261,-177.5 261,-147.5 126,-147.5"/>
<text text-anchor="start" x="134" y="-165.5" font-family="Helvetica,sans-Serif" font-size="10.00">pfp::core::PFPObject</text>
<text text-anchor="middle" x="193.5" y="-154.5" font-family="Helvetica,sans-Serif" font-size="10.00">::notify_counter_removed</text>
</a>
</g>
</g>
<!-- Node1&#45;&gt;Node6 -->
<g id="edge5" class="edge"><title>Node1&#45;&gt;Node6</title>
<path fill="none" stroke="midnightblue" d="M84.2973,-126.309C103.672,-132.79 127.309,-140.695 147.543,-147.463"/>
<polygon fill="midnightblue" stroke="midnightblue" points="85.1883,-122.917 74.5945,-123.064 82.9678,-129.555 85.1883,-122.917"/>
</g>
<!-- Node8 -->
<g id="node8" class="node"><title>Node8</title>
<g id="a_node8"><a xlink:href="classpfp_1_1core_1_1PFPObject.html#a32445c0f782007a69418d31fb033e6af" target="_top" xlink:title="Notify all observers of data written. ">
<polygon fill="white" stroke="black" points="138,-98.5 138,-128.5 249,-128.5 249,-98.5 138,-98.5"/>
<text text-anchor="start" x="146" y="-116.5" font-family="Helvetica,sans-Serif" font-size="10.00">pfp::core::PFPObject</text>
<text text-anchor="middle" x="193.5" y="-105.5" font-family="Helvetica,sans-Serif" font-size="10.00">::notify_data_written</text>
</a>
</g>
</g>
<!-- Node1&#45;&gt;Node8 -->
<g id="edge7" class="edge"><title>Node1&#45;&gt;Node8</title>
<path fill="none" stroke="midnightblue" d="M100.433,-113.5C112.684,-113.5 125.688,-113.5 137.944,-113.5"/>
<polygon fill="midnightblue" stroke="midnightblue" points="100.352,-110 90.3524,-113.5 100.352,-117 100.352,-110"/>
</g>
<!-- Node9 -->
<g id="node9" class="node"><title>Node9</title>
<g id="a_node9"><a xlink:href="classpfp_1_1core_1_1PFPObject.html#a5da4cf6daf35db7db9b8b2af4eddd3ff" target="_top" xlink:title="Notify all observers of data read. ">
<polygon fill="white" stroke="black" points="138,-49.5 138,-79.5 249,-79.5 249,-49.5 138,-49.5"/>
<text text-anchor="start" x="146" y="-67.5" font-family="Helvetica,sans-Serif" font-size="10.00">pfp::core::PFPObject</text>
<text text-anchor="middle" x="193.5" y="-56.5" font-family="Helvetica,sans-Serif" font-size="10.00">::notify_data_read</text>
</a>
</g>
</g>
<!-- Node1&#45;&gt;Node9 -->
<g id="edge8" class="edge"><title>Node1&#45;&gt;Node9</title>
<path fill="none" stroke="midnightblue" d="M84.2973,-100.691C103.672,-94.2103 127.309,-86.3045 147.543,-79.537"/>
<polygon fill="midnightblue" stroke="midnightblue" points="82.9678,-97.4447 74.5945,-103.936 85.1883,-104.083 82.9678,-97.4447"/>
</g>
<!-- Node10 -->
<g id="node10" class="node"><title>Node10</title>
<g id="a_node10"><a xlink:href="classpfp_1_1core_1_1PFPObject.html#a850126727b3de29f53ba4c17a1d21f7e" target="_top" xlink:title="Notify all observers of data drop. ">
<polygon fill="white" stroke="black" points="134,-0.5 134,-30.5 253,-30.5 253,-0.5 134,-0.5"/>
<text text-anchor="start" x="142" y="-18.5" font-family="Helvetica,sans-Serif" font-size="10.00">pfp::core::PFPObject</text>
<text text-anchor="middle" x="193.5" y="-7.5" font-family="Helvetica,sans-Serif" font-size="10.00">::notify_data_dropped</text>
</a>
</g>
</g>
<!-- Node1&#45;&gt;Node10 -->
<g id="edge9" class="edge"><title>Node1&#45;&gt;Node10</title>
<path fill="none" stroke="midnightblue" d="M61.3424,-95.6852C76.3788,-79.1733 100.672,-54.904 126,-39.5 131.453,-36.1835 137.435,-33.2242 143.505,-30.6136"/>
<polygon fill="midnightblue" stroke="midnightblue" points="58.3994,-93.7274 54.3666,-103.525 63.6289,-98.3807 58.3994,-93.7274"/>
</g>
<!-- Node3 -->
<g id="node3" class="node"><title>Node3</title>
<g id="a_node3"><a xlink:href="classpfp_1_1core_1_1PFPObject.html#ab8e4b5c8876e05fa30c360140534886d" target="_top" xlink:title="Set the value of a counter. ">
<polygon fill="white" stroke="black" points="298,-281.5 298,-311.5 409,-311.5 409,-281.5 298,-281.5"/>
<text text-anchor="start" x="306" y="-299.5" font-family="Helvetica,sans-Serif" font-size="10.00">pfp::core::PFPObject</text>
<text text-anchor="middle" x="353.5" y="-288.5" font-family="Helvetica,sans-Serif" font-size="10.00">::set_counter</text>
</a>
</g>
</g>
<!-- Node2&#45;&gt;Node3 -->
<g id="edge2" class="edge"><title>Node2&#45;&gt;Node3</title>
<path fill="none" stroke="midnightblue" d="M243.002,-254.226C265.672,-262.978 292.299,-273.258 313.62,-281.489"/>
<polygon fill="midnightblue" stroke="midnightblue" points="244.146,-250.915 233.556,-250.579 241.624,-257.445 244.146,-250.915"/>
</g>
<!-- Node4 -->
<g id="node4" class="node"><title>Node4</title>
<g id="a_node4"><a xlink:href="classpfp_1_1core_1_1PFPObject.html#ab222c952c3baaee7a1e1500e50b4c413" target="_top" xlink:title="Increment the specified counter. ">
<polygon fill="white" stroke="black" points="298,-232.5 298,-262.5 409,-262.5 409,-232.5 298,-232.5"/>
<text text-anchor="start" x="306" y="-250.5" font-family="Helvetica,sans-Serif" font-size="10.00">pfp::core::PFPObject</text>
<text text-anchor="middle" x="353.5" y="-239.5" font-family="Helvetica,sans-Serif" font-size="10.00">::increment_counter</text>
</a>
</g>
</g>
<!-- Node2&#45;&gt;Node4 -->
<g id="edge3" class="edge"><title>Node2&#45;&gt;Node4</title>
<path fill="none" stroke="midnightblue" d="M271.216,-241.327C280.26,-242.013 289.343,-242.703 297.992,-243.36"/>
<polygon fill="midnightblue" stroke="midnightblue" points="271.285,-237.822 261.048,-240.554 270.754,-244.802 271.285,-237.822"/>
</g>
<!-- Node5 -->
<g id="node5" class="node"><title>Node5</title>
<g id="a_node5"><a xlink:href="classpfp_1_1core_1_1PFPObject.html#a33c74496232302a3d5b794292eeda719" target="_top" xlink:title="Decrement the specified counter. ">
<polygon fill="white" stroke="black" points="297,-183.5 297,-213.5 410,-213.5 410,-183.5 297,-183.5"/>
<text text-anchor="start" x="305" y="-201.5" font-family="Helvetica,sans-Serif" font-size="10.00">pfp::core::PFPObject</text>
<text text-anchor="middle" x="353.5" y="-190.5" font-family="Helvetica,sans-Serif" font-size="10.00">::decrement_counter</text>
</a>
</g>
</g>
<!-- Node2&#45;&gt;Node5 -->
<g id="edge4" class="edge"><title>Node2&#45;&gt;Node5</title>
<path fill="none" stroke="midnightblue" d="M268.625,-218.142C278.143,-215.913 287.755,-213.662 296.906,-211.519"/>
<polygon fill="midnightblue" stroke="midnightblue" points="267.703,-214.763 258.765,-220.451 269.299,-221.578 267.703,-214.763"/>
</g>
<!-- Node7 -->
<g id="node7" class="node"><title>Node7</title>
<g id="a_node7"><a xlink:href="classpfp_1_1core_1_1PFPObject.html#a18a0e152813bd061103da5640620ae49" target="_top" xlink:title="Remove a counter from the PFPObject. ">
<polygon fill="white" stroke="black" points="298,-134.5 298,-164.5 409,-164.5 409,-134.5 298,-134.5"/>
<text text-anchor="start" x="306" y="-152.5" font-family="Helvetica,sans-Serif" font-size="10.00">pfp::core::PFPObject</text>
<text text-anchor="middle" x="353.5" y="-141.5" font-family="Helvetica,sans-Serif" font-size="10.00">::remove_counter</text>
</a>
</g>
</g>
<!-- Node6&#45;&gt;Node7 -->
<g id="edge6" class="edge"><title>Node6&#45;&gt;Node7</title>
<path fill="none" stroke="midnightblue" d="M271.216,-156.188C280.26,-155.444 289.343,-154.696 297.992,-153.985"/>
<polygon fill="midnightblue" stroke="midnightblue" points="270.728,-152.716 261.048,-157.025 271.302,-159.693 270.728,-152.716"/>
</g>
</g>
</svg>
