<?xml version="1.0" encoding="UTF-8" standalone="no"?>
<!DOCTYPE svg PUBLIC "-//W3C//DTD SVG 1.1//EN"
 "http://www.w3.org/Graphics/SVG/1.1/DTD/svg11.dtd">
<!-- Generated by graphviz version 2.38.0 (20140413.2041)
 -->
<!-- Title: /home/lemniscate/workspace/PFPSim/pfpsim/core/debugger/CPDebuggerInterface.h Pages: 1 -->
<svg width="297pt" height="418pt"
 viewBox="0.00 0.00 297.00 418.00" xmlns="http://www.w3.org/2000/svg" xmlns:xlink="http://www.w3.org/1999/xlink">
<g id="graph0" class="graph" transform="scale(1 1) rotate(0) translate(4 414)">
<title>/home/lemniscate/workspace/PFPSim/pfpsim/core/debugger/CPDebuggerInterface.h</title>
<polygon fill="white" stroke="none" points="-4,4 -4,-414 293,-414 293,4 -4,4"/>
<!-- Node1 -->
<g id="node1" class="node"><title>Node1</title>
<polygon fill="#bfbfbf" stroke="black" points="128,-368.5 128,-409.5 289,-409.5 289,-368.5 128,-368.5"/>
<text text-anchor="start" x="136" y="-397.5" font-family="Helvetica,sans-Serif" font-size="10.00">/home/lemniscate/workspace</text>
<text text-anchor="start" x="136" y="-386.5" font-family="Helvetica,sans-Serif" font-size="10.00">/PFPSim/pfpsim/core/debugger</text>
<text text-anchor="middle" x="208.5" y="-375.5" font-family="Helvetica,sans-Serif" font-size="10.00">/CPDebuggerInterface.h</text>
</g>
<!-- Node2 -->
<g id="node2" class="node"><title>Node2</title>
<g id="a_node2"><a xlink:href="DebuggerMessages_8h.html" target="_top" xlink:title="Defines the message objects that can be sent as replies to pfpdb through the DebuggerIPCServer. ">
<polygon fill="white" stroke="black" points="0,-290.5 0,-331.5 161,-331.5 161,-290.5 0,-290.5"/>
<text text-anchor="start" x="8" y="-319.5" font-family="Helvetica,sans-Serif" font-size="10.00">/home/lemniscate/workspace</text>
<text text-anchor="start" x="8" y="-308.5" font-family="Helvetica,sans-Serif" font-size="10.00">/PFPSim/pfpsim/core/debugger</text>
<text text-anchor="middle" x="80.5" y="-297.5" font-family="Helvetica,sans-Serif" font-size="10.00">/DebuggerMessages.h</text>
</a>
</g>
</g>
<!-- Node1&#45;&gt;Node2 -->
<g id="edge1" class="edge"><title>Node1&#45;&gt;Node2</title>
<path fill="none" stroke="midnightblue" d="M166.736,-363.203C149.414,-352.918 129.609,-341.159 113.351,-331.506"/>
<polygon fill="midnightblue" stroke="midnightblue" points="165.151,-366.332 175.537,-368.428 168.725,-360.313 165.151,-366.332"/>
</g>
<!-- Node3 -->
<g id="node3" class="node"><title>Node3</title>
<g id="a_node3"><a xlink:href="DebuggerIPCServer_8h.html" target="_top" xlink:title="Defines class that services requests from pfpdb. ">
<polygon fill="white" stroke="black" points="38,-212.5 38,-253.5 199,-253.5 199,-212.5 38,-212.5"/>
<text text-anchor="start" x="46" y="-241.5" font-family="Helvetica,sans-Serif" font-size="10.00">/home/lemniscate/workspace</text>
<text text-anchor="start" x="46" y="-230.5" font-family="Helvetica,sans-Serif" font-size="10.00">/PFPSim/pfpsim/core/debugger</text>
<text text-anchor="middle" x="118.5" y="-219.5" font-family="Helvetica,sans-Serif" font-size="10.00">/DebuggerIPCServer.h</text>
</a>
</g>
</g>
<!-- Node1&#45;&gt;Node3 -->
<g id="edge6" class="edge"><title>Node1&#45;&gt;Node3</title>
<path fill="none" stroke="midnightblue" d="M199.903,-358.644C193.269,-338.459 182.953,-311.518 169.5,-290 161.205,-276.731 149.601,-263.698 139.558,-253.548"/>
<polygon fill="midnightblue" stroke="midnightblue" points="196.587,-359.765 202.947,-368.238 203.259,-357.648 196.587,-359.765"/>
</g>
<!-- Node5 -->
<g id="node5" class="node"><title>Node5</title>
<g id="a_node5"><a xlink:href="DebuggerUtilities_8h_source.html" target="_top" xlink:title="/home/lemniscate/workspace\l/PFPSim/pfpsim/core/DebuggerUtilities.h">
<polygon fill="white" stroke="black" points="32,-67.5 32,-97.5 237,-97.5 237,-67.5 32,-67.5"/>
<text text-anchor="start" x="40" y="-85.5" font-family="Helvetica,sans-Serif" font-size="10.00">/home/lemniscate/workspace</text>
<text text-anchor="middle" x="134.5" y="-74.5" font-family="Helvetica,sans-Serif" font-size="10.00">/PFPSim/pfpsim/core/DebuggerUtilities.h</text>
</a>
</g>
</g>
<!-- Node1&#45;&gt;Node5 -->
<g id="edge7" class="edge"><title>Node1&#45;&gt;Node5</title>
<path fill="none" stroke="midnightblue" d="M216.66,-358.639C228.715,-309.063 245.966,-207.034 207.5,-134 199.026,-117.911 182.854,-105.924 167.881,-97.6769"/>
<polygon fill="midnightblue" stroke="midnightblue" points="213.253,-357.839 214.189,-368.392 220.038,-359.558 213.253,-357.839"/>
</g>
<!-- Node6 -->
<g id="node6" class="node"><title>Node6</title>
<g id="a_node6"><a xlink:href="pfpsim_8h_source.html" target="_top" xlink:title="/home/lemniscate/workspace\l/PFPSim/pfpsim/pfpsim.h">
<polygon fill="white" stroke="black" points="123,-0.5 123,-30.5 276,-30.5 276,-0.5 123,-0.5"/>
<text text-anchor="start" x="131" y="-18.5" font-family="Helvetica,sans-Serif" font-size="10.00">/home/lemniscate/workspace</text>
<text text-anchor="middle" x="199.5" y="-7.5" font-family="Helvetica,sans-Serif" font-size="10.00">/PFPSim/pfpsim/pfpsim.h</text>
</a>
</g>
</g>
<!-- Node1&#45;&gt;Node6 -->
<g id="edge8" class="edge"><title>Node1&#45;&gt;Node6</title>
<path fill="none" stroke="midnightblue" d="M226.557,-359.839C231.581,-351.155 236.697,-341.399 240.5,-332 257.359,-290.331 265.5,-278.95 265.5,-234 265.5,-234 265.5,-234 265.5,-154 265.5,-114.325 263.905,-102.148 245.5,-67 238.238,-53.1319 226.235,-40.1389 216.311,-30.8056"/>
<polygon fill="midnightblue" stroke="midnightblue" points="223.541,-358.063 221.413,-368.442 229.549,-361.656 223.541,-358.063"/>
</g>
<!-- Node2&#45;&gt;Node3 -->
<g id="edge2" class="edge"><title>Node2&#45;&gt;Node3</title>
<path fill="none" stroke="midnightblue" d="M94.767,-281.466C99.4287,-272.143 104.496,-262.007 108.747,-253.506"/>
<polygon fill="midnightblue" stroke="midnightblue" points="91.6276,-279.919 90.2859,-290.428 97.8886,-283.049 91.6276,-279.919"/>
</g>
<!-- Node4 -->
<g id="node4" class="node"><title>Node4</title>
<g id="a_node4"><a xlink:href="DebugObserver_8h.html" target="_top" xlink:title="Observer for simulation which maintains a record of the simulation via the DebugDataManager so that t...">
<polygon fill="white" stroke="black" points="38,-134.5 38,-175.5 199,-175.5 199,-134.5 38,-134.5"/>
<text text-anchor="start" x="46" y="-163.5" font-family="Helvetica,sans-Serif" font-size="10.00">/home/lemniscate/workspace</text>
<text text-anchor="start" x="46" y="-152.5" font-family="Helvetica,sans-Serif" font-size="10.00">/PFPSim/pfpsim/core/debugger</text>
<text text-anchor="middle" x="118.5" y="-141.5" font-family="Helvetica,sans-Serif" font-size="10.00">/DebugObserver.h</text>
</a>
</g>
</g>
<!-- Node3&#45;&gt;Node4 -->
<g id="edge3" class="edge"><title>Node3&#45;&gt;Node4</title>
<path fill="none" stroke="midnightblue" d="M118.5,-202.297C118.5,-193.301 118.5,-183.653 118.5,-175.506"/>
<polygon fill="midnightblue" stroke="midnightblue" points="115,-202.428 118.5,-212.428 122,-202.428 115,-202.428"/>
</g>
<!-- Node4&#45;&gt;Node5 -->
<g id="edge4" class="edge"><title>Node4&#45;&gt;Node5</title>
<path fill="none" stroke="midnightblue" d="M125.223,-124.376C127.302,-115.214 129.5,-105.532 131.234,-97.8916"/>
<polygon fill="midnightblue" stroke="midnightblue" points="121.757,-123.835 122.957,-134.362 128.583,-125.384 121.757,-123.835"/>
</g>
<!-- Node5&#45;&gt;Node6 -->
<g id="edge5" class="edge"><title>Node5&#45;&gt;Node6</title>
<path fill="none" stroke="midnightblue" d="M155.689,-60.3115C165.439,-50.5612 176.741,-39.259 185.423,-30.5765"/>
<polygon fill="midnightblue" stroke="midnightblue" points="153.2,-57.85 148.604,-67.396 158.15,-62.7998 153.2,-57.85"/>
</g>
</g>
</svg>
