<?xml version="1.0" encoding="UTF-8" standalone="no"?>
<!DOCTYPE svg PUBLIC "-//W3C//DTD SVG 1.1//EN"
 "http://www.w3.org/Graphics/SVG/1.1/DTD/svg11.dtd">
<!-- Generated by graphviz version 2.38.0 (20140413.2041)
 -->
<!-- Title: /home/lemniscate/workspace/PFPSim/pfpsim/core/debugger/CPDebuggerInterface.h Pages: 1 -->
<svg width="246pt" height="106pt"
 viewBox="0.00 0.00 246.00 106.00" xmlns="http://www.w3.org/2000/svg" xmlns:xlink="http://www.w3.org/1999/xlink">
<g id="graph0" class="graph" transform="scale(1 1) rotate(0) translate(4 102)">
<title>/home/lemniscate/workspace/PFPSim/pfpsim/core/debugger/CPDebuggerInterface.h</title>
<polygon fill="white" stroke="none" points="-4,4 -4,-102 242,-102 242,4 -4,4"/>
<!-- Node1 -->
<g id="node1" class="node"><title>Node1</title>
<polygon fill="#bfbfbf" stroke="black" points="34,-56.5 34,-97.5 195,-97.5 195,-56.5 34,-56.5"/>
<text text-anchor="start" x="42" y="-85.5" font-family="Helvetica,sans-Serif" font-size="10.00">/home/lemniscate/workspace</text>
<text text-anchor="start" x="42" y="-74.5" font-family="Helvetica,sans-Serif" font-size="10.00">/PFPSim/pfpsim/core/debugger</text>
<text text-anchor="middle" x="114.5" y="-63.5" font-family="Helvetica,sans-Serif" font-size="10.00">/CPDebuggerInterface.h</text>
</g>
<!-- Node2 -->
<g id="node2" class="node"><title>Node2</title>
<polygon fill="white" stroke="#bfbfbf" points="0,-0.5 0,-19.5 43,-19.5 43,-0.5 0,-0.5"/>
<text text-anchor="middle" x="21.5" y="-7.5" font-family="Helvetica,sans-Serif" font-size="10.00">string</text>
</g>
<!-- Node1&#45;&gt;Node2 -->
<g id="edge1" class="edge"><title>Node1&#45;&gt;Node2</title>
<path fill="none" stroke="midnightblue" d="M86.5969,-56.4979C72.3383,-46.5321 55.2865,-34.6142 42.2124,-25.4764"/>
<polygon fill="midnightblue" stroke="midnightblue" points="44.0813,-22.5125 33.8797,-19.6525 40.0711,-28.25 44.0813,-22.5125"/>
</g>
<!-- Node3 -->
<g id="node3" class="node"><title>Node3</title>
<polygon fill="white" stroke="#bfbfbf" points="61.5,-0.5 61.5,-19.5 107.5,-19.5 107.5,-0.5 61.5,-0.5"/>
<text text-anchor="middle" x="84.5" y="-7.5" font-family="Helvetica,sans-Serif" font-size="10.00">vector</text>
</g>
<!-- Node1&#45;&gt;Node3 -->
<g id="edge2" class="edge"><title>Node1&#45;&gt;Node3</title>
<path fill="none" stroke="midnightblue" d="M105.499,-56.4979C101.43,-47.682 96.6562,-37.3385 92.6892,-28.7432"/>
<polygon fill="midnightblue" stroke="midnightblue" points="95.862,-27.2654 88.4935,-19.6525 89.5062,-30.1988 95.862,-27.2654"/>
</g>
<!-- Node4 -->
<g id="node4" class="node"><title>Node4</title>
<polygon fill="white" stroke="#bfbfbf" points="126,-0.5 126,-19.5 163,-19.5 163,-0.5 126,-0.5"/>
<text text-anchor="middle" x="144.5" y="-7.5" font-family="Helvetica,sans-Serif" font-size="10.00">map</text>
</g>
<!-- Node1&#45;&gt;Node4 -->
<g id="edge3" class="edge"><title>Node1&#45;&gt;Node4</title>
<path fill="none" stroke="midnightblue" d="M123.501,-56.4979C127.57,-47.682 132.344,-37.3385 136.311,-28.7432"/>
<polygon fill="midnightblue" stroke="midnightblue" points="139.494,-30.1988 140.507,-19.6525 133.138,-27.2654 139.494,-30.1988"/>
</g>
<!-- Node5 -->
<g id="node5" class="node"><title>Node5</title>
<polygon fill="white" stroke="#bfbfbf" points="181,-0.5 181,-19.5 238,-19.5 238,-0.5 181,-0.5"/>
<text text-anchor="middle" x="209.5" y="-7.5" font-family="Helvetica,sans-Serif" font-size="10.00">iostream</text>
</g>
<!-- Node1&#45;&gt;Node5 -->
<g id="edge4" class="edge"><title>Node1&#45;&gt;Node5</title>
<path fill="none" stroke="midnightblue" d="M143.003,-56.4979C157.568,-46.5321 174.987,-34.6142 188.342,-25.4764"/>
<polygon fill="midnightblue" stroke="midnightblue" points="190.577,-28.188 196.854,-19.6525 186.625,-22.4108 190.577,-28.188"/>
</g>
</g>
</svg>
