<?xml version="1.0" encoding="UTF-8" standalone="no"?>
<!DOCTYPE svg PUBLIC "-//W3C//DTD SVG 1.1//EN"
 "http://www.w3.org/Graphics/SVG/1.1/DTD/svg11.dtd">
<!-- Generated by graphviz version 2.38.0 (20140413.2041)
 -->
<!-- Title: /home/lemniscate/workspace/PFPSim/pfpsim/core/debugger/DebugObserver.h Pages: 1 -->
<svg width="1300pt" height="274pt"
 viewBox="0.00 0.00 1299.61 274.00" xmlns="http://www.w3.org/2000/svg" xmlns:xlink="http://www.w3.org/1999/xlink">
<g id="graph0" class="graph" transform="scale(1 1) rotate(0) translate(4 270)">
<title>/home/lemniscate/workspace/PFPSim/pfpsim/core/debugger/DebugObserver.h</title>
<polygon fill="white" stroke="none" points="-4,4 -4,-270 1295.61,-270 1295.61,4 -4,4"/>
<!-- Node1 -->
<g id="node1" class="node"><title>Node1</title>
<polygon fill="#bfbfbf" stroke="black" points="538,-224.5 538,-265.5 699,-265.5 699,-224.5 538,-224.5"/>
<text text-anchor="start" x="546" y="-253.5" font-family="Helvetica,sans-Serif" font-size="10.00">/home/lemniscate/workspace</text>
<text text-anchor="start" x="546" y="-242.5" font-family="Helvetica,sans-Serif" font-size="10.00">/PFPSim/pfpsim/core/debugger</text>
<text text-anchor="middle" x="618.5" y="-231.5" font-family="Helvetica,sans-Serif" font-size="10.00">/DebugObserver.h</text>
</g>
<!-- Node2 -->
<g id="node2" class="node"><title>Node2</title>
<polygon fill="white" stroke="#bfbfbf" points="509,-0.5 509,-19.5 552,-19.5 552,-0.5 509,-0.5"/>
<text text-anchor="middle" x="530.5" y="-7.5" font-family="Helvetica,sans-Serif" font-size="10.00">string</text>
</g>
<!-- Node1&#45;&gt;Node2 -->
<g id="edge1" class="edge"><title>Node1&#45;&gt;Node2</title>
<path fill="none" stroke="midnightblue" d="M537.768,-234.651C455.075,-222.029 325.528,-193.569 230.5,-132 200.695,-112.689 187.236,-108.75 173.5,-76 170.062,-67.8029 167.621,-62.6668 173.5,-56 194.9,-31.7335 415.461,-17.2724 498.824,-12.6385"/>
<polygon fill="midnightblue" stroke="midnightblue" points="499.172,-16.1248 508.967,-12.0858 498.791,-9.13516 499.172,-16.1248"/>
</g>
<!-- Node3 -->
<g id="node3" class="node"><title>Node3</title>
<polygon fill="white" stroke="#bfbfbf" points="893,-0.5 893,-19.5 930,-19.5 930,-0.5 893,-0.5"/>
<text text-anchor="middle" x="911.5" y="-7.5" font-family="Helvetica,sans-Serif" font-size="10.00">map</text>
</g>
<!-- Node1&#45;&gt;Node3 -->
<g id="edge2" class="edge"><title>Node1&#45;&gt;Node3</title>
<path fill="none" stroke="midnightblue" d="M699.168,-244.629C817.897,-242.174 1043.26,-224.388 1206.5,-132 1243.33,-111.158 1264.3,-113.708 1283.5,-76 1287.53,-68.079 1289.4,-62.6521 1283.5,-56 1272.09,-43.1318 1025.72,-20.8194 940.333,-13.4443"/>
<polygon fill="midnightblue" stroke="midnightblue" points="940.553,-9.9505 930.29,-12.5819 939.954,-16.9248 940.553,-9.9505"/>
</g>
<!-- Node4 -->
<g id="node4" class="node"><title>Node4</title>
<g id="a_node4"><a xlink:href="TrType_8h_source.html" target="_top" xlink:title="../TrType.h">
<polygon fill="white" stroke="black" points="190,-56.5 190,-75.5 257,-75.5 257,-56.5 190,-56.5"/>
<text text-anchor="middle" x="223.5" y="-63.5" font-family="Helvetica,sans-Serif" font-size="10.00">../TrType.h</text>
</a>
</g>
</g>
<!-- Node1&#45;&gt;Node4 -->
<g id="edge3" class="edge"><title>Node1&#45;&gt;Node4</title>
<path fill="none" stroke="midnightblue" d="M537.953,-224.627C471.236,-206.535 375.411,-175.726 299.5,-132 276.143,-118.546 253.165,-97.5049 238.696,-83.027"/>
<polygon fill="midnightblue" stroke="midnightblue" points="241.076,-80.4554 231.584,-75.7488 236.07,-85.3474 241.076,-80.4554"/>
</g>
<!-- Node6 -->
<g id="node6" class="node"><title>Node6</title>
<g id="a_node6"><a xlink:href="PFPObserver_8h.html" target="_top" xlink:title="PFPObserver.h. ">
<polygon fill="white" stroke="black" points="0,-168.5 0,-187.5 95,-187.5 95,-168.5 0,-168.5"/>
<text text-anchor="middle" x="47.5" y="-175.5" font-family="Helvetica,sans-Serif" font-size="10.00">../PFPObserver.h</text>
</a>
</g>
</g>
<!-- Node1&#45;&gt;Node6 -->
<g id="edge6" class="edge"><title>Node1&#45;&gt;Node6</title>
<path fill="none" stroke="midnightblue" d="M537.735,-235.985C437.263,-225.813 260.52,-207.263 109.5,-188 108.195,-187.834 106.875,-187.663 105.545,-187.488"/>
<polygon fill="midnightblue" stroke="midnightblue" points="105.583,-183.962 95.2047,-186.095 104.647,-190.899 105.583,-183.962"/>
</g>
<!-- Node8 -->
<g id="node8" class="node"><title>Node8</title>
<g id="a_node8"><a xlink:href="DebuggerIPCServer_8h.html" target="_top" xlink:title="Defines class that services requests from pfpdb. ">
<polygon fill="white" stroke="black" points="559,-168.5 559,-187.5 678,-187.5 678,-168.5 559,-168.5"/>
<text text-anchor="middle" x="618.5" y="-175.5" font-family="Helvetica,sans-Serif" font-size="10.00">DebuggerIPCServer.h</text>
</a>
</g>
</g>
<!-- Node1&#45;&gt;Node8 -->
<g id="edge9" class="edge"><title>Node1&#45;&gt;Node8</title>
<path fill="none" stroke="midnightblue" d="M618.5,-224.498C618.5,-216.065 618.5,-206.235 618.5,-197.874"/>
<polygon fill="midnightblue" stroke="midnightblue" points="622,-197.652 618.5,-187.652 615,-197.653 622,-197.652"/>
</g>
<!-- Node20 -->
<g id="node20" class="node"><title>Node20</title>
<g id="a_node20"><a xlink:href="DebugDataManager_8h.html" target="_top" xlink:title="Defines class which stores any data about taht simulation that is required by pfpdb. ">
<polygon fill="white" stroke="black" points="1054.5,-112.5 1054.5,-131.5 1174.5,-131.5 1174.5,-112.5 1054.5,-112.5"/>
<text text-anchor="middle" x="1114.5" y="-119.5" font-family="Helvetica,sans-Serif" font-size="10.00">DebugDataManager.h</text>
</a>
</g>
</g>
<!-- Node1&#45;&gt;Node20 -->
<g id="edge48" class="edge"><title>Node1&#45;&gt;Node20</title>
<path fill="none" stroke="midnightblue" d="M698.466,-224.492C803.921,-198.766 985.904,-154.371 1069.78,-133.908"/>
<polygon fill="midnightblue" stroke="midnightblue" points="1070.63,-137.305 1079.52,-131.535 1068.97,-130.504 1070.63,-137.305"/>
</g>
<!-- Node22 -->
<g id="node22" class="node"><title>Node22</title>
<g id="a_node22"><a xlink:href="DebuggerPacket_8h.html" target="_top" xlink:title="Defines a class representation of a packet in the debugger context. ">
<polygon fill="white" stroke="black" points="1171,-56.5 1171,-75.5 1274,-75.5 1274,-56.5 1171,-56.5"/>
<text text-anchor="middle" x="1222.5" y="-63.5" font-family="Helvetica,sans-Serif" font-size="10.00">DebuggerPacket.h</text>
</a>
</g>
</g>
<!-- Node1&#45;&gt;Node22 -->
<g id="edge49" class="edge"><title>Node1&#45;&gt;Node22</title>
<path fill="none" stroke="midnightblue" d="M699.014,-236.129C835.826,-221.448 1106.36,-186.364 1183.5,-132 1199.6,-120.654 1210.21,-100.356 1216.24,-85.4528"/>
<polygon fill="midnightblue" stroke="midnightblue" points="1219.64,-86.3522 1219.83,-75.7592 1213.07,-83.9168 1219.64,-86.3522"/>
</g>
<!-- Node4&#45;&gt;Node2 -->
<g id="edge5" class="edge"><title>Node4&#45;&gt;Node2</title>
<path fill="none" stroke="midnightblue" d="M257.059,-58.6488C261.903,-57.7493 266.828,-56.8439 271.5,-56 353.51,-41.1877 450.301,-24.6112 499.061,-16.3235"/>
<polygon fill="midnightblue" stroke="midnightblue" points="499.721,-19.7616 508.994,-14.637 498.549,-12.8604 499.721,-19.7616"/>
</g>
<!-- Node5 -->
<g id="node5" class="node"><title>Node5</title>
<polygon fill="white" stroke="#bfbfbf" points="603,-0.5 603,-19.5 660,-19.5 660,-0.5 603,-0.5"/>
<text text-anchor="middle" x="631.5" y="-7.5" font-family="Helvetica,sans-Serif" font-size="10.00">iostream</text>
</g>
<!-- Node4&#45;&gt;Node5 -->
<g id="edge4" class="edge"><title>Node4&#45;&gt;Node5</title>
<path fill="none" stroke="midnightblue" d="M257.024,-58.4426C261.873,-57.5733 266.809,-56.7313 271.5,-56 399.393,-36.0637 432.073,-36.1386 560.5,-20 570.948,-18.6871 582.26,-17.2571 592.718,-15.9314"/>
<polygon fill="midnightblue" stroke="midnightblue" points="593.349,-19.3795 602.829,-14.6487 592.468,-12.4352 593.349,-19.3795"/>
</g>
<!-- Node6&#45;&gt;Node2 -->
<g id="edge7" class="edge"><title>Node6&#45;&gt;Node2</title>
<path fill="none" stroke="midnightblue" d="M41.8177,-168.127C34.2991,-155.165 23.0404,-130.576 32.5,-112 51.7019,-74.2919 70.0119,-71.2089 109.5,-56 180.708,-28.5741 413.326,-16.0353 498.705,-12.2755"/>
<polygon fill="midnightblue" stroke="midnightblue" points="498.987,-15.7667 508.828,-11.8408 498.687,-8.77316 498.987,-15.7667"/>
</g>
<!-- Node7 -->
<g id="node7" class="node"><title>Node7</title>
<polygon fill="white" stroke="#bfbfbf" points="41.5,-112.5 41.5,-131.5 95.5,-131.5 95.5,-112.5 41.5,-112.5"/>
<text text-anchor="middle" x="68.5" y="-119.5" font-family="Helvetica,sans-Serif" font-size="10.00">memory</text>
</g>
<!-- Node6&#45;&gt;Node7 -->
<g id="edge8" class="edge"><title>Node6&#45;&gt;Node7</title>
<path fill="none" stroke="midnightblue" d="M50.9677,-168.083C53.8117,-160.77 57.9295,-150.181 61.4598,-141.103"/>
<polygon fill="midnightblue" stroke="midnightblue" points="64.7343,-142.34 65.0968,-131.751 58.2103,-139.803 64.7343,-142.34"/>
</g>
<!-- Node8&#45;&gt;Node2 -->
<g id="edge12" class="edge"><title>Node8&#45;&gt;Node2</title>
<path fill="none" stroke="midnightblue" d="M558.88,-173.179C448.716,-164.636 220.798,-139.501 180.5,-76 175.737,-68.4948 174.629,-62.6741 180.5,-56 201.409,-32.2309 416.709,-17.5093 498.873,-12.7199"/>
<polygon fill="midnightblue" stroke="midnightblue" points="499.099,-16.2128 508.883,-12.1474 498.699,-9.22422 499.099,-16.2128"/>
</g>
<!-- Node8&#45;&gt;Node5 -->
<g id="edge13" class="edge"><title>Node8&#45;&gt;Node5</title>
<path fill="none" stroke="midnightblue" d="M558.636,-174.15C448.185,-166.802 230.117,-141.32 304.5,-56 306.861,-53.2918 506.369,-27.1889 592.559,-16.0244"/>
<polygon fill="midnightblue" stroke="midnightblue" points="593.262,-19.4627 602.73,-14.7082 592.363,-12.5206 593.262,-19.4627"/>
</g>
<!-- Node9 -->
<g id="node9" class="node"><title>Node9</title>
<polygon fill="white" stroke="#bfbfbf" points="647,-112.5 647,-131.5 750,-131.5 750,-112.5 647,-112.5"/>
<text text-anchor="middle" x="698.5" y="-119.5" font-family="Helvetica,sans-Serif" font-size="10.00">nanomsg/reqrep.h</text>
</g>
<!-- Node8&#45;&gt;Node9 -->
<g id="edge10" class="edge"><title>Node8&#45;&gt;Node9</title>
<path fill="none" stroke="midnightblue" d="M631.353,-168.324C643.716,-159.979 662.63,-147.212 677.237,-137.352"/>
<polygon fill="midnightblue" stroke="midnightblue" points="679.348,-140.15 685.679,-131.655 675.432,-134.348 679.348,-140.15"/>
</g>
<!-- Node10 -->
<g id="node10" class="node"><title>Node10</title>
<polygon fill="white" stroke="#bfbfbf" points="768,-112.5 768,-131.5 851,-131.5 851,-112.5 768,-112.5"/>
<text text-anchor="middle" x="809.5" y="-119.5" font-family="Helvetica,sans-Serif" font-size="10.00">nanomsg/nn.h</text>
</g>
<!-- Node8&#45;&gt;Node10 -->
<g id="edge11" class="edge"><title>Node8&#45;&gt;Node10</title>
<path fill="none" stroke="midnightblue" d="M648.765,-168.444C681.455,-159.201 733.682,-144.436 769.683,-134.257"/>
<polygon fill="midnightblue" stroke="midnightblue" points="770.706,-137.605 779.377,-131.516 768.802,-130.869 770.706,-137.605"/>
</g>
<!-- Node11 -->
<g id="node11" class="node"><title>Node11</title>
<polygon fill="white" stroke="#bfbfbf" points="869,-112.5 869,-131.5 916,-131.5 916,-112.5 869,-112.5"/>
<text text-anchor="middle" x="892.5" y="-119.5" font-family="Helvetica,sans-Serif" font-size="10.00">thread</text>
</g>
<!-- Node8&#45;&gt;Node11 -->
<g id="edge14" class="edge"><title>Node8&#45;&gt;Node11</title>
<path fill="none" stroke="midnightblue" d="M670.937,-168.479C717.728,-160.59 788.297,-147.99 858.818,-132"/>
<polygon fill="midnightblue" stroke="midnightblue" points="859.799,-135.366 868.765,-129.722 858.236,-128.543 859.799,-135.366"/>
</g>
<!-- Node12 -->
<g id="node12" class="node"><title>Node12</title>
<polygon fill="white" stroke="#bfbfbf" points="937.5,-56.5 937.5,-75.5 981.5,-75.5 981.5,-56.5 937.5,-56.5"/>
<text text-anchor="middle" x="959.5" y="-63.5" font-family="Helvetica,sans-Serif" font-size="10.00">mutex</text>
</g>
<!-- Node8&#45;&gt;Node12 -->
<g id="edge15" class="edge"><title>Node8&#45;&gt;Node12</title>
<path fill="none" stroke="midnightblue" d="M618.252,-168.26C618.368,-154.07 620.857,-126.185 637.5,-112 686.253,-70.4492 860.537,-87.7892 923.5,-76 924.747,-75.7666 926.015,-75.5158 927.293,-75.2518"/>
<polygon fill="midnightblue" stroke="midnightblue" points="928.138,-78.6492 937.123,-73.0349 926.598,-71.8207 928.138,-78.6492"/>
</g>
<!-- Node13 -->
<g id="node13" class="node"><title>Node13</title>
<polygon fill="white" stroke="#bfbfbf" points="934.5,-112.5 934.5,-131.5 1036.5,-131.5 1036.5,-112.5 934.5,-112.5"/>
<text text-anchor="middle" x="985.5" y="-119.5" font-family="Helvetica,sans-Serif" font-size="10.00">condition_variable</text>
</g>
<!-- Node8&#45;&gt;Node13 -->
<g id="edge16" class="edge"><title>Node8&#45;&gt;Node13</title>
<path fill="none" stroke="midnightblue" d="M676.594,-168.465C735.982,-159.738 831.189,-145.743 924.1,-132.058"/>
<polygon fill="midnightblue" stroke="midnightblue" points="924.862,-135.484 934.245,-130.564 923.842,-128.559 924.862,-135.484"/>
</g>
<!-- Node14 -->
<g id="node14" class="node"><title>Node14</title>
<g id="a_node14"><a xlink:href="DebuggerMessages_8h.html" target="_top" xlink:title="Defines the message objects that can be sent as replies to pfpdb through the DebuggerIPCServer. ">
<polygon fill="white" stroke="black" points="433,-112.5 433,-131.5 552,-131.5 552,-112.5 433,-112.5"/>
<text text-anchor="middle" x="492.5" y="-119.5" font-family="Helvetica,sans-Serif" font-size="10.00">DebuggerMessages.h</text>
</a>
</g>
</g>
<!-- Node8&#45;&gt;Node14 -->
<g id="edge17" class="edge"><title>Node8&#45;&gt;Node14</title>
<path fill="none" stroke="midnightblue" d="M598.535,-168.444C577.891,-159.596 545.437,-145.687 521.868,-135.586"/>
<polygon fill="midnightblue" stroke="midnightblue" points="522.942,-132.239 512.372,-131.516 520.184,-138.673 522.942,-132.239"/>
</g>
<!-- Node16 -->
<g id="node16" class="node"><title>Node16</title>
<polygon fill="white" stroke="#bfbfbf" points="313.5,-56.5 313.5,-75.5 469.5,-75.5 469.5,-56.5 313.5,-56.5"/>
<text text-anchor="middle" x="391.5" y="-63.5" font-family="Helvetica,sans-Serif" font-size="10.00">../proto/PFPSimDebugger.pb.h</text>
</g>
<!-- Node8&#45;&gt;Node16 -->
<g id="edge47" class="edge"><title>Node8&#45;&gt;Node16</title>
<path fill="none" stroke="midnightblue" d="M558.601,-176.298C516.761,-172.91 461.761,-162.316 423.5,-132 408.888,-120.422 400.469,-100.462 395.97,-85.7067"/>
<polygon fill="midnightblue" stroke="midnightblue" points="399.244,-84.4038 393.256,-75.663 392.486,-86.2298 399.244,-84.4038"/>
</g>
<!-- Node19 -->
<g id="node19" class="node"><title>Node19</title>
<g id="a_node19"><a xlink:href="CPDebuggerInterface_8h.html" target="_top" xlink:title="Defines an interface to be implemented by Control Plane modules for compatibility with the debugger...">
<polygon fill="white" stroke="black" points="754,-56.5 754,-75.5 881,-75.5 881,-56.5 754,-56.5"/>
<text text-anchor="middle" x="817.5" y="-63.5" font-family="Helvetica,sans-Serif" font-size="10.00">CPDebuggerInterface.h</text>
</a>
</g>
</g>
<!-- Node8&#45;&gt;Node19 -->
<g id="edge46" class="edge"><title>Node8&#45;&gt;Node19</title>
<path fill="none" stroke="midnightblue" d="M612.626,-168.382C604.208,-154.859 591.123,-128.498 604.5,-112 613.754,-100.587 690.358,-86.4351 749.076,-77.0831"/>
<polygon fill="midnightblue" stroke="midnightblue" points="749.737,-80.5223 759.071,-75.5097 748.648,-73.6075 749.737,-80.5223"/>
</g>
<!-- Node8&#45;&gt;Node20 -->
<g id="edge34" class="edge"><title>Node8&#45;&gt;Node20</title>
<path fill="none" stroke="midnightblue" d="M678.308,-171.167C758.922,-163.201 907.189,-148.182 1044.05,-132.147"/>
<polygon fill="midnightblue" stroke="midnightblue" points="1044.78,-135.585 1054.3,-130.941 1043.96,-128.633 1044.78,-135.585"/>
</g>
<!-- Node14&#45;&gt;Node2 -->
<g id="edge18" class="edge"><title>Node14&#45;&gt;Node2</title>
<path fill="none" stroke="midnightblue" d="M495.482,-112.368C501.642,-94.5366 515.889,-53.2953 524.188,-29.2717"/>
<polygon fill="midnightblue" stroke="midnightblue" points="527.575,-30.1862 527.532,-19.5914 520.959,-27.9005 527.575,-30.1862"/>
</g>
<!-- Node14&#45;&gt;Node5 -->
<g id="edge20" class="edge"><title>Node14&#45;&gt;Node5</title>
<path fill="none" stroke="midnightblue" d="M544.551,-112.482C568.202,-106.119 594.789,-95.0795 612.5,-76 624.113,-63.4895 628.665,-44.2624 630.43,-29.9611"/>
<polygon fill="midnightblue" stroke="midnightblue" points="633.936,-30.0392 631.329,-19.7702 626.963,-29.4237 633.936,-30.0392"/>
</g>
<!-- Node15 -->
<g id="node15" class="node"><title>Node15</title>
<polygon fill="white" stroke="#bfbfbf" points="1042.5,-0.5 1042.5,-19.5 1088.5,-19.5 1088.5,-0.5 1042.5,-0.5"/>
<text text-anchor="middle" x="1065.5" y="-7.5" font-family="Helvetica,sans-Serif" font-size="10.00">vector</text>
</g>
<!-- Node14&#45;&gt;Node15 -->
<g id="edge19" class="edge"><title>Node14&#45;&gt;Node15</title>
<path fill="none" stroke="midnightblue" d="M552.23,-116.874C647.13,-109.874 827.913,-94.6041 889.5,-76 908.147,-70.3671 910.525,-63.5069 928.5,-56 963.271,-41.4787 1004.51,-28.4771 1032.6,-20.2281"/>
<polygon fill="midnightblue" stroke="midnightblue" points="1033.68,-23.5573 1042.31,-17.4099 1031.73,-16.8345 1033.68,-23.5573"/>
</g>
<!-- Node14&#45;&gt;Node16 -->
<g id="edge21" class="edge"><title>Node14&#45;&gt;Node16</title>
<path fill="none" stroke="midnightblue" d="M476.273,-112.324C460.149,-103.703 435.2,-90.3643 416.536,-80.3855"/>
<polygon fill="midnightblue" stroke="midnightblue" points="418.156,-77.283 407.687,-75.6545 414.856,-83.456 418.156,-77.283"/>
</g>
<!-- Node17 -->
<g id="node17" class="node"><title>Node17</title>
<g id="a_node17"><a xlink:href="Breakpoint_8h.html" target="_top" xlink:title="Defines a class representation of a breakpoint. ">
<polygon fill="white" stroke="black" points="659.5,-56.5 659.5,-75.5 735.5,-75.5 735.5,-56.5 659.5,-56.5"/>
<text text-anchor="middle" x="697.5" y="-63.5" font-family="Helvetica,sans-Serif" font-size="10.00">Breakpoint.h</text>
</a>
</g>
</g>
<!-- Node14&#45;&gt;Node17 -->
<g id="edge22" class="edge"><title>Node14&#45;&gt;Node17</title>
<path fill="none" stroke="midnightblue" d="M524.983,-112.444C560.22,-103.162 616.604,-88.3093 655.259,-78.127"/>
<polygon fill="midnightblue" stroke="midnightblue" points="656.391,-81.4483 665.169,-75.5164 654.607,-74.6792 656.391,-81.4483"/>
</g>
<!-- Node18 -->
<g id="node18" class="node"><title>Node18</title>
<g id="a_node18"><a xlink:href="Watchpoint_8h.html" target="_top" xlink:title="Defines a class representation of a watchpoint for the debugger. ">
<polygon fill="white" stroke="black" points="525.5,-56.5 525.5,-75.5 603.5,-75.5 603.5,-56.5 525.5,-56.5"/>
<text text-anchor="middle" x="564.5" y="-63.5" font-family="Helvetica,sans-Serif" font-size="10.00">Watchpoint.h</text>
</a>
</g>
</g>
<!-- Node14&#45;&gt;Node18 -->
<g id="edge26" class="edge"><title>Node14&#45;&gt;Node18</title>
<path fill="none" stroke="midnightblue" d="M504.068,-112.324C514.92,-104.185 531.381,-91.8395 544.383,-82.0874"/>
<polygon fill="midnightblue" stroke="midnightblue" points="546.821,-84.6339 552.721,-75.8339 542.621,-79.0339 546.821,-84.6339"/>
</g>
<!-- Node14&#45;&gt;Node19 -->
<g id="edge29" class="edge"><title>Node14&#45;&gt;Node19</title>
<path fill="none" stroke="midnightblue" d="M543.997,-112.444C601.644,-102.865 694.99,-87.3556 756.312,-77.1667"/>
<polygon fill="midnightblue" stroke="midnightblue" points="756.953,-80.6082 766.244,-75.5164 755.805,-73.7029 756.953,-80.6082"/>
</g>
<!-- Node17&#45;&gt;Node2 -->
<g id="edge23" class="edge"><title>Node17&#45;&gt;Node2</title>
<path fill="none" stroke="midnightblue" d="M671.038,-56.4435C641.328,-46.8366 593.163,-31.2622 561.657,-21.0749"/>
<polygon fill="midnightblue" stroke="midnightblue" points="562.65,-17.7175 552.058,-17.971 560.496,-24.378 562.65,-17.7175"/>
</g>
<!-- Node17&#45;&gt;Node3 -->
<g id="edge25" class="edge"><title>Node17&#45;&gt;Node3</title>
<path fill="none" stroke="midnightblue" d="M731.409,-56.4435C773.386,-45.8512 844.111,-28.0046 883.274,-18.1225"/>
<polygon fill="midnightblue" stroke="midnightblue" points="884.134,-21.5153 892.973,-15.6749 882.421,-14.728 884.134,-21.5153"/>
</g>
<!-- Node17&#45;&gt;Node5 -->
<g id="edge24" class="edge"><title>Node17&#45;&gt;Node5</title>
<path fill="none" stroke="midnightblue" d="M686.896,-56.324C677.044,-48.2631 662.149,-36.0765 650.285,-26.3695"/>
<polygon fill="midnightblue" stroke="midnightblue" points="652.253,-23.4575 642.297,-19.8339 647.82,-28.8752 652.253,-23.4575"/>
</g>
<!-- Node18&#45;&gt;Node2 -->
<g id="edge27" class="edge"><title>Node18&#45;&gt;Node2</title>
<path fill="none" stroke="midnightblue" d="M558.886,-56.083C554.133,-48.5341 547.182,-37.4948 541.348,-28.2298"/>
<polygon fill="midnightblue" stroke="midnightblue" points="544.3,-26.3486 536.01,-19.7511 538.376,-30.0783 544.3,-26.3486"/>
</g>
<!-- Node18&#45;&gt;Node5 -->
<g id="edge28" class="edge"><title>Node18&#45;&gt;Node5</title>
<path fill="none" stroke="midnightblue" d="M575.265,-56.324C585.266,-48.2631 600.387,-36.0765 612.43,-26.3695"/>
<polygon fill="midnightblue" stroke="midnightblue" points="614.95,-28.8343 620.539,-19.8339 610.557,-23.3841 614.95,-28.8343"/>
</g>
<!-- Node19&#45;&gt;Node2 -->
<g id="edge30" class="edge"><title>Node19&#45;&gt;Node2</title>
<path fill="none" stroke="midnightblue" d="M772.024,-56.4435C713.442,-45.4211 613.109,-26.5431 562.171,-16.9589"/>
<polygon fill="midnightblue" stroke="midnightblue" points="562.558,-13.4705 552.084,-15.061 561.264,-20.3498 562.558,-13.4705"/>
</g>
<!-- Node19&#45;&gt;Node3 -->
<g id="edge32" class="edge"><title>Node19&#45;&gt;Node3</title>
<path fill="none" stroke="midnightblue" d="M832.603,-56.324C847.403,-47.8215 870.194,-34.7288 887.482,-24.7975"/>
<polygon fill="midnightblue" stroke="midnightblue" points="889.507,-27.6707 896.435,-19.6545 886.02,-21.6009 889.507,-27.6707"/>
</g>
<!-- Node19&#45;&gt;Node5 -->
<g id="edge33" class="edge"><title>Node19&#45;&gt;Node5</title>
<path fill="none" stroke="midnightblue" d="M788.028,-56.4435C756.142,-47.1865 705.172,-32.3888 670.108,-22.2089"/>
<polygon fill="midnightblue" stroke="midnightblue" points="670.803,-18.766 660.223,-19.339 668.851,-25.4884 670.803,-18.766"/>
</g>
<!-- Node19&#45;&gt;Node15 -->
<g id="edge31" class="edge"><title>Node19&#45;&gt;Node15</title>
<path fill="none" stroke="midnightblue" d="M856.796,-56.4435C905.326,-45.8765 987.014,-28.0897 1032.46,-18.1934"/>
<polygon fill="midnightblue" stroke="midnightblue" points="1033.37,-21.579 1042.39,-16.0315 1031.88,-14.7393 1033.37,-21.579"/>
</g>
<!-- Node20&#45;&gt;Node2 -->
<g id="edge36" class="edge"><title>Node20&#45;&gt;Node2</title>
<path fill="none" stroke="midnightblue" d="M1096.14,-112.487C1077.59,-103.756 1048.22,-89.5704 1023.5,-76 1008.47,-67.747 1006.79,-61.3565 990.5,-56 822.195,-0.664388 769.474,-40.5345 593.5,-20 583.238,-18.8025 572.066,-17.2789 562.019,-15.8272"/>
<polygon fill="midnightblue" stroke="midnightblue" points="562.444,-12.3522 552.041,-14.3572 561.424,-19.2775 562.444,-12.3522"/>
</g>
<!-- Node20&#45;&gt;Node3 -->
<g id="edge39" class="edge"><title>Node20&#45;&gt;Node3</title>
<path fill="none" stroke="midnightblue" d="M1109.83,-112.453C1101.79,-98.5422 1084.02,-71.0475 1061.5,-56 1023.93,-30.8919 971.913,-19.4179 940.047,-14.4579"/>
<polygon fill="midnightblue" stroke="midnightblue" points="940.461,-10.9814 930.064,-13.0153 939.46,-17.9095 940.461,-10.9814"/>
</g>
<!-- Node20&#45;&gt;Node5 -->
<g id="edge38" class="edge"><title>Node20&#45;&gt;Node5</title>
<path fill="none" stroke="midnightblue" d="M1105.86,-112.452C1090.67,-98.0176 1057.57,-69.1062 1023.5,-56 959.517,-31.384 755.962,-17.7522 670.193,-12.9759"/>
<polygon fill="midnightblue" stroke="midnightblue" points="670.271,-9.47505 660.095,-12.4244 669.889,-16.4646 670.271,-9.47505"/>
</g>
<!-- Node20&#45;&gt;Node12 -->
<g id="edge35" class="edge"><title>Node20&#45;&gt;Node12</title>
<path fill="none" stroke="midnightblue" d="M1089.94,-112.444C1063.37,-103.186 1020.89,-88.3866 991.667,-78.2066"/>
<polygon fill="midnightblue" stroke="midnightblue" points="992.527,-74.7999 981.932,-74.8151 990.224,-81.4103 992.527,-74.7999"/>
</g>
<!-- Node20&#45;&gt;Node15 -->
<g id="edge37" class="edge"><title>Node20&#45;&gt;Node15</title>
<path fill="none" stroke="midnightblue" d="M1174.7,-117.549C1235.61,-111.777 1316.46,-96.4572 1283.5,-56 1260.57,-27.8527 1153.87,-16.7821 1098.71,-12.8838"/>
<polygon fill="midnightblue" stroke="midnightblue" points="1098.94,-9.39118 1088.73,-12.2168 1098.47,-16.3756 1098.94,-9.39118"/>
</g>
<!-- Node20&#45;&gt;Node17 -->
<g id="edge41" class="edge"><title>Node20&#45;&gt;Node17</title>
<path fill="none" stroke="midnightblue" d="M1054.29,-113.109C1051.32,-112.731 1048.38,-112.36 1045.5,-112 915.073,-95.6948 879.362,-96.625 745.888,-76.1234"/>
<polygon fill="midnightblue" stroke="midnightblue" points="746.098,-72.6143 735.681,-74.5433 745.027,-79.532 746.098,-72.6143"/>
</g>
<!-- Node20&#45;&gt;Node18 -->
<g id="edge42" class="edge"><title>Node20&#45;&gt;Node18</title>
<path fill="none" stroke="midnightblue" d="M1054.31,-113.009C1051.33,-112.658 1048.38,-112.319 1045.5,-112 870.288,-92.5962 825.945,-93.1744 650.5,-76 638.713,-74.8462 626.024,-73.5488 614.108,-72.3059"/>
<polygon fill="midnightblue" stroke="midnightblue" points="614.188,-68.7952 603.877,-71.2327 613.457,-75.757 614.188,-68.7952"/>
</g>
<!-- Node21 -->
<g id="node21" class="node"><title>Node21</title>
<polygon fill="white" stroke="#bfbfbf" points="1114,-56.5 1114,-75.5 1153,-75.5 1153,-56.5 1114,-56.5"/>
<text text-anchor="middle" x="1133.5" y="-63.5" font-family="Helvetica,sans-Serif" font-size="10.00">tuple</text>
</g>
<!-- Node20&#45;&gt;Node21 -->
<g id="edge40" class="edge"><title>Node20&#45;&gt;Node21</title>
<path fill="none" stroke="midnightblue" d="M1117.64,-112.083C1120.18,-104.849 1123.86,-94.4087 1127.03,-85.3968"/>
<polygon fill="midnightblue" stroke="midnightblue" points="1130.4,-86.3459 1130.42,-75.7511 1123.8,-84.0225 1130.4,-86.3459"/>
</g>
<!-- Node20&#45;&gt;Node22 -->
<g id="edge43" class="edge"><title>Node20&#45;&gt;Node22</title>
<path fill="none" stroke="midnightblue" d="M1131.85,-112.324C1149.17,-103.664 1176.02,-90.2424 1196,-80.249"/>
<polygon fill="midnightblue" stroke="midnightblue" points="1197.81,-83.2572 1205.19,-75.6545 1194.68,-76.9962 1197.81,-83.2572"/>
</g>
<!-- Node22&#45;&gt;Node2 -->
<g id="edge44" class="edge"><title>Node22&#45;&gt;Node2</title>
<path fill="none" stroke="midnightblue" d="M1170.83,-56.9615C1168.01,-56.6137 1165.22,-56.2899 1162.5,-56 910.529,-29.181 845.564,-45.9378 593.5,-20 583.222,-18.9424 572.046,-17.4565 562,-15.9963"/>
<polygon fill="midnightblue" stroke="midnightblue" points="562.433,-12.5222 552.025,-14.5031 561.397,-19.4451 562.433,-12.5222"/>
</g>
<!-- Node22&#45;&gt;Node15 -->
<g id="edge45" class="edge"><title>Node22&#45;&gt;Node15</title>
<path fill="none" stroke="midnightblue" d="M1197.62,-56.4435C1170.74,-47.1988 1127.8,-32.4281 1098.21,-22.2495"/>
<polygon fill="midnightblue" stroke="midnightblue" points="1099.32,-18.9312 1088.73,-18.9883 1097.04,-25.5506 1099.32,-18.9312"/>
</g>
</g>
</svg>
