<?xml version="1.0" encoding="UTF-8" standalone="no"?>
<!DOCTYPE svg PUBLIC "-//W3C//DTD SVG 1.1//EN"
 "http://www.w3.org/Graphics/SVG/1.1/DTD/svg11.dtd">
<!-- Generated by graphviz version 2.38.0 (20140413.2041)
 -->
<!-- Title: /home/lemniscate/workspace/PFPSim/pfpsim/core/debugger/DebugDataManager.h Pages: 1 -->
<!--zoomable 162 -->
<svg id="main" version="1.1" xmlns="http://www.w3.org/2000/svg" xmlns:xlink="http://www.w3.org/1999/xlink" xml:space="preserve" onload="init(evt)">
<style type="text/css"><![CDATA[
.edge:hover path { stroke: red; }
.edge:hover polygon { stroke: red; fill: red; }
]]></style>
<script type="text/javascript"><![CDATA[
var edges = document.getElementsByTagName('g');
if (edges && edges.length) {
  for (var i=0;i<edges.length;i++) {
    if (edges[i].id.substr(0,4)=='edge') {
      edges[i].setAttribute('class','edge');
    }
  }
}
]]></script>
        <defs>
                <circle id="rim" cx="0" cy="0" r="7"/>
                <circle id="rim2" cx="0" cy="0" r="3.5"/>
                <g id="zoomPlus">
                        <use xlink:href="#rim" fill="#404040">
                                <set attributeName="fill" to="#808080" begin="zoomplus.mouseover" end="zoomplus.mouseout"/>
                        </use>
                        <path d="M-4,0h8M0,-4v8" fill="none" stroke="white" stroke-width="1.5" pointer-events="none"/>
                </g>
                <g id="zoomMin">
                        <use xlink:href="#rim" fill="#404040">
                                <set attributeName="fill" to="#808080" begin="zoomminus.mouseover" end="zoomminus.mouseout"/>
                        </use>
                        <path d="M-4,0h8" fill="none" stroke="white" stroke-width="1.5" pointer-events="none"/>
                </g>
                <g id="dirArrow">
                        <path fill="none" stroke="white" stroke-width="1.5" d="M0,-3.0v7 M-2.5,-0.5L0,-3.0L2.5,-0.5"/>
                </g>
               <g id="resetDef">
                       <use xlink:href="#rim2" fill="#404040">
                               <set attributeName="fill" to="#808080" begin="reset.mouseover" end="reset.mouseout"/>
                       </use>
               </g>
        </defs>

<script type="text/javascript">
var viewWidth = 574;
var viewHeight = 162;
var sectionId = 'dynsection-0';
</script>
<script xlink:href="svgpan.js"/>
<svg id="graph" class="graph">
<g id="viewport">
<title>/home/lemniscate/workspace/PFPSim/pfpsim/core/debugger/DebugDataManager.h</title>
<polygon fill="white" stroke="none" points="-4,4 -4,-158 569.5,-158 569.5,4 -4,4"/>
<!-- Node1 -->
<g id="node1" class="node"><title>Node1</title>
<polygon fill="#bfbfbf" stroke="black" points="219.5,-112.5 219.5,-153.5 380.5,-153.5 380.5,-112.5 219.5,-112.5"/>
<text text-anchor="start" x="227.5" y="-141.5" font-family="Helvetica,sans-Serif" font-size="10.00">/home/lemniscate/workspace</text>
<text text-anchor="start" x="227.5" y="-130.5" font-family="Helvetica,sans-Serif" font-size="10.00">/PFPSim/pfpsim/core/debugger</text>
<text text-anchor="middle" x="300" y="-119.5" font-family="Helvetica,sans-Serif" font-size="10.00">/DebugDataManager.h</text>
</g>
<!-- Node2 -->
<g id="node2" class="node"><title>Node2</title>
<polygon fill="white" stroke="#bfbfbf" points="0,-56.5 0,-75.5 44,-75.5 44,-56.5 0,-56.5"/>
<text text-anchor="middle" x="22" y="-63.5" font-family="Helvetica,sans-Serif" font-size="10.00">mutex</text>
</g>
<!-- Node1&#45;&gt;Node2 -->
<g id="edge1" class="edge"><title>Node1&#45;&gt;Node2</title>
<path fill="none" stroke="midnightblue" d="M219.25,-113.687C172.166,-102.917 111.666,-88.9166 58,-76 56.7316,-75.6947 55.4387,-75.3814 54.133,-75.0633"/>
<polygon fill="midnightblue" stroke="midnightblue" points="54.6168,-71.5779 44.0697,-72.5825 52.9412,-78.3744 54.6168,-71.5779"/>
</g>
<!-- Node3 -->
<g id="node3" class="node"><title>Node3</title>
<polygon fill="white" stroke="#bfbfbf" points="219.5,-0.5 219.5,-19.5 262.5,-19.5 262.5,-0.5 219.5,-0.5"/>
<text text-anchor="middle" x="241" y="-7.5" font-family="Helvetica,sans-Serif" font-size="10.00">string</text>
</g>
<!-- Node1&#45;&gt;Node3 -->
<g id="edge2" class="edge"><title>Node1&#45;&gt;Node3</title>
<path fill="none" stroke="midnightblue" d="M297.727,-112.338C295.28,-96.42 290.399,-73.7998 281,-56 275.29,-45.1853 266.444,-34.8564 258.521,-26.8282"/>
<polygon fill="midnightblue" stroke="midnightblue" points="260.686,-24.0536 251.057,-19.6342 255.828,-29.0938 260.686,-24.0536"/>
</g>
<!-- Node4 -->
<g id="node4" class="node"><title>Node4</title>
<polygon fill="white" stroke="#bfbfbf" points="416,-0.5 416,-19.5 462,-19.5 462,-0.5 416,-0.5"/>
<text text-anchor="middle" x="439" y="-7.5" font-family="Helvetica,sans-Serif" font-size="10.00">vector</text>
</g>
<!-- Node1&#45;&gt;Node4 -->
<g id="edge3" class="edge"><title>Node1&#45;&gt;Node4</title>
<path fill="none" stroke="midnightblue" d="M380.745,-122.565C409.652,-114.85 439.408,-100.953 457,-76 466.977,-61.8482 459.422,-42.3574 451.26,-28.4176"/>
<polygon fill="midnightblue" stroke="midnightblue" points="454.068,-26.3125 445.721,-19.7876 448.177,-30.0938 454.068,-26.3125"/>
</g>
<!-- Node5 -->
<g id="node5" class="node"><title>Node5</title>
<polygon fill="white" stroke="#bfbfbf" points="110.5,-0.5 110.5,-19.5 167.5,-19.5 167.5,-0.5 110.5,-0.5"/>
<text text-anchor="middle" x="139" y="-7.5" font-family="Helvetica,sans-Serif" font-size="10.00">iostream</text>
</g>
<!-- Node1&#45;&gt;Node5 -->
<g id="edge4" class="edge"><title>Node1&#45;&gt;Node5</title>
<path fill="none" stroke="midnightblue" d="M219.455,-120.678C167.578,-111.548 106.95,-96.7869 91,-76 77.8633,-58.8801 97.8454,-38.865 115.888,-25.6156"/>
<polygon fill="midnightblue" stroke="midnightblue" points="118.207,-28.2674 124.436,-19.6972 114.222,-22.5122 118.207,-28.2674"/>
</g>
<!-- Node6 -->
<g id="node6" class="node"><title>Node6</title>
<polygon fill="white" stroke="#bfbfbf" points="294.5,-0.5 294.5,-19.5 331.5,-19.5 331.5,-0.5 294.5,-0.5"/>
<text text-anchor="middle" x="313" y="-7.5" font-family="Helvetica,sans-Serif" font-size="10.00">map</text>
</g>
<!-- Node1&#45;&gt;Node6 -->
<g id="edge5" class="edge"><title>Node1&#45;&gt;Node6</title>
<path fill="none" stroke="midnightblue" d="M380.854,-117.847C404.148,-109.615 427.02,-96.5939 441,-76 467.113,-37.5324 387.202,-20.6124 341.919,-14.2629"/>
<polygon fill="midnightblue" stroke="midnightblue" points="342.139,-10.7618 331.769,-12.9339 341.23,-17.7025 342.139,-10.7618"/>
</g>
<!-- Node7 -->
<g id="node7" class="node"><title>Node7</title>
<polygon fill="white" stroke="#bfbfbf" points="526.5,-56.5 526.5,-75.5 565.5,-75.5 565.5,-56.5 526.5,-56.5"/>
<text text-anchor="middle" x="546" y="-63.5" font-family="Helvetica,sans-Serif" font-size="10.00">tuple</text>
</g>
<!-- Node1&#45;&gt;Node7 -->
<g id="edge6" class="edge"><title>Node1&#45;&gt;Node7</title>
<path fill="none" stroke="midnightblue" d="M374.077,-112.443C414.786,-101.692 466.18,-88.116 512,-76 513.439,-75.6195 514.912,-75.2299 516.4,-74.8363"/>
<polygon fill="midnightblue" stroke="midnightblue" points="517.452,-78.1784 526.224,-72.2367 515.661,-71.4113 517.452,-78.1784"/>
</g>
<!-- Node8 -->
<g id="node8" class="node"><title>Node8</title>
<g id="a_node8"><a xlink:href="Breakpoint_8h.html" target="_top" xlink:title="Defines a class representation of a breakpoint. ">
<polygon fill="white" stroke="black" points="196,-56.5 196,-75.5 272,-75.5 272,-56.5 196,-56.5"/>
<text text-anchor="middle" x="234" y="-63.5" font-family="Helvetica,sans-Serif" font-size="10.00">Breakpoint.h</text>
</a>
</g>
</g>
<!-- Node1&#45;&gt;Node8 -->
<g id="edge7" class="edge"><title>Node1&#45;&gt;Node8</title>
<path fill="none" stroke="midnightblue" d="M280.198,-112.498C270.565,-103.011 259.137,-91.7557 250.056,-82.8131"/>
<polygon fill="midnightblue" stroke="midnightblue" points="252.366,-80.1757 242.786,-75.6525 247.455,-85.1631 252.366,-80.1757"/>
</g>
<!-- Node9 -->
<g id="node9" class="node"><title>Node9</title>
<g id="a_node9"><a xlink:href="Watchpoint_8h.html" target="_top" xlink:title="Defines a class representation of a watchpoint for the debugger. ">
<polygon fill="white" stroke="black" points="100,-56.5 100,-75.5 178,-75.5 178,-56.5 100,-56.5"/>
<text text-anchor="middle" x="139" y="-63.5" font-family="Helvetica,sans-Serif" font-size="10.00">Watchpoint.h</text>
</a>
</g>
</g>
<!-- Node1&#45;&gt;Node9 -->
<g id="edge11" class="edge"><title>Node1&#45;&gt;Node9</title>
<path fill="none" stroke="midnightblue" d="M251.695,-112.498C225.112,-101.766 192.921,-88.7691 169.761,-79.4192"/>
<polygon fill="midnightblue" stroke="midnightblue" points="171.015,-76.1507 160.432,-75.6525 168.394,-82.6417 171.015,-76.1507"/>
</g>
<!-- Node10 -->
<g id="node10" class="node"><title>Node10</title>
<g id="a_node10"><a xlink:href="DebuggerPacket_8h.html" target="_top" xlink:title="Defines a class representation of a packet in the debugger context. ">
<polygon fill="white" stroke="black" points="328.5,-56.5 328.5,-75.5 431.5,-75.5 431.5,-56.5 328.5,-56.5"/>
<text text-anchor="middle" x="380" y="-63.5" font-family="Helvetica,sans-Serif" font-size="10.00">DebuggerPacket.h</text>
</a>
</g>
</g>
<!-- Node1&#45;&gt;Node10 -->
<g id="edge14" class="edge"><title>Node1&#45;&gt;Node10</title>
<path fill="none" stroke="midnightblue" d="M324.003,-112.498C336.032,-102.724 350.373,-91.0719 361.53,-82.0066"/>
<polygon fill="midnightblue" stroke="midnightblue" points="363.797,-84.6749 369.351,-75.6525 359.383,-79.242 363.797,-84.6749"/>
</g>
<!-- Node8&#45;&gt;Node3 -->
<g id="edge8" class="edge"><title>Node8&#45;&gt;Node3</title>
<path fill="none" stroke="midnightblue" d="M235.156,-56.083C236.084,-48.9272 237.418,-38.6353 238.577,-29.6911"/>
<polygon fill="midnightblue" stroke="midnightblue" points="242.051,-30.1181 239.866,-19.7511 235.109,-29.2181 242.051,-30.1181"/>
</g>
<!-- Node8&#45;&gt;Node5 -->
<g id="edge9" class="edge"><title>Node8&#45;&gt;Node5</title>
<path fill="none" stroke="midnightblue" d="M218.737,-56.324C203.779,-47.8215 180.745,-34.7288 163.273,-24.7975"/>
<polygon fill="midnightblue" stroke="midnightblue" points="164.649,-21.5534 154.226,-19.6545 161.19,-27.639 164.649,-21.5534"/>
</g>
<!-- Node8&#45;&gt;Node6 -->
<g id="edge10" class="edge"><title>Node8&#45;&gt;Node6</title>
<path fill="none" stroke="midnightblue" d="M246.693,-56.324C258.901,-47.979 277.578,-35.2122 292.003,-25.3524"/>
<polygon fill="midnightblue" stroke="midnightblue" points="294.058,-28.1871 300.339,-19.6545 290.108,-22.4082 294.058,-28.1871"/>
</g>
<!-- Node9&#45;&gt;Node3 -->
<g id="edge12" class="edge"><title>Node9&#45;&gt;Node3</title>
<path fill="none" stroke="midnightblue" d="M155.388,-56.324C171.671,-47.7034 196.867,-34.3643 215.716,-24.3855"/>
<polygon fill="midnightblue" stroke="midnightblue" points="217.452,-27.4267 224.653,-19.6545 214.177,-21.2402 217.452,-27.4267"/>
</g>
<!-- Node9&#45;&gt;Node5 -->
<g id="edge13" class="edge"><title>Node9&#45;&gt;Node5</title>
<path fill="none" stroke="midnightblue" d="M139,-56.083C139,-49.0059 139,-38.8611 139,-29.9865"/>
<polygon fill="midnightblue" stroke="midnightblue" points="142.5,-29.751 139,-19.7511 135.5,-29.7511 142.5,-29.751"/>
</g>
<!-- Node10&#45;&gt;Node3 -->
<g id="edge15" class="edge"><title>Node10&#45;&gt;Node3</title>
<path fill="none" stroke="midnightblue" d="M357.975,-56.4435C334.896,-47.4776 298.438,-33.314 272.359,-23.1827"/>
<polygon fill="midnightblue" stroke="midnightblue" points="273.511,-19.8753 262.922,-19.5164 270.976,-26.4002 273.511,-19.8753"/>
</g>
<!-- Node10&#45;&gt;Node4 -->
<g id="edge16" class="edge"><title>Node10&#45;&gt;Node4</title>
<path fill="none" stroke="midnightblue" d="M389.479,-56.324C398.201,-48.3414 411.343,-36.3128 421.898,-26.6529"/>
<polygon fill="midnightblue" stroke="midnightblue" points="424.334,-29.1674 429.348,-19.8339 419.608,-24.0036 424.334,-29.1674"/>
</g>
</g>
</svg>
        <g id="navigator" transform="translate(0 0)" fill="#404254">
                <rect fill="#f2f5e9" fill-opacity="0.5" stroke="#606060" stroke-width=".5" x="0" y="0" width="60" height="60"/>
                <use id="zoomplus" xlink:href="#zoomPlus" x="17" y="9" onmousedown="handleZoom(evt,'in')"/>
                <use id="zoomminus" xlink:href="#zoomMin" x="42" y="9" onmousedown="handleZoom(evt,'out')"/>
                <use id="reset" xlink:href="#resetDef" x="30" y="36" onmousedown="handleReset()"/>
                <g id="arrowUp" xlink:href="#dirArrow" transform="translate(30 24)" onmousedown="handlePan(0,-1)">
                  <use xlink:href="#rim" fill="#404040">
                        <set attributeName="fill" to="#808080" begin="arrowUp.mouseover" end="arrowUp.mouseout"/>
                  </use>
                  <path fill="none" stroke="white" stroke-width="1.5" d="M0,-3.0v7 M-2.5,-0.5L0,-3.0L2.5,-0.5"/>
                </g>
                <g id="arrowRight" xlink:href="#dirArrow" transform="rotate(90) translate(36 -43)" onmousedown="handlePan(1,0)">
                  <use xlink:href="#rim" fill="#404040">
                        <set attributeName="fill" to="#808080" begin="arrowRight.mouseover" end="arrowRight.mouseout"/>
                  </use>
                  <path fill="none" stroke="white" stroke-width="1.5" d="M0,-3.0v7 M-2.5,-0.5L0,-3.0L2.5,-0.5"/>
                </g>
                <g id="arrowDown" xlink:href="#dirArrow" transform="rotate(180) translate(-30 -48)" onmousedown="handlePan(0,1)">
                  <use xlink:href="#rim" fill="#404040">
                        <set attributeName="fill" to="#808080" begin="arrowDown.mouseover" end="arrowDown.mouseout"/>
                  </use>
                  <path fill="none" stroke="white" stroke-width="1.5" d="M0,-3.0v7 M-2.5,-0.5L0,-3.0L2.5,-0.5"/>
                </g>
                <g id="arrowLeft" xlink:href="#dirArrow" transform="rotate(270) translate(-36 17)" onmousedown="handlePan(-1,0)">
                  <use xlink:href="#rim" fill="#404040">
                        <set attributeName="fill" to="#808080" begin="arrowLeft.mouseover" end="arrowLeft.mouseout"/>
                  </use>
                  <path fill="none" stroke="white" stroke-width="1.5" d="M0,-3.0v7 M-2.5,-0.5L0,-3.0L2.5,-0.5"/>
                </g>
        </g>
        <svg viewBox="0 0 15 15" width="100%" height="30px" preserveAspectRatio="xMaxYMin meet">
         <g id="arrow_out" transform="scale(0.3 0.3)">
          <a xlink:href="DebugDataManager_8h__incl_org.svg" target="_base">
           <rect id="button" ry="5" rx="5" y="6" x="6" height="38" width="38"
                fill="#f2f5e9" fill-opacity="0.5" stroke="#606060" stroke-width="1.0"/>
           <path id="arrow"
             d="M 11.500037,31.436501 C 11.940474,20.09759 22.043105,11.32322 32.158766,21.979434 L 37.068811,17.246167 C 37.068811,17.246167 37.088388,32 37.088388,32 L 22.160133,31.978069 C 22.160133,31.978069 26.997745,27.140456 26.997745,27.140456 C 18.528582,18.264221 13.291696,25.230495 11.500037,31.436501 z"
             style="fill:#404040;"/>
          </a>
         </g>
        </svg>
</svg>
