<?xml version="1.0" encoding="UTF-8" standalone="no"?>
<!DOCTYPE svg PUBLIC "-//W3C//DTD SVG 1.1//EN"
 "http://www.w3.org/Graphics/SVG/1.1/DTD/svg11.dtd">
<!-- Generated by graphviz version 2.38.0 (20140413.2041)
 -->
<!-- Title: /home/lemniscate/workspace/PFPSim/pfpsim/core/debugger/DebuggerMessages.h Pages: 1 -->
<svg width="213pt" height="340pt"
 viewBox="0.00 0.00 213.00 340.00" xmlns="http://www.w3.org/2000/svg" xmlns:xlink="http://www.w3.org/1999/xlink">
<g id="graph0" class="graph" transform="scale(1 1) rotate(0) translate(4 336)">
<title>/home/lemniscate/workspace/PFPSim/pfpsim/core/debugger/DebuggerMessages.h</title>
<polygon fill="white" stroke="none" points="-4,4 -4,-336 209,-336 209,4 -4,4"/>
<!-- Node1 -->
<g id="node1" class="node"><title>Node1</title>
<polygon fill="#bfbfbf" stroke="black" points="22,-290.5 22,-331.5 183,-331.5 183,-290.5 22,-290.5"/>
<text text-anchor="start" x="30" y="-319.5" font-family="Helvetica,sans-Serif" font-size="10.00">/home/lemniscate/workspace</text>
<text text-anchor="start" x="30" y="-308.5" font-family="Helvetica,sans-Serif" font-size="10.00">/PFPSim/pfpsim/core/debugger</text>
<text text-anchor="middle" x="102.5" y="-297.5" font-family="Helvetica,sans-Serif" font-size="10.00">/DebuggerMessages.h</text>
</g>
<!-- Node2 -->
<g id="node2" class="node"><title>Node2</title>
<g id="a_node2"><a xlink:href="DebuggerIPCServer_8h.html" target="_top" xlink:title="Defines class that services requests from pfpdb. ">
<polygon fill="white" stroke="black" points="22,-212.5 22,-253.5 183,-253.5 183,-212.5 22,-212.5"/>
<text text-anchor="start" x="30" y="-241.5" font-family="Helvetica,sans-Serif" font-size="10.00">/home/lemniscate/workspace</text>
<text text-anchor="start" x="30" y="-230.5" font-family="Helvetica,sans-Serif" font-size="10.00">/PFPSim/pfpsim/core/debugger</text>
<text text-anchor="middle" x="102.5" y="-219.5" font-family="Helvetica,sans-Serif" font-size="10.00">/DebuggerIPCServer.h</text>
</a>
</g>
</g>
<!-- Node1&#45;&gt;Node2 -->
<g id="edge1" class="edge"><title>Node1&#45;&gt;Node2</title>
<path fill="none" stroke="midnightblue" d="M102.5,-280.297C102.5,-271.301 102.5,-261.653 102.5,-253.506"/>
<polygon fill="midnightblue" stroke="midnightblue" points="99.0001,-280.428 102.5,-290.428 106,-280.428 99.0001,-280.428"/>
</g>
<!-- Node3 -->
<g id="node3" class="node"><title>Node3</title>
<g id="a_node3"><a xlink:href="DebugObserver_8h.html" target="_top" xlink:title="Observer for simulation which maintains a record of the simulation via the DebugDataManager so that t...">
<polygon fill="white" stroke="black" points="22,-134.5 22,-175.5 183,-175.5 183,-134.5 22,-134.5"/>
<text text-anchor="start" x="30" y="-163.5" font-family="Helvetica,sans-Serif" font-size="10.00">/home/lemniscate/workspace</text>
<text text-anchor="start" x="30" y="-152.5" font-family="Helvetica,sans-Serif" font-size="10.00">/PFPSim/pfpsim/core/debugger</text>
<text text-anchor="middle" x="102.5" y="-141.5" font-family="Helvetica,sans-Serif" font-size="10.00">/DebugObserver.h</text>
</a>
</g>
</g>
<!-- Node2&#45;&gt;Node3 -->
<g id="edge2" class="edge"><title>Node2&#45;&gt;Node3</title>
<path fill="none" stroke="midnightblue" d="M102.5,-202.297C102.5,-193.301 102.5,-183.653 102.5,-175.506"/>
<polygon fill="midnightblue" stroke="midnightblue" points="99.0001,-202.428 102.5,-212.428 106,-202.428 99.0001,-202.428"/>
</g>
<!-- Node4 -->
<g id="node4" class="node"><title>Node4</title>
<g id="a_node4"><a xlink:href="DebuggerUtilities_8h_source.html" target="_top" xlink:title="/home/lemniscate/workspace\l/PFPSim/pfpsim/core/DebuggerUtilities.h">
<polygon fill="white" stroke="black" points="-1.42109e-14,-67.5 -1.42109e-14,-97.5 205,-97.5 205,-67.5 -1.42109e-14,-67.5"/>
<text text-anchor="start" x="8" y="-85.5" font-family="Helvetica,sans-Serif" font-size="10.00">/home/lemniscate/workspace</text>
<text text-anchor="middle" x="102.5" y="-74.5" font-family="Helvetica,sans-Serif" font-size="10.00">/PFPSim/pfpsim/core/DebuggerUtilities.h</text>
</a>
</g>
</g>
<!-- Node3&#45;&gt;Node4 -->
<g id="edge3" class="edge"><title>Node3&#45;&gt;Node4</title>
<path fill="none" stroke="midnightblue" d="M102.5,-124.08C102.5,-115.006 102.5,-105.45 102.5,-97.8916"/>
<polygon fill="midnightblue" stroke="midnightblue" points="99.0001,-124.362 102.5,-134.362 106,-124.362 99.0001,-124.362"/>
</g>
<!-- Node5 -->
<g id="node5" class="node"><title>Node5</title>
<g id="a_node5"><a xlink:href="pfpsim_8h_source.html" target="_top" xlink:title="/home/lemniscate/workspace\l/PFPSim/pfpsim/pfpsim.h">
<polygon fill="white" stroke="black" points="26,-0.5 26,-30.5 179,-30.5 179,-0.5 26,-0.5"/>
<text text-anchor="start" x="34" y="-18.5" font-family="Helvetica,sans-Serif" font-size="10.00">/home/lemniscate/workspace</text>
<text text-anchor="middle" x="102.5" y="-7.5" font-family="Helvetica,sans-Serif" font-size="10.00">/PFPSim/pfpsim/pfpsim.h</text>
</a>
</g>
</g>
<!-- Node4&#45;&gt;Node5 -->
<g id="edge4" class="edge"><title>Node4&#45;&gt;Node5</title>
<path fill="none" stroke="midnightblue" d="M102.5,-57.1081C102.5,-48.1539 102.5,-38.3227 102.5,-30.5765"/>
<polygon fill="midnightblue" stroke="midnightblue" points="99.0001,-57.3959 102.5,-67.396 106,-57.396 99.0001,-57.3959"/>
</g>
</g>
</svg>
