<?xml version="1.0" encoding="UTF-8" standalone="no"?>
<!DOCTYPE svg PUBLIC "-//W3C//DTD SVG 1.1//EN"
 "http://www.w3.org/Graphics/SVG/1.1/DTD/svg11.dtd">
<!-- Generated by graphviz version 2.38.0 (20140413.2041)
 -->
<!-- Title: /home/lemniscate/workspace/PFPSim/pfpsim/core/debugger/DebuggerMessages.h Pages: 1 -->
<!--zoomable 162 -->
<svg id="main" version="1.1" xmlns="http://www.w3.org/2000/svg" xmlns:xlink="http://www.w3.org/1999/xlink" xml:space="preserve" onload="init(evt)">
<style type="text/css"><![CDATA[
.edge:hover path { stroke: red; }
.edge:hover polygon { stroke: red; fill: red; }
]]></style>
<script type="text/javascript"><![CDATA[
var edges = document.getElementsByTagName('g');
if (edges && edges.length) {
  for (var i=0;i<edges.length;i++) {
    if (edges[i].id.substr(0,4)=='edge') {
      edges[i].setAttribute('class','edge');
    }
  }
}
]]></script>
        <defs>
                <circle id="rim" cx="0" cy="0" r="7"/>
                <circle id="rim2" cx="0" cy="0" r="3.5"/>
                <g id="zoomPlus">
                        <use xlink:href="#rim" fill="#404040">
                                <set attributeName="fill" to="#808080" begin="zoomplus.mouseover" end="zoomplus.mouseout"/>
                        </use>
                        <path d="M-4,0h8M0,-4v8" fill="none" stroke="white" stroke-width="1.5" pointer-events="none"/>
                </g>
                <g id="zoomMin">
                        <use xlink:href="#rim" fill="#404040">
                                <set attributeName="fill" to="#808080" begin="zoomminus.mouseover" end="zoomminus.mouseout"/>
                        </use>
                        <path d="M-4,0h8" fill="none" stroke="white" stroke-width="1.5" pointer-events="none"/>
                </g>
                <g id="dirArrow">
                        <path fill="none" stroke="white" stroke-width="1.5" d="M0,-3.0v7 M-2.5,-0.5L0,-3.0L2.5,-0.5"/>
                </g>
               <g id="resetDef">
                       <use xlink:href="#rim2" fill="#404040">
                               <set attributeName="fill" to="#808080" begin="reset.mouseover" end="reset.mouseout"/>
                       </use>
               </g>
        </defs>

<script type="text/javascript">
var viewWidth = 589;
var viewHeight = 162;
var sectionId = 'dynsection-0';
</script>
<script xlink:href="svgpan.js"/>
<svg id="graph" class="graph">
<g id="viewport">
<title>/home/lemniscate/workspace/PFPSim/pfpsim/core/debugger/DebuggerMessages.h</title>
<polygon fill="white" stroke="none" points="-4,4 -4,-158 585.358,-158 585.358,4 -4,4"/>
<!-- Node1 -->
<g id="node1" class="node"><title>Node1</title>
<polygon fill="#bfbfbf" stroke="black" points="104.858,-112.5 104.858,-153.5 265.858,-153.5 265.858,-112.5 104.858,-112.5"/>
<text text-anchor="start" x="112.858" y="-141.5" font-family="Helvetica,sans-Serif" font-size="10.00">/home/lemniscate/workspace</text>
<text text-anchor="start" x="112.858" y="-130.5" font-family="Helvetica,sans-Serif" font-size="10.00">/PFPSim/pfpsim/core/debugger</text>
<text text-anchor="middle" x="185.358" y="-119.5" font-family="Helvetica,sans-Serif" font-size="10.00">/DebuggerMessages.h</text>
</g>
<!-- Node2 -->
<g id="node2" class="node"><title>Node2</title>
<polygon fill="white" stroke="#bfbfbf" points="30.8583,-0.5 30.8583,-19.5 73.8583,-19.5 73.8583,-0.5 30.8583,-0.5"/>
<text text-anchor="middle" x="52.3583" y="-7.5" font-family="Helvetica,sans-Serif" font-size="10.00">string</text>
</g>
<!-- Node1&#45;&gt;Node2 -->
<g id="edge1" class="edge"><title>Node1&#45;&gt;Node2</title>
<path fill="none" stroke="midnightblue" d="M104.822,-128.04C67.9905,-121.699 27.4911,-107.372 4.35826,-76 -8.44855,-58.6319 11.467,-38.6669 29.4039,-25.497"/>
<polygon fill="midnightblue" stroke="midnightblue" points="31.6669,-28.1874 37.8983,-19.6188 27.6836,-22.4312 31.6669,-28.1874"/>
</g>
<!-- Node3 -->
<g id="node3" class="node"><title>Node3</title>
<polygon fill="white" stroke="#bfbfbf" points="328.358,-0.5 328.358,-19.5 374.358,-19.5 374.358,-0.5 328.358,-0.5"/>
<text text-anchor="middle" x="351.358" y="-7.5" font-family="Helvetica,sans-Serif" font-size="10.00">vector</text>
</g>
<!-- Node1&#45;&gt;Node3 -->
<g id="edge2" class="edge"><title>Node1&#45;&gt;Node3</title>
<path fill="none" stroke="midnightblue" d="M266.035,-118.595C312.488,-109.05 364.372,-94.6209 378.358,-76 389.419,-61.274 378.097,-41.3573 366.914,-27.4663"/>
<polygon fill="midnightblue" stroke="midnightblue" points="369.368,-24.9543 360.17,-19.6962 364.081,-29.5426 369.368,-24.9543"/>
</g>
<!-- Node4 -->
<g id="node4" class="node"><title>Node4</title>
<polygon fill="white" stroke="#bfbfbf" points="91.8583,-0.5 91.8583,-19.5 148.858,-19.5 148.858,-0.5 91.8583,-0.5"/>
<text text-anchor="middle" x="120.358" y="-7.5" font-family="Helvetica,sans-Serif" font-size="10.00">iostream</text>
</g>
<!-- Node1&#45;&gt;Node4 -->
<g id="edge3" class="edge"><title>Node1&#45;&gt;Node4</title>
<path fill="none" stroke="midnightblue" d="M165.188,-112.281C155.861,-102.189 145.33,-89.2556 138.358,-76 130.693,-61.4265 126.018,-43.2502 123.36,-29.8269"/>
<polygon fill="midnightblue" stroke="midnightblue" points="126.783,-29.0827 121.581,-19.8526 119.892,-30.3118 126.783,-29.0827"/>
</g>
<!-- Node5 -->
<g id="node5" class="node"><title>Node5</title>
<polygon fill="white" stroke="#bfbfbf" points="425.358,-56.5 425.358,-75.5 581.358,-75.5 581.358,-56.5 425.358,-56.5"/>
<text text-anchor="middle" x="503.358" y="-63.5" font-family="Helvetica,sans-Serif" font-size="10.00">../proto/PFPSimDebugger.pb.h</text>
</g>
<!-- Node1&#45;&gt;Node5 -->
<g id="edge4" class="edge"><title>Node1&#45;&gt;Node5</title>
<path fill="none" stroke="midnightblue" d="M266.014,-115.514C324.372,-103.585 401.5,-87.82 451.754,-77.5481"/>
<polygon fill="midnightblue" stroke="midnightblue" points="452.646,-80.9381 461.743,-75.5063 451.244,-74.0799 452.646,-80.9381"/>
</g>
<!-- Node6 -->
<g id="node6" class="node"><title>Node6</title>
<g id="a_node6"><a xlink:href="Breakpoint_8h.html" target="_top" xlink:title="Defines a class representation of a breakpoint. ">
<polygon fill="white" stroke="black" points="147.358,-56.5 147.358,-75.5 223.358,-75.5 223.358,-56.5 147.358,-56.5"/>
<text text-anchor="middle" x="185.358" y="-63.5" font-family="Helvetica,sans-Serif" font-size="10.00">Breakpoint.h</text>
</a>
</g>
</g>
<!-- Node1&#45;&gt;Node6 -->
<g id="edge5" class="edge"><title>Node1&#45;&gt;Node6</title>
<path fill="none" stroke="midnightblue" d="M185.358,-112.498C185.358,-104.065 185.358,-94.2351 185.358,-85.874"/>
<polygon fill="midnightblue" stroke="midnightblue" points="188.858,-85.6525 185.358,-75.6525 181.858,-85.6525 188.858,-85.6525"/>
</g>
<!-- Node8 -->
<g id="node8" class="node"><title>Node8</title>
<g id="a_node8"><a xlink:href="Watchpoint_8h.html" target="_top" xlink:title="Defines a class representation of a watchpoint for the debugger. ">
<polygon fill="white" stroke="black" points="13.3583,-56.5 13.3583,-75.5 91.3583,-75.5 91.3583,-56.5 13.3583,-56.5"/>
<text text-anchor="middle" x="52.3583" y="-63.5" font-family="Helvetica,sans-Serif" font-size="10.00">Watchpoint.h</text>
</a>
</g>
</g>
<!-- Node1&#45;&gt;Node8 -->
<g id="edge9" class="edge"><title>Node1&#45;&gt;Node8</title>
<path fill="none" stroke="midnightblue" d="M145.454,-112.498C123.984,-102.005 98.0861,-89.3482 79.0619,-80.0507"/>
<polygon fill="midnightblue" stroke="midnightblue" points="80.5839,-76.8989 70.0626,-75.6525 77.5102,-83.188 80.5839,-76.8989"/>
</g>
<!-- Node9 -->
<g id="node9" class="node"><title>Node9</title>
<g id="a_node9"><a xlink:href="CPDebuggerInterface_8h.html" target="_top" xlink:title="Defines an interface to be implemented by Control Plane modules for compatibility with the debugger...">
<polygon fill="white" stroke="black" points="241.858,-56.5 241.858,-75.5 368.858,-75.5 368.858,-56.5 241.858,-56.5"/>
<text text-anchor="middle" x="305.358" y="-63.5" font-family="Helvetica,sans-Serif" font-size="10.00">CPDebuggerInterface.h</text>
</a>
</g>
</g>
<!-- Node1&#45;&gt;Node9 -->
<g id="edge12" class="edge"><title>Node1&#45;&gt;Node9</title>
<path fill="none" stroke="midnightblue" d="M221.362,-112.498C240.468,-102.149 263.461,-89.6946 280.556,-80.4346"/>
<polygon fill="midnightblue" stroke="midnightblue" points="282.259,-83.4929 289.384,-75.6525 278.924,-77.3378 282.259,-83.4929"/>
</g>
<!-- Node6&#45;&gt;Node2 -->
<g id="edge6" class="edge"><title>Node6&#45;&gt;Node2</title>
<path fill="none" stroke="midnightblue" d="M164.284,-56.4435C142.299,-47.5171 107.624,-33.4387 82.6941,-23.3168"/>
<polygon fill="midnightblue" stroke="midnightblue" points="83.916,-20.0355 73.3339,-19.5164 81.2826,-26.5213 83.916,-20.0355"/>
</g>
<!-- Node6&#45;&gt;Node4 -->
<g id="edge7" class="edge"><title>Node6&#45;&gt;Node4</title>
<path fill="none" stroke="midnightblue" d="M174.915,-56.324C165.212,-48.2631 150.543,-36.0765 138.859,-26.3695"/>
<polygon fill="midnightblue" stroke="midnightblue" points="140.92,-23.532 130.992,-19.8339 136.447,-28.9163 140.92,-23.532"/>
</g>
<!-- Node7 -->
<g id="node7" class="node"><title>Node7</title>
<polygon fill="white" stroke="#bfbfbf" points="196.858,-0.5 196.858,-19.5 233.858,-19.5 233.858,-0.5 196.858,-0.5"/>
<text text-anchor="middle" x="215.358" y="-7.5" font-family="Helvetica,sans-Serif" font-size="10.00">map</text>
</g>
<!-- Node6&#45;&gt;Node7 -->
<g id="edge8" class="edge"><title>Node6&#45;&gt;Node7</title>
<path fill="none" stroke="midnightblue" d="M190.312,-56.083C194.462,-48.6127 200.511,-37.7244 205.625,-28.5199"/>
<polygon fill="midnightblue" stroke="midnightblue" points="208.7,-30.1924 210.497,-19.7511 202.581,-26.7929 208.7,-30.1924"/>
</g>
<!-- Node8&#45;&gt;Node2 -->
<g id="edge10" class="edge"><title>Node8&#45;&gt;Node2</title>
<path fill="none" stroke="midnightblue" d="M52.3583,-56.083C52.3583,-49.0059 52.3583,-38.8611 52.3583,-29.9865"/>
<polygon fill="midnightblue" stroke="midnightblue" points="55.8584,-29.751 52.3583,-19.7511 48.8584,-29.7511 55.8584,-29.751"/>
</g>
<!-- Node8&#45;&gt;Node4 -->
<g id="edge11" class="edge"><title>Node8&#45;&gt;Node4</title>
<path fill="none" stroke="midnightblue" d="M63.2836,-56.324C73.5329,-48.1849 89.0789,-35.8395 101.359,-26.0874"/>
<polygon fill="midnightblue" stroke="midnightblue" points="103.58,-28.7937 109.234,-19.8339 99.2264,-23.3119 103.58,-28.7937"/>
</g>
<!-- Node9&#45;&gt;Node2 -->
<g id="edge13" class="edge"><title>Node9&#45;&gt;Node2</title>
<path fill="none" stroke="midnightblue" d="M256.345,-56.4555C213.183,-48.6286 148.447,-36.1585 83.8643,-20.2119"/>
<polygon fill="midnightblue" stroke="midnightblue" points="84.4725,-16.7564 73.9223,-17.7288 82.7761,-23.5478 84.4725,-16.7564"/>
</g>
<!-- Node9&#45;&gt;Node3 -->
<g id="edge14" class="edge"><title>Node9&#45;&gt;Node3</title>
<path fill="none" stroke="midnightblue" d="M312.954,-56.083C319.586,-48.2982 329.379,-36.8015 337.416,-27.3665"/>
<polygon fill="midnightblue" stroke="midnightblue" points="340.083,-29.6332 343.904,-19.7511 334.755,-25.0939 340.083,-29.6332"/>
</g>
<!-- Node9&#45;&gt;Node4 -->
<g id="edge16" class="edge"><title>Node9&#45;&gt;Node4</title>
<path fill="none" stroke="midnightblue" d="M276.044,-56.4435C244.33,-47.1865 193.635,-32.3888 158.759,-22.2089"/>
<polygon fill="midnightblue" stroke="midnightblue" points="159.507,-18.7813 148.927,-19.339 157.546,-25.5009 159.507,-18.7813"/>
</g>
<!-- Node9&#45;&gt;Node7 -->
<g id="edge15" class="edge"><title>Node9&#45;&gt;Node7</title>
<path fill="none" stroke="midnightblue" d="M290.898,-56.324C276.859,-47.9002 255.31,-34.9709 238.815,-25.0741"/>
<polygon fill="midnightblue" stroke="midnightblue" points="240.158,-21.7983 229.782,-19.6545 236.557,-27.8007 240.158,-21.7983"/>
</g>
</g>
</svg>
        <g id="navigator" transform="translate(0 0)" fill="#404254">
                <rect fill="#f2f5e9" fill-opacity="0.5" stroke="#606060" stroke-width=".5" x="0" y="0" width="60" height="60"/>
                <use id="zoomplus" xlink:href="#zoomPlus" x="17" y="9" onmousedown="handleZoom(evt,'in')"/>
                <use id="zoomminus" xlink:href="#zoomMin" x="42" y="9" onmousedown="handleZoom(evt,'out')"/>
                <use id="reset" xlink:href="#resetDef" x="30" y="36" onmousedown="handleReset()"/>
                <g id="arrowUp" xlink:href="#dirArrow" transform="translate(30 24)" onmousedown="handlePan(0,-1)">
                  <use xlink:href="#rim" fill="#404040">
                        <set attributeName="fill" to="#808080" begin="arrowUp.mouseover" end="arrowUp.mouseout"/>
                  </use>
                  <path fill="none" stroke="white" stroke-width="1.5" d="M0,-3.0v7 M-2.5,-0.5L0,-3.0L2.5,-0.5"/>
                </g>
                <g id="arrowRight" xlink:href="#dirArrow" transform="rotate(90) translate(36 -43)" onmousedown="handlePan(1,0)">
                  <use xlink:href="#rim" fill="#404040">
                        <set attributeName="fill" to="#808080" begin="arrowRight.mouseover" end="arrowRight.mouseout"/>
                  </use>
                  <path fill="none" stroke="white" stroke-width="1.5" d="M0,-3.0v7 M-2.5,-0.5L0,-3.0L2.5,-0.5"/>
                </g>
                <g id="arrowDown" xlink:href="#dirArrow" transform="rotate(180) translate(-30 -48)" onmousedown="handlePan(0,1)">
                  <use xlink:href="#rim" fill="#404040">
                        <set attributeName="fill" to="#808080" begin="arrowDown.mouseover" end="arrowDown.mouseout"/>
                  </use>
                  <path fill="none" stroke="white" stroke-width="1.5" d="M0,-3.0v7 M-2.5,-0.5L0,-3.0L2.5,-0.5"/>
                </g>
                <g id="arrowLeft" xlink:href="#dirArrow" transform="rotate(270) translate(-36 17)" onmousedown="handlePan(-1,0)">
                  <use xlink:href="#rim" fill="#404040">
                        <set attributeName="fill" to="#808080" begin="arrowLeft.mouseover" end="arrowLeft.mouseout"/>
                  </use>
                  <path fill="none" stroke="white" stroke-width="1.5" d="M0,-3.0v7 M-2.5,-0.5L0,-3.0L2.5,-0.5"/>
                </g>
        </g>
        <svg viewBox="0 0 15 15" width="100%" height="30px" preserveAspectRatio="xMaxYMin meet">
         <g id="arrow_out" transform="scale(0.3 0.3)">
          <a xlink:href="DebuggerMessages_8h__incl_org.svg" target="_base">
           <rect id="button" ry="5" rx="5" y="6" x="6" height="38" width="38"
                fill="#f2f5e9" fill-opacity="0.5" stroke="#606060" stroke-width="1.0"/>
           <path id="arrow"
             d="M 11.500037,31.436501 C 11.940474,20.09759 22.043105,11.32322 32.158766,21.979434 L 37.068811,17.246167 C 37.068811,17.246167 37.088388,32 37.088388,32 L 22.160133,31.978069 C 22.160133,31.978069 26.997745,27.140456 26.997745,27.140456 C 18.528582,18.264221 13.291696,25.230495 11.500037,31.436501 z"
             style="fill:#404040;"/>
          </a>
         </g>
        </svg>
</svg>
