<?xml version="1.0" encoding="UTF-8" standalone="no"?>
<!DOCTYPE svg PUBLIC "-//W3C//DTD SVG 1.1//EN"
 "http://www.w3.org/Graphics/SVG/1.1/DTD/svg11.dtd">
<!-- Generated by graphviz version 2.38.0 (20140413.2041)
 -->
<!-- Title: /home/lemniscate/workspace/PFPSim/pfpsim/core/debugger/DebuggerPacket.h Pages: 1 -->
<svg width="300pt" height="418pt"
 viewBox="0.00 0.00 300.00 418.00" xmlns="http://www.w3.org/2000/svg" xmlns:xlink="http://www.w3.org/1999/xlink">
<g id="graph0" class="graph" transform="scale(1 1) rotate(0) translate(4 414)">
<title>/home/lemniscate/workspace/PFPSim/pfpsim/core/debugger/DebuggerPacket.h</title>
<polygon fill="white" stroke="none" points="-4,4 -4,-414 296,-414 296,4 -4,4"/>
<!-- Node1 -->
<g id="node1" class="node"><title>Node1</title>
<polygon fill="#bfbfbf" stroke="black" points="92,-368.5 92,-409.5 253,-409.5 253,-368.5 92,-368.5"/>
<text text-anchor="start" x="100" y="-397.5" font-family="Helvetica,sans-Serif" font-size="10.00">/home/lemniscate/workspace</text>
<text text-anchor="start" x="100" y="-386.5" font-family="Helvetica,sans-Serif" font-size="10.00">/PFPSim/pfpsim/core/debugger</text>
<text text-anchor="middle" x="172.5" y="-375.5" font-family="Helvetica,sans-Serif" font-size="10.00">/DebuggerPacket.h</text>
</g>
<!-- Node2 -->
<g id="node2" class="node"><title>Node2</title>
<g id="a_node2"><a xlink:href="DebugDataManager_8h.html" target="_top" xlink:title="Defines class which stores any data about taht simulation that is required by pfpdb. ">
<polygon fill="white" stroke="black" points="38,-290.5 38,-331.5 199,-331.5 199,-290.5 38,-290.5"/>
<text text-anchor="start" x="46" y="-319.5" font-family="Helvetica,sans-Serif" font-size="10.00">/home/lemniscate/workspace</text>
<text text-anchor="start" x="46" y="-308.5" font-family="Helvetica,sans-Serif" font-size="10.00">/PFPSim/pfpsim/core/debugger</text>
<text text-anchor="middle" x="118.5" y="-297.5" font-family="Helvetica,sans-Serif" font-size="10.00">/DebugDataManager.h</text>
</a>
</g>
</g>
<!-- Node1&#45;&gt;Node2 -->
<g id="edge1" class="edge"><title>Node1&#45;&gt;Node2</title>
<path fill="none" stroke="midnightblue" d="M152.639,-360.048C145.902,-350.566 138.526,-340.185 132.359,-331.506"/>
<polygon fill="midnightblue" stroke="midnightblue" points="149.948,-362.304 158.594,-368.428 155.655,-358.249 149.948,-362.304"/>
</g>
<!-- Node4 -->
<g id="node4" class="node"><title>Node4</title>
<g id="a_node4"><a xlink:href="DebugObserver_8h.html" target="_top" xlink:title="Observer for simulation which maintains a record of the simulation via the DebugDataManager so that t...">
<polygon fill="white" stroke="black" points="109,-134.5 109,-175.5 270,-175.5 270,-134.5 109,-134.5"/>
<text text-anchor="start" x="117" y="-163.5" font-family="Helvetica,sans-Serif" font-size="10.00">/home/lemniscate/workspace</text>
<text text-anchor="start" x="117" y="-152.5" font-family="Helvetica,sans-Serif" font-size="10.00">/PFPSim/pfpsim/core/debugger</text>
<text text-anchor="middle" x="189.5" y="-141.5" font-family="Helvetica,sans-Serif" font-size="10.00">/DebugObserver.h</text>
</a>
</g>
</g>
<!-- Node1&#45;&gt;Node4 -->
<g id="edge7" class="edge"><title>Node1&#45;&gt;Node4</title>
<path fill="none" stroke="midnightblue" d="M194.284,-359.925C199.677,-351.416 204.708,-341.733 207.5,-332 223.292,-276.936 206.521,-208.693 196.251,-175.697"/>
<polygon fill="midnightblue" stroke="midnightblue" points="191.31,-358.074 188.611,-368.319 197.11,-361.994 191.31,-358.074"/>
</g>
<!-- Node3 -->
<g id="node3" class="node"><title>Node3</title>
<g id="a_node3"><a xlink:href="DebuggerIPCServer_8h.html" target="_top" xlink:title="Defines class that services requests from pfpdb. ">
<polygon fill="white" stroke="black" points="0,-212.5 0,-253.5 161,-253.5 161,-212.5 0,-212.5"/>
<text text-anchor="start" x="8" y="-241.5" font-family="Helvetica,sans-Serif" font-size="10.00">/home/lemniscate/workspace</text>
<text text-anchor="start" x="8" y="-230.5" font-family="Helvetica,sans-Serif" font-size="10.00">/PFPSim/pfpsim/core/debugger</text>
<text text-anchor="middle" x="80.5" y="-219.5" font-family="Helvetica,sans-Serif" font-size="10.00">/DebuggerIPCServer.h</text>
</a>
</g>
</g>
<!-- Node2&#45;&gt;Node3 -->
<g id="edge2" class="edge"><title>Node2&#45;&gt;Node3</title>
<path fill="none" stroke="midnightblue" d="M104.233,-281.466C99.5713,-272.143 94.5037,-262.007 90.2528,-253.506"/>
<polygon fill="midnightblue" stroke="midnightblue" points="101.111,-283.049 108.714,-290.428 107.372,-279.919 101.111,-283.049"/>
</g>
<!-- Node2&#45;&gt;Node4 -->
<g id="edge6" class="edge"><title>Node2&#45;&gt;Node4</title>
<path fill="none" stroke="midnightblue" d="M148.577,-282.866C156.453,-274.34 164.211,-264.412 169.5,-254 182.24,-228.92 186.865,-196.337 188.544,-175.791"/>
<polygon fill="midnightblue" stroke="midnightblue" points="145.836,-280.665 141.377,-290.276 150.856,-285.543 145.836,-280.665"/>
</g>
<!-- Node3&#45;&gt;Node4 -->
<g id="edge3" class="edge"><title>Node3&#45;&gt;Node4</title>
<path fill="none" stroke="midnightblue" d="M116.878,-206.635C131.433,-196.487 147.934,-184.982 161.525,-175.506"/>
<polygon fill="midnightblue" stroke="midnightblue" points="114.771,-203.838 108.57,-212.428 118.775,-209.58 114.771,-203.838"/>
</g>
<!-- Node5 -->
<g id="node5" class="node"><title>Node5</title>
<g id="a_node5"><a xlink:href="DebuggerUtilities_8h_source.html" target="_top" xlink:title="/home/lemniscate/workspace\l/PFPSim/pfpsim/core/DebuggerUtilities.h">
<polygon fill="white" stroke="black" points="87,-67.5 87,-97.5 292,-97.5 292,-67.5 87,-67.5"/>
<text text-anchor="start" x="95" y="-85.5" font-family="Helvetica,sans-Serif" font-size="10.00">/home/lemniscate/workspace</text>
<text text-anchor="middle" x="189.5" y="-74.5" font-family="Helvetica,sans-Serif" font-size="10.00">/PFPSim/pfpsim/core/DebuggerUtilities.h</text>
</a>
</g>
</g>
<!-- Node4&#45;&gt;Node5 -->
<g id="edge4" class="edge"><title>Node4&#45;&gt;Node5</title>
<path fill="none" stroke="midnightblue" d="M189.5,-124.08C189.5,-115.006 189.5,-105.45 189.5,-97.8916"/>
<polygon fill="midnightblue" stroke="midnightblue" points="186,-124.362 189.5,-134.362 193,-124.362 186,-124.362"/>
</g>
<!-- Node6 -->
<g id="node6" class="node"><title>Node6</title>
<g id="a_node6"><a xlink:href="pfpsim_8h_source.html" target="_top" xlink:title="/home/lemniscate/workspace\l/PFPSim/pfpsim/pfpsim.h">
<polygon fill="white" stroke="black" points="113,-0.5 113,-30.5 266,-30.5 266,-0.5 113,-0.5"/>
<text text-anchor="start" x="121" y="-18.5" font-family="Helvetica,sans-Serif" font-size="10.00">/home/lemniscate/workspace</text>
<text text-anchor="middle" x="189.5" y="-7.5" font-family="Helvetica,sans-Serif" font-size="10.00">/PFPSim/pfpsim/pfpsim.h</text>
</a>
</g>
</g>
<!-- Node5&#45;&gt;Node6 -->
<g id="edge5" class="edge"><title>Node5&#45;&gt;Node6</title>
<path fill="none" stroke="midnightblue" d="M189.5,-57.1081C189.5,-48.1539 189.5,-38.3227 189.5,-30.5765"/>
<polygon fill="midnightblue" stroke="midnightblue" points="186,-57.3959 189.5,-67.396 193,-57.396 186,-57.3959"/>
</g>
</g>
</svg>
