<?xml version="1.0" encoding="UTF-8" standalone="no"?>
<!DOCTYPE svg PUBLIC "-//W3C//DTD SVG 1.1//EN"
 "http://www.w3.org/Graphics/SVG/1.1/DTD/svg11.dtd">
<!-- Generated by graphviz version 2.38.0 (20140413.2041)
 -->
<!-- Title: /home/lemniscate/workspace/PFPSim/pfpsim/core/debugger/DebugDataManager.h Pages: 1 -->
<svg width="245pt" height="340pt"
 viewBox="0.00 0.00 245.00 340.00" xmlns="http://www.w3.org/2000/svg" xmlns:xlink="http://www.w3.org/1999/xlink">
<g id="graph0" class="graph" transform="scale(1 1) rotate(0) translate(4 336)">
<title>/home/lemniscate/workspace/PFPSim/pfpsim/core/debugger/DebugDataManager.h</title>
<polygon fill="white" stroke="none" points="-4,4 -4,-336 241,-336 241,4 -4,4"/>
<!-- Node1 -->
<g id="node1" class="node"><title>Node1</title>
<polygon fill="#bfbfbf" stroke="black" points="54,-290.5 54,-331.5 215,-331.5 215,-290.5 54,-290.5"/>
<text text-anchor="start" x="62" y="-319.5" font-family="Helvetica,sans-Serif" font-size="10.00">/home/lemniscate/workspace</text>
<text text-anchor="start" x="62" y="-308.5" font-family="Helvetica,sans-Serif" font-size="10.00">/PFPSim/pfpsim/core/debugger</text>
<text text-anchor="middle" x="134.5" y="-297.5" font-family="Helvetica,sans-Serif" font-size="10.00">/DebugDataManager.h</text>
</g>
<!-- Node2 -->
<g id="node2" class="node"><title>Node2</title>
<g id="a_node2"><a xlink:href="DebuggerIPCServer_8h.html" target="_top" xlink:title="Defines class that services requests from pfpdb. ">
<polygon fill="white" stroke="black" points="0,-212.5 0,-253.5 161,-253.5 161,-212.5 0,-212.5"/>
<text text-anchor="start" x="8" y="-241.5" font-family="Helvetica,sans-Serif" font-size="10.00">/home/lemniscate/workspace</text>
<text text-anchor="start" x="8" y="-230.5" font-family="Helvetica,sans-Serif" font-size="10.00">/PFPSim/pfpsim/core/debugger</text>
<text text-anchor="middle" x="80.5" y="-219.5" font-family="Helvetica,sans-Serif" font-size="10.00">/DebuggerIPCServer.h</text>
</a>
</g>
</g>
<!-- Node1&#45;&gt;Node2 -->
<g id="edge1" class="edge"><title>Node1&#45;&gt;Node2</title>
<path fill="none" stroke="midnightblue" d="M114.639,-282.048C107.902,-272.566 100.526,-262.185 94.3592,-253.506"/>
<polygon fill="midnightblue" stroke="midnightblue" points="111.948,-284.304 120.594,-290.428 117.655,-280.249 111.948,-284.304"/>
</g>
<!-- Node3 -->
<g id="node3" class="node"><title>Node3</title>
<g id="a_node3"><a xlink:href="DebugObserver_8h.html" target="_top" xlink:title="Observer for simulation which maintains a record of the simulation via the DebugDataManager so that t...">
<polygon fill="white" stroke="black" points="54,-134.5 54,-175.5 215,-175.5 215,-134.5 54,-134.5"/>
<text text-anchor="start" x="62" y="-163.5" font-family="Helvetica,sans-Serif" font-size="10.00">/home/lemniscate/workspace</text>
<text text-anchor="start" x="62" y="-152.5" font-family="Helvetica,sans-Serif" font-size="10.00">/PFPSim/pfpsim/core/debugger</text>
<text text-anchor="middle" x="134.5" y="-141.5" font-family="Helvetica,sans-Serif" font-size="10.00">/DebugObserver.h</text>
</a>
</g>
</g>
<!-- Node1&#45;&gt;Node3 -->
<g id="edge5" class="edge"><title>Node1&#45;&gt;Node3</title>
<path fill="none" stroke="midnightblue" d="M156.899,-282.003C162.447,-273.496 167.623,-263.794 170.5,-254 175.76,-236.09 175.76,-229.91 170.5,-212 166.624,-198.804 158.573,-185.775 151.065,-175.61"/>
<polygon fill="midnightblue" stroke="midnightblue" points="153.903,-280.182 151.065,-290.39 159.649,-284.179 153.903,-280.182"/>
</g>
<!-- Node2&#45;&gt;Node3 -->
<g id="edge2" class="edge"><title>Node2&#45;&gt;Node3</title>
<path fill="none" stroke="midnightblue" d="M100.361,-204.048C107.098,-194.566 114.474,-184.185 120.641,-175.506"/>
<polygon fill="midnightblue" stroke="midnightblue" points="97.3453,-202.249 94.4063,-212.428 103.052,-206.304 97.3453,-202.249"/>
</g>
<!-- Node4 -->
<g id="node4" class="node"><title>Node4</title>
<g id="a_node4"><a xlink:href="DebuggerUtilities_8h_source.html" target="_top" xlink:title="/home/lemniscate/workspace\l/PFPSim/pfpsim/core/DebuggerUtilities.h">
<polygon fill="white" stroke="black" points="32,-67.5 32,-97.5 237,-97.5 237,-67.5 32,-67.5"/>
<text text-anchor="start" x="40" y="-85.5" font-family="Helvetica,sans-Serif" font-size="10.00">/home/lemniscate/workspace</text>
<text text-anchor="middle" x="134.5" y="-74.5" font-family="Helvetica,sans-Serif" font-size="10.00">/PFPSim/pfpsim/core/DebuggerUtilities.h</text>
</a>
</g>
</g>
<!-- Node3&#45;&gt;Node4 -->
<g id="edge3" class="edge"><title>Node3&#45;&gt;Node4</title>
<path fill="none" stroke="midnightblue" d="M134.5,-124.08C134.5,-115.006 134.5,-105.45 134.5,-97.8916"/>
<polygon fill="midnightblue" stroke="midnightblue" points="131,-124.362 134.5,-134.362 138,-124.362 131,-124.362"/>
</g>
<!-- Node5 -->
<g id="node5" class="node"><title>Node5</title>
<g id="a_node5"><a xlink:href="pfpsim_8h_source.html" target="_top" xlink:title="/home/lemniscate/workspace\l/PFPSim/pfpsim/pfpsim.h">
<polygon fill="white" stroke="black" points="58,-0.5 58,-30.5 211,-30.5 211,-0.5 58,-0.5"/>
<text text-anchor="start" x="66" y="-18.5" font-family="Helvetica,sans-Serif" font-size="10.00">/home/lemniscate/workspace</text>
<text text-anchor="middle" x="134.5" y="-7.5" font-family="Helvetica,sans-Serif" font-size="10.00">/PFPSim/pfpsim/pfpsim.h</text>
</a>
</g>
</g>
<!-- Node4&#45;&gt;Node5 -->
<g id="edge4" class="edge"><title>Node4&#45;&gt;Node5</title>
<path fill="none" stroke="midnightblue" d="M134.5,-57.1081C134.5,-48.1539 134.5,-38.3227 134.5,-30.5765"/>
<polygon fill="midnightblue" stroke="midnightblue" points="131,-57.3959 134.5,-67.396 138,-57.396 131,-57.3959"/>
</g>
</g>
</svg>
