<?xml version="1.0" encoding="UTF-8" standalone="no"?>
<!DOCTYPE svg PUBLIC "-//W3C//DTD SVG 1.1//EN"
 "http://www.w3.org/Graphics/SVG/1.1/DTD/svg11.dtd">
<!-- Generated by graphviz version 2.38.0 (20140413.2041)
 -->
<!-- Title: /home/lemniscate/workspace/PFPSim/pfpsim/core/debugger/DebuggerIPCServer.h Pages: 1 -->
<svg width="1492pt" height="218pt"
 viewBox="0.00 0.00 1491.50 218.00" xmlns="http://www.w3.org/2000/svg" xmlns:xlink="http://www.w3.org/1999/xlink">
<g id="graph0" class="graph" transform="scale(1 1) rotate(0) translate(4 214)">
<title>/home/lemniscate/workspace/PFPSim/pfpsim/core/debugger/DebuggerIPCServer.h</title>
<polygon fill="white" stroke="none" points="-4,4 -4,-214 1487.5,-214 1487.5,4 -4,4"/>
<!-- Node1 -->
<g id="node1" class="node"><title>Node1</title>
<polygon fill="#bfbfbf" stroke="black" points="684,-168.5 684,-209.5 845,-209.5 845,-168.5 684,-168.5"/>
<text text-anchor="start" x="692" y="-197.5" font-family="Helvetica,sans-Serif" font-size="10.00">/home/lemniscate/workspace</text>
<text text-anchor="start" x="692" y="-186.5" font-family="Helvetica,sans-Serif" font-size="10.00">/PFPSim/pfpsim/core/debugger</text>
<text text-anchor="middle" x="764.5" y="-175.5" font-family="Helvetica,sans-Serif" font-size="10.00">/DebuggerIPCServer.h</text>
</g>
<!-- Node2 -->
<g id="node2" class="node"><title>Node2</title>
<polygon fill="white" stroke="#bfbfbf" points="0,-112.5 0,-131.5 103,-131.5 103,-112.5 0,-112.5"/>
<text text-anchor="middle" x="51.5" y="-119.5" font-family="Helvetica,sans-Serif" font-size="10.00">nanomsg/reqrep.h</text>
</g>
<!-- Node1&#45;&gt;Node2 -->
<g id="edge1" class="edge"><title>Node1&#45;&gt;Node2</title>
<path fill="none" stroke="midnightblue" d="M683.91,-182.739C562.377,-174.438 324.739,-156.782 113.234,-132.143"/>
<polygon fill="midnightblue" stroke="midnightblue" points="113.522,-128.653 103.183,-130.965 112.707,-135.606 113.522,-128.653"/>
</g>
<!-- Node3 -->
<g id="node3" class="node"><title>Node3</title>
<polygon fill="white" stroke="#bfbfbf" points="121,-112.5 121,-131.5 204,-131.5 204,-112.5 121,-112.5"/>
<text text-anchor="middle" x="162.5" y="-119.5" font-family="Helvetica,sans-Serif" font-size="10.00">nanomsg/nn.h</text>
</g>
<!-- Node1&#45;&gt;Node3 -->
<g id="edge2" class="edge"><title>Node1&#45;&gt;Node3</title>
<path fill="none" stroke="midnightblue" d="M683.846,-181.18C577.159,-171.826 383.359,-153.684 218.5,-132 217.036,-131.807 215.55,-131.606 214.052,-131.399"/>
<polygon fill="midnightblue" stroke="midnightblue" points="214.45,-127.92 204.051,-129.949 213.445,-134.848 214.45,-127.92"/>
</g>
<!-- Node4 -->
<g id="node4" class="node"><title>Node4</title>
<polygon fill="white" stroke="#bfbfbf" points="527,-0.5 527,-19.5 570,-19.5 570,-0.5 527,-0.5"/>
<text text-anchor="middle" x="548.5" y="-7.5" font-family="Helvetica,sans-Serif" font-size="10.00">string</text>
</g>
<!-- Node1&#45;&gt;Node4 -->
<g id="edge3" class="edge"><title>Node1&#45;&gt;Node4</title>
<path fill="none" stroke="midnightblue" d="M683.848,-182.453C553.221,-171.598 304.591,-142.535 251.5,-76 245.956,-69.052 245.704,-62.7398 251.5,-56 285.389,-16.5892 446.575,-11.2696 516.27,-10.8455"/>
<polygon fill="midnightblue" stroke="midnightblue" points="516.647,-14.3445 526.636,-10.815 516.626,-7.34454 516.647,-14.3445"/>
</g>
<!-- Node5 -->
<g id="node5" class="node"><title>Node5</title>
<polygon fill="white" stroke="#bfbfbf" points="815,-0.5 815,-19.5 872,-19.5 872,-0.5 815,-0.5"/>
<text text-anchor="middle" x="843.5" y="-7.5" font-family="Helvetica,sans-Serif" font-size="10.00">iostream</text>
</g>
<!-- Node1&#45;&gt;Node5 -->
<g id="edge4" class="edge"><title>Node1&#45;&gt;Node5</title>
<path fill="none" stroke="midnightblue" d="M845.004,-182.309C973.951,-171.304 1217.53,-142.103 1268.5,-76 1273.93,-68.9607 1274.45,-62.608 1268.5,-56 1255.63,-41.6995 984.639,-21.0327 882.23,-13.7025"/>
<polygon fill="midnightblue" stroke="midnightblue" points="882.233,-10.194 872.01,-12.9753 881.736,-17.1763 882.233,-10.194"/>
</g>
<!-- Node6 -->
<g id="node6" class="node"><title>Node6</title>
<polygon fill="white" stroke="#bfbfbf" points="1316,-112.5 1316,-131.5 1363,-131.5 1363,-112.5 1316,-112.5"/>
<text text-anchor="middle" x="1339.5" y="-119.5" font-family="Helvetica,sans-Serif" font-size="10.00">thread</text>
</g>
<!-- Node1&#45;&gt;Node6 -->
<g id="edge5" class="edge"><title>Node1&#45;&gt;Node6</title>
<path fill="none" stroke="midnightblue" d="M845.455,-182.817C950.956,-175.319 1140.94,-159.27 1301.5,-132 1302.96,-131.752 1304.45,-131.48 1305.95,-131.191"/>
<polygon fill="midnightblue" stroke="midnightblue" points="1306.82,-134.585 1315.88,-129.091 1305.37,-127.737 1306.82,-134.585"/>
</g>
<!-- Node7 -->
<g id="node7" class="node"><title>Node7</title>
<polygon fill="white" stroke="#bfbfbf" points="1215.5,-56.5 1215.5,-75.5 1259.5,-75.5 1259.5,-56.5 1215.5,-56.5"/>
<text text-anchor="middle" x="1237.5" y="-63.5" font-family="Helvetica,sans-Serif" font-size="10.00">mutex</text>
</g>
<!-- Node1&#45;&gt;Node7 -->
<g id="edge6" class="edge"><title>Node1&#45;&gt;Node7</title>
<path fill="none" stroke="midnightblue" d="M845.121,-170.338C892.292,-159.756 952.924,-145.729 1006.5,-132 1078.01,-113.675 1161.2,-89.5763 1205.64,-76.4763"/>
<polygon fill="midnightblue" stroke="midnightblue" points="1206.7,-79.8136 1215.29,-73.6232 1204.71,-73.1006 1206.7,-79.8136"/>
</g>
<!-- Node8 -->
<g id="node8" class="node"><title>Node8</title>
<polygon fill="white" stroke="#bfbfbf" points="1381.5,-112.5 1381.5,-131.5 1483.5,-131.5 1483.5,-112.5 1381.5,-112.5"/>
<text text-anchor="middle" x="1432.5" y="-119.5" font-family="Helvetica,sans-Serif" font-size="10.00">condition_variable</text>
</g>
<!-- Node1&#45;&gt;Node8 -->
<g id="edge7" class="edge"><title>Node1&#45;&gt;Node8</title>
<path fill="none" stroke="midnightblue" d="M845.301,-182.033C959.934,-173.238 1176.56,-155.407 1371.33,-132.08"/>
<polygon fill="midnightblue" stroke="midnightblue" points="1371.95,-135.529 1381.46,-130.858 1371.12,-128.579 1371.95,-135.529"/>
</g>
<!-- Node9 -->
<g id="node9" class="node"><title>Node9</title>
<g id="a_node9"><a xlink:href="DebuggerMessages_8h.html" target="_top" xlink:title="Defines the message objects that can be sent as replies to pfpdb through the DebuggerIPCServer. ">
<polygon fill="white" stroke="black" points="601,-112.5 601,-131.5 720,-131.5 720,-112.5 601,-112.5"/>
<text text-anchor="middle" x="660.5" y="-119.5" font-family="Helvetica,sans-Serif" font-size="10.00">DebuggerMessages.h</text>
</a>
</g>
</g>
<!-- Node1&#45;&gt;Node9 -->
<g id="edge8" class="edge"><title>Node1&#45;&gt;Node9</title>
<path fill="none" stroke="midnightblue" d="M733.297,-168.498C717.198,-158.436 697.916,-146.385 683.242,-137.214"/>
<polygon fill="midnightblue" stroke="midnightblue" points="684.679,-133.985 674.344,-131.652 680.969,-139.921 684.679,-133.985"/>
</g>
<!-- Node11 -->
<g id="node11" class="node"><title>Node11</title>
<polygon fill="white" stroke="#bfbfbf" points="260.5,-56.5 260.5,-75.5 416.5,-75.5 416.5,-56.5 260.5,-56.5"/>
<text text-anchor="middle" x="338.5" y="-63.5" font-family="Helvetica,sans-Serif" font-size="10.00">../proto/PFPSimDebugger.pb.h</text>
</g>
<!-- Node1&#45;&gt;Node11 -->
<g id="edge38" class="edge"><title>Node1&#45;&gt;Node11</title>
<path fill="none" stroke="midnightblue" d="M695.582,-168.425C605.508,-142.84 450.719,-98.8743 378.184,-78.2717"/>
<polygon fill="midnightblue" stroke="midnightblue" points="379.086,-74.8896 368.51,-75.524 377.173,-81.6232 379.086,-74.8896"/>
</g>
<!-- Node15 -->
<g id="node15" class="node"><title>Node15</title>
<g id="a_node15"><a xlink:href="CPDebuggerInterface_8h.html" target="_top" xlink:title="Defines an interface to be implemented by Control Plane modules for compatibility with the debugger...">
<polygon fill="white" stroke="black" points="701,-56.5 701,-75.5 828,-75.5 828,-56.5 701,-56.5"/>
<text text-anchor="middle" x="764.5" y="-63.5" font-family="Helvetica,sans-Serif" font-size="10.00">CPDebuggerInterface.h</text>
</a>
</g>
</g>
<!-- Node1&#45;&gt;Node15 -->
<g id="edge37" class="edge"><title>Node1&#45;&gt;Node15</title>
<path fill="none" stroke="midnightblue" d="M764.5,-168.29C764.5,-145.48 764.5,-108.189 764.5,-85.7807"/>
<polygon fill="midnightblue" stroke="midnightblue" points="768,-85.5748 764.5,-75.5748 761,-85.5748 768,-85.5748"/>
</g>
<!-- Node16 -->
<g id="node16" class="node"><title>Node16</title>
<g id="a_node16"><a xlink:href="DebugDataManager_8h.html" target="_top" xlink:title="Defines class which stores any data about taht simulation that is required by pfpdb. ">
<polygon fill="white" stroke="black" points="877.5,-112.5 877.5,-131.5 997.5,-131.5 997.5,-112.5 877.5,-112.5"/>
<text text-anchor="middle" x="937.5" y="-119.5" font-family="Helvetica,sans-Serif" font-size="10.00">DebugDataManager.h</text>
</a>
</g>
</g>
<!-- Node1&#45;&gt;Node16 -->
<g id="edge25" class="edge"><title>Node1&#45;&gt;Node16</title>
<path fill="none" stroke="midnightblue" d="M816.406,-168.498C845.098,-157.718 879.87,-144.653 904.779,-135.294"/>
<polygon fill="midnightblue" stroke="midnightblue" points="906.341,-138.446 914.471,-131.652 903.879,-131.893 906.341,-138.446"/>
</g>
<!-- Node9&#45;&gt;Node4 -->
<g id="edge9" class="edge"><title>Node9&#45;&gt;Node4</title>
<path fill="none" stroke="midnightblue" d="M600.658,-115.038C550.601,-108.668 484.823,-96.5915 468.5,-76 450.422,-53.1952 487.592,-33.1346 517.115,-21.5338"/>
<polygon fill="midnightblue" stroke="midnightblue" points="518.603,-24.714 526.743,-17.9322 516.15,-18.1577 518.603,-24.714"/>
</g>
<!-- Node9&#45;&gt;Node5 -->
<g id="edge11" class="edge"><title>Node9&#45;&gt;Node5</title>
<path fill="none" stroke="midnightblue" d="M720.29,-113.256C765.483,-106.093 822.261,-93.8401 837.5,-76 848.187,-63.4894 848.682,-44.2623 847.108,-29.961"/>
<polygon fill="midnightblue" stroke="midnightblue" points="850.522,-29.1299 845.557,-19.7702 843.601,-30.1829 850.522,-29.1299"/>
</g>
<!-- Node10 -->
<g id="node10" class="node"><title>Node10</title>
<polygon fill="white" stroke="#bfbfbf" points="977.5,-0.5 977.5,-19.5 1023.5,-19.5 1023.5,-0.5 977.5,-0.5"/>
<text text-anchor="middle" x="1000.5" y="-7.5" font-family="Helvetica,sans-Serif" font-size="10.00">vector</text>
</g>
<!-- Node9&#45;&gt;Node10 -->
<g id="edge10" class="edge"><title>Node9&#45;&gt;Node10</title>
<path fill="none" stroke="midnightblue" d="M709.308,-112.474C749.198,-104.857 806.756,-92.3758 855.5,-76 898.543,-61.5395 946.177,-38.8041 974.706,-24.412"/>
<polygon fill="midnightblue" stroke="midnightblue" points="976.64,-27.3548 983.961,-19.6965 973.462,-21.1176 976.64,-27.3548"/>
</g>
<!-- Node9&#45;&gt;Node11 -->
<g id="edge12" class="edge"><title>Node9&#45;&gt;Node11</title>
<path fill="none" stroke="midnightblue" d="M609.478,-112.444C552.482,-102.885 460.261,-87.4195 399.5,-77.2298"/>
<polygon fill="midnightblue" stroke="midnightblue" points="399.724,-73.7186 389.283,-75.5164 398.567,-80.6222 399.724,-73.7186"/>
</g>
<!-- Node12 -->
<g id="node12" class="node"><title>Node12</title>
<g id="a_node12"><a xlink:href="Breakpoint_8h.html" target="_top" xlink:title="Defines a class representation of a breakpoint. ">
<polygon fill="white" stroke="black" points="510.5,-56.5 510.5,-75.5 586.5,-75.5 586.5,-56.5 510.5,-56.5"/>
<text text-anchor="middle" x="548.5" y="-63.5" font-family="Helvetica,sans-Serif" font-size="10.00">Breakpoint.h</text>
</a>
</g>
</g>
<!-- Node9&#45;&gt;Node12 -->
<g id="edge13" class="edge"><title>Node9&#45;&gt;Node12</title>
<path fill="none" stroke="midnightblue" d="M642.505,-112.324C624.462,-103.625 596.453,-90.1202 575.697,-80.113"/>
<polygon fill="midnightblue" stroke="midnightblue" points="576.978,-76.8449 566.45,-75.6545 573.938,-83.1502 576.978,-76.8449"/>
</g>
<!-- Node14 -->
<g id="node14" class="node"><title>Node14</title>
<g id="a_node14"><a xlink:href="Watchpoint_8h.html" target="_top" xlink:title="Defines a class representation of a watchpoint for the debugger. ">
<polygon fill="white" stroke="black" points="604.5,-56.5 604.5,-75.5 682.5,-75.5 682.5,-56.5 604.5,-56.5"/>
<text text-anchor="middle" x="643.5" y="-63.5" font-family="Helvetica,sans-Serif" font-size="10.00">Watchpoint.h</text>
</a>
</g>
</g>
<!-- Node9&#45;&gt;Node14 -->
<g id="edge17" class="edge"><title>Node9&#45;&gt;Node14</title>
<path fill="none" stroke="midnightblue" d="M657.693,-112.083C655.415,-104.849 652.129,-94.4087 649.292,-85.3968"/>
<polygon fill="midnightblue" stroke="midnightblue" points="652.596,-84.2385 646.255,-75.7511 645.919,-86.3406 652.596,-84.2385"/>
</g>
<!-- Node9&#45;&gt;Node15 -->
<g id="edge20" class="edge"><title>Node9&#45;&gt;Node15</title>
<path fill="none" stroke="midnightblue" d="M677.209,-112.324C693.812,-103.703 719.502,-90.3643 738.72,-80.3855"/>
<polygon fill="midnightblue" stroke="midnightblue" points="740.57,-83.3689 747.832,-75.6545 737.344,-77.1565 740.57,-83.3689"/>
</g>
<!-- Node12&#45;&gt;Node4 -->
<g id="edge14" class="edge"><title>Node12&#45;&gt;Node4</title>
<path fill="none" stroke="midnightblue" d="M548.5,-56.083C548.5,-49.0059 548.5,-38.8611 548.5,-29.9865"/>
<polygon fill="midnightblue" stroke="midnightblue" points="552,-29.751 548.5,-19.7511 545,-29.7511 552,-29.751"/>
</g>
<!-- Node12&#45;&gt;Node5 -->
<g id="edge15" class="edge"><title>Node12&#45;&gt;Node5</title>
<path fill="none" stroke="midnightblue" d="M586.714,-57.6504C589.686,-57.0885 592.641,-56.533 595.5,-56 669.441,-42.2125 755.894,-26.6526 804.722,-17.9163"/>
<polygon fill="midnightblue" stroke="midnightblue" points="805.615,-21.3122 814.843,-16.1068 804.383,-14.4215 805.615,-21.3122"/>
</g>
<!-- Node13 -->
<g id="node13" class="node"><title>Node13</title>
<polygon fill="white" stroke="#bfbfbf" points="746,-0.5 746,-19.5 783,-19.5 783,-0.5 746,-0.5"/>
<text text-anchor="middle" x="764.5" y="-7.5" font-family="Helvetica,sans-Serif" font-size="10.00">map</text>
</g>
<!-- Node12&#45;&gt;Node13 -->
<g id="edge16" class="edge"><title>Node12&#45;&gt;Node13</title>
<path fill="none" stroke="midnightblue" d="M582.726,-56.4435C625.095,-45.8512 696.481,-28.0046 736.01,-18.1225"/>
<polygon fill="midnightblue" stroke="midnightblue" points="736.948,-21.4959 745.8,-15.6749 735.25,-14.7049 736.948,-21.4959"/>
</g>
<!-- Node14&#45;&gt;Node4 -->
<g id="edge18" class="edge"><title>Node14&#45;&gt;Node4</title>
<path fill="none" stroke="midnightblue" d="M628.237,-56.324C613.279,-47.8215 590.245,-34.7288 572.773,-24.7975"/>
<polygon fill="midnightblue" stroke="midnightblue" points="574.149,-21.5534 563.726,-19.6545 570.69,-27.639 574.149,-21.5534"/>
</g>
<!-- Node14&#45;&gt;Node5 -->
<g id="edge19" class="edge"><title>Node14&#45;&gt;Node5</title>
<path fill="none" stroke="midnightblue" d="M675.191,-56.4435C710.328,-46.9565 767.019,-31.65 804.764,-21.4588"/>
<polygon fill="midnightblue" stroke="midnightblue" points="806.132,-24.7148 814.874,-18.729 804.307,-17.9568 806.132,-24.7148"/>
</g>
<!-- Node15&#45;&gt;Node4 -->
<g id="edge21" class="edge"><title>Node15&#45;&gt;Node4</title>
<path fill="none" stroke="midnightblue" d="M730.274,-56.4435C688.909,-46.1023 619.886,-28.8465 579.853,-18.8384"/>
<polygon fill="midnightblue" stroke="midnightblue" points="580.646,-15.4288 570.095,-16.3989 578.948,-22.2198 580.646,-15.4288"/>
</g>
<!-- Node15&#45;&gt;Node5 -->
<g id="edge24" class="edge"><title>Node15&#45;&gt;Node5</title>
<path fill="none" stroke="midnightblue" d="M777.193,-56.324C789.401,-47.979 808.078,-35.2122 822.503,-25.3524"/>
<polygon fill="midnightblue" stroke="midnightblue" points="824.558,-28.1871 830.839,-19.6545 820.608,-22.4082 824.558,-28.1871"/>
</g>
<!-- Node15&#45;&gt;Node10 -->
<g id="edge22" class="edge"><title>Node15&#45;&gt;Node10</title>
<path fill="none" stroke="midnightblue" d="M801.895,-56.4435C847.498,-46.0089 923.869,-28.5342 967.421,-18.569"/>
<polygon fill="midnightblue" stroke="midnightblue" points="968.262,-21.9669 977.23,-16.3245 966.701,-15.1433 968.262,-21.9669"/>
</g>
<!-- Node15&#45;&gt;Node13 -->
<g id="edge23" class="edge"><title>Node15&#45;&gt;Node13</title>
<path fill="none" stroke="midnightblue" d="M764.5,-56.083C764.5,-49.0059 764.5,-38.8611 764.5,-29.9865"/>
<polygon fill="midnightblue" stroke="midnightblue" points="768,-29.751 764.5,-19.7511 761,-29.7511 768,-29.751"/>
</g>
<!-- Node16&#45;&gt;Node4 -->
<g id="edge27" class="edge"><title>Node16&#45;&gt;Node4</title>
<path fill="none" stroke="midnightblue" d="M877.077,-119.166C763.248,-115.086 526.189,-103.369 501.5,-76 486.991,-59.9163 507.465,-39.3807 525.767,-25.7411"/>
<polygon fill="midnightblue" stroke="midnightblue" points="528.255,-28.2696 534.414,-19.6489 524.223,-22.5471 528.255,-28.2696"/>
</g>
<!-- Node16&#45;&gt;Node5 -->
<g id="edge29" class="edge"><title>Node16&#45;&gt;Node5</title>
<path fill="none" stroke="midnightblue" d="M997.746,-119.59C1068.14,-115.824 1170.26,-102.48 1130.5,-56 1114.56,-37.3701 957.273,-21.0805 882.544,-14.3233"/>
<polygon fill="midnightblue" stroke="midnightblue" points="882.416,-10.7981 872.144,-13.3964 881.794,-17.7704 882.416,-10.7981"/>
</g>
<!-- Node16&#45;&gt;Node7 -->
<g id="edge26" class="edge"><title>Node16&#45;&gt;Node7</title>
<path fill="none" stroke="midnightblue" d="M995.16,-112.467C1048.8,-104.222 1130.86,-90.8286 1201.5,-76 1202.78,-75.732 1204.08,-75.4501 1205.39,-75.1581"/>
<polygon fill="midnightblue" stroke="midnightblue" points="1206.54,-78.4824 1215.48,-72.7879 1204.94,-71.668 1206.54,-78.4824"/>
</g>
<!-- Node16&#45;&gt;Node10 -->
<g id="edge28" class="edge"><title>Node16&#45;&gt;Node10</title>
<path fill="none" stroke="midnightblue" d="M997.669,-117.433C1057.38,-112.488 1142.88,-101.129 1163.5,-76 1200.43,-30.9905 1091.39,-16.9581 1033.73,-12.7361"/>
<polygon fill="midnightblue" stroke="midnightblue" points="1033.82,-9.23444 1023.61,-12.0567 1033.35,-16.2187 1033.82,-9.23444"/>
</g>
<!-- Node16&#45;&gt;Node12 -->
<g id="edge32" class="edge"><title>Node16&#45;&gt;Node12</title>
<path fill="none" stroke="midnightblue" d="M877.419,-114.171C811.136,-106.395 701.083,-92.7721 596.763,-76.1258"/>
<polygon fill="midnightblue" stroke="midnightblue" points="597.115,-72.6376 586.687,-74.5055 596.004,-79.5488 597.115,-72.6376"/>
</g>
<!-- Node16&#45;&gt;Node13 -->
<g id="edge30" class="edge"><title>Node16&#45;&gt;Node13</title>
<path fill="none" stroke="midnightblue" d="M924.619,-112.487C905.636,-99.9724 868.991,-75.9367 837.5,-56 820.784,-45.4169 801.751,-33.6952 787.312,-24.8688"/>
<polygon fill="midnightblue" stroke="midnightblue" points="788.916,-21.7478 778.556,-19.5277 785.271,-27.7236 788.916,-21.7478"/>
</g>
<!-- Node16&#45;&gt;Node14 -->
<g id="edge33" class="edge"><title>Node16&#45;&gt;Node14</title>
<path fill="none" stroke="midnightblue" d="M890.329,-112.435C842.928,-103.814 767.49,-90.055 692.61,-76.1994"/>
<polygon fill="midnightblue" stroke="midnightblue" points="693,-72.7123 682.53,-74.3331 691.726,-79.5953 693,-72.7123"/>
</g>
<!-- Node17 -->
<g id="node17" class="node"><title>Node17</title>
<polygon fill="white" stroke="#bfbfbf" points="961,-56.5 961,-75.5 1000,-75.5 1000,-56.5 961,-56.5"/>
<text text-anchor="middle" x="980.5" y="-63.5" font-family="Helvetica,sans-Serif" font-size="10.00">tuple</text>
</g>
<!-- Node16&#45;&gt;Node17 -->
<g id="edge31" class="edge"><title>Node16&#45;&gt;Node17</title>
<path fill="none" stroke="midnightblue" d="M944.601,-112.083C950.737,-104.377 959.77,-93.0333 967.239,-83.6531"/>
<polygon fill="midnightblue" stroke="midnightblue" points="970.04,-85.7542 973.532,-75.7511 964.564,-81.3936 970.04,-85.7542"/>
</g>
<!-- Node18 -->
<g id="node18" class="node"><title>Node18</title>
<g id="a_node18"><a xlink:href="DebuggerPacket_8h.html" target="_top" xlink:title="Defines a class representation of a packet in the debugger context. ">
<polygon fill="white" stroke="black" points="1018,-56.5 1018,-75.5 1121,-75.5 1121,-56.5 1018,-56.5"/>
<text text-anchor="middle" x="1069.5" y="-63.5" font-family="Helvetica,sans-Serif" font-size="10.00">DebuggerPacket.h</text>
</a>
</g>
</g>
<!-- Node16&#45;&gt;Node18 -->
<g id="edge34" class="edge"><title>Node16&#45;&gt;Node18</title>
<path fill="none" stroke="midnightblue" d="M958.416,-112.444C980.236,-103.517 1014.65,-89.4387 1039.39,-79.3168"/>
<polygon fill="midnightblue" stroke="midnightblue" points="1040.75,-82.5422 1048.68,-75.5164 1038.1,-76.0634 1040.75,-82.5422"/>
</g>
<!-- Node18&#45;&gt;Node4 -->
<g id="edge35" class="edge"><title>Node18&#45;&gt;Node4</title>
<path fill="none" stroke="midnightblue" d="M1017.81,-57.0739C1015,-56.6971 1012.22,-56.3363 1009.5,-56 848.621,-36.0955 655.257,-19.6353 580.324,-13.5371"/>
<polygon fill="midnightblue" stroke="midnightblue" points="580.395,-10.0316 570.146,-12.7134 579.831,-17.0087 580.395,-10.0316"/>
</g>
<!-- Node18&#45;&gt;Node10 -->
<g id="edge36" class="edge"><title>Node18&#45;&gt;Node10</title>
<path fill="none" stroke="midnightblue" d="M1058.41,-56.324C1048.01,-48.1849 1032.24,-35.8395 1019.78,-26.0874"/>
<polygon fill="midnightblue" stroke="midnightblue" points="1021.82,-23.2407 1011.79,-19.8339 1017.51,-28.7533 1021.82,-23.2407"/>
</g>
</g>
</svg>
