<?xml version="1.0" encoding="UTF-8" standalone="no"?>
<!DOCTYPE svg PUBLIC "-//W3C//DTD SVG 1.1//EN"
 "http://www.w3.org/Graphics/SVG/1.1/DTD/svg11.dtd">
<!-- Generated by graphviz version 2.38.0 (20140413.2041)
 -->
<!-- Title: /home/lemniscate/workspace/PFPSim/pfpsim/core Pages: 1 -->
<svg width="166pt" height="148pt"
 viewBox="0.00 0.00 166.00 148.00" xmlns="http://www.w3.org/2000/svg" xmlns:xlink="http://www.w3.org/1999/xlink">
<g id="graph0" class="graph" transform="scale(1 1) rotate(0) translate(4 144)">
<title>/home/lemniscate/workspace/PFPSim/pfpsim/core</title>
<polygon fill="white" stroke="none" points="-4,4 -4,-144 162,-144 162,4 -4,4"/>
<g id="clust1" class="cluster"><title>clusterdir_4270bfced15e0e73154b13468c7c9ad9</title>
<g id="a_clust1"><a xlink:href="dir_4270bfced15e0e73154b13468c7c9ad9.html" target="_top">
<polygon fill="#eeeeff" stroke="black" points="8,-8 8,-132 150,-132 150,-8 8,-8"/>
</a>
</g>
</g>
<!-- dir_4270bfced15e0e73154b13468c7c9ad9 -->
<g id="node1" class="node"><title>dir_4270bfced15e0e73154b13468c7c9ad9</title>
<text text-anchor="middle" x="115" y="-103.5" font-family="Helvetica,sans-Serif" font-size="10.00">core</text>
</g>
<!-- dir_72079b220f879653527ebe436ab02db0 -->
<g id="node3" class="node"><title>dir_72079b220f879653527ebe436ab02db0</title>
<g id="a_node3"><a xlink:href="dir_72079b220f879653527ebe436ab02db0.html" target="_top" xlink:title="debugger">
<polygon fill="white" stroke="black" points="141.5,-52 80.5,-52 80.5,-16 141.5,-16 141.5,-52"/>
<text text-anchor="middle" x="111" y="-31.5" font-family="Helvetica,sans-Serif" font-size="10.00">debugger</text>
</a>
</g>
</g>
<!-- dir_4270bfced15e0e73154b13468c7c9ad9&#45;&gt;dir_72079b220f879653527ebe436ab02db0 -->
<g id="edge1" class="edge"><title>dir_4270bfced15e0e73154b13468c7c9ad9&#45;&gt;dir_72079b220f879653527ebe436ab02db0</title>
<path fill="none" stroke="black" d="M114.011,-87.6966C113.57,-79.9827 113.041,-70.7125 112.549,-62.1124"/>
<polygon fill="black" stroke="black" points="116.042,-61.8883 111.977,-52.1043 109.054,-62.2878 116.042,-61.8883"/>
<g id="a_edge1&#45;headlabel"><a xlink:href="dir_000000_000002.html" target="_top" xlink:title="2">
<text text-anchor="middle" x="119.082" y="-62.8152" font-family="Helvetica,sans-Serif" font-size="10.00">2</text>
</a>
</g>
</g>
<!-- dir_4acc5ffb56711905cf7fd4b38d3d736d -->
<g id="node2" class="node"><title>dir_4acc5ffb56711905cf7fd4b38d3d736d</title>
<g id="a_node2"><a xlink:href="dir_4acc5ffb56711905cf7fd4b38d3d736d.html" target="_top" xlink:title="cp">
<polygon fill="white" stroke="black" points="70,-124 16,-124 16,-88 70,-88 70,-124"/>
<text text-anchor="middle" x="43" y="-103.5" font-family="Helvetica,sans-Serif" font-size="10.00">cp</text>
</a>
</g>
</g>
</g>
</svg>
