<?xml version="1.0" encoding="UTF-8" standalone="no"?>
<!DOCTYPE svg PUBLIC "-//W3C//DTD SVG 1.1//EN"
 "http://www.w3.org/Graphics/SVG/1.1/DTD/svg11.dtd">
<!-- Generated by graphviz version 2.38.0 (20140413.2041)
 -->
<!-- Title: Graphical Class Hierarchy Pages: 1 -->
<svg width="389pt" height="823pt"
 viewBox="0.00 0.00 389.00 823.00" xmlns="http://www.w3.org/2000/svg" xmlns:xlink="http://www.w3.org/1999/xlink">
<g id="graph0" class="graph" transform="scale(1 1) rotate(0) translate(4 819)">
<title>Graphical Class Hierarchy</title>
<polygon fill="white" stroke="none" points="-4,4 -4,-819 385,-819 385,4 -4,4"/>
<!-- Node1 -->
<g id="node1" class="node"><title>Node1</title>
<g id="a_node1"><a xlink:href="classpfp_1_1core_1_1db_1_1DebuggerMessage.html" target="_top" xlink:title="Base class for an messages that will be sent to pfpdb via the DebuggerIPCServer. ">
<polygon fill="white" stroke="black" points="0,-398 0,-417 167,-417 167,-398 0,-398"/>
<text text-anchor="middle" x="83.5" y="-405" font-family="Helvetica,sans-Serif" font-size="10.00">pfp::core::db::DebuggerMessage</text>
</a>
</g>
</g>
<!-- Node2 -->
<g id="node2" class="node"><title>Node2</title>
<g id="a_node2"><a xlink:href="classpfp_1_1core_1_1db_1_1AllBreakpointValuesMessage.html" target="_top" xlink:title="Message which returns the list of all breakpoints. ">
<polygon fill="white" stroke="black" points="222,-784.5 222,-814.5 362,-814.5 362,-784.5 222,-784.5"/>
<text text-anchor="start" x="230" y="-802.5" font-family="Helvetica,sans-Serif" font-size="10.00">pfp::core::db::AllBreakpoint</text>
<text text-anchor="middle" x="292" y="-791.5" font-family="Helvetica,sans-Serif" font-size="10.00">ValuesMessage</text>
</a>
</g>
</g>
<!-- Node1&#45;&gt;Node2 -->
<g id="edge1" class="edge"><title>Node1&#45;&gt;Node2</title>
<path fill="none" stroke="midnightblue" d="M84.6745,-427.388C86.3319,-488.773 99.9781,-677.04 203,-775.5 208.381,-780.642 214.752,-784.706 221.568,-787.912"/>
<polygon fill="midnightblue" stroke="midnightblue" points="88.1696,-427.091 84.4827,-417.159 81.1709,-427.223 88.1696,-427.091"/>
</g>
<!-- Node3 -->
<g id="node3" class="node"><title>Node3</title>
<g id="a_node3"><a xlink:href="classpfp_1_1core_1_1db_1_1AllCounterValuesMessage.html" target="_top" xlink:title="Message which returns the value of all the counters. ">
<polygon fill="white" stroke="black" points="229,-735.5 229,-765.5 355,-765.5 355,-735.5 229,-735.5"/>
<text text-anchor="start" x="237" y="-753.5" font-family="Helvetica,sans-Serif" font-size="10.00">pfp::core::db::AllCounter</text>
<text text-anchor="middle" x="292" y="-742.5" font-family="Helvetica,sans-Serif" font-size="10.00">ValuesMessage</text>
</a>
</g>
</g>
<!-- Node1&#45;&gt;Node3 -->
<g id="edge2" class="edge"><title>Node1&#45;&gt;Node3</title>
<path fill="none" stroke="midnightblue" d="M85.7929,-427.283C90.5316,-483.095 111.819,-643.129 203,-726.5 210.363,-733.232 219.431,-738.104 228.92,-741.624"/>
<polygon fill="midnightblue" stroke="midnightblue" points="89.2608,-426.727 85.0137,-417.021 82.2809,-427.257 89.2608,-426.727"/>
</g>
<!-- Node4 -->
<g id="node4" class="node"><title>Node4</title>
<g id="a_node4"><a xlink:href="classpfp_1_1core_1_1db_1_1AllIgnoreModulesMessage.html" target="_top" xlink:title="Message which returns the list of all the modules that are being ignored. ">
<polygon fill="white" stroke="black" points="232.5,-686.5 232.5,-716.5 351.5,-716.5 351.5,-686.5 232.5,-686.5"/>
<text text-anchor="start" x="240.5" y="-704.5" font-family="Helvetica,sans-Serif" font-size="10.00">pfp::core::db::AllIgnore</text>
<text text-anchor="middle" x="292" y="-693.5" font-family="Helvetica,sans-Serif" font-size="10.00">ModulesMessage</text>
</a>
</g>
</g>
<!-- Node1&#45;&gt;Node4 -->
<g id="edge3" class="edge"><title>Node1&#45;&gt;Node4</title>
<path fill="none" stroke="midnightblue" d="M87.2704,-427.195C95.342,-477.015 123.524,-608.948 203,-677.5 211.394,-684.74 221.777,-689.815 232.434,-693.368"/>
<polygon fill="midnightblue" stroke="midnightblue" points="90.7013,-426.476 85.7355,-417.117 83.781,-427.53 90.7013,-426.476"/>
</g>
<!-- Node5 -->
<g id="node5" class="node"><title>Node5</title>
<g id="a_node5"><a xlink:href="classpfp_1_1core_1_1db_1_1AllWatchpointValuesMessage.html" target="_top" xlink:title="Message which returns the list of all the watchpoints. ">
<polygon fill="white" stroke="black" points="221,-637.5 221,-667.5 363,-667.5 363,-637.5 221,-637.5"/>
<text text-anchor="start" x="229" y="-655.5" font-family="Helvetica,sans-Serif" font-size="10.00">pfp::core::db::AllWatchpoint</text>
<text text-anchor="middle" x="292" y="-644.5" font-family="Helvetica,sans-Serif" font-size="10.00">ValuesMessage</text>
</a>
</g>
</g>
<!-- Node1&#45;&gt;Node5 -->
<g id="edge4" class="edge"><title>Node1&#45;&gt;Node5</title>
<path fill="none" stroke="midnightblue" d="M89.3179,-427.057C101.001,-470.277 135.012,-574.366 203,-628.5 208.327,-632.741 214.347,-636.235 220.678,-639.113"/>
<polygon fill="midnightblue" stroke="midnightblue" points="92.6667,-426.028 86.7669,-417.227 85.8911,-427.786 92.6667,-426.028"/>
</g>
<!-- Node6 -->
<g id="node6" class="node"><title>Node6</title>
<g id="a_node6"><a xlink:href="classpfp_1_1core_1_1db_1_1BacktraceReplyMessage.html" target="_top" xlink:title="Message which returns the backtrace of a packet. ">
<polygon fill="white" stroke="black" points="229.5,-588.5 229.5,-618.5 354.5,-618.5 354.5,-588.5 229.5,-588.5"/>
<text text-anchor="start" x="237.5" y="-606.5" font-family="Helvetica,sans-Serif" font-size="10.00">pfp::core::db::Backtrace</text>
<text text-anchor="middle" x="292" y="-595.5" font-family="Helvetica,sans-Serif" font-size="10.00">ReplyMessage</text>
</a>
</g>
</g>
<!-- Node1&#45;&gt;Node6 -->
<g id="edge5" class="edge"><title>Node1&#45;&gt;Node6</title>
<path fill="none" stroke="midnightblue" d="M92.1371,-426.293C107.569,-461.85 145.928,-539.023 203,-579.5 210.879,-585.088 220,-589.376 229.323,-592.666"/>
<polygon fill="midnightblue" stroke="midnightblue" points="95.3521,-424.909 88.2413,-417.055 88.9022,-427.629 95.3521,-424.909"/>
</g>
<!-- Node7 -->
<g id="node7" class="node"><title>Node7</title>
<g id="a_node7"><a xlink:href="classpfp_1_1core_1_1db_1_1BreakpointHitMessage.html" target="_top" xlink:title="Message which indicates that a breakpoint has been hit. ">
<polygon fill="white" stroke="black" points="228,-539.5 228,-569.5 356,-569.5 356,-539.5 228,-539.5"/>
<text text-anchor="start" x="236" y="-557.5" font-family="Helvetica,sans-Serif" font-size="10.00">pfp::core::db::Breakpoint</text>
<text text-anchor="middle" x="292" y="-546.5" font-family="Helvetica,sans-Serif" font-size="10.00">HitMessage</text>
</a>
</g>
</g>
<!-- Node1&#45;&gt;Node7 -->
<g id="edge6" class="edge"><title>Node1&#45;&gt;Node7</title>
<path fill="none" stroke="midnightblue" d="M96.9752,-425.675C116.45,-452.649 156.683,-503.041 203,-530.5 210.628,-535.022 219.13,-538.715 227.758,-541.724"/>
<polygon fill="midnightblue" stroke="midnightblue" points="99.606,-423.333 90.9764,-417.186 93.8894,-427.372 99.606,-423.333"/>
</g>
<!-- Node8 -->
<g id="node8" class="node"><title>Node8</title>
<g id="a_node8"><a xlink:href="classpfp_1_1core_1_1db_1_1CounterValueMessage.html" target="_top" xlink:title="Message which returns the value of a counter. ">
<polygon fill="white" stroke="black" points="221.5,-490.5 221.5,-520.5 362.5,-520.5 362.5,-490.5 221.5,-490.5"/>
<text text-anchor="start" x="229.5" y="-508.5" font-family="Helvetica,sans-Serif" font-size="10.00">pfp::core::db::CounterValue</text>
<text text-anchor="middle" x="292" y="-497.5" font-family="Helvetica,sans-Serif" font-size="10.00">Message</text>
</a>
</g>
</g>
<!-- Node1&#45;&gt;Node8 -->
<g id="edge7" class="edge"><title>Node1&#45;&gt;Node8</title>
<path fill="none" stroke="midnightblue" d="M105.207,-423.066C128.077,-439.611 166.509,-465.543 203,-481.5 210.545,-484.799 218.655,-487.748 226.791,-490.354"/>
<polygon fill="midnightblue" stroke="midnightblue" points="107.097,-420.111 96.9632,-417.018 102.956,-425.755 107.097,-420.111"/>
</g>
<!-- Node9 -->
<g id="node9" class="node"><title>Node9</title>
<g id="a_node9"><a xlink:href="classpfp_1_1core_1_1db_1_1DroppedPacketsMessage.html" target="_top" xlink:title="Message which returns the list of all dropped packets. ">
<polygon fill="white" stroke="black" points="214,-441.5 214,-471.5 370,-471.5 370,-441.5 214,-441.5"/>
<text text-anchor="start" x="222" y="-459.5" font-family="Helvetica,sans-Serif" font-size="10.00">pfp::core::db::DroppedPackets</text>
<text text-anchor="middle" x="292" y="-448.5" font-family="Helvetica,sans-Serif" font-size="10.00">Message</text>
</a>
</g>
</g>
<!-- Node1&#45;&gt;Node9 -->
<g id="edge8" class="edge"><title>Node1&#45;&gt;Node9</title>
<path fill="none" stroke="midnightblue" d="M134.763,-419.427C162.726,-426.062 197.801,-434.385 227.63,-441.463"/>
<polygon fill="midnightblue" stroke="midnightblue" points="135.343,-415.967 124.805,-417.064 133.727,-422.778 135.343,-415.967"/>
</g>
<!-- Node10 -->
<g id="node10" class="node"><title>Node10</title>
<g id="a_node10"><a xlink:href="classpfp_1_1core_1_1db_1_1GenericAcknowledgeMessage.html" target="_top" xlink:title="Message which is sent to indicate that a request was successful or not when the debugger isn&#39;t expect...">
<polygon fill="white" stroke="black" points="203,-392.5 203,-422.5 381,-422.5 381,-392.5 203,-392.5"/>
<text text-anchor="start" x="211" y="-410.5" font-family="Helvetica,sans-Serif" font-size="10.00">pfp::core::db::GenericAcknowledge</text>
<text text-anchor="middle" x="292" y="-399.5" font-family="Helvetica,sans-Serif" font-size="10.00">Message</text>
</a>
</g>
</g>
<!-- Node1&#45;&gt;Node10 -->
<g id="edge9" class="edge"><title>Node1&#45;&gt;Node10</title>
<path fill="none" stroke="midnightblue" d="M177.032,-407.5C185.626,-407.5 194.319,-407.5 202.871,-407.5"/>
<polygon fill="midnightblue" stroke="midnightblue" points="177.005,-404 167.005,-407.5 177.004,-411 177.005,-404"/>
</g>
<!-- Node11 -->
<g id="node11" class="node"><title>Node11</title>
<g id="a_node11"><a xlink:href="classpfp_1_1core_1_1db_1_1PacketDroppedMessage.html" target="_top" xlink:title="Message which indicates that a packet has been dropped. ">
<polygon fill="white" stroke="black" points="216.5,-343.5 216.5,-373.5 367.5,-373.5 367.5,-343.5 216.5,-343.5"/>
<text text-anchor="start" x="224.5" y="-361.5" font-family="Helvetica,sans-Serif" font-size="10.00">pfp::core::db::PacketDropped</text>
<text text-anchor="middle" x="292" y="-350.5" font-family="Helvetica,sans-Serif" font-size="10.00">Message</text>
</a>
</g>
</g>
<!-- Node1&#45;&gt;Node11 -->
<g id="edge10" class="edge"><title>Node1&#45;&gt;Node11</title>
<path fill="none" stroke="midnightblue" d="M134.763,-395.573C162.726,-388.938 197.801,-380.615 227.63,-373.537"/>
<polygon fill="midnightblue" stroke="midnightblue" points="133.727,-392.222 124.805,-397.936 135.343,-399.033 133.727,-392.222"/>
</g>
<!-- Node12 -->
<g id="node12" class="node"><title>Node12</title>
<g id="a_node12"><a xlink:href="classpfp_1_1core_1_1db_1_1PacketListValuesMessage.html" target="_top" xlink:title="Message which returns the list of all the packets currently within the simulation. ">
<polygon fill="white" stroke="black" points="229,-294.5 229,-324.5 355,-324.5 355,-294.5 229,-294.5"/>
<text text-anchor="start" x="237" y="-312.5" font-family="Helvetica,sans-Serif" font-size="10.00">pfp::core::db::PacketList</text>
<text text-anchor="middle" x="292" y="-301.5" font-family="Helvetica,sans-Serif" font-size="10.00">ValuesMessage</text>
</a>
</g>
</g>
<!-- Node1&#45;&gt;Node12 -->
<g id="edge11" class="edge"><title>Node1&#45;&gt;Node12</title>
<path fill="none" stroke="midnightblue" d="M105.645,-391.973C128.615,-375.718 166.878,-350.392 203,-334.5 211.432,-330.79 220.56,-327.479 229.636,-324.574"/>
<polygon fill="midnightblue" stroke="midnightblue" points="103.434,-389.252 97.3469,-397.923 107.513,-394.94 103.434,-389.252"/>
</g>
<!-- Node13 -->
<g id="node13" class="node"><title>Node13</title>
<g id="a_node13"><a xlink:href="classpfp_1_1core_1_1db_1_1SimulationEndMessage.html" target="_top" xlink:title="Message which indicates that the simulation has ended. ">
<polygon fill="white" stroke="black" points="229.5,-245.5 229.5,-275.5 354.5,-275.5 354.5,-245.5 229.5,-245.5"/>
<text text-anchor="start" x="237.5" y="-263.5" font-family="Helvetica,sans-Serif" font-size="10.00">pfp::core::db::Simulation</text>
<text text-anchor="middle" x="292" y="-252.5" font-family="Helvetica,sans-Serif" font-size="10.00">EndMessage</text>
</a>
</g>
</g>
<!-- Node1&#45;&gt;Node13 -->
<g id="edge12" class="edge"><title>Node1&#45;&gt;Node13</title>
<path fill="none" stroke="midnightblue" d="M97.0471,-389.538C116.615,-362.867 156.966,-312.992 203,-285.5 211.045,-280.695 220.056,-276.777 229.16,-273.593"/>
<polygon fill="midnightblue" stroke="midnightblue" points="94.0104,-387.766 91.0171,-397.93 99.6949,-391.851 94.0104,-387.766"/>
</g>
<!-- Node14 -->
<g id="node14" class="node"><title>Node14</title>
<g id="a_node14"><a xlink:href="classpfp_1_1core_1_1db_1_1SimulationStoppedMessage.html" target="_top" xlink:title="Message which indicates that the simulation has stopped. ">
<polygon fill="white" stroke="black" points="229.5,-196.5 229.5,-226.5 354.5,-226.5 354.5,-196.5 229.5,-196.5"/>
<text text-anchor="start" x="237.5" y="-214.5" font-family="Helvetica,sans-Serif" font-size="10.00">pfp::core::db::Simulation</text>
<text text-anchor="middle" x="292" y="-203.5" font-family="Helvetica,sans-Serif" font-size="10.00">StoppedMessage</text>
</a>
</g>
</g>
<!-- Node1&#45;&gt;Node14 -->
<g id="edge13" class="edge"><title>Node1&#45;&gt;Node14</title>
<path fill="none" stroke="midnightblue" d="M92.4283,-388.369C108.122,-352.891 146.578,-276.848 203,-236.5 210.881,-230.865 220.002,-226.495 229.326,-223.109"/>
<polygon fill="midnightblue" stroke="midnightblue" points="89.1871,-387.046 88.4509,-397.616 95.6174,-389.812 89.1871,-387.046"/>
</g>
<!-- Node15 -->
<g id="node15" class="node"><title>Node15</title>
<g id="a_node15"><a xlink:href="classpfp_1_1core_1_1db_1_1SimulationTimeMessage.html" target="_top" xlink:title="Message which returns the current simulation time. ">
<polygon fill="white" stroke="black" points="229.5,-147.5 229.5,-177.5 354.5,-177.5 354.5,-147.5 229.5,-147.5"/>
<text text-anchor="start" x="237.5" y="-165.5" font-family="Helvetica,sans-Serif" font-size="10.00">pfp::core::db::Simulation</text>
<text text-anchor="middle" x="292" y="-154.5" font-family="Helvetica,sans-Serif" font-size="10.00">TimeMessage</text>
</a>
</g>
</g>
<!-- Node1&#45;&gt;Node15 -->
<g id="edge14" class="edge"><title>Node1&#45;&gt;Node15</title>
<path fill="none" stroke="midnightblue" d="M89.3867,-388.082C101.209,-345.16 135.485,-241.736 203,-187.5 210.677,-181.333 219.797,-176.687 229.211,-173.187"/>
<polygon fill="midnightblue" stroke="midnightblue" points="85.9784,-387.28 86.8027,-397.843 92.7453,-389.072 85.9784,-387.28"/>
</g>
<!-- Node16 -->
<g id="node16" class="node"><title>Node16</title>
<g id="a_node16"><a xlink:href="classpfp_1_1core_1_1db_1_1TableEntriesMessage.html" target="_top" xlink:title="Message which returns the list of all the table entries in all of the tables. ">
<polygon fill="white" stroke="black" points="223.5,-98.5 223.5,-128.5 360.5,-128.5 360.5,-98.5 223.5,-98.5"/>
<text text-anchor="start" x="231.5" y="-116.5" font-family="Helvetica,sans-Serif" font-size="10.00">pfp::core::db::TableEntries</text>
<text text-anchor="middle" x="292" y="-105.5" font-family="Helvetica,sans-Serif" font-size="10.00">Message</text>
</a>
</g>
</g>
<!-- Node1&#45;&gt;Node16 -->
<g id="edge15" class="edge"><title>Node1&#45;&gt;Node16</title>
<path fill="none" stroke="midnightblue" d="M87.3371,-387.926C95.5655,-338.404 124.085,-207.202 203,-138.5 208.989,-133.286 215.996,-129.155 223.394,-125.882"/>
<polygon fill="midnightblue" stroke="midnightblue" points="83.8577,-387.522 85.7694,-397.943 90.7736,-388.605 83.8577,-387.522"/>
</g>
<!-- Node17 -->
<g id="node17" class="node"><title>Node17</title>
<g id="a_node17"><a xlink:href="classpfp_1_1core_1_1db_1_1WatchpointHitMessage.html" target="_top" xlink:title="Message which indicates that a watchpoint has been hit. ">
<polygon fill="white" stroke="black" points="226.5,-49.5 226.5,-79.5 357.5,-79.5 357.5,-49.5 226.5,-49.5"/>
<text text-anchor="start" x="234.5" y="-67.5" font-family="Helvetica,sans-Serif" font-size="10.00">pfp::core::db::Watchpoint</text>
<text text-anchor="middle" x="292" y="-56.5" font-family="Helvetica,sans-Serif" font-size="10.00">HitMessage</text>
</a>
</g>
</g>
<!-- Node1&#45;&gt;Node17 -->
<g id="edge16" class="edge"><title>Node1&#45;&gt;Node17</title>
<path fill="none" stroke="midnightblue" d="M85.8912,-387.452C90.866,-331.602 112.669,-172.887 203,-89.5 209.652,-83.3594 217.704,-78.7139 226.204,-75.2021"/>
<polygon fill="midnightblue" stroke="midnightblue" points="82.3765,-387.497 85.0664,-397.744 89.3541,-388.056 82.3765,-387.497"/>
</g>
<!-- Node18 -->
<g id="node18" class="node"><title>Node18</title>
<g id="a_node18"><a xlink:href="classpfp_1_1core_1_1db_1_1WhoAmIReplyMessage.html" target="_top" xlink:title="Message which returns the ID of the packet which is current being followed. ">
<polygon fill="white" stroke="black" points="220,-0.5 220,-30.5 364,-30.5 364,-0.5 220,-0.5"/>
<text text-anchor="start" x="228" y="-18.5" font-family="Helvetica,sans-Serif" font-size="10.00">pfp::core::db::WhoAmIReply</text>
<text text-anchor="middle" x="292" y="-7.5" font-family="Helvetica,sans-Serif" font-size="10.00">Message</text>
</a>
</g>
</g>
<!-- Node1&#45;&gt;Node18 -->
<g id="edge17" class="edge"><title>Node1&#45;&gt;Node18</title>
<path fill="none" stroke="midnightblue" d="M84.7386,-387.712C86.5823,-326.627 100.712,-139.218 203,-40.5 207.914,-35.7574 213.66,-31.9027 219.82,-28.7714"/>
<polygon fill="midnightblue" stroke="midnightblue" points="81.2356,-387.816 84.5149,-397.89 88.2339,-387.97 81.2356,-387.816"/>
</g>
</g>
</svg>
