<?xml version="1.0" encoding="UTF-8" standalone="no"?>
<!DOCTYPE svg PUBLIC "-//W3C//DTD SVG 1.1//EN"
 "http://www.w3.org/Graphics/SVG/1.1/DTD/svg11.dtd">
<!-- Generated by graphviz version 2.38.0 (20140413.2041)
 -->
<!-- Title: Graphical Class Hierarchy Pages: 1 -->
<svg width="484pt" height="142pt"
 viewBox="0.00 0.00 484.00 142.00" xmlns="http://www.w3.org/2000/svg" xmlns:xlink="http://www.w3.org/1999/xlink">
<g id="graph0" class="graph" transform="scale(1 1) rotate(0) translate(4 138)">
<title>Graphical Class Hierarchy</title>
<polygon fill="white" stroke="none" points="-4,4 -4,-138 480,-138 480,4 -4,4"/>
<!-- Node1 -->
<g id="node1" class="node"><title>Node1</title>
<polygon fill="white" stroke="#bfbfbf" points="0,-57.5 0,-76.5 137,-76.5 137,-57.5 0,-57.5"/>
<text text-anchor="middle" x="68.5" y="-64.5" font-family="Helvetica,sans-Serif" font-size="10.00">enable_shared_from_this</text>
</g>
<!-- Node2 -->
<g id="node2" class="node"><title>Node2</title>
<g id="a_node2"><a xlink:href="classpfp_1_1cp_1_1Command.html" target="_top" xlink:title="pfp::cp::Command">
<polygon fill="white" stroke="black" points="173,-57.5 173,-76.5 273,-76.5 273,-57.5 173,-57.5"/>
<text text-anchor="middle" x="223" y="-64.5" font-family="Helvetica,sans-Serif" font-size="10.00">pfp::cp::Command</text>
</a>
</g>
</g>
<!-- Node1&#45;&gt;Node2 -->
<g id="edge1" class="edge"><title>Node1&#45;&gt;Node2</title>
<path fill="none" stroke="midnightblue" d="M147.385,-67C156.007,-67 164.601,-67 172.726,-67"/>
<polygon fill="midnightblue" stroke="midnightblue" points="147.277,-63.5001 137.277,-67 147.277,-70.5001 147.277,-63.5001"/>
</g>
<!-- Node3 -->
<g id="node3" class="node"><title>Node3</title>
<g id="a_node3"><a xlink:href="classpfp_1_1cp_1_1BootCompleteCommand.html" target="_top" xlink:title="pfp::cp::BootCompleteCommand">
<polygon fill="white" stroke="black" points="309,-114.5 309,-133.5 476,-133.5 476,-114.5 309,-114.5"/>
<text text-anchor="middle" x="392.5" y="-121.5" font-family="Helvetica,sans-Serif" font-size="10.00">pfp::cp::BootCompleteCommand</text>
</a>
</g>
</g>
<!-- Node2&#45;&gt;Node3 -->
<g id="edge2" class="edge"><title>Node2&#45;&gt;Node3</title>
<path fill="none" stroke="midnightblue" d="M251.506,-80.9338C267.888,-88.816 289.269,-98.3874 309,-105 319.731,-108.596 331.47,-111.748 342.64,-114.398"/>
<polygon fill="midnightblue" stroke="midnightblue" points="253.009,-77.7727 242.488,-76.5231 249.933,-84.0609 253.009,-77.7727"/>
</g>
<!-- Node4 -->
<g id="node4" class="node"><title>Node4</title>
<g id="a_node4"><a xlink:href="classpfp_1_1cp_1_1DeleteCommand.html" target="_top" xlink:title="pfp::cp::DeleteCommand">
<polygon fill="white" stroke="black" points="327,-76.5 327,-95.5 458,-95.5 458,-76.5 327,-76.5"/>
<text text-anchor="middle" x="392.5" y="-83.5" font-family="Helvetica,sans-Serif" font-size="10.00">pfp::cp::DeleteCommand</text>
</a>
</g>
</g>
<!-- Node2&#45;&gt;Node4 -->
<g id="edge3" class="edge"><title>Node2&#45;&gt;Node4</title>
<path fill="none" stroke="midnightblue" d="M283.418,-73.7399C297.525,-75.3402 312.641,-77.0548 326.965,-78.6796"/>
<polygon fill="midnightblue" stroke="midnightblue" points="283.68,-70.2474 273.35,-72.5979 282.891,-77.2027 283.68,-70.2474"/>
</g>
<!-- Node5 -->
<g id="node5" class="node"><title>Node5</title>
<g id="a_node5"><a xlink:href="classpfp_1_1cp_1_1InsertCommand.html" target="_top" xlink:title="pfp::cp::InsertCommand">
<polygon fill="white" stroke="black" points="329,-38.5 329,-57.5 456,-57.5 456,-38.5 329,-38.5"/>
<text text-anchor="middle" x="392.5" y="-45.5" font-family="Helvetica,sans-Serif" font-size="10.00">pfp::cp::InsertCommand</text>
</a>
</g>
</g>
<!-- Node2&#45;&gt;Node5 -->
<g id="edge4" class="edge"><title>Node2&#45;&gt;Node5</title>
<path fill="none" stroke="midnightblue" d="M283.347,-60.2681C298.079,-58.597 313.915,-56.8007 328.802,-55.1121"/>
<polygon fill="midnightblue" stroke="midnightblue" points="282.891,-56.7973 273.35,-61.4021 283.68,-63.7526 282.891,-56.7973"/>
</g>
<!-- Node6 -->
<g id="node6" class="node"><title>Node6</title>
<g id="a_node6"><a xlink:href="classpfp_1_1cp_1_1ModifyCommand.html" target="_top" xlink:title="pfp::cp::ModifyCommand">
<polygon fill="white" stroke="black" points="327,-0.5 327,-19.5 458,-19.5 458,-0.5 327,-0.5"/>
<text text-anchor="middle" x="392.5" y="-7.5" font-family="Helvetica,sans-Serif" font-size="10.00">pfp::cp::ModifyCommand</text>
</a>
</g>
</g>
<!-- Node2&#45;&gt;Node6 -->
<g id="edge5" class="edge"><title>Node2&#45;&gt;Node6</title>
<path fill="none" stroke="midnightblue" d="M251.506,-53.0662C267.888,-45.184 289.269,-35.6126 309,-29 319.731,-25.4036 331.47,-22.2518 342.64,-19.6024"/>
<polygon fill="midnightblue" stroke="midnightblue" points="249.933,-49.9391 242.488,-57.4769 253.009,-56.2273 249.933,-49.9391"/>
</g>
</g>
</svg>
