<?xml version="1.0" encoding="UTF-8" standalone="no"?>
<!DOCTYPE svg PUBLIC "-//W3C//DTD SVG 1.1//EN"
 "http://www.w3.org/Graphics/SVG/1.1/DTD/svg11.dtd">
<!-- Generated by graphviz version 2.38.0 (20140413.2041)
 -->
<!-- Title: Graphical Class Hierarchy Pages: 1 -->
<svg width="286pt" height="142pt"
 viewBox="0.00 0.00 286.00 142.00" xmlns="http://www.w3.org/2000/svg" xmlns:xlink="http://www.w3.org/1999/xlink">
<g id="graph0" class="graph" transform="scale(1 1) rotate(0) translate(4 138)">
<title>Graphical Class Hierarchy</title>
<polygon fill="white" stroke="none" points="-4,4 -4,-138 282,-138 282,4 -4,4"/>
<!-- Node1 -->
<g id="node1" class="node"><title>Node1</title>
<g id="a_node1"><a xlink:href="classpfp_1_1cp_1_1CommandResult.html" target="_top" xlink:title="pfp::cp::CommandResult">
<polygon fill="white" stroke="black" points="0,-57.5 0,-76.5 129,-76.5 129,-57.5 0,-57.5"/>
<text text-anchor="middle" x="64.5" y="-64.5" font-family="Helvetica,sans-Serif" font-size="10.00">pfp::cp::CommandResult</text>
</a>
</g>
</g>
<!-- Node2 -->
<g id="node2" class="node"><title>Node2</title>
<g id="a_node2"><a xlink:href="classpfp_1_1cp_1_1DeleteResult.html" target="_top" xlink:title="pfp::cp::DeleteResult">
<polygon fill="white" stroke="black" points="165.5,-114.5 165.5,-133.5 277.5,-133.5 277.5,-114.5 165.5,-114.5"/>
<text text-anchor="middle" x="221.5" y="-121.5" font-family="Helvetica,sans-Serif" font-size="10.00">pfp::cp::DeleteResult</text>
</a>
</g>
</g>
<!-- Node1&#45;&gt;Node2 -->
<g id="edge1" class="edge"><title>Node1&#45;&gt;Node2</title>
<path fill="none" stroke="midnightblue" d="M99.4534,-80.3045C118.634,-87.7354 143.087,-97.0674 165,-105 173.714,-108.155 183.246,-111.467 191.913,-114.427"/>
<polygon fill="midnightblue" stroke="midnightblue" points="100.534,-76.9694 89.9451,-76.6093 97.9982,-83.494 100.534,-76.9694"/>
</g>
<!-- Node3 -->
<g id="node3" class="node"><title>Node3</title>
<g id="a_node3"><a xlink:href="classpfp_1_1cp_1_1FailedResult.html" target="_top" xlink:title="pfp::cp::FailedResult">
<polygon fill="white" stroke="black" points="166.5,-76.5 166.5,-95.5 276.5,-95.5 276.5,-76.5 166.5,-76.5"/>
<text text-anchor="middle" x="221.5" y="-83.5" font-family="Helvetica,sans-Serif" font-size="10.00">pfp::cp::FailedResult</text>
</a>
</g>
</g>
<!-- Node1&#45;&gt;Node3 -->
<g id="edge2" class="edge"><title>Node1&#45;&gt;Node3</title>
<path fill="none" stroke="midnightblue" d="M139.505,-76.0715C148.466,-77.17 157.489,-78.2761 166.095,-79.3309"/>
<polygon fill="midnightblue" stroke="midnightblue" points="139.791,-72.5805 129.439,-74.8377 138.939,-79.5285 139.791,-72.5805"/>
</g>
<!-- Node4 -->
<g id="node4" class="node"><title>Node4</title>
<g id="a_node4"><a xlink:href="classpfp_1_1cp_1_1InsertResult.html" target="_top" xlink:title="pfp::cp::InsertResult">
<polygon fill="white" stroke="black" points="167.5,-38.5 167.5,-57.5 275.5,-57.5 275.5,-38.5 167.5,-38.5"/>
<text text-anchor="middle" x="221.5" y="-45.5" font-family="Helvetica,sans-Serif" font-size="10.00">pfp::cp::InsertResult</text>
</a>
</g>
</g>
<!-- Node1&#45;&gt;Node4 -->
<g id="edge3" class="edge"><title>Node1&#45;&gt;Node4</title>
<path fill="none" stroke="midnightblue" d="M139.485,-57.9309C148.79,-56.7902 158.163,-55.6413 167.066,-54.5499"/>
<polygon fill="midnightblue" stroke="midnightblue" points="138.939,-54.4715 129.439,-59.1623 139.791,-61.4195 138.939,-54.4715"/>
</g>
<!-- Node5 -->
<g id="node5" class="node"><title>Node5</title>
<g id="a_node5"><a xlink:href="classpfp_1_1cp_1_1ModifyResult.html" target="_top" xlink:title="pfp::cp::ModifyResult">
<polygon fill="white" stroke="black" points="165,-0.5 165,-19.5 278,-19.5 278,-0.5 165,-0.5"/>
<text text-anchor="middle" x="221.5" y="-7.5" font-family="Helvetica,sans-Serif" font-size="10.00">pfp::cp::ModifyResult</text>
</a>
</g>
</g>
<!-- Node1&#45;&gt;Node5 -->
<g id="edge4" class="edge"><title>Node1&#45;&gt;Node5</title>
<path fill="none" stroke="midnightblue" d="M99.4534,-53.6955C118.634,-46.2646 143.087,-36.9326 165,-29 173.714,-25.8454 183.246,-22.5327 191.913,-19.5729"/>
<polygon fill="midnightblue" stroke="midnightblue" points="97.9982,-50.506 89.9451,-57.3907 100.534,-57.0306 97.9982,-50.506"/>
</g>
</g>
</svg>
