<?xml version="1.0" encoding="UTF-8" standalone="no"?>
<!DOCTYPE svg PUBLIC "-//W3C//DTD SVG 1.1//EN"
 "http://www.w3.org/Graphics/SVG/1.1/DTD/svg11.dtd">
<!-- Generated by graphviz version 2.38.0 (20140413.2041)
 -->
<!-- Title: /home/lemniscate/workspace/PFPSim/pfpsim/core/PFPObserver.h Pages: 1 -->
<svg width="196pt" height="95pt"
 viewBox="0.00 0.00 196.00 95.00" xmlns="http://www.w3.org/2000/svg" xmlns:xlink="http://www.w3.org/1999/xlink">
<g id="graph0" class="graph" transform="scale(1 1) rotate(0) translate(4 91)">
<title>/home/lemniscate/workspace/PFPSim/pfpsim/core/PFPObserver.h</title>
<polygon fill="white" stroke="none" points="-4,4 -4,-91 192,-91 192,4 -4,4"/>
<!-- Node1 -->
<g id="node1" class="node"><title>Node1</title>
<polygon fill="#bfbfbf" stroke="black" points="0,-56.5 0,-86.5 188,-86.5 188,-56.5 0,-56.5"/>
<text text-anchor="start" x="8" y="-74.5" font-family="Helvetica,sans-Serif" font-size="10.00">/home/lemniscate/workspace</text>
<text text-anchor="middle" x="94" y="-63.5" font-family="Helvetica,sans-Serif" font-size="10.00">/PFPSim/pfpsim/core/PFPObserver.h</text>
</g>
<!-- Node2 -->
<g id="node2" class="node"><title>Node2</title>
<polygon fill="white" stroke="#bfbfbf" points="39.5,-0.5 39.5,-19.5 82.5,-19.5 82.5,-0.5 39.5,-0.5"/>
<text text-anchor="middle" x="61" y="-7.5" font-family="Helvetica,sans-Serif" font-size="10.00">string</text>
</g>
<!-- Node1&#45;&gt;Node2 -->
<g id="edge1" class="edge"><title>Node1&#45;&gt;Node2</title>
<path fill="none" stroke="midnightblue" d="M86.1795,-56.3993C81.5325,-48.0207 75.6015,-37.3269 70.6631,-28.4229"/>
<polygon fill="midnightblue" stroke="midnightblue" points="73.7128,-26.7052 65.8018,-19.6578 67.5913,-30.1004 73.7128,-26.7052"/>
</g>
<!-- Node3 -->
<g id="node3" class="node"><title>Node3</title>
<polygon fill="white" stroke="#bfbfbf" points="101,-0.5 101,-19.5 155,-19.5 155,-0.5 101,-0.5"/>
<text text-anchor="middle" x="128" y="-7.5" font-family="Helvetica,sans-Serif" font-size="10.00">memory</text>
</g>
<!-- Node1&#45;&gt;Node3 -->
<g id="edge2" class="edge"><title>Node1&#45;&gt;Node3</title>
<path fill="none" stroke="midnightblue" d="M102.058,-56.3993C106.845,-48.0207 112.956,-37.3269 118.044,-28.4229"/>
<polygon fill="midnightblue" stroke="midnightblue" points="121.13,-30.0767 123.053,-19.6578 115.052,-26.6037 121.13,-30.0767"/>
</g>
</g>
</svg>
