<?xml version="1.0" encoding="UTF-8" standalone="no"?>
<!DOCTYPE svg PUBLIC "-//W3C//DTD SVG 1.1//EN"
 "http://www.w3.org/Graphics/SVG/1.1/DTD/svg11.dtd">
<!-- Generated by graphviz version 2.38.0 (20140413.2041)
 -->
<!-- Title: /home/lemniscate/workspace/PFPSim/pfpsim/core/PFPObserver.h Pages: 1 -->
<svg width="451pt" height="251pt"
 viewBox="0.00 0.00 451.35 251.00" xmlns="http://www.w3.org/2000/svg" xmlns:xlink="http://www.w3.org/1999/xlink">
<g id="graph0" class="graph" transform="scale(1 1) rotate(0) translate(4 247)">
<title>/home/lemniscate/workspace/PFPSim/pfpsim/core/PFPObserver.h</title>
<polygon fill="white" stroke="none" points="-4,4 -4,-247 447.35,-247 447.35,4 -4,4"/>
<!-- Node1 -->
<g id="node1" class="node"><title>Node1</title>
<polygon fill="#bfbfbf" stroke="black" points="225.218,-212.5 225.218,-242.5 413.218,-242.5 413.218,-212.5 225.218,-212.5"/>
<text text-anchor="start" x="233.218" y="-230.5" font-family="Helvetica,sans-Serif" font-size="10.00">/home/lemniscate/workspace</text>
<text text-anchor="middle" x="319.218" y="-219.5" font-family="Helvetica,sans-Serif" font-size="10.00">/PFPSim/pfpsim/core/PFPObserver.h</text>
</g>
<!-- Node2 -->
<g id="node2" class="node"><title>Node2</title>
<g id="a_node2"><a xlink:href="PFPObject_8h_source.html" target="_top" xlink:title="/home/lemniscate/workspace\l/PFPSim/pfpsim/core/PFPObject.h">
<polygon fill="white" stroke="black" points="32.7178,-140 32.7178,-170 207.718,-170 207.718,-140 32.7178,-140"/>
<text text-anchor="start" x="40.7178" y="-158" font-family="Helvetica,sans-Serif" font-size="10.00">/home/lemniscate/workspace</text>
<text text-anchor="middle" x="120.218" y="-147" font-family="Helvetica,sans-Serif" font-size="10.00">/PFPSim/pfpsim/core/PFPObject.h</text>
</a>
</g>
</g>
<!-- Node1&#45;&gt;Node2 -->
<g id="edge1" class="edge"><title>Node1&#45;&gt;Node2</title>
<path fill="none" stroke="midnightblue" d="M269.721,-208.965C235.842,-196.962 191.512,-181.258 159.941,-170.073"/>
<polygon fill="midnightblue" stroke="midnightblue" points="268.831,-212.362 279.425,-212.403 271.168,-205.764 268.831,-212.362"/>
</g>
<!-- Node4 -->
<g id="node4" class="node"><title>Node4</title>
<g id="a_node4"><a xlink:href="pfpsim_8h_source.html" target="_top" xlink:title="/home/lemniscate/workspace\l/PFPSim/pfpsim/pfpsim.h">
<polygon fill="white" stroke="black" points="242.718,-0.5 242.718,-30.5 395.718,-30.5 395.718,-0.5 242.718,-0.5"/>
<text text-anchor="start" x="250.718" y="-18.5" font-family="Helvetica,sans-Serif" font-size="10.00">/home/lemniscate/workspace</text>
<text text-anchor="middle" x="319.218" y="-7.5" font-family="Helvetica,sans-Serif" font-size="10.00">/PFPSim/pfpsim/pfpsim.h</text>
</a>
</g>
</g>
<!-- Node1&#45;&gt;Node4 -->
<g id="edge8" class="edge"><title>Node1&#45;&gt;Node4</title>
<path fill="none" stroke="midnightblue" d="M367.316,-207.926C382.269,-200.074 397.599,-189.547 408.218,-176 438.706,-137.103 456.967,-108.557 430.218,-67 418.988,-49.5537 400.09,-38.0641 381.039,-30.5274"/>
<polygon fill="midnightblue" stroke="midnightblue" points="365.519,-204.909 358.099,-212.472 368.616,-211.187 365.519,-204.909"/>
</g>
<!-- Node6 -->
<g id="node6" class="node"><title>Node6</title>
<g id="a_node6"><a xlink:href="DebugObserver_8h.html" target="_top" xlink:title="Observer for simulation which maintains a record of the simulation via the DebugDataManager so that t...">
<polygon fill="white" stroke="black" points="238.718,-134.5 238.718,-175.5 399.718,-175.5 399.718,-134.5 238.718,-134.5"/>
<text text-anchor="start" x="246.718" y="-163.5" font-family="Helvetica,sans-Serif" font-size="10.00">/home/lemniscate/workspace</text>
<text text-anchor="start" x="246.718" y="-152.5" font-family="Helvetica,sans-Serif" font-size="10.00">/PFPSim/pfpsim/core/debugger</text>
<text text-anchor="middle" x="319.218" y="-141.5" font-family="Helvetica,sans-Serif" font-size="10.00">/DebugObserver.h</text>
</a>
</g>
</g>
<!-- Node1&#45;&gt;Node6 -->
<g id="edge6" class="edge"><title>Node1&#45;&gt;Node6</title>
<path fill="none" stroke="midnightblue" d="M319.218,-201.982C319.218,-193.347 319.218,-183.762 319.218,-175.588"/>
<polygon fill="midnightblue" stroke="midnightblue" points="315.718,-202.233 319.218,-212.233 322.718,-202.233 315.718,-202.233"/>
</g>
<!-- Node3 -->
<g id="node3" class="node"><title>Node3</title>
<g id="a_node3"><a xlink:href="DebuggerUtilities_8h_source.html" target="_top" xlink:title="/home/lemniscate/workspace\l/PFPSim/pfpsim/core/DebuggerUtilities.h">
<polygon fill="white" stroke="black" points="216.718,-67.5 216.718,-97.5 421.718,-97.5 421.718,-67.5 216.718,-67.5"/>
<text text-anchor="start" x="224.718" y="-85.5" font-family="Helvetica,sans-Serif" font-size="10.00">/home/lemniscate/workspace</text>
<text text-anchor="middle" x="319.218" y="-74.5" font-family="Helvetica,sans-Serif" font-size="10.00">/PFPSim/pfpsim/core/DebuggerUtilities.h</text>
</a>
</g>
</g>
<!-- Node2&#45;&gt;Node3 -->
<g id="edge2" class="edge"><title>Node2&#45;&gt;Node3</title>
<path fill="none" stroke="midnightblue" d="M169.715,-136.465C203.594,-124.462 247.923,-108.758 279.494,-97.5729"/>
<polygon fill="midnightblue" stroke="midnightblue" points="168.267,-133.264 160.01,-139.903 170.605,-139.862 168.267,-133.264"/>
</g>
<!-- Node2&#45;&gt;Node4 -->
<g id="edge5" class="edge"><title>Node2&#45;&gt;Node4</title>
<path fill="none" stroke="midnightblue" d="M66.1084,-136.29C26.3312,-120.436 -16.9243,-95.3639 7.21784,-67 36.8706,-32.1618 160.269,-21.2824 242.706,-17.931"/>
<polygon fill="midnightblue" stroke="midnightblue" points="64.9814,-139.606 75.5715,-139.922 67.4898,-133.071 64.9814,-139.606"/>
</g>
<!-- Node5 -->
<g id="node5" class="node"><title>Node5</title>
<g id="a_node5"><a xlink:href="PFPContext_8h_source.html" target="_top" xlink:title="/home/lemniscate/workspace\l/PFPSim/pfpsim/core/PFPContext.h">
<polygon fill="white" stroke="black" points="16.2178,-67.5 16.2178,-97.5 198.218,-97.5 198.218,-67.5 16.2178,-67.5"/>
<text text-anchor="start" x="24.2178" y="-85.5" font-family="Helvetica,sans-Serif" font-size="10.00">/home/lemniscate/workspace</text>
<text text-anchor="middle" x="107.218" y="-74.5" font-family="Helvetica,sans-Serif" font-size="10.00">/PFPSim/pfpsim/core/PFPContext.h</text>
</a>
</g>
</g>
<!-- Node2&#45;&gt;Node5 -->
<g id="edge4" class="edge"><title>Node2&#45;&gt;Node5</title>
<path fill="none" stroke="midnightblue" d="M115.743,-129.732C113.776,-119.068 111.535,-106.914 109.845,-97.7455"/>
<polygon fill="midnightblue" stroke="midnightblue" points="112.332,-130.534 117.587,-139.733 119.216,-129.264 112.332,-130.534"/>
</g>
<!-- Node3&#45;&gt;Node4 -->
<g id="edge3" class="edge"><title>Node3&#45;&gt;Node4</title>
<path fill="none" stroke="midnightblue" d="M319.218,-57.1081C319.218,-48.1539 319.218,-38.3227 319.218,-30.5765"/>
<polygon fill="midnightblue" stroke="midnightblue" points="315.718,-57.3959 319.218,-67.396 322.718,-57.396 315.718,-57.3959"/>
</g>
<!-- Node6&#45;&gt;Node3 -->
<g id="edge7" class="edge"><title>Node6&#45;&gt;Node3</title>
<path fill="none" stroke="midnightblue" d="M319.218,-124.08C319.218,-115.006 319.218,-105.45 319.218,-97.8916"/>
<polygon fill="midnightblue" stroke="midnightblue" points="315.718,-124.362 319.218,-134.362 322.718,-124.362 315.718,-124.362"/>
</g>
</g>
</svg>
