<?xml version="1.0" encoding="UTF-8" standalone="no"?>
<!DOCTYPE svg PUBLIC "-//W3C//DTD SVG 1.1//EN"
 "http://www.w3.org/Graphics/SVG/1.1/DTD/svg11.dtd">
<!-- Generated by graphviz version 2.38.0 (20140413.2041)
 -->
<!-- Title: /home/lemniscate/workspace/PFPSim/pfpsim/core/debugger/Watchpoint.h Pages: 1 -->
<svg width="169pt" height="106pt"
 viewBox="0.00 0.00 169.00 106.00" xmlns="http://www.w3.org/2000/svg" xmlns:xlink="http://www.w3.org/1999/xlink">
<g id="graph0" class="graph" transform="scale(1 1) rotate(0) translate(4 102)">
<title>/home/lemniscate/workspace/PFPSim/pfpsim/core/debugger/Watchpoint.h</title>
<polygon fill="white" stroke="none" points="-4,4 -4,-102 165,-102 165,4 -4,4"/>
<!-- Node1 -->
<g id="node1" class="node"><title>Node1</title>
<polygon fill="#bfbfbf" stroke="black" points="0,-56.5 0,-97.5 161,-97.5 161,-56.5 0,-56.5"/>
<text text-anchor="start" x="8" y="-85.5" font-family="Helvetica,sans-Serif" font-size="10.00">/home/lemniscate/workspace</text>
<text text-anchor="start" x="8" y="-74.5" font-family="Helvetica,sans-Serif" font-size="10.00">/PFPSim/pfpsim/core/debugger</text>
<text text-anchor="middle" x="80.5" y="-63.5" font-family="Helvetica,sans-Serif" font-size="10.00">/Watchpoint.h</text>
</g>
<!-- Node2 -->
<g id="node2" class="node"><title>Node2</title>
<polygon fill="white" stroke="#bfbfbf" points="25,-0.5 25,-19.5 68,-19.5 68,-0.5 25,-0.5"/>
<text text-anchor="middle" x="46.5" y="-7.5" font-family="Helvetica,sans-Serif" font-size="10.00">string</text>
</g>
<!-- Node1&#45;&gt;Node2 -->
<g id="edge1" class="edge"><title>Node1&#45;&gt;Node2</title>
<path fill="none" stroke="midnightblue" d="M70.2989,-56.4979C65.6875,-47.682 60.2771,-37.3385 55.7811,-28.7432"/>
<polygon fill="midnightblue" stroke="midnightblue" points="58.7623,-26.8912 51.0259,-19.6525 52.5596,-30.1357 58.7623,-26.8912"/>
</g>
<!-- Node3 -->
<g id="node3" class="node"><title>Node3</title>
<polygon fill="white" stroke="#bfbfbf" points="86,-0.5 86,-19.5 143,-19.5 143,-0.5 86,-0.5"/>
<text text-anchor="middle" x="114.5" y="-7.5" font-family="Helvetica,sans-Serif" font-size="10.00">iostream</text>
</g>
<!-- Node1&#45;&gt;Node3 -->
<g id="edge2" class="edge"><title>Node1&#45;&gt;Node3</title>
<path fill="none" stroke="midnightblue" d="M90.7011,-56.4979C95.3125,-47.682 100.723,-37.3385 105.219,-28.7432"/>
<polygon fill="midnightblue" stroke="midnightblue" points="108.44,-30.1357 109.974,-19.6525 102.238,-26.8912 108.44,-30.1357"/>
</g>
</g>
</svg>
